<svg xmlns="http://www.w3.org/2000/svg" xmlns:xlink="http://www.w3.org/1999/xlink" width="134" height="102" viewBox="0 0 134 102">
    <defs>
        <linearGradient id="wht2ubntoa" x1="61.373%" x2="20.16%" y1="94.538%" y2="12.325%">
            <stop offset="0%" stop-color="#B39C7D"/>
            <stop offset="99.942%" stop-color="#6F6558"/>
        </linearGradient>
        <linearGradient id="3fv0cu8jed" x1="50%" x2="25.574%" y1="73.362%" y2="18.068%">
            <stop offset="0%" stop-color="#F2EDE6"/>
            <stop offset="100%" stop-color="#F2EDE6" stop-opacity=".5"/>
        </linearGradient>
        <filter id="erhxlmg4wc" width="103.7%" height="103.8%" x="-1.9%" y="-1.9%" filterUnits="objectBoundingBox">
            <feOffset dx="-3" dy="-3" in="SourceAlpha" result="shadowOffsetInner1"/>
            <feComposite in="shadowOffsetInner1" in2="SourceAlpha" k2="-1" k3="1" operator="arithmetic" result="shadowInnerInner1"/>
            <feColorMatrix in="shadowInnerInner1" values="0 0 0 0 1 0 0 0 0 1 0 0 0 0 1 0 0 0 0.3 0"/>
        </filter>
        <path id="ypjzr4r0jb" d="M121.105 88.105c17.198-17.197 19.899-42.378 6.034-56.244-13.866-13.865-39.047-11.164-56.244 6.034-17.198 17.197-19.899 42.378-6.034 56.244 13.866 13.865 39.047 11.164 56.244-6.034z"/>
    </defs>
    <g fill="none" fill-rule="evenodd">
        <g>
            <g>
                <g>
                    <g transform="translate(-536 -820) translate(200 791) translate(334 28)">
                        <g>
                            <use fill="url(#wht2ubntoa)" xlink:href="#ypjzr4r0jb"/>
                            <use fill="#000" filter="url(#erhxlmg4wc)" xlink:href="#ypjzr4r0jb"/>
                        </g>
                        <path fill="url(#3fv0cu8jed)" fill-rule="nonzero" d="M92.658 62.344l14.23 15.872L91.11 83.96l-12.952-5.844 14.5-15.771zm16.096-18.696c3.596 4.466 5.598 10.292 5.625 16.375.075 6.104-1.941 12.058-5.625 16.625L94.381 60.466l14.373-16.818zm-16.837-6.562L76.596 77.023c-3.647-4.323-4.805-10.58-4.804-16.61l20.125-23.327zm1.14-.416l13.905 5.81L78.3 76.403 93.058 36.67z" transform="rotate(20 93.087 60.314)"/>
                        <ellipse cx="38" cy="39.217" fill="#E6D2B8" rx="8" ry="5.217" transform="rotate(65 38 39.217)"/>
                        <ellipse cx="69" cy="9.217" fill="#E6D2B8" rx="8" ry="5.217" transform="rotate(-99 69 9.217)"/>
                        <ellipse cx="29" cy="94.217" fill="#F2EDE6" rx="8" ry="5.217" transform="rotate(-30 29 94.217)"/>
                        <ellipse cx="10" cy="40.217" fill="#E6D2B8" rx="8" ry="5.217" transform="rotate(30 10 40.217)"/>
                        <circle cx="35" cy="63" r="4" fill="#E6D2B8"/>
                    </g>
                </g>
            </g>
        </g>
    </g>
</svg>
