<svg xmlns="http://www.w3.org/2000/svg" xmlns:xlink="http://www.w3.org/1999/xlink" width="88" height="95" viewBox="0 0 88 95">
    <defs>
        <filter id="yueuujtd1b" width="102.9%" height="102.1%" x="-1.4%" y="-1.1%" filterUnits="objectBoundingBox">
            <feOffset dx="-2" dy="-2" in="SourceAlpha" result="shadowOffsetInner1"/>
            <feComposite in="shadowOffsetInner1" in2="SourceAlpha" k2="-1" k3="1" operator="arithmetic" result="shadowInnerInner1"/>
            <feColorMatrix in="shadowInnerInner1" result="shadowMatrixInner1" values="0 0 0 0 1 0 0 0 0 1 0 0 0 0 1 0 0 0 0.6 0"/>
            <feOffset dx="1" dy="1" in="SourceAlpha" result="shadowOffsetInner2"/>
            <feComposite in="shadowOffsetInner2" in2="SourceAlpha" k2="-1" k3="1" operator="arithmetic" result="shadowInnerInner2"/>
            <feColorMatrix in="shadowInnerInner2" result="shadowMatrixInner2" values="0 0 0 0 0 0 0 0 0 0 0 0 0 0 0 0 0 0 0.1 0"/>
            <feMerge>
                <feMergeNode in="shadowMatrixInner1"/>
                <feMergeNode in="shadowMatrixInner2"/>
            </feMerge>
        </filter>
        <path id="tm0pv1f49a" d="M43.5 95C69.535 95 78 73.66 78 47.307 78 20.954 69.535 0 43.5 0S9 20.954 9 47.307 17.465 95 43.5 95zm0-21c-8.813 0-11.44-11.618-11.499-26.18L32 47.31C32 32.637 34.584 21 43.5 21S55 32.637 55 47.31C55 62.11 52.416 74 43.5 74z"/>
    </defs>
    <g fill="none" fill-rule="evenodd">
        <g>
            <g>
                <g>
                    <g fill-rule="nonzero" transform="translate(-1112 -824) translate(740 791) translate(372 33)">
                        <use fill="#FF9632" xlink:href="#tm0pv1f49a"/>
                        <use fill="#000" filter="url(#yueuujtd1b)" xlink:href="#tm0pv1f49a"/>
                    </g>
                    <path fill="#E66D16" d="M0 47H88V49H0z" transform="translate(-1112 -824) translate(740 791) translate(372 33)"/>
                </g>
            </g>
        </g>
    </g>
</svg>
