<svg xmlns="http://www.w3.org/2000/svg" width="1046" height="606" viewBox="0 0 1046 606">
    <defs>
        <radialGradient id="2fqv6mfoea" cx="43.977%" cy="58.674%" r="101.741%" fx="43.977%" fy="58.674%" gradientTransform="matrix(.50974 -.46057 .13647 .458 .136 .52)">
            <stop offset=".095%" stop-color="#FF9632" stop-opacity=".2"/>
            <stop offset="100%" stop-color="#FF9632" stop-opacity="0"/>
            <stop offset="100%" stop-color="#FF9632" stop-opacity="0"/>
        </radialGradient>
        <linearGradient id="hnp1gch6sc" x1="100%" x2="0%" y1="33.256%" y2="66.744%">
            <stop offset="0%" stop-color="#FF9632" stop-opacity="0"/>
            <stop offset="14.807%" stop-color="#E66D16"/>
            <stop offset="100%" stop-color="#E66D16" stop-opacity="0"/>
        </linearGradient>
        <filter id="d8umg4o3xb" width="100%" height="100%" x="0%" y="0%" filterUnits="objectBoundingBox">
            <feGaussianBlur in="SourceGraphic"/>
        </filter>
    </defs>
    <g fill="none" fill-rule="evenodd">
        <g>
            <g>
                <path fill="url(#2fqv6mfoea)" d="M3.722 603c62.325-52.018 112.054-78.027 149.186-78.027 18.245 0 52.946 5.924 88.075-3.064 24.865-6.362 52.904-35.692 73.074-36.187 38.33-.94 49.254 28.645 78.943 16.278 16.643-6.933 10.978-48 49.36-48 22.903 0 22.317-57.004 56.92-45.457 34.601 11.547 41.686-39.441 67.118-39.441 25.433 0 36.399 63.293 58.57 54.437 22.17-8.855 49.83-107.802 83.032-113.123 23.4-3.75 52.818 27.142 79.2 25.068 52.62-4.136 91.934-63.578 106.6-93.21C925 179.235 910.651 115.434 942.656 93 957 82.945 968.5 113.258 980 113.258S991.5 62 1003 48.102c40 39.898 29.684-37.93 45.055-44.823 0 45.082-1.685 244.993-5.055 599.732L3.722 603z" style="mix-blend-mode:normal" filter="url(#d8umg4o3xb)" transform="translate(-196 -187) translate(196 187)"/>
                <path fill="url(#hnp1gch6sc)" fill-rule="nonzero" d="M748.944 324.145c-12.026-7.855-20.463-11.326-31.111-11.307-9.891.018-19.205 5.796-28.586 17.043l-.7.849c-7.222 8.847-13.893 19.96-22.928 37.257l-10.186 19.7-.78 1.484c-3.335 6.32-6.089 11.252-8.757 15.608l-.733 1.186c-6.328 10.132-11.996 16.553-17.919 19.597-4.789 2.461-9.842 1.5-15.023-2.26-4.085-2.964-8.271-7.61-13.26-14.364l-1.012-1.384c-1.548-2.132-3.118-4.382-5.36-7.66l-3.6-5.278c-6.981-10.202-10.05-14.299-13.867-18.22l-.176-.18c-5.163-5.265-9.077-6.815-12.355-4.983-6.572 3.675-11.76 8.648-17.585 16.175l-.474.616c-1.414 1.849-6.304 8.554-7.364 9.95-4.965 6.532-8.856 10.333-13.67 12.646-9.39 4.512-14.759 4.878-21.643 2.62l-.569-.19-1.527-.532-1.018-.346c-3.956-1.308-6.597-1.699-10.652-1.317-2.413.228-5.152 2.288-8.414 6.356l-.533.676c-1.254 1.617-2.58 3.51-4.132 5.872l-.873 1.343c-1.325 2.062-4.927 7.778-5.493 8.665l-.782 1.216c-4.76 7.363-8.395 12.173-12.473 16.075-5.522 5.284-11.27 8.071-17.569 7.945l-.43-.014c-9.51-.39-16.647 6.315-25.945 21.72l-.919 1.539c-1.178 1.998-3.85 6.587-4.192 7.168l-.599 1.013c-1.36 2.288-2.476 4.084-3.56 5.704l-.231.345c-3.433 5.078-6.474 8.226-9.857 9.683-5.845 2.516-12.324 2.526-19.967.482l-.548-.15c-5.244-1.459-8.76-2.881-18.764-7.438l-4.426-2.02c-9.263-4.2-14.597-6.265-20.468-7.678-4.898-1.179-9.377-1.583-13.601-1.148l-.717.079c-10.356 1.215-19.136 5.56-36.556 16.837l-8.216 5.346c-1.803 1.163-3.14 2.007-4.73 2.99-8.677 5.362-15.584 8.808-22.395 10.843-10.052 3.003-20.551 4.326-32.034 4.326l-1.108-.004c-7.727-.048-14.9-.612-25.758-1.848l-10.592-1.221c-8.353-.936-11.391-1.142-15.78-1.148h-.213c-36.347 0-86.977 26.797-151.616 80.514-1.062.882-2.638.737-3.52-.325-.883-1.062-.738-2.638.324-3.52 64.812-53.862 115.947-81.121 153.673-81.661l1.139-.008c5.93 0 9.263.315 24.215 2.061l2.916.338c11.209 1.276 18.389 1.822 26.32 1.822 11.026 0 21.05-1.263 30.603-4.117 6.128-1.83 12.487-4.969 20.487-9.87l2.151-1.332c1.749-1.095 3.472-2.204 6.345-4.078l5.703-3.718c7.665-4.972 11.972-7.57 16.982-10.137l.32-.164c7.716-3.927 14.693-6.274 21.545-6.979 4.83-.497 9.867-.043 15.283 1.26l.779.192c5.948 1.497 11.423 3.64 20.551 7.78l6.728 3.064c8.033 3.63 11.269 4.893 15.77 6.145 6.877 1.914 12.405 1.955 17.198-.108 2.204-.949 4.593-3.38 7.409-7.475l.283-.416c1.168-1.728 2.378-3.677 3.928-6.298l4.605-7.866.935-1.564c4.38-7.258 7.908-12.136 11.947-16.05 5.448-5.28 11.323-8.059 17.927-7.92l.45.015c8.825.361 15.922-6.143 25.826-21.353l1.376-2.142c1.167-1.843 4.34-6.873 5.338-8.416 2.166-3.344 3.926-5.862 5.64-8 4.031-5.029 7.743-7.819 11.845-8.205 5.035-.475 8.369.076 13.219 1.723l2.251.78c5.835 1.977 9.873 1.754 18.244-2.268 3.818-1.834 7.146-5.034 11.49-10.688l.364-.477c1.019-1.34 5.915-8.054 7.373-9.962 6.398-8.367 12.14-13.952 19.591-18.117 5.685-3.179 11.615-.916 18.053 5.531l.312.315c4.234 4.319 7.401 8.547 14.892 19.505l3.586 5.256c2.349 3.431 3.939 5.697 5.592 7.95l.398.542c9.664 13.085 16.431 17.996 21.975 15.147 5.022-2.58 10.292-8.623 16.33-18.39l.343-.557c2.505-4.09 5.104-8.73 8.226-14.625l1.61-3.062c2.286-4.392 8.071-15.646 9.277-17.961l1.328-2.538c9.034-17.185 15.794-28.263 23.334-37.304 10.238-12.274 20.789-18.819 32.417-18.84 11.641-.02 20.765 3.65 33.196 11.694l1.595 1.044 4.32 2.86c1.551 1.023 2.758 1.8 3.903 2.505l.285.175c3.289 2.012 5.962 3.353 8.47 4.184 3.107 1.028 5.925 1.245 8.713.607 14.895-3.411 28.333-11.736 41.017-24.662 10.48-10.68 20.019-23.91 30.765-41.735l1.62-2.705c1.52-2.555 3.085-5.23 4.848-8.282l9.33-16.284c.484-.839.942-1.63 1.394-2.41l1.593-2.728c5.711-9.727 10.034-16.424 14.324-21.966 4.38-5.66 8.538-9.795 12.743-12.49l.435-.273c10.562-6.512 17.128-21.693 22.989-48.242l.358-1.64c.476-2.205.943-4.446 1.478-7.085l2.66-13.284.546-2.651c2.196-10.545 3.91-17.079 6.034-22.318 3.058-7.545 6.892-11.652 12.216-11.652 9.075 0 14.527 3.026 21.46 10.128l.912.95c.455.48 1.486 1.57 1.796 1.894l.656.678c4.728 4.836 7.792 6.608 12.52 6.608 4.414 0 7.527-8.933 10.542-28.59l1.605-10.928c1.136-7.61 1.95-12.036 3.001-15.817l.076-.27c1.745-6.156 3.972-9.551 7.776-9.551 4.699 0 7.634 1.937 11.269 6.2l1.586 1.897c2.966 3.5 4.396 4.037 7.877 2.113 3.563-1.97 5.412-7.04 7.569-19.418l1.23-7.295.225-1.29c.295-1.672.572-3.158.86-4.596 1.775-8.863 3.934-15.558 7.225-21.194.696-1.193 2.227-1.595 3.42-.899 1.192.696 1.594 2.227.898 3.42-2.958 5.067-4.964 11.286-6.64 19.655l-.313 1.602c-.173.91-.346 1.861-.526 2.885l-.525 3.055-.84 5.01c-1.103 6.45-1.899 10.11-3.061 13.513-1.652 4.838-3.867 8.139-7.103 9.928-5.855 3.237-9.644 1.905-13.887-2.995l-.461-.545c-.392-.468-1.013-1.216-1.085-1.302-2.904-3.466-4.764-4.744-7.718-4.744-.173 0-.485.218-.976.966-.639.974-1.268 2.493-1.87 4.534l-.12.415c-1.014 3.58-1.814 7.9-2.947 15.5l-1.319 9.029-.4 2.66c-1.385 9.005-2.58 14.895-4.187 19.813l-.115.35c-2.54 7.609-5.967 11.889-11.066 11.889-6.389 0-10.487-2.383-16.084-8.1l-1.027-1.069c-.536-.564-1.425-1.504-1.645-1.736-6.444-6.763-10.842-9.353-18.588-9.353-5.334 0-9.077 9.106-13.754 31.921l-.71 3.514-1.839 9.214c-.648 3.216-1.19 5.827-1.744 8.396l-.376 1.72c-6.086 27.567-12.954 43.55-24.863 51.131l-.37.232c-3.765 2.321-7.655 6.147-11.85 11.567l-.564.736c-4.146 5.456-8.443 12.203-14.19 22.047l-2.421 4.18-7.925 13.844c-2.664 4.634-4.854 8.38-7.028 12.005l-.652 1.085c-10.93 18.129-20.675 31.647-31.478 42.656-13.31 13.562-27.557 22.389-43.47 26.033-3.733.855-7.469.566-11.4-.735-2.767-.916-5.59-2.305-8.916-4.305l-.593-.36c-.99-.605-1.997-1.245-3.194-2.025l-6.375-4.21z" transform="translate(-196 -187) translate(196 187)"/>
            </g>
        </g>
    </g>
</svg>
