<svg xmlns="http://www.w3.org/2000/svg" xmlns:xlink="http://www.w3.org/1999/xlink" width="56" height="56" viewBox="0 0 56 56">
    <defs>
        <filter id="pxqvjvpu0a" width="129.2%" height="129.2%" x="-14.6%" y="-10.4%" filterUnits="objectBoundingBox">
            <feOffset dy="2" in="SourceAlpha" result="shadowOffsetOuter1"/>
            <feGaussianBlur in="shadowOffsetOuter1" result="shadowBlurOuter1" stdDeviation="2"/>
            <feColorMatrix in="shadowBlurOuter1" values="0 0 0 0 0 0 0 0 0 0 0 0 0 0 0 0 0 0 0.5 0"/>
        </filter>
        <path id="sdhk194mpb" d="M0 24C0 10.745 10.745 0 24 0s24 10.745 24 24-10.745 24-24 24S0 37.255 0 24z"/>
    </defs>
    <g fill="none" fill-rule="evenodd">
        <g fill-rule="nonzero">
            <g>
                <g transform="translate(-194 -4159) translate(198 4161)">
                    <use fill="#000" filter="url(#pxqvjvpu0a)" xlink:href="#sdhk194mpb"/>
                    <use fill="#3B5998" xlink:href="#sdhk194mpb"/>
                </g>
                <path fill="#FFF" d="M26.502 38.111V25.054h3.604l.478-4.5h-4.082l.006-2.251c0-1.174.111-1.803 1.797-1.803h2.253V12h-3.605c-4.33 0-5.854 2.183-5.854 5.854v2.701H18.4v4.5h2.7V38.11h5.402z" transform="translate(-194 -4159) translate(198 4161)"/>
            </g>
        </g>
    </g>
</svg>
