<svg xmlns="http://www.w3.org/2000/svg" xmlns:xlink="http://www.w3.org/1999/xlink" width="56" height="56" viewBox="0 0 56 56">
    <defs>
        <filter id="79u3j5kcwa" width="129.5%" height="129.5%" x="-14.7%" y="-10.5%" filterUnits="objectBoundingBox">
            <feOffset dy="2" in="SourceAlpha" result="shadowOffsetOuter1"/>
            <feGaussianBlur in="shadowOffsetOuter1" result="shadowBlurOuter1" stdDeviation="2"/>
            <feColorMatrix in="shadowBlurOuter1" values="0 0 0 0 0 0 0 0 0 0 0 0 0 0 0 0 0 0 0.5 0"/>
        </filter>
        <path id="8ejv13cvyb" d="M47.494 23.746c0 13.115-10.632 23.744-23.747 23.744C10.635 47.49 0 36.86 0 23.746 0 10.632 10.635 0 23.747 0c13.115 0 23.747 10.632 23.747 23.746"/>
    </defs>
    <g fill="none" fill-rule="evenodd">
        <g>
            <g>
                <path fill="#FFD900" d="M47.494 23.746c0 13.115-10.632 23.744-23.747 23.744C10.635 47.49 0 36.86 0 23.746 0 10.632 10.635 0 23.747 0c13.115 0 23.747 10.632 23.747 23.746" transform="translate(-58 -4159) translate(62 4161)"/>
                <g transform="translate(-58 -4159) translate(62 4161)">
                    <use fill="#000" filter="url(#79u3j5kcwa)" xlink:href="#8ejv13cvyb"/>
                    <use fill="#FFD900" xlink:href="#8ejv13cvyb"/>
                </g>
                <path fill="#1D1D1B" d="M33.942 26.79c-.052.49-.528.528-.673.528-.034 0-.068-.001-.104-.005-.25-.026-.39-.182-.649-.533l-1.77-2.413-.484.493v1.815c0 .367-.29.644-.673.644-.404 0-.675-.259-.675-.644v-5.577c0-.384.284-.664.675-.664.402 0 .673.267.673.664v2.16l2.373-2.475c.106-.104.279-.246.535-.246.327.009.654.226.645.621 0 .186-.11.308-.33.551l-.167.185-1.621 1.636 1.919 2.513c.198.258.362.472.326.747zm-5.61-.135c-.008.286-.236.589-.643.589h-2.512c-.441 0-.704-.28-.704-.746v-5.36c0-.435.258-.704.674-.704.415 0 .673.27.673.703v4.88h1.869c.201 0 .37.065.485.187.11.118.168.282.159.451zm-5.176.664c-.338 0-.553-.153-.657-.468l-.295-.921H19.39l-.301.91c-.106.327-.312.479-.648.479-.373 0-.664-.274-.664-.623 0-.138.042-.244.061-.295l1.956-5.181c.14-.38.477-.785 1.003-.785.46 0 .827.286 1.002.784l1.896 5.172c.061.162.077.293.077.346 0 .326-.27.582-.615.582zm-6.519-.706c0 .436-.258.706-.674.706-.415 0-.673-.27-.673-.706v-4.892h-1.418c-.444 0-.602-.33-.602-.612 0-.297.212-.615.602-.615h4.181c.392 0 .605.318.605.615 0 .282-.159.612-.605.612h-1.416v4.892zm7.11-14.073c-7.778 0-14.085 4.983-14.085 11.128 0 3.95 2.607 7.422 6.537 9.395l-1.327 4.96c-.05.147-.013.307.096.415.08.078.182.118.286.118.088 0 .176-.027.25-.087l5.711-3.853c.821.117 1.668.18 2.532.18 7.78 0 14.086-4.983 14.086-11.128 0-6.145-6.306-11.128-14.086-11.128z" transform="translate(-58 -4159) translate(62 4161)"/>
                <path fill="#1D1D1B" d="M20.782 21.67l-1.015 3.065h2.059l-1.018-3.065c-.004-.013-.022-.013-.026 0" transform="translate(-58 -4159) translate(62 4161)"/>
            </g>
        </g>
    </g>
</svg>
