<svg xmlns="http://www.w3.org/2000/svg" xmlns:xlink="http://www.w3.org/1999/xlink" width="44" height="44" viewBox="0 0 44 44">
    <defs>
        <filter id="ccdrwe91ra" width="117.5%" height="117.5%" x="-8.8%" y="-6.2%" filterUnits="objectBoundingBox">
            <feOffset dy="1" in="SourceAlpha" result="shadowOffsetOuter1"/>
            <feGaussianBlur in="shadowOffsetOuter1" result="shadowBlurOuter1" stdDeviation="1"/>
            <feColorMatrix in="shadowBlurOuter1" values="0 0 0 0 0 0 0 0 0 0 0 0 0 0 0 0 0 0 0.1 0"/>
        </filter>
        <circle id="pq25d40cab" cx="20" cy="20" r="20"/>
    </defs>
    <g fill="none" fill-rule="evenodd">
        <g>
            <g>
                <g>
                    <g transform="translate(-218 -2435) translate(200 2416) translate(20 20)">
                        <use fill="#000" filter="url(#ccdrwe91ra)" xlink:href="#pq25d40cab"/>
                        <use fill="#FFF" xlink:href="#pq25d40cab"/>
                    </g>
                    <g fill="#6F6558" fill-rule="nonzero">
                        <path d="M10.275 9.696l6.657 6.73c1.706-1.822 2.64-4.234 2.605-6.73-.013-2.487-.94-4.882-2.605-6.73l-6.657 6.73zM9.768 10.203L3.184 16.787 9.768 19.537 16.353 16.787zM9.551 9.479L16.353 2.605 10.058 0 3.835 15.268zM0 9.696c0 2.468.93 4.845 2.605 6.657L9.19.434 0 9.696z" transform="translate(-218 -2435) translate(200 2416) translate(20 20) translate(10.667 10)"/>
                    </g>
                </g>
            </g>
        </g>
    </g>
</svg>
