<svg xmlns="http://www.w3.org/2000/svg" width="160" height="84" viewBox="0 0 160 84">
    <defs>
        <linearGradient id="kmo8afpbma" x1="50%" x2="4.194%" y1="50%" y2="87.915%">
            <stop offset="0%" stop-color="#FF9632" stop-opacity="0"/>
            <stop offset="100%" stop-color="#F39755" stop-opacity=".2"/>
        </linearGradient>
        <linearGradient id="4qoxp1l35b" x1="50%" x2="0%" y1="50%" y2="92.75%">
            <stop offset="0%" stop-color="#FF9632" stop-opacity="0"/>
            <stop offset="100%" stop-color="#F39755" stop-opacity=".2"/>
        </linearGradient>
        <linearGradient id="n10mt7x99c" x1="100%" x2="-1.405%" y1="50%" y2="50%">
            <stop offset="0%" stop-color="#B39C7D"/>
            <stop offset="6.546%" stop-color="#DEE3EB"/>
            <stop offset="49.327%" stop-color="#DEE3EB"/>
            <stop offset="83.94%" stop-color="#DEE3EB"/>
            <stop offset="100%" stop-color="#B39C7D"/>
        </linearGradient>
        <linearGradient id="audwlmjz7d" x1="100%" x2="0%" y1="100%" y2="0%">
            <stop offset="0%" stop-color="#FAC88E"/>
            <stop offset="62.679%" stop-color="#F39755"/>
            <stop offset="100%" stop-color="#E66D16"/>
        </linearGradient>
        <linearGradient id="zz7v2jsxbe" x1="0%" x2="100%" y1="0%" y2="100%">
            <stop offset="0%" stop-color="#FAC88E"/>
            <stop offset="100%" stop-color="#FFE1CC"/>
        </linearGradient>
        <linearGradient id="ig1qwban6f" x1="0%" x2="100%" y1="0%" y2="100%">
            <stop offset="0%" stop-color="#E66D16"/>
            <stop offset="41.227%" stop-color="#F39755"/>
            <stop offset="100%" stop-color="#FAC88E"/>
        </linearGradient>
        <linearGradient id="yy19lxkrvg" x1="50%" x2="50%" y1="0%" y2="100%">
            <stop offset="0%" stop-color="#FAC88E"/>
            <stop offset="100%" stop-color="#F39755"/>
        </linearGradient>
    </defs>
    <g fill="none" fill-rule="evenodd">
        <g>
            <g>
                <g>
                    <g>
                        <path fill="url(#kmo8afpbma)" d="M0 0h76.31v65.33c-22.148 9.597-39.792 14.396-52.933 14.396C10.236 79.726 2.444 74.927 0 65.33V0z" transform="translate(-175 -2901) translate(20 2825) translate(155 76)"/>
                        <path fill="url(#4qoxp1l35b)" d="M76.31 0h83.142v65.299c-22.027 7.72-39.584 11.58-52.67 11.58-13.088 0-23.245-3.86-30.473-11.58V0z" transform="translate(-175 -2901) translate(20 2825) translate(155 76) matrix(-1 0 0 1 235.761 0)"/>
                        <g transform="translate(-175 -2901) translate(20 2825) translate(155 76) translate(0 40.45)">
                            <path fill="url(#n10mt7x99c)" fill-rule="nonzero" d="M0 21.282c0 .496.017.983.05 1.463.012.159.15.279.309.267.159-.01.278-.149.267-.308-.032-.465-.049-.94-.049-1.422 0-.159-.129-.288-.288-.288-.16 0-.289.129-.289.288zm.484 4.37c.113.481.245.952.397 1.413.05.151.214.233.365.183.151-.05.233-.213.183-.364-.146-.444-.274-.9-.383-1.364-.037-.156-.192-.252-.347-.216-.155.037-.252.192-.215.347zm1.586 4.114c.24.428.502.843.783 1.245.092.13.272.163.402.071.13-.091.162-.271.07-.402-.27-.386-.52-.786-.752-1.197-.078-.14-.254-.189-.393-.11-.14.078-.188.254-.11.393zm2.742 3.522c.35.335.72.657 1.107.966.125.099.306.079.405-.046.1-.125.08-.306-.045-.406-.374-.297-.73-.608-1.068-.931-.115-.11-.298-.106-.408.009-.11.115-.106.298.009.408zm3.506 2.576c.419.236.852.46 1.3.672.144.068.316.007.384-.137.068-.144.007-.316-.137-.385-.436-.206-.857-.424-1.263-.653-.14-.078-.315-.03-.394.11-.078.138-.029.314.11.393zm4.05 1.763c.454.15.92.289 1.397.418.154.041.312-.05.354-.204.041-.153-.05-.312-.204-.354-.467-.126-.923-.262-1.367-.408-.152-.05-.315.033-.365.184-.05.152.033.315.184.364zm4.284 1.05c.471.081.95.154 1.439.218.158.02.303-.091.323-.25.02-.157-.09-.302-.249-.323-.48-.063-.952-.134-1.415-.214-.157-.027-.306.079-.333.236-.027.157.078.306.235.333zm4.243.484c.476.03.96.052 1.45.066.16.005.292-.12.297-.28.005-.159-.12-.292-.28-.297-.484-.014-.961-.036-1.432-.065-.159-.01-.296.111-.306.27-.01.16.112.296.27.306zm4.364.07c.477-.012.96-.031 1.449-.056.159-.008.281-.144.273-.303-.008-.16-.144-.282-.303-.274-.484.025-.962.044-1.435.056-.159.004-.285.137-.28.296.004.16.136.285.296.281zm4.352-.273l.703-.071.742-.084c.158-.019.271-.162.253-.32-.017-.139-.129-.243-.263-.254l-.072.003-.017.002c-.472.055-.939.105-1.401.15-.159.015-.275.156-.26.315.016.159.157.275.315.26zm4.315-.622c.458-.092.931-.194 1.418-.306.155-.036.252-.19.216-.346-.035-.155-.19-.252-.345-.217-.482.111-.95.212-1.403.303-.156.031-.257.183-.226.34.032.156.184.257.34.226zm4.235-1.02c.454-.125.919-.257 1.394-.396.153-.044.24-.205.196-.358-.045-.153-.205-.24-.358-.196l-.93.267-.455.126c-.154.042-.244.201-.202.355.042.154.201.244.355.202zm4.157-1.244l.91-.295.464-.153c.151-.05.233-.214.183-.365-.05-.151-.214-.233-.365-.183l-.918.301c-.15.05-.3.098-.45.146-.152.048-.235.21-.187.363.049.151.211.235.363.186zm4.115-1.386l.903-.32.458-.164c.15-.054.228-.22.174-.37-.054-.15-.22-.227-.369-.173l-.91.324-.447.158c-.15.053-.23.218-.177.368.053.15.218.23.368.177zm4.072-1.479c.444-.166.894-.335 1.351-.509.15-.057.224-.223.168-.372-.057-.15-.223-.224-.372-.168-.457.174-.906.343-1.35.509-.149.055-.225.222-.169.371.056.15.222.225.372.17zm4.043-1.545l1.346-.528c.148-.058.221-.226.163-.374-.059-.149-.226-.221-.375-.163l-1.343.527c-.149.058-.222.225-.164.374.058.148.225.222.373.164zm4.028-1.596l1.34-.54c.147-.06.218-.229.158-.376-.06-.148-.228-.22-.376-.16l-1.338.54c-.147.06-.22.228-.16.376s.228.22.376.16zm4.017-1.633l1.335-.55c.147-.06.217-.23.156-.377-.06-.147-.23-.217-.377-.156l-1.333.549c-.147.06-.218.229-.157.376.06.148.229.218.376.158zm3.999-1.655l1.333-.557c.147-.061.216-.23.154-.377-.061-.147-.23-.217-.377-.155l-1.332.556c-.147.061-.217.23-.156.377.062.147.23.217.378.156zm4-1.676l1.33-.56c.147-.062.216-.232.154-.378-.062-.147-.231-.216-.378-.154l-1.33.56c-.146.062-.215.23-.154.378.062.147.231.216.378.154zm3.983-1.68l1.327-.562c.147-.062.216-.231.154-.378s-.232-.216-.378-.153l-1.328.561c-.147.062-.216.231-.154.378s.232.216.379.154zm3.985-1.686l1.33-.563c.147-.062.216-.231.154-.378s-.232-.215-.378-.153l-1.33.562c-.147.062-.216.231-.154.378s.232.216.378.154zm3.986-1.684l1.33-.56c.146-.061.215-.23.154-.377-.062-.147-.231-.216-.378-.155l-1.33.56c-.147.062-.215.231-.154.378.062.147.232.216.378.154zm3.99-1.676l1.332-.556c.148-.061.217-.23.156-.377s-.23-.217-.378-.156l-1.332.557c-.147.061-.216.23-.155.377.062.147.23.217.378.155zm3.999-1.662l1.333-.55c.148-.06.218-.23.157-.377-.06-.147-.229-.217-.376-.157l-1.335.55c-.147.061-.217.23-.156.377.06.147.23.218.377.157zm4.008-1.643l1.337-.54c.148-.06.22-.229.16-.376-.06-.148-.228-.22-.376-.16l-1.338.541c-.148.06-.219.229-.159.376.06.148.228.22.376.16zm4.013-1.612l1.34-.529c.149-.058.222-.226.163-.374-.058-.149-.225-.222-.374-.163-.442.174-.89.35-1.342.53-.148.059-.22.226-.162.375.059.148.227.22.375.161zm4.028-1.574l1.347-.515c.149-.057.223-.224.167-.373-.057-.149-.223-.223-.372-.167-.445.17-.895.341-1.35.516-.148.057-.222.224-.165.373.057.149.224.223.373.166zm4.05-1.528c.456-.169.908-.334 1.354-.496.15-.055.227-.22.173-.37-.055-.15-.22-.227-.37-.173l-1.357.497c-.15.056-.226.222-.171.371.055.15.221.226.37.17zm4.069-1.464c.46-.16.914-.318 1.362-.47.151-.052.232-.216.18-.367-.051-.151-.216-.232-.366-.18-.45.154-.905.31-1.366.472-.15.053-.23.217-.178.368.053.15.218.23.368.177zm4.095-1.38c.464-.15.922-.297 1.373-.438.152-.048.236-.21.189-.362-.048-.152-.21-.236-.362-.189-.453.142-.912.288-1.377.44-.152.048-.235.21-.186.363.05.151.212.234.363.185zm4.134-1.271c.469-.136.93-.266 1.385-.391.153-.042.244-.201.201-.355-.042-.154-.2-.244-.354-.202-.457.126-.921.257-1.393.394-.153.044-.241.204-.197.357.045.153.205.241.358.197zm4.164-1.111c.477-.115.943-.223 1.4-.324.156-.035.255-.189.22-.344-.034-.156-.188-.254-.344-.22-.46.102-.931.211-1.411.327-.155.037-.25.193-.213.348.038.155.193.25.348.213zm4.222-.88c.478-.084.95-.163 1.418-.237.158-.025.265-.172.24-.33-.025-.157-.172-.265-.33-.24-.47.074-.946.154-1.428.238-.157.027-.262.177-.234.334.027.157.177.262.334.234zm4.267-.634c.482-.058.958-.11 1.428-.157.158-.015.274-.157.259-.315-.016-.159-.157-.275-.316-.259-.474.047-.954.1-1.44.158-.158.019-.271.163-.252.321.019.158.163.271.32.252zm4.295-.374c.485-.025.963-.043 1.433-.054.16-.004.285-.136.281-.296-.003-.159-.136-.285-.295-.281-.475.011-.958.03-1.449.055-.16.008-.282.144-.273.303.008.159.143.281.303.273zm4.304-.036c.486.02.963.046 1.43.082.158.012.297-.107.309-.266.012-.16-.107-.298-.266-.31-.474-.036-.957-.063-1.45-.083-.16-.006-.294.118-.3.278-.006.159.118.293.277.3zm4.285.419c.48.079.947.168 1.403.267.155.034.31-.065.343-.22.034-.157-.065-.31-.22-.344-.466-.101-.943-.192-1.433-.273-.157-.026-.305.08-.331.238-.026.157.08.306.238.332zm4.138 1.033c.457.16.898.333 1.324.519.146.063.316-.004.38-.15.063-.146-.004-.316-.15-.38-.439-.19-.893-.368-1.363-.533-.15-.053-.315.026-.368.177-.053.15.027.315.177.367zm3.838 1.874c.4.264.78.543 1.14.837.124.1.306.082.406-.042.101-.124.082-.305-.041-.406-.376-.306-.771-.596-1.187-.87-.133-.089-.312-.052-.4.08-.088.134-.051.313.082.4zm3.145 2.856c.293.369.566.752.818 1.15.085.135.264.175.398.09.135-.086.175-.264.09-.399-.263-.415-.548-.816-.855-1.2-.1-.125-.28-.146-.406-.047-.124.1-.145.281-.045.406zm2.075 3.691c.164.437.309.887.435 1.348.042.154.2.245.354.203.154-.042.244-.2.203-.354-.13-.479-.28-.945-.451-1.4-.056-.149-.222-.224-.371-.168-.15.056-.225.222-.17.371zm.95 4.123c.049.465.082.939.1 1.42.006.16.14.283.3.277.158-.005.283-.14.277-.299-.018-.494-.053-.98-.104-1.459-.017-.158-.159-.273-.317-.256-.159.017-.274.159-.257.317z"/>
                            <path fill="#B39C7D" fill-rule="nonzero" d="M158.658 19.269c0 .466-.033.928-.1 1.386-.028.197.108.38.305.409.197.029.38-.108.41-.305.07-.492.107-.99.107-1.49 0-.2-.162-.361-.361-.361-.2 0-.36.161-.36.36zm-.899 4.077c-.19.418-.41.829-.66 1.233-.104.17-.052.391.118.496.17.105.391.052.496-.117.265-.43.5-.867.703-1.312.082-.182.002-.396-.179-.478-.181-.083-.395-.003-.478.178zm-2.4 3.457c-.319.332-.66.657-1.022.974-.15.13-.166.359-.035.509.131.15.36.165.51.034.377-.33.734-.67 1.067-1.017.138-.144.134-.372-.01-.51-.143-.138-.372-.134-.51.01zm-3.27 2.66c-.39.254-.796.5-1.217.737-.173.099-.234.319-.136.492s.318.234.492.136c.433-.245.85-.498 1.253-.759.167-.108.215-.332.106-.499-.108-.167-.331-.214-.499-.106zM148.3 31.48c-.43.187-.87.367-1.32.54-.187.072-.28.281-.208.467.072.186.28.279.467.207.46-.177.91-.362 1.35-.553.182-.08.265-.293.185-.475-.08-.183-.292-.266-.474-.186zm-4.059 1.47c-.451.133-.91.261-1.378.383-.193.05-.309.247-.259.44.05.192.247.308.44.258.476-.124.943-.254 1.403-.39.19-.057.3-.258.243-.449-.057-.19-.258-.3-.449-.243zm-4.205 1.02c-.464.09-.934.174-1.41.252-.196.032-.33.218-.297.415.032.196.217.33.414.297.483-.08.96-.164 1.43-.255.196-.038.324-.227.286-.423-.038-.196-.227-.324-.423-.286zm-4.179.633c-.47.053-.946.1-1.427.143-.198.017-.345.193-.328.391.018.198.193.345.391.328.487-.043.968-.091 1.445-.145.198-.022.34-.2.318-.398-.022-.198-.2-.34-.399-.319zm-4.285.328c-.474.02-.952.036-1.434.046-.2.004-.357.17-.353.368.004.2.17.358.368.353.487-.01.97-.025 1.45-.046.2-.008.354-.177.345-.376-.008-.199-.176-.353-.376-.345zm-4.319.049c-.475-.01-.954-.023-1.435-.041-.2-.008-.367.148-.374.347-.008.199.147.366.346.374.487.018.97.032 1.45.041.199.004.363-.155.367-.354.004-.199-.154-.364-.354-.367zm-4.315-.203c-.475-.035-.952-.075-1.432-.119-.198-.018-.374.128-.392.326-.018.199.128.374.327.393.483.044.965.084 1.444.12.198.014.371-.135.386-.334.015-.198-.134-.371-.333-.386zm-4.298-.43c-.473-.06-.947-.122-1.424-.19-.198-.028-.38.11-.408.307-.028.197.11.38.307.408.48.068.96.131 1.436.191.198.025.378-.115.403-.313.024-.198-.116-.378-.314-.403zm-4.27-.634c-.471-.08-.943-.164-1.418-.251-.196-.036-.384.094-.42.29-.036.195.094.383.29.42.477.087.953.172 1.426.252.197.034.383-.098.417-.295.033-.196-.1-.382-.296-.416zm-4.241-.808c-.468-.098-.937-.2-1.409-.304-.194-.044-.387.08-.43.274-.043.194.08.387.274.43.474.105.946.208 1.416.306.195.041.387-.084.427-.279.041-.195-.083-.386-.278-.427zm-4.212-.96c-.464-.115-.93-.232-1.397-.352-.193-.05-.39.067-.44.26-.049.193.067.39.26.439.47.12.939.238 1.405.353.193.048.389-.07.436-.264.048-.194-.07-.39-.264-.437zm-4.183-1.097c-.46-.127-.922-.258-1.387-.391-.191-.055-.391.055-.446.247-.055.191.055.391.247.446.466.134.93.265 1.393.394.192.053.39-.06.444-.251.053-.192-.06-.391-.251-.445zm-4.143-1.209c-.456-.14-.914-.281-1.375-.426-.19-.06-.392.046-.452.236s.046.393.236.453c.463.145.922.287 1.38.427.19.058.392-.049.45-.24.058-.19-.049-.392-.24-.45zm-4.119-1.31c-.453-.15-.908-.301-1.366-.456-.19-.064-.394.038-.457.226-.064.19.037.394.226.458.46.155.917.307 1.371.457.19.063.393-.04.456-.23.062-.189-.04-.393-.23-.455zm-4.095-1.395c-.45-.158-.903-.319-1.36-.482-.187-.067-.393.031-.46.219-.067.187.03.394.218.46l1.363.483c.188.066.394-.033.46-.22.066-.189-.033-.394-.221-.46zm-4.073-1.466c-.446-.164-.896-.331-1.35-.5-.187-.07-.395.025-.465.211-.07.187.025.395.212.464l1.353.502c.187.069.395-.027.464-.214.068-.187-.027-.394-.214-.463zm-4.04-1.516l-1.347-.517c-.185-.072-.394.02-.466.207-.072.186.021.394.207.466l1.349.518c.186.07.394-.022.465-.209.071-.186-.022-.394-.208-.465zm-4.034-1.563l-1.342-.527c-.185-.074-.395.017-.468.203-.073.185.018.395.203.468l1.344.528c.185.073.394-.018.467-.204.073-.185-.019-.395-.204-.468zm-4.025-1.592l-1.34-.535c-.186-.074-.395.016-.47.201-.073.185.017.395.202.47l1.34.535c.186.073.396-.017.47-.202.073-.185-.017-.395-.202-.469zm-4.02-1.609l-1.34-.537c-.185-.074-.395.016-.47.2-.073.186.016.396.201.47l1.34.537c.184.074.394-.015.469-.2.074-.185-.016-.395-.2-.47zm-4.023-1.611l-1.34-.535c-.186-.074-.396.016-.47.201-.073.185.017.395.202.469l1.34.535c.186.074.396-.016.47-.201.073-.185-.017-.395-.202-.47zm-4.022-1.598l-1.344-.528c-.186-.072-.395.02-.467.205-.073.185.019.394.204.467l1.343.527c.185.073.395-.018.468-.203.073-.186-.018-.395-.204-.468zm-4.039-1.572l-1.349-.515c-.186-.07-.395.023-.465.21-.07.186.023.394.21.465l1.346.513c.186.072.394-.021.466-.207.071-.186-.022-.395-.208-.466zm-4.058-1.528l-1.357-.496c-.188-.067-.395.03-.462.217-.068.187.029.394.216.462l1.353.494c.187.069.395-.027.464-.214s-.027-.394-.214-.463zm-4.088-1.464c-.461-.16-.917-.316-1.368-.469-.188-.064-.393.037-.457.226s.037.393.226.457c.45.152.903.308 1.362.467.189.066.394-.034.46-.222.065-.188-.035-.394-.223-.46zm-4.106-1.37l-.159-.051c-.407-.13-.815-.256-1.225-.378-.19-.056-.392.052-.449.243-.056.191.052.392.243.449l.607.184.764.24c.19.06.393-.044.453-.234.061-.19-.044-.393-.234-.454zm-4.18-1.197c-.47-.118-.942-.231-1.413-.34-.194-.044-.388.078-.432.272-.045.194.077.388.271.432.466.107.932.219 1.397.336.194.049.39-.068.438-.262.049-.193-.068-.389-.261-.438zm-4.259-.927c-.476-.088-.953-.17-1.429-.248-.196-.032-.382.102-.413.299-.032.196.101.382.298.413.47.077.942.158 1.413.245.196.036.384-.093.42-.29.037-.195-.093-.383-.289-.42zm-4.319-.65c-.482-.056-.963-.106-1.443-.151-.199-.019-.374.127-.393.325-.018.199.127.375.326.393.474.044.95.094 1.427.15.197.023.377-.119.4-.317.023-.198-.12-.377-.317-.4zm-4.329-.353c-.486-.023-.97-.04-1.45-.05-.2-.004-.365.154-.37.353-.004.2.154.364.353.368.476.01.954.027 1.434.05.2.009.368-.145.377-.344.01-.2-.145-.368-.344-.377zm-4.37-.04c-.488.015-.973.036-1.452.064-.2.011-.351.182-.34.38.011.2.182.351.38.34.474-.027.952-.048 1.433-.062.2-.006.356-.172.35-.371-.006-.2-.172-.356-.372-.35zm-4.334.312c-.487.056-.968.12-1.443.19-.197.03-.333.213-.304.41.03.197.213.333.41.304.467-.07.94-.132 1.42-.188.198-.023.34-.202.317-.4-.023-.198-.202-.34-.4-.316zm-4.314.718c-.48.107-.953.221-1.416.344-.192.05-.307.248-.256.44.05.193.248.308.44.257.454-.12.917-.232 1.388-.336.195-.043.318-.236.274-.43-.043-.195-.235-.318-.43-.275zm-4.218 1.218c-.466.17-.92.349-1.36.536-.183.078-.268.29-.19.474.078.183.29.268.473.19.428-.183.87-.357 1.324-.523.187-.068.284-.275.215-.462-.068-.187-.275-.284-.462-.215zm-4.009 1.866c-.431.254-.844.52-1.237.794-.163.115-.203.34-.089.503.115.163.34.203.503.088.377-.264.774-.519 1.19-.764.172-.101.229-.322.127-.494-.1-.172-.322-.229-.494-.127zm-3.473 2.687c-.351.364-.674.74-.968 1.127-.12.159-.09.385.069.505s.385.09.505-.069c.277-.364.582-.718.913-1.062.139-.143.135-.372-.009-.51-.143-.138-.372-.134-.51.009zm-2.44 3.74c-.18.466-.325.944-.434 1.432-.043.195.08.388.274.431.194.043.387-.08.43-.274.101-.453.235-.896.403-1.329.072-.186-.02-.395-.206-.467-.186-.072-.395.02-.467.207z"/>
                            <circle cx="10.029" cy="9.019" r="4.69" fill="url(#audwlmjz7d)"/>
                            <circle cx="50.072" cy="31.746" r="5.772" fill="url(#zz7v2jsxbe)"/>
                            <circle cx="135.209" cy="34.632" r="8.658" fill="url(#ig1qwban6f)"/>
                            <circle cx="117.172" cy="5.772" r="2.886" fill="url(#zz7v2jsxbe)"/>
                            <circle cx="131.602" cy="2.886" r="2.886" fill="url(#zz7v2jsxbe)"/>
                            <circle cx="154.69" cy="27.417" r="2.886" fill="url(#yy19lxkrvg)"/>
                            <circle cx="96.248" cy="13.709" r="2.165" fill="url(#zz7v2jsxbe)"/>
                            <circle cx="3.175" cy="31.025" r="2.886" fill="url(#yy19lxkrvg)"/>
                            <circle cx="26.263" cy="7.215" r="2.886" fill="url(#yy19lxkrvg)"/>
                        </g>
                    </g>
                    <g fill-rule="nonzero">
                        <path fill="#4D463D" d="M36.36 13.609V9.243h1.296l2.45 4.366h2.043l-3-5.211v-.029l2.83-4.76h-1.97l-2.353 4.07H36.36V3.61h-1.816v10h1.816zm12.85 0v-1.564h-4.324V3.61h-1.817v10h6.14zm2.687 0l.845-2.564h3.507l.845 2.564h1.873l-3.52-10h-1.902l-3.52 10h1.872zM55.8 9.567h-2.62l.887-2.676c.197-.564.423-1.55.423-1.55h.028s.211.986.394 1.55l.888 2.676zm6.53 4.042V9.426l3.324-5.817h-2.057l-1.549 2.944c-.324.62-.605 1.338-.605 1.338h-.029c-.014.014-.281-.719-.605-1.338l-1.564-2.944h-2.056l3.324 5.817v4.183h1.817zm5.356.169c1.705 0 2.747-.958 2.747-2.155 0-2.31-3.493-2.183-3.493-3.197 0-.45.45-.648.915-.648 1.099 0 1.761.62 1.761.62l.662-1.324s-.789-.817-2.408-.817c-1.55 0-2.747.774-2.747 2.112 0 2.31 3.493 2.17 3.493 3.24 0 .422-.437.648-.944.648-1.169 0-1.957-.79-1.957-.79l-.817 1.254s1 1.057 2.788 1.057zm7.24-.17l1.21-4.098c.114-.38.17-.774.17-.774h.028s.07.394.183.774l1.211 4.099h1.986l2.183-7.183h-1.859l-1.253 4.718c-.099.38-.155.76-.155.76H78.6s-.057-.38-.155-.76L77.122 6.44H75.53l-1.324 4.704c-.098.38-.169.76-.169.76h-.028s-.042-.38-.14-.76l-1.254-4.718h-1.887l2.197 7.183h2zm9.665.17c1.634 0 2.197-1.268 2.183-1.268h.028s-.028.225-.028.507v.592h1.648V9.116c0-1.817-1.099-2.86-2.986-2.86-1.704 0-2.817.888-2.817.888l.676 1.282s.944-.69 1.972-.69c.789 0 1.38.324 1.38 1.267v.099h-.24c-1.168 0-4.252.155-4.252 2.436 0 1.437 1.154 2.24 2.436 2.24zm.45-1.395c-.732 0-1.084-.45-1.084-.93 0-1 1.48-1.126 2.395-1.126h.31v.17c0 .872-.677 1.886-1.62 1.886zm6.709 4.042v-3.014c0-.366-.029-.62-.029-.62h.029s.633.987 2.056.987c1.887 0 3.281-1.48 3.281-3.76 0-2.226-1.239-3.761-3.183-3.761-1.69 0-2.31 1.183-2.31 1.183h-.027s.028-.225.028-.493v-.521H89.96v10h1.789zm1.732-4.154c-1.183 0-1.789-1.099-1.789-2.212 0-1.591.873-2.267 1.803-2.267 1.056 0 1.789.887 1.789 2.253 0 1.423-.817 2.226-1.803 2.226z" transform="translate(-175 -2901) translate(20 2825) translate(155 76) translate(30.977 18.246)"/>
                        <g fill="#FF9632">
                            <path d="M5.746 8.112L11.256 13.633 30.421 13.633 10.929 2.873zM5.352 8.507L.225 13.633 10.478 13.633zM5.183 7.943L10.478 2.591 5.746 0 .732 12.45z" transform="translate(-175 -2901) translate(20 2825) translate(155 76) translate(30.977 18.246)"/>
                        </g>
                    </g>
                </g>
            </g>
        </g>
    </g>
</svg>
