<svg xmlns="http://www.w3.org/2000/svg" width="135" height="13" viewBox="0 0 135 13">
    <g fill="none" fill-rule="evenodd" opacity=".6">
        <g fill="#FFF">
            <g>
                <g>
                    <path d="M2.401 -0.478L2.883 -0.477 2.893 6.271 2.411 6.27z" transform="translate(-120 -120) translate(120 120) translate(76.76 3.862) rotate(45 2.647 2.897)"/>
                    <path d="M2.411 -0.477L2.893 -0.478 2.883 6.27 2.401 6.271z" transform="translate(-120 -120) translate(120 120) translate(76.76 3.862) rotate(135 2.647 2.897)"/>
                </g>
                <g fill-rule="nonzero">
                    <g>
                        <path d="M6.835 6.469l4.428 4.49c1.135-1.216 1.756-2.825 1.733-4.49-.009-1.66-.625-3.257-1.733-4.49L6.835 6.47zM6.498 6.807L2.118 11.2 6.498 13.034 10.878 11.2zM6.353 6.324L10.878 1.738 6.69 0 2.551 10.186zM0 6.469c0 1.646.618 3.232 1.733 4.441L6.113.29 0 6.469z" transform="translate(-120 -120) translate(120 120) translate(91.681)"/>
                    </g>
                    <g>
                        <path d="M24.5 2.317c-.649-.024-1.259.31-1.59.87v-.773h-.865V7.53h.866V4.2c.076-.675.673-1.167 1.348-1.11.866 0 1.347.53 1.347 1.496v2.945h.867v-3.09c0-1.303-.77-2.124-1.974-2.124zM19.83.724h-.866v1.014c.004.18-.065.355-.192.483-.128.127-.302.197-.482.193h-.962l-1.589 3.91-1.636-3.91h-.867l2.07 5.02-.53 1.304h-1.155v.772h.867c.505 0 .96-.304 1.155-.772l2.262-5.504h1.06v3.042c-.032.337.081.672.31.92.23.25.555.389.892.383h1.204v-.82h-1.492V3.186h1.492v-.772h-1.492V.724h-.049zM12.659 4.2c0-1.159-.818-1.834-2.118-1.834-1.128-.037-2.093.805-2.214 1.93h.866c.08-.686.659-1.204 1.348-1.206.334-.039.667.074.909.308.242.233.367.563.342.899v.337H10.59c-1.685 0-2.407.532-2.407 1.449 0 .965.722 1.545 1.926 1.545.914 0 1.492-.338 1.733-.918.048.483.336.821 1.01.821h.578v-.772h-.77V4.2zm-.867 1.834c0 .532-.625.918-1.54.918-.722 0-1.155-.29-1.155-.773v-.193c0-.483.481-.772 1.492-.772h1.203v.82zM6.835.338h-.867v5.89c-.03.337.083.672.312.92.23.25.554.388.892.383h.433v-.772h-.77V.338zM.048.338L.915.338.915 7.531.048 7.531zM5.39.338H4.333L1.636 3.04c-.255.265-.275.677-.048.966L4.38 7.53h1.107L2.31 3.476 5.39.338z" transform="translate(-120 -120) translate(120 120) translate(91.681) translate(16.846 2.897)"/>
                    </g>
                </g>
                <g fill-rule="nonzero">
                    <path d="M24.915 7.486V4.472h.892l1.688 3.014H28.9L26.835 3.89v-.02l1.95-3.286h-1.358l-1.62 2.81h-.892V.583h-1.251v6.903h1.25zm8.848 0v-1.08h-2.977V.584h-1.252v6.903h4.229zm1.85 0l.583-1.77h2.414l.582 1.77h1.29L38.058.583h-1.31l-2.424 6.903h1.29zm2.687-2.79h-1.804l.611-1.847c.136-.39.291-1.07.291-1.07h.02s.145.68.271 1.07l.611 1.847zm4.497 2.79V4.6L45.086.583H43.67l-1.067 2.032c-.223.428-.417.924-.417.924h-.02c-.01.01-.193-.496-.417-.924L40.673.583h-1.416L41.546 4.6v2.887h1.25zm3.688.117c1.174 0 1.892-.661 1.892-1.488 0-1.594-2.406-1.507-2.406-2.207 0-.31.31-.447.63-.447.757 0 1.213.428 1.213.428l.456-.914s-.543-.564-1.658-.564c-1.067 0-1.892.535-1.892 1.458 0 1.595 2.406 1.498 2.406 2.237 0 .291-.301.447-.65.447-.805 0-1.348-.545-1.348-.545l-.563.866s.689.729 1.92.729zm4.985-.117l.834-2.83c.078-.262.117-.534.117-.534h.02s.048.272.125.535l.834 2.83h1.368l1.503-4.96h-1.28l-.863 3.258c-.068.262-.107.525-.107.525h-.02s-.038-.263-.106-.525l-.912-3.248h-1.096l-.911 3.248c-.068.262-.117.525-.117.525h-.019s-.03-.263-.097-.525l-.863-3.257h-1.3l1.513 4.958h1.377zm6.656.117c1.125 0 1.513-.875 1.503-.875h.02s-.02.155-.02.35v.408h1.135V4.385c0-1.254-.757-1.974-2.056-1.974-1.174 0-1.94.613-1.94.613l.466.884s.65-.476 1.358-.476c.543 0 .95.224.95.875v.068h-.165c-.805 0-2.929.107-2.929 1.682 0 .992.795 1.546 1.678 1.546zm.31-.963c-.504 0-.746-.31-.746-.641 0-.69 1.018-.778 1.648-.778h.214v.117c0 .602-.466 1.302-1.116 1.302zm4.62 2.79V7.35c0-.253-.02-.428-.02-.428h.02s.436.68 1.415.68c1.3 0 2.26-1.02 2.26-2.595 0-1.536-.853-2.596-2.192-2.596-1.164 0-1.59.817-1.59.817h-.02s.02-.156.02-.34v-.36h-1.125V9.43h1.231zm1.192-2.867c-.814 0-1.231-.759-1.231-1.527 0-1.098.6-1.565 1.241-1.565.727 0 1.232.612 1.232 1.555 0 .982-.563 1.537-1.242 1.537z" transform="translate(-120 -120) translate(120 120) translate(0 3.017)"/>
                    <g>
                        <path d="M3.957 5.6L7.751 9.411 20.948 9.411 7.526 1.983zM3.685 5.872L.155 9.411 7.216 9.411zM3.569 5.483L7.216 1.789 3.957 0 .504 8.594z" transform="translate(-120 -120) translate(120 120) translate(0 3.017) translate(0 .049)"/>
                    </g>
                </g>
            </g>
        </g>
    </g>
</svg>
