<svg xmlns="http://www.w3.org/2000/svg" xmlns:xlink="http://www.w3.org/1999/xlink" width="327" height="142" viewBox="0 0 327 142">
    <defs>
        <filter id="ggqqpmjuga" width="109.1%" height="155.8%" x="-4.5%" y="-27.9%" filterUnits="objectBoundingBox">
            <feOffset dy="2" in="SourceAlpha" result="shadowOffsetOuter1"/>
            <feGaussianBlur in="shadowOffsetOuter1" result="shadowBlurOuter1" stdDeviation="2"/>
            <feColorMatrix in="shadowBlurOuter1" result="shadowMatrixOuter1" values="0 0 0 0 0 0 0 0 0 0 0 0 0 0 0 0 0 0 0.1 0"/>
            <feMerge>
                <feMergeNode in="shadowMatrixOuter1"/>
                <feMergeNode in="SourceGraphic"/>
            </feMerge>
        </filter>
        <filter id="f2tzum45rb" width="148.2%" height="124.8%" x="-24.1%" y="-13.4%" filterUnits="objectBoundingBox">
            <feOffset dx="8" dy="8" in="SourceAlpha" result="shadowOffsetOuter1"/>
            <feGaussianBlur in="shadowOffsetOuter1" result="shadowBlurOuter1" stdDeviation="2"/>
            <feColorMatrix in="shadowBlurOuter1" result="shadowMatrixOuter1" values="0 0 0 0 0 0 0 0 0 0 0 0 0 0 0 0 0 0 0.1 0"/>
            <feMerge>
                <feMergeNode in="shadowMatrixOuter1"/>
                <feMergeNode in="SourceGraphic"/>
            </feMerge>
        </filter>
        <filter id="31f4j1jdmd" width="111.6%" height="111.6%" x="-5.8%" y="-5.8%" filterUnits="objectBoundingBox">
            <feOffset dx="5" dy="5" in="SourceAlpha" result="shadowOffsetInner1"/>
            <feComposite in="shadowOffsetInner1" in2="SourceAlpha" k2="-1" k3="1" operator="arithmetic" result="shadowInnerInner1"/>
            <feColorMatrix in="shadowInnerInner1" result="shadowMatrixInner1" values="0 0 0 0 1 0 0 0 0 0.588235294 0 0 0 0 0.196078431 0 0 0 0.3 0"/>
            <feOffset dx="-2" dy="-2" in="SourceAlpha" result="shadowOffsetInner2"/>
            <feComposite in="shadowOffsetInner2" in2="SourceAlpha" k2="-1" k3="1" operator="arithmetic" result="shadowInnerInner2"/>
            <feColorMatrix in="shadowInnerInner2" result="shadowMatrixInner2" values="0 0 0 0 0.6 0 0 0 0 0.498039216 0 0 0 0 0.360784314 0 0 0 1 0"/>
            <feMerge>
                <feMergeNode in="shadowMatrixInner1"/>
                <feMergeNode in="shadowMatrixInner2"/>
            </feMerge>
        </filter>
        <linearGradient id="ka8iinw8hc" x1="0%" x2="100%" y1="50%" y2="50%">
            <stop offset="0%" stop-color="#C9B695"/>
            <stop offset="100%" stop-color="#997F5C"/>
        </linearGradient>
        <linearGradient id="6vimpy2sof" x1="9.927%" x2="85.545%" y1="19.678%" y2="86.206%">
            <stop offset="0%" stop-color="#DACBB4"/>
            <stop offset="100%" stop-color="#B39C7D"/>
        </linearGradient>
        <circle id="p7myd1x5je" cx="56" cy="56" r="56"/>
    </defs>
    <g fill="none" fill-rule="evenodd">
        <g>
            <g>
                <g>
                    <g fill-rule="nonzero" filter="url(#ggqqpmjuga)" transform="translate(-326 -3558) translate(200 3420) translate(79 118) translate(107 57)">
                        <path fill="#4D463D" d="M111.536 35.967V25.066h3.235l6.12 10.901h5.098l-7.49-13.011v-.07L125.567 11h-4.923l-5.873 10.163h-3.235V11H107v24.967h4.536zm32.082 0v-3.903h-10.795V11h-4.537v24.967h15.332zm6.71 0l2.11-6.4h8.757l2.11 6.4h4.677L159.19 11h-4.747l-8.791 24.967h4.677zm9.742-10.092h-6.541l2.215-6.682c.493-1.406 1.055-3.868 1.055-3.868h.07s.528 2.462.985 3.868l2.216 6.682zm16.304 10.092V25.523l8.3-14.523h-5.135l-3.868 7.35c-.809 1.547-1.512 3.34-1.512 3.34h-.07c-.036.035-.704-1.793-1.512-3.34L168.673 11h-5.134l8.3 14.523v10.444h4.535zm13.375.422c4.255 0 6.857-2.391 6.857-5.38 0-5.767-8.721-5.45-8.721-7.983 0-1.125 1.125-1.617 2.286-1.617 2.743 0 4.395 1.547 4.395 1.547l1.653-3.305s-1.97-2.04-6.013-2.04c-3.868 0-6.857 1.934-6.857 5.275 0 5.767 8.72 5.415 8.72 8.088 0 1.055-1.09 1.617-2.355 1.617-2.92 0-4.888-1.969-4.888-1.969l-2.04 3.13s2.497 2.637 6.963 2.637zm18.074-.422l3.025-10.233c.28-.95.422-1.934.422-1.934h.07s.176.985.457 1.934l3.024 10.233h4.958l5.451-17.934h-4.642l-3.13 11.78c-.246.95-.386 1.9-.386 1.9h-.07s-.141-.95-.387-1.9l-3.306-11.745h-3.973l-3.306 11.745c-.246.95-.422 1.9-.422 1.9h-.07s-.106-.95-.352-1.9l-3.13-11.78h-4.712l5.486 17.934h4.993zm24.133.422c4.08 0 5.486-3.165 5.45-3.165h.071s-.07.563-.07 1.266v1.477h4.114V24.749c0-4.536-2.743-7.138-7.455-7.138-4.255 0-7.033 2.215-7.033 2.215l1.688 3.2s2.356-1.723 4.923-1.723c1.97 0 3.446.81 3.446 3.165v.246h-.598c-2.918 0-10.62.387-10.62 6.084 0 3.587 2.884 5.591 6.084 5.591zm1.125-3.481c-1.828 0-2.707-1.126-2.707-2.321 0-2.497 3.692-2.813 5.978-2.813h.773v.422c0 2.18-1.688 4.712-4.044 4.712zM249.83 43v-7.525c0-.915-.07-1.548-.07-1.548h.07s1.583 2.462 5.135 2.462c4.712 0 8.193-3.692 8.193-9.389 0-5.556-3.095-9.389-7.947-9.389-4.22 0-5.767 2.954-5.767 2.954h-.07s.07-.563.07-1.23v-1.302h-4.08V43h4.466zm4.326-10.374c-2.954 0-4.466-2.742-4.466-5.52 0-3.974 2.18-5.662 4.5-5.662 2.638 0 4.467 2.215 4.467 5.626 0 3.552-2.04 5.556-4.501 5.556z"/>
                        <g fill="#FF9632">
                            <path d="M28.733 7.612l51.642 28.507H29.6L15 21.493 28.733 7.612zM13.957 22.537L27.539 36.12H.375l13.582-13.582zM15 0L27.54 6.866l-14.03 14.179-11.791 11.94L15 0z"/>
                        </g>
                    </g>
                    <g filter="url(#f2tzum45rb)" transform="translate(-326 -3558) translate(200 3420) translate(79 118) rotate(45 70.722 174.098)">
                        <path fill="url(#ka8iinw8hc)" d="M46 122h20v70c0 5.523-4.477 10-10 10s-10-4.477-10-10v-70z"/>
                        <g>
                            <use fill="#000" filter="url(#31f4j1jdmd)" xlink:href="#p7myd1x5je"/>
                            <circle cx="56" cy="56" r="58" stroke="url(#6vimpy2sof)" stroke-width="4"/>
                        </g>
                        <rect width="24" height="6" x="44" y="116" fill="#FF9632" rx="3"/>
                    </g>
                </g>
            </g>
        </g>
    </g>
</svg>
