<svg xmlns="http://www.w3.org/2000/svg" width="266" height="121" viewBox="0 0 266 121">
    <defs>
        <linearGradient id="iz6pe5kwqa" x1="50%" x2="0%" y1="50%" y2="79.839%">
            <stop offset="0%" stop-color="#FF9632" stop-opacity="0"/>
            <stop offset="100%" stop-color="#F39755" stop-opacity=".2"/>
        </linearGradient>
        <linearGradient id="1g0gab5ktb" x1="50%" x2="0%" y1="50%" y2="80.417%">
            <stop offset="0%" stop-color="#FF9632" stop-opacity="0"/>
            <stop offset="100%" stop-color="#F39755" stop-opacity=".2"/>
        </linearGradient>
        <linearGradient id="azf056novc" x1="100%" x2="-1.405%" y1="50%" y2="50%">
            <stop offset="0%" stop-color="#B39C7D"/>
            <stop offset="6.546%" stop-color="#DEE3EB"/>
            <stop offset="49.327%" stop-color="#DEE3EB"/>
            <stop offset="83.94%" stop-color="#DEE3EB"/>
            <stop offset="100%" stop-color="#B39C7D"/>
        </linearGradient>
        <linearGradient id="x2cb3dd1nd" x1="100%" x2="0%" y1="100%" y2="0%">
            <stop offset="0%" stop-color="#FAC88E"/>
            <stop offset="62.679%" stop-color="#F39755"/>
            <stop offset="100%" stop-color="#E66D16"/>
        </linearGradient>
        <linearGradient id="708qtrribe" x1="0%" x2="100%" y1="0%" y2="100%">
            <stop offset="0%" stop-color="#FAC88E"/>
            <stop offset="100%" stop-color="#FFE1CC"/>
        </linearGradient>
        <linearGradient id="tby3wzt9sf" x1="0%" x2="100%" y1="0%" y2="100%">
            <stop offset="0%" stop-color="#E66D16"/>
            <stop offset="41.227%" stop-color="#F39755"/>
            <stop offset="100%" stop-color="#FAC88E"/>
        </linearGradient>
        <linearGradient id="kk2i9r7heg" x1="50%" x2="50%" y1="0%" y2="100%">
            <stop offset="0%" stop-color="#FAC88E"/>
            <stop offset="100%" stop-color="#F39755"/>
        </linearGradient>
    </defs>
    <g fill="none" fill-rule="evenodd">
        <g>
            <g>
                <g>
                    <g>
                        <path fill="url(#iz6pe5kwqa)" d="M0 0h126.864v88.611c-36.82 15.956-66.154 23.933-88 23.933-21.847 0-34.802-7.977-38.864-23.933V0z" transform="translate(-394 -2909) translate(200 2780) translate(194 129.968)"/>
                        <path fill="url(#1g0gab5ktb)" d="M126.864 0h138.225v88.56c-36.62 12.833-65.808 19.25-87.565 19.25-21.758 0-38.644-6.417-50.66-19.25V0z" transform="translate(-394 -2909) translate(200 2780) translate(194 129.968) matrix(-1 0 0 1 391.953 0)"/>
                        <g transform="translate(-394 -2909) translate(200 2780) translate(194 129.968) translate(0 47.249)">
                            <path fill="url(#azf056novc)" fill-rule="nonzero" d="M0 35.382c0 .824.028 1.634.084 2.431.018.264.248.464.512.445.264-.018.464-.248.445-.512-.054-.774-.081-1.563-.081-2.364 0-.265-.215-.48-.48-.48s-.48.215-.48.48zm.804 7.263c.188.801.408 1.585.661 2.35.083.252.355.388.606.305.252-.083.388-.355.305-.606-.244-.738-.456-1.494-.638-2.268-.06-.258-.318-.418-.576-.357-.258.06-.418.318-.358.576zm2.637 6.84c.4.712.834 1.403 1.302 2.071.152.217.451.27.669.118.217-.152.27-.451.117-.668-.45-.643-.867-1.306-1.252-1.99-.13-.232-.422-.314-.653-.184-.231.13-.313.422-.183.653zM8 55.341c.583.558 1.196 1.093 1.84 1.606.207.165.51.13.674-.076.165-.208.131-.51-.076-.675-.621-.495-1.213-1.011-1.775-1.548-.192-.184-.495-.177-.678.015-.184.191-.177.495.015.678zm5.829 4.282c.696.393 1.416.766 2.16 1.118.24.114.526.011.64-.228.113-.24.01-.526-.229-.64-.724-.342-1.424-.704-2.1-1.085-.23-.13-.523-.049-.654.182-.13.23-.048.523.183.653zm6.732 2.932c.755.249 1.53.48 2.323.694.256.07.52-.082.588-.338.07-.255-.082-.519-.338-.588-.776-.21-1.534-.436-2.274-.68-.251-.082-.523.055-.605.307-.083.252.054.523.306.605zm7.123 1.746c.783.135 1.58.255 2.392.361.262.035.503-.15.538-.413.034-.263-.151-.504-.414-.538-.799-.105-1.583-.223-2.353-.356-.261-.045-.51.13-.554.392-.045.261.13.51.391.554zm7.054.805c.792.048 1.596.085 2.41.11.266.007.487-.2.495-.466.008-.265-.2-.486-.465-.494-.806-.024-1.6-.06-2.381-.108-.265-.016-.493.185-.509.45-.016.264.185.491.45.508zm7.254.116c.794-.021 1.597-.052 2.41-.094.264-.013.468-.239.454-.503-.013-.265-.239-.469-.504-.455-.804.041-1.6.072-2.385.092-.265.007-.474.228-.467.493.007.265.227.474.492.467zm7.237-.454l1.169-.12 1.232-.138c.264-.031.452-.27.42-.533-.027-.23-.213-.403-.435-.422l-.12.005-.03.003c-.783.092-1.56.176-2.329.25-.263.026-.456.26-.43.524.025.264.26.457.523.431zm7.173-1.035c.762-.152 1.548-.322 2.357-.508.258-.06.42-.317.36-.575-.06-.258-.317-.42-.575-.36-.8.184-1.578.351-2.331.503-.26.052-.428.305-.376.564.052.26.305.429.565.376zm7.04-1.695c.756-.208 1.528-.427 2.318-.658.254-.074.4-.34.326-.595-.075-.254-.341-.4-.595-.326l-1.547.443c-.254.072-.506.141-.756.21-.255.07-.406.334-.335.59.07.255.334.406.59.336zm6.912-2.068l1.513-.49.77-.255c.252-.084.388-.355.305-.607-.084-.251-.355-.387-.607-.304l-1.525.5c-.251.082-.5.163-.749.242-.252.081-.391.351-.31.604.08.252.35.391.603.31zm6.841-2.305l1.5-.531.763-.273c.25-.09.379-.365.29-.614-.09-.25-.365-.38-.615-.29l-1.512.54-.744.263c-.25.088-.381.362-.294.612.088.25.362.381.612.293zm6.769-2.458c.738-.276 1.487-.558 2.247-.847.248-.094.373-.37.279-.618-.094-.248-.372-.373-.62-.279-.758.288-1.505.57-2.242.845-.248.093-.374.37-.282.618.093.248.37.374.618.281zm6.723-2.57l2.237-.877c.246-.097.367-.375.27-.622-.097-.246-.376-.368-.622-.27l-2.234.876c-.247.096-.369.374-.273.621.097.247.375.369.622.273zm6.695-2.652l2.227-.899c.246-.1.364-.38.265-.625-.1-.245-.38-.364-.625-.264l-2.225.897c-.246.1-.365.379-.266.625.099.245.378.365.624.266zm6.68-2.716l2.218-.913c.244-.101.361-.382.26-.627-.101-.245-.382-.361-.627-.26l-2.216.913c-.245.1-.362.38-.261.626.1.245.38.362.626.261zm6.647-2.751l2.216-.925c.244-.103.36-.384.257-.628-.102-.245-.383-.36-.628-.258l-2.214.925c-.245.102-.36.383-.259.628.102.244.383.36.628.258zm6.65-2.786l2.212-.932c.244-.103.358-.384.255-.628-.102-.244-.384-.359-.628-.256l-2.21.931c-.245.103-.36.384-.257.629.103.244.384.358.629.256zm6.621-2.794l2.208-.933c.244-.103.358-.385.255-.629-.103-.244-.385-.358-.63-.255l-2.206.934c-.244.103-.359.384-.256.628.104.244.385.359.63.255zm6.627-2.802l2.21-.935c.245-.104.36-.385.256-.63-.103-.243-.385-.357-.629-.254l-2.211.935c-.244.103-.358.384-.255.629.103.244.385.358.629.255zm6.626-2.8l2.21-.93c.244-.102.359-.384.256-.628-.103-.244-.384-.359-.628-.256l-2.21.93c-.244.103-.359.385-.256.629.103.244.384.359.628.256zm6.634-2.785l2.214-.925c.245-.102.36-.383.259-.627-.102-.245-.383-.36-.628-.259l-2.215.925c-.245.102-.36.384-.258.628.103.244.384.36.628.258zm6.647-2.764l2.217-.914c.245-.1.362-.381.261-.626-.1-.245-.38-.362-.626-.262l-2.219.915c-.245.1-.361.381-.26.626.101.245.382.362.627.26zm6.664-2.731l2.222-.9c.246-.099.365-.378.266-.624-.1-.246-.379-.365-.625-.266l-2.224.9c-.246.1-.364.38-.264.626.1.245.38.363.625.264zm6.671-2.68l2.229-.88c.246-.097.368-.375.27-.622-.096-.247-.375-.368-.621-.271-.736.29-1.48.583-2.232.881-.246.098-.367.377-.269.623.098.247.377.367.623.27zm6.697-2.618l2.239-.856c.247-.094.372-.371.278-.619-.094-.247-.372-.372-.62-.278-.738.281-1.486.567-2.241.857-.248.096-.371.373-.276.62.095.248.373.371.62.276zm6.733-2.54c.759-.28 1.509-.555 2.25-.824.25-.09.379-.366.288-.615-.09-.25-.366-.378-.615-.287l-2.256.826c-.248.092-.376.368-.284.616.092.249.368.376.617.284zm6.765-2.434c.764-.267 1.519-.528 2.264-.782.251-.086.385-.359.3-.61-.086-.25-.359-.384-.61-.298-.747.255-1.504.517-2.27.785-.25.087-.383.36-.295.61.087.25.36.383.61.295zm6.808-2.295c.772-.25 1.532-.492 2.282-.727.253-.079.393-.348.314-.601-.079-.253-.348-.394-.601-.314-.753.235-1.516.479-2.29.73-.252.08-.39.351-.309.603.082.252.352.39.604.31zm6.872-2.112c.78-.225 1.548-.442 2.302-.65.256-.07.406-.334.336-.59-.07-.255-.335-.405-.59-.335-.76.209-1.53.427-2.315.653-.254.074-.4.34-.327.595.073.254.34.4.594.327zm6.924-1.847c.792-.19 1.568-.37 2.328-.539.258-.057.422-.313.365-.572-.058-.258-.314-.422-.572-.365-.767.17-1.549.35-2.347.544-.257.062-.415.32-.353.579.062.257.321.415.579.353zm7.018-1.464c.795-.139 1.581-.27 2.358-.392.262-.042.44-.287.4-.549-.042-.262-.288-.44-.55-.4-.782.124-1.573.256-2.373.396-.261.046-.436.294-.39.555.045.261.294.436.555.39zm7.094-1.053c.802-.096 1.593-.183 2.374-.26.264-.026.456-.261.43-.525-.026-.263-.261-.456-.525-.43-.787.078-1.585.166-2.394.263-.263.031-.45.27-.419.533.032.263.27.451.534.42zm7.14-.621c.807-.042 1.601-.072 2.383-.09.264-.007.474-.227.468-.492-.007-.265-.227-.474-.492-.468-.79.02-1.593.05-2.408.091-.265.014-.469.24-.455.504.014.265.24.468.504.455zm7.156-.06c.808.031 1.6.076 2.376.135.264.02.495-.178.515-.442.02-.264-.178-.495-.442-.515-.788-.06-1.592-.105-2.412-.137-.264-.01-.487.196-.498.46-.01.266.196.489.461.499zm7.123.696c.798.13 1.576.279 2.333.444.259.056.514-.108.57-.367.057-.259-.107-.515-.366-.57-.774-.17-1.567-.32-2.381-.454-.262-.043-.509.134-.551.396-.043.261.134.508.395.55zm6.88 1.718c.76.267 1.493.554 2.2.862.244.105.526-.006.632-.249.106-.243-.005-.526-.248-.631-.73-.318-1.485-.613-2.266-.887-.25-.088-.524.044-.612.294-.088.25.044.524.294.611zm6.38 3.115c.665.44 1.297.903 1.897 1.391.205.167.508.136.675-.07.167-.205.136-.507-.07-.674-.624-.508-1.282-.99-1.972-1.448-.221-.146-.519-.085-.665.136-.146.22-.086.519.135.665zm5.229 4.748c.488.613.942 1.25 1.36 1.912.142.224.439.29.663.149.223-.142.29-.438.148-.662-.437-.691-.91-1.357-1.42-1.997-.166-.207-.468-.241-.675-.076-.207.165-.241.467-.076.674zm3.45 6.137c.273.727.514 1.474.723 2.241.07.256.333.407.589.337.255-.07.406-.333.336-.589-.216-.795-.466-1.57-.748-2.326-.093-.248-.37-.374-.618-.28-.248.092-.374.369-.281.617zm1.578 6.855c.082.772.138 1.56.168 2.36.01.264.232.47.497.461.265-.01.472-.232.462-.497-.03-.822-.088-1.631-.173-2.426-.028-.264-.264-.454-.528-.426-.263.028-.454.264-.426.528z"/>
                            <path fill="#B39C7D" fill-rule="nonzero" d="M263.77 32.034c0 .775-.056 1.544-.167 2.305-.048.328.18.632.507.68.328.047.632-.18.68-.507.12-.819.179-1.645.179-2.478 0-.331-.269-.6-.6-.6-.331 0-.6.269-.6.6zm-1.496 6.78c-.316.693-.682 1.376-1.097 2.048-.174.282-.086.651.196.825.281.174.651.087.825-.195.44-.714.83-1.441 1.168-2.181.137-.301.004-.657-.297-.795-.301-.137-.657-.004-.795.297zm-3.99 5.746c-.53.552-1.097 1.092-1.7 1.619-.249.218-.274.596-.056.846.218.25.597.275.846.057.628-.55 1.22-1.114 1.775-1.69.23-.24.222-.62-.017-.849-.238-.23-.618-.222-.848.017zm-5.437 4.424c-.648.42-1.322.828-2.022 1.224-.288.163-.39.53-.226.818.163.288.529.39.817.226.72-.408 1.415-.828 2.084-1.262.277-.18.357-.551.176-.83-.18-.277-.551-.356-.83-.176zm-6.297 3.35c-.713.312-1.445.612-2.195.9-.31.12-.463.467-.344.776.119.309.466.463.775.344.766-.295 1.514-.602 2.243-.92.304-.133.443-.486.31-.79-.132-.303-.486-.442-.79-.31zm-6.747 2.444c-.75.223-1.515.435-2.292.637-.321.084-.513.411-.43.732.083.32.41.513.731.43.791-.206 1.569-.422 2.332-.649.318-.094.499-.428.405-.746-.095-.317-.429-.498-.746-.404zm-6.991 1.698c-.771.149-1.553.288-2.344.418-.327.054-.549.362-.495.69.054.326.362.548.689.494.803-.132 1.595-.273 2.378-.425.325-.063.537-.377.475-.703-.063-.325-.378-.537-.703-.474zm-6.948 1.052c-.782.088-1.573.167-2.372.237-.33.03-.574.32-.545.65.029.33.32.574.65.545.808-.07 1.609-.15 2.401-.24.33-.037.566-.334.53-.663-.038-.329-.334-.566-.664-.529zm-7.123.545c-.789.034-1.584.06-2.385.076-.331.007-.594.281-.587.613.007.33.281.593.613.586.81-.017 1.613-.042 2.41-.076.33-.014.588-.294.574-.625-.014-.33-.294-.588-.625-.574zm-7.18.08c-.791-.014-1.587-.037-2.387-.067-.331-.013-.61.245-.622.576-.013.331.245.61.576.622.808.031 1.612.054 2.41.069.33.006.604-.257.61-.588.007-.331-.256-.605-.588-.611zm-7.175-.337c-.789-.058-1.583-.124-2.38-.197-.33-.03-.622.213-.652.542-.03.33.213.622.543.652.804.074 1.604.14 2.4.2.33.024.619-.224.643-.554.025-.33-.223-.618-.554-.643zm-7.145-.714c-.786-.098-1.575-.204-2.368-.315-.328-.047-.632.181-.678.51-.046.327.182.63.51.677.799.113 1.595.22 2.387.318.33.041.629-.192.67-.52.041-.33-.192-.629-.52-.67zm-7.1-1.054c-.782-.133-1.568-.272-2.356-.417-.326-.06-.638.155-.698.48-.06.327.155.64.48.7.794.145 1.585.285 2.373.42.326.055.636-.165.691-.491.056-.327-.164-.636-.49-.692zm-7.05-1.343c-.778-.163-1.558-.332-2.342-.506-.323-.072-.644.132-.715.455-.072.323.131.644.455.716.788.175 1.573.345 2.355.509.324.068.642-.14.71-.464.068-.324-.14-.642-.464-.71zm-7.002-1.598c-.771-.189-1.545-.384-2.323-.583-.321-.083-.648.11-.73.431-.083.321.11.648.431.73.782.201 1.56.397 2.336.587.321.08.646-.117.725-.44.08-.32-.117-.646-.44-.725zm-6.955-1.821c-.765-.213-1.533-.43-2.305-.652-.319-.091-.65.093-.742.411-.092.319.092.65.41.742.776.223 1.548.441 2.316.654.32.089.65-.098.739-.417.088-.32-.099-.65-.418-.738zm-6.888-2.01c-.757-.232-1.519-.468-2.284-.709-.316-.1-.653.077-.752.393-.1.316.076.652.392.751.769.242 1.533.479 2.293.711.317.097.652-.081.75-.398.096-.317-.082-.652-.399-.749zm-6.847-2.179c-.752-.248-1.51-.501-2.272-.758-.314-.106-.654.062-.76.376-.106.314.063.654.377.76.764.258 1.524.512 2.28.761.314.104.653-.067.757-.382.104-.314-.067-.653-.382-.757zm-6.808-2.32c-.748-.262-1.5-.529-2.26-.8-.312-.111-.655.051-.766.363-.112.312.05.655.363.767l2.266.802c.312.11.655-.055.764-.367.11-.313-.054-.655-.367-.765zm-6.772-2.437c-.741-.273-1.49-.55-2.245-.832-.31-.116-.656.042-.771.352-.116.31.041.656.352.772l2.25.834c.31.114.655-.045.77-.356.114-.31-.045-.655-.356-.77zm-6.716-2.52l-2.238-.86c-.31-.119-.657.035-.776.344-.12.31.035.656.344.776l2.242.86c.31.118.656-.037.774-.346.119-.31-.036-.656-.346-.774zm-6.706-2.597l-2.232-.878c-.308-.122-.656.03-.778.338-.121.308.03.656.338.778l2.234.878c.308.121.656-.03.777-.34.12-.308-.031-.656-.34-.776zm-6.692-2.647l-2.229-.89c-.307-.123-.656.027-.78.334-.122.308.027.657.335.78l2.23.89c.308.123.657-.028.78-.335.122-.308-.028-.657-.336-.78zM115.02 31.9l-2.226-.893c-.308-.124-.657.026-.78.333-.124.308.026.657.333.78l2.227.893c.307.123.656-.026.78-.333.123-.308-.026-.657-.334-.78zm-6.686-2.68l-2.23-.89c-.307-.122-.656.028-.779.336-.122.308.028.656.335.779l2.229.89c.308.122.657-.028.78-.335.122-.308-.027-.657-.335-.78zm-6.687-2.656l-2.235-.877c-.308-.121-.656.031-.777.34-.12.308.032.656.34.777l2.233.876c.308.121.656-.03.778-.338.12-.308-.03-.657-.339-.778zm-6.714-2.614l-2.244-.856c-.31-.117-.656.039-.773.349-.117.31.039.656.348.773l2.239.854c.309.119.656-.036.775-.345.118-.31-.036-.656-.345-.775zm-6.748-2.54l-2.256-.824c-.312-.112-.655.049-.768.36-.113.312.048.656.36.768l2.25.822c.31.114.655-.045.77-.356.114-.31-.045-.655-.356-.77zm-6.796-2.434c-.766-.266-1.524-.526-2.273-.78-.314-.106-.654.063-.76.376-.107.314.061.655.375.76.747.254 1.501.512 2.265.777.313.109.655-.057.763-.37.109-.312-.057-.654-.37-.763zM74.564 16.7l-.264-.084c-.678-.216-1.357-.425-2.038-.628-.317-.094-.651.087-.746.404-.094.317.087.651.404.746l1.01.305 1.269.4c.315.1.653-.074.754-.39.1-.315-.074-.652-.39-.753zm-6.95-1.988c-.783-.197-1.565-.386-2.349-.565-.323-.074-.645.128-.719.45-.074.323.128.645.451.719.775.178 1.55.364 2.323.559.321.08.647-.114.728-.435.081-.322-.114-.648-.435-.728zm-7.08-1.543c-.793-.146-1.585-.283-2.376-.411-.327-.053-.635.169-.688.496-.053.327.17.635.496.688.783.127 1.566.262 2.35.407.326.06.638-.156.699-.482.06-.325-.156-.638-.482-.698zm-7.181-1.08c-.802-.093-1.602-.177-2.4-.251-.33-.031-.621.211-.652.54-.031.33.211.623.541.654.789.073 1.58.156 2.372.249.33.038.627-.198.665-.527.039-.329-.197-.627-.526-.665zm-7.196-.587c-.808-.038-1.613-.065-2.413-.083-.331-.007-.605.256-.613.587-.007.33.256.605.587.612.79.018 1.585.045 2.383.082.331.015.612-.24.627-.571.015-.331-.24-.612-.571-.627zm-7.267-.065c-.811.024-1.616.06-2.414.105-.33.019-.583.302-.564.633.018.33.302.583.633.564.787-.045 1.58-.08 2.38-.103.332-.01.592-.286.582-.617-.01-.331-.286-.592-.617-.582zm-7.204.517c-.81.093-1.61.2-2.4.316-.327.049-.553.354-.504.682.048.327.353.553.681.505.777-.116 1.564-.22 2.36-.312.33-.038.566-.336.527-.665-.038-.329-.335-.565-.664-.526zm-7.172 1.195c-.8.177-1.584.367-2.354.57-.32.085-.511.413-.427.733.085.32.413.511.733.427.754-.199 1.524-.386 2.307-.56.324-.071.528-.391.456-.715-.072-.323-.392-.527-.715-.455zM17.5 15.17c-.775.283-1.529.58-2.26.893-.305.13-.447.482-.317.786.13.305.482.447.787.317.712-.304 1.446-.593 2.2-.869.312-.113.472-.457.359-.769-.114-.31-.458-.471-.77-.358zm-6.664 3.102c-.718.424-1.404.864-2.058 1.322-.27.19-.337.564-.147.835.19.271.564.337.835.147.628-.44 1.288-.863 1.98-1.27.284-.168.38-.536.211-.822-.168-.285-.536-.38-.821-.212zm-5.775 4.468c-.583.605-1.12 1.23-1.61 1.874-.2.264-.148.64.116.84.264.2.64.149.84-.115.46-.606.966-1.195 1.517-1.766.23-.238.224-.618-.014-.848-.239-.23-.618-.223-.849.015zm-4.056 6.217c-.3.776-.541 1.57-.722 2.383-.072.323.132.643.455.715.324.072.644-.132.716-.455.168-.753.391-1.49.67-2.21.12-.309-.034-.656-.343-.775-.31-.12-.656.034-.776.342z"/>
                            <circle cx="16.673" cy="14.994" r="7.797" fill="url(#x2cb3dd1nd)"/>
                            <circle cx="83.245" cy="52.778" r="9.596" fill="url(#708qtrribe)"/>
                            <circle cx="224.786" cy="57.576" r="14.394" fill="url(#tby3wzt9sf)"/>
                            <circle cx="194.798" cy="9.596" r="4.798" fill="url(#708qtrribe)"/>
                            <circle cx="218.788" cy="4.798" r="4.798" fill="url(#708qtrribe)"/>
                            <circle cx="257.172" cy="45.581" r="4.798" fill="url(#kk2i9r7heg)"/>
                            <circle cx="160.013" cy="22.79" r="3.598" fill="url(#708qtrribe)"/>
                            <circle cx="5.278" cy="51.578" r="4.798" fill="url(#kk2i9r7heg)"/>
                            <circle cx="43.662" cy="11.995" r="4.798" fill="url(#kk2i9r7heg)"/>
                        </g>
                    </g>
                    <g fill-rule="nonzero">
                        <path fill="#4D463D" d="M60.45 22.624v-7.258h2.153l4.074 7.258h3.395l-4.987-8.663v-.047L69.791 6h-3.278l-3.91 6.767H60.45V6h-3.02v16.624h3.02zm21.361 0v-2.599h-7.188V6h-3.02v16.624H81.81zm4.468 0l1.405-4.261h5.83l1.405 4.261h3.114L92.18 6h-3.161l-5.854 16.624h3.114zm6.486-6.72H88.41l1.475-4.448c.328-.937.703-2.576.703-2.576h.046s.352 1.639.656 2.576l1.475 4.448zm10.857 6.72V15.67L109.148 6h-3.419l-2.576 4.894c-.538 1.03-1.006 2.224-1.006 2.224h-.047c-.024.023-.469-1.194-1.007-2.224L98.493 6h-3.418l5.526 9.67v6.954h3.02zm8.905.281c2.833 0 4.566-1.592 4.566-3.582 0-3.84-5.807-3.63-5.807-5.315 0-.75.75-1.077 1.522-1.077 1.826 0 2.927 1.03 2.927 1.03l1.1-2.201s-1.31-1.358-4.004-1.358c-2.575 0-4.565 1.288-4.565 3.512 0 3.84 5.806 3.606 5.806 5.386 0 .702-.725 1.077-1.568 1.077-1.944 0-3.255-1.312-3.255-1.312l-1.358 2.084s1.662 1.756 4.636 1.756zm12.035-.28l2.014-6.814c.187-.632.28-1.288.28-1.288h.048s.117.656.304 1.288l2.014 6.813h3.301l3.63-11.941h-3.091l-2.084 7.844c-.164.632-.258 1.264-.258 1.264h-.047s-.093-.632-.257-1.264l-2.201-7.82h-2.646l-2.2 7.82c-.165.632-.282 1.264-.282 1.264h-.047s-.07-.632-.234-1.264l-2.084-7.844h-3.137l3.652 11.941h3.325zm16.07.28c2.715 0 3.652-2.107 3.628-2.107h.047s-.047.375-.047.843v.983H147v-7.469c0-3.02-1.827-4.753-4.964-4.753-2.833 0-4.683 1.475-4.683 1.475l1.124 2.13s1.569-1.147 3.278-1.147c1.311 0 2.295.539 2.295 2.108v.164h-.398c-1.944 0-7.072.257-7.072 4.05 0 2.389 1.92 3.723 4.051 3.723zm.748-2.318c-1.217 0-1.803-.749-1.803-1.545 0-1.662 2.459-1.873 3.98-1.873h.516v.28c0 1.452-1.124 3.138-2.693 3.138zm11.152 6.72v-5.01c0-.61-.047-1.03-.047-1.03h.047s1.054 1.638 3.419 1.638c3.137 0 5.455-2.458 5.455-6.251 0-3.7-2.06-6.252-5.291-6.252-2.81 0-3.84 1.967-3.84 1.967h-.047s.047-.375.047-.82v-.866h-2.717v16.624h2.974zm2.88-6.907c-1.967 0-2.974-1.826-2.974-3.676 0-2.646 1.452-3.77 2.997-3.77 1.757 0 2.974 1.475 2.974 3.746 0 2.365-1.358 3.7-2.997 3.7z" transform="translate(-394 -2909) translate(200 2780) translate(194 129.968) translate(51.5 10.333)"/>
                        <g fill="#FF9632">
                            <path d="M9.553 13.487L18.714 22.665 50.576 22.665 18.17 4.777zM8.898 14.142L.375 22.665 17.42 22.665zM8.617 13.206L17.42 4.308 9.553 0 1.218 20.699z" transform="translate(-394 -2909) translate(200 2780) translate(194 129.968) translate(51.5 10.333)"/>
                        </g>
                    </g>
                </g>
            </g>
        </g>
    </g>
</svg>
