<svg xmlns="http://www.w3.org/2000/svg" xmlns:xlink="http://www.w3.org/1999/xlink" width="790" height="280" viewBox="0 0 790 280">
    <defs>
        <linearGradient id="dpolhqafuo" x1="61.833%" x2="53.676%" y1="35.992%" y2="44.019%">
            <stop offset="0%" stop-color="#FFF"/>
            <stop offset="99.931%" stop-color="#FAFBFC"/>
        </linearGradient>
        <linearGradient id="z5qyfp6rfp" x1="50%" x2="50%" y1="25.468%" y2="100%">
            <stop offset="0%" stop-color="#FF9632" stop-opacity="0"/>
            <stop offset="100%" stop-color="#FF9632" stop-opacity=".3"/>
        </linearGradient>
        <linearGradient id="pg30vmjfcr" x1="76.783%" x2="84.414%" y1="43.838%" y2="60.016%">
            <stop offset="0%" stop-color="#FFF" stop-opacity="0"/>
            <stop offset="100%" stop-color="#FF9632" stop-opacity=".5"/>
        </linearGradient>
        <linearGradient id="bmg9skw0bs" x1="24.26%" x2="84.719%" y1="41.446%" y2="54.055%">
            <stop offset="0%" stop-color="#FFF7F1"/>
            <stop offset="100%" stop-color="#FCF0E3"/>
        </linearGradient>
        <linearGradient id="8403sxwjnt" x1="100%" x2="-1.405%" y1="50%" y2="50%">
            <stop offset="0%" stop-color="#B39C7D"/>
            <stop offset="6.546%" stop-color="#E6D2B8"/>
            <stop offset="49.327%" stop-color="#E6D2B8"/>
            <stop offset="83.94%" stop-color="#E6D2B8"/>
            <stop offset="100%" stop-color="#B39C7D"/>
        </linearGradient>
        <linearGradient id="0noypxyahu" x1="50%" x2="50%" y1="0%" y2="100%">
            <stop offset="0%" stop-color="#FFF"/>
            <stop offset="100%" stop-color="#FAC88E"/>
        </linearGradient>
        <linearGradient id="ybegz925tv" x1="50%" x2="50%" y1="0%" y2="100%">
            <stop offset="0%" stop-color="#FFF"/>
            <stop offset="100%" stop-color="#FFF7F1"/>
        </linearGradient>
        <linearGradient id="whg2fj2fiw" x1="100%" x2="0%" y1="100%" y2="0%">
            <stop offset="0%" stop-color="#FAC88E"/>
            <stop offset="62.679%" stop-color="#FF9632"/>
            <stop offset="100%" stop-color="#E66D16"/>
        </linearGradient>
        <linearGradient id="dlk4aj2h8x" x1="0%" x2="100%" y1="0%" y2="100%">
            <stop offset="0%" stop-color="#FAC88E"/>
            <stop offset="100%" stop-color="#FFE1CC"/>
        </linearGradient>
        <linearGradient id="ndxaahzq9y" x1="0%" x2="100%" y1="0%" y2="100%">
            <stop offset="0%" stop-color="#FFF"/>
            <stop offset="58.773%" stop-color="#FF9632"/>
            <stop offset="100%" stop-color="#E66D16"/>
        </linearGradient>
        <linearGradient id="bmrv8zswkz" x1="50%" x2="50%" y1="0%" y2="100%">
            <stop offset="0%" stop-color="#FAC88E"/>
            <stop offset="100%" stop-color="#F39755"/>
        </linearGradient>
        <linearGradient id="d4vkjt2gbA" x1="50%" x2="50%" y1="0%" y2="100%">
            <stop offset="0%" stop-color="#FAC88E"/>
            <stop offset="100%" stop-color="#FF9632"/>
        </linearGradient>
        <filter id="bxrw4ckpyd" width="104.1%" height="108.7%" x="-2%" y="-4.3%" filterUnits="objectBoundingBox">
            <feOffset dx="-1" dy="-2" in="SourceAlpha" result="shadowOffsetInner1"/>
            <feComposite in="shadowOffsetInner1" in2="SourceAlpha" k2="-1" k3="1" operator="arithmetic" result="shadowInnerInner1"/>
            <feColorMatrix in="shadowInnerInner1" values="0 0 0 0 0.870588235 0 0 0 0 0.890196078 0 0 0 0 0.921568627 0 0 0 1 0"/>
        </filter>
        <filter id="xc7sye0j9e" width="150%" height="271.4%" x="-25%" y="-85.7%" filterUnits="objectBoundingBox">
            <feGaussianBlur in="SourceGraphic" stdDeviation="2"/>
        </filter>
        <filter id="cq1wb4mn6g" width="103.8%" height="108.1%" x="-1.9%" y="-4.1%" filterUnits="objectBoundingBox">
            <feOffset dx="-1" dy="-3" in="SourceAlpha" result="shadowOffsetInner1"/>
            <feComposite in="shadowOffsetInner1" in2="SourceAlpha" k2="-1" k3="1" operator="arithmetic" result="shadowInnerInner1"/>
            <feColorMatrix in="shadowInnerInner1" values="0 0 0 0 1 0 0 0 0 0.588235294 0 0 0 0 0.196078431 0 0 0 0.4 0"/>
        </filter>
        <filter id="aupp03l21h" width="137.5%" height="271.4%" x="-18.8%" y="-85.7%" filterUnits="objectBoundingBox">
            <feGaussianBlur in="SourceGraphic" stdDeviation="2"/>
        </filter>
        <filter id="bmueo5dj3j" width="104.1%" height="108.7%" x="-2%" y="-4.3%" filterUnits="objectBoundingBox">
            <feOffset dx="-1" dy="-2" in="SourceAlpha" result="shadowOffsetInner1"/>
            <feComposite in="shadowOffsetInner1" in2="SourceAlpha" k2="-1" k3="1" operator="arithmetic" result="shadowInnerInner1"/>
            <feColorMatrix in="shadowInnerInner1" values="0 0 0 0 0.870588235 0 0 0 0 0.890196078 0 0 0 0 0.921568627 0 0 0 1 0"/>
        </filter>
        <filter id="9qji82wiqk" width="150%" height="271.4%" x="-25%" y="-85.7%" filterUnits="objectBoundingBox">
            <feGaussianBlur in="SourceGraphic" stdDeviation="2"/>
        </filter>
        <filter id="zdsv4x7j9l" width="150%" height="271.4%" x="-25%" y="-85.7%" filterUnits="objectBoundingBox">
            <feGaussianBlur in="SourceGraphic" stdDeviation="2"/>
        </filter>
        <filter id="v38wlo82jn" width="103.8%" height="108.1%" x="-1.9%" y="-4.1%" filterUnits="objectBoundingBox">
            <feOffset dx="-1" dy="-3" in="SourceAlpha" result="shadowOffsetInner1"/>
            <feComposite in="shadowOffsetInner1" in2="SourceAlpha" k2="-1" k3="1" operator="arithmetic" result="shadowInnerInner1"/>
            <feColorMatrix in="shadowInnerInner1" values="0 0 0 0 0.701960784 0 0 0 0 0.611764706 0 0 0 0 0.490196078 0 0 0 0.5 0"/>
        </filter>
        <filter id="auz9cw0j1B" width="123.2%" height="152%" x="-11.6%" y="-26%" filterUnits="objectBoundingBox">
            <feOffset dy="1" in="SourceAlpha" result="shadowOffsetOuter1"/>
            <feGaussianBlur in="shadowOffsetOuter1" result="shadowBlurOuter1" stdDeviation="1"/>
            <feColorMatrix in="shadowBlurOuter1" result="shadowMatrixOuter1" values="0 0 0 0 0 0 0 0 0 0 0 0 0 0 0 0 0 0 0.1 0"/>
            <feMerge>
                <feMergeNode in="shadowMatrixOuter1"/>
                <feMergeNode in="SourceGraphic"/>
            </feMerge>
        </filter>
        <filter id="whul71mbqC" width="137.5%" height="271.4%" x="-18.8%" y="-85.7%" filterUnits="objectBoundingBox">
            <feGaussianBlur in="SourceGraphic" stdDeviation="2"/>
        </filter>
        <ellipse id="f5gnj84stc" cx="426.5" cy="28.5" rx="24.5" ry="11.5"/>
        <ellipse id="h5rvrs22of" cx="533.5" cy="93.5" rx="39.5" ry="18.5"/>
        <ellipse id="7erhribf7i" cx="425.5" cy="28.5" rx="24.5" ry="11.5"/>
        <ellipse id="y34psiq3tm" cx="532.5" cy="93.5" rx="39.5" ry="18.5"/>
        <radialGradient id="uytuvbjipD" cx="100%" cy="100%" r="141.421%" fx="100%" fy="100%">
            <stop offset="0%" stop-color="#00AE87"/>
            <stop offset="100%" stop-color="#0767B2"/>
        </radialGradient>
        <rect id="s4ig1m7qda" width="790" height="280" x="0" y="0" rx="3"/>
        <path id="95d40f8lfq" d="M.813.297v91.36c3.714 14.54 15.168 21.66 34.36 21.356 19.194-.303 44.963-8.489 77.31-24.556 29.886 12.948 56.676 19.43 80.37 19.446 23.695.015 37.646-7.591 41.853-22.818V.297H.813z"/>
    </defs>
    <g fill="none" fill-rule="evenodd">
        <g>
            <g transform="translate(-101 -1022) translate(101 1022)">
                <mask id="pv4ah901ub" fill="#fff">
                    <use xlink:href="#s4ig1m7qda"/>
                </mask>
                <use fill="#FFF" xlink:href="#s4ig1m7qda"/>
                <g mask="url(#pv4ah901ub)">
                    <g transform="translate(176 118)">
                        <path fill="#DEE3EB" fill-rule="nonzero" d="M328.234 24.837L416.553 71.638 416.085 72.521 327.766 25.72z" transform="rotate(-45 372.16 48.679)"/>
                        <path fill="#DEE3EB" fill-rule="nonzero" d="M318.234 24.837L406.553 71.638 406.085 72.521 317.766 25.72z" transform="rotate(-45 362.16 48.679)"/>
                        <g>
                            <use fill="#EBEEF2" xlink:href="#f5gnj84stc"/>
                            <use fill="#000" filter="url(#bxrw4ckpyd)" xlink:href="#f5gnj84stc"/>
                        </g>
                        <ellipse cx="12" cy="28.5" fill="#6F6558" fill-opacity=".2" filter="url(#xc7sye0j9e)" rx="12" ry="3.5"/>
                        <path fill="#DEE3EB" fill-rule="nonzero" d="M369.034 34.704L410.642 117.76 498.821 164.487 498.352 165.37 409.892 118.494 368.14 35.152z" transform="rotate(-45 433.48 100.037)"/>
                        <path fill="#DEE3EB" fill-rule="nonzero" d="M368.149 32.025L409.758 117.903 510.543 170.17 510.083 171.058 409.003 118.638 367.249 32.461z" transform="rotate(-45 438.896 101.541)"/>
                        <g>
                            <use fill="#FFF2E6" xlink:href="#h5rvrs22of"/>
                            <use fill="#000" filter="url(#cq1wb4mn6g)" xlink:href="#h5rvrs22of"/>
                        </g>
                        <ellipse cx="534" cy="90.5" fill="#E66D16" fill-opacity=".2" filter="url(#aupp03l21h)" rx="16" ry="3.5"/>
                    </g>
                </g>
                <g mask="url(#pv4ah901ub)">
                    <g transform="matrix(-1 0 0 1 614 118)">
                        <path fill="#DEE3EB" fill-rule="nonzero" d="M327.234 24.837L415.553 71.638 415.085 72.521 326.766 25.72z" transform="rotate(-45 371.16 48.679)"/>
                        <path fill="#DEE3EB" fill-rule="nonzero" d="M317.234 24.837L405.553 71.638 405.085 72.521 316.766 25.72z" transform="rotate(-45 361.16 48.679)"/>
                        <g>
                            <use fill="#EBEEF2" xlink:href="#7erhribf7i"/>
                            <use fill="#000" filter="url(#bmueo5dj3j)" xlink:href="#7erhribf7i"/>
                        </g>
                        <ellipse cx="426" cy="28.5" fill="#6F6558" fill-opacity=".2" filter="url(#9qji82wiqk)" rx="12" ry="3.5"/>
                        <ellipse cx="12" cy="28.5" fill="#6F6558" fill-opacity=".2" filter="url(#zdsv4x7j9l)" rx="12" ry="3.5"/>
                        <path fill="#DEE3EB" fill-rule="nonzero" d="M368.034 34.704L409.642 117.76 497.821 164.487 497.352 165.37 408.892 118.494 367.14 35.152z" transform="rotate(-45 432.48 100.037)"/>
                        <path fill="#DEE3EB" fill-rule="nonzero" d="M367.149 32.025L408.758 117.903 509.543 170.17 509.083 171.058 408.003 118.638 366.249 32.461z" transform="rotate(-45 437.896 101.541)"/>
                        <g>
                            <use fill="#F2EDE6" xlink:href="#y34psiq3tm"/>
                            <use fill="#000" filter="url(#v38wlo82jn)" xlink:href="#y34psiq3tm"/>
                        </g>
                    </g>
                </g>
                <g mask="url(#pv4ah901ub)">
                    <g>
                        <g>
                            <path fill="url(#dpolhqafuo)" d="M65.27 60.199L254.704 171.484 354.594 349.523 158.034 245.364z" transform="translate(185 -16) rotate(-45 209.932 204.86)"/>
                            <path fill="#FFF" d="M357.641 351.27L161.081 247.111 68.317 61.946 61.628 68.634 154.392 253.8 350.817 357.823z" transform="translate(185 -16) rotate(-45 209.635 209.885)"/>
                            <path fill="#DEE3EB" fill-rule="nonzero" d="M64.125 68.212c.94-.471 2.075-.131 2.608.755l.075.137 92.477 184.592 195.996 103.86c.93.493 1.31 1.615.898 2.563l-.068.141c-.492.93-1.613 1.312-2.562.899l-.141-.068-196.56-104.159c-.315-.167-.579-.414-.765-.716l-.087-.155L63.232 70.896c-.495-.988-.095-2.19.893-2.684z" transform="translate(185 -16) rotate(-45 209.682 214.662)"/>
                            <path fill="#DEE3EB" fill-rule="nonzero" d="M64.125 58.752c.94-.47 2.075-.13 2.608.756l.075.137 92.478 184.593 195.995 103.86c.93.492 1.31 1.613.898 2.562l-.068.14c-.492.93-1.613 1.312-2.562.9l-.141-.068-196.56-104.16c-.315-.166-.579-.414-.765-.715l-.087-.155L63.232 61.436c-.495-.987-.095-2.189.893-2.684z" transform="translate(185 -16) rotate(-45 209.682 205.202)"/>
                        </g>
                        <g>
                            <g transform="translate(185 -16) translate(93 94)">
                                <g>
                                    <use fill="url(#z5qyfp6rfp)" xlink:href="#95d40f8lfq"/>
                                    <use fill="url(#pg30vmjfcr)" xlink:href="#95d40f8lfq"/>
                                </g>
                                <path fill="url(#bmg9skw0bs)" d="M.813 91.657c3.714 14.54 15.168 21.66 34.36 21.356 19.194-.303 44.963-8.489 77.31-24.556-35.515-15.347-62.63-22.525-81.347-21.532C12.42 67.918 2.312 76.162.813 91.657z"/>
                                <path fill="url(#8403sxwjnt)" fill-rule="nonzero" d="M.882 87.69c0 .727.025 1.442.074 2.145.017.233.219.41.452.393.234-.017.41-.219.393-.452-.048-.683-.072-1.379-.072-2.086 0-.234-.19-.423-.423-.423-.234 0-.424.19-.424.423zm.71 6.409c.165.707.36 1.398.583 2.073.074.222.313.343.535.27.222-.074.342-.314.27-.536-.216-.65-.404-1.318-.564-2-.053-.228-.281-.37-.509-.316-.227.053-.369.281-.315.509zm2.326 6.035c.353.628.737 1.238 1.15 1.827.134.192.398.239.59.104.19-.134.237-.398.103-.59-.397-.566-.765-1.152-1.104-1.756-.115-.204-.373-.276-.577-.161-.204.114-.276.372-.162.576zm4.023 5.167c.514.492 1.056.964 1.624 1.417.183.145.449.115.595-.067.145-.183.115-.45-.068-.595-.548-.437-1.07-.893-1.566-1.367-.169-.162-.437-.155-.598.014-.162.169-.156.437.013.598zm5.143 3.779c.614.346 1.25.675 1.907.986.211.1.464.01.564-.202.1-.211.01-.463-.202-.563-.639-.303-1.257-.623-1.853-.959-.204-.115-.462-.043-.577.16-.115.205-.043.463.161.578zm5.94 2.587c.667.218 1.35.423 2.05.612.226.06.458-.073.52-.298.06-.226-.073-.459-.299-.52-.685-.185-1.354-.385-2.007-.599-.222-.073-.46.048-.534.27-.073.222.048.462.27.535zm6.286 1.54c.69.119 1.394.225 2.11.318.232.03.444-.133.474-.364.03-.232-.133-.445-.364-.475-.705-.092-1.398-.197-2.077-.314-.23-.04-.45.115-.489.346-.04.23.115.45.346.489zm6.223.71c.7.043 1.408.075 2.128.097.233.007.429-.177.436-.41.007-.234-.177-.43-.41-.437-.711-.021-1.412-.053-2.102-.095-.233-.015-.434.163-.448.396-.015.234.163.434.396.449zm6.401.102c.7-.018 1.41-.046 2.126-.082.234-.012.413-.211.401-.445-.012-.233-.21-.413-.444-.4-.71.035-1.411.063-2.105.08-.233.007-.418.201-.412.435.006.234.2.418.434.412zm6.386-.4l1.03-.105 1.089-.123c.232-.027.398-.238.37-.47-.024-.203-.188-.356-.384-.372l-.107.004-.025.003c-.691.081-1.377.155-2.055.22-.233.023-.403.23-.38.463.022.232.229.403.462.38zm6.329-.913c.672-.135 1.366-.285 2.08-.449.228-.052.37-.28.317-.507-.052-.228-.28-.37-.507-.318-.707.163-1.392.31-2.057.444-.23.046-.378.269-.332.498.046.23.27.378.499.332zm6.212-1.496c.666-.183 1.348-.377 2.045-.58.224-.066.353-.301.287-.525-.065-.225-.3-.354-.525-.288l-1.364.39c-.224.064-.447.125-.667.186-.226.062-.358.295-.297.52.062.226.295.358.52.297zm6.098-1.825l1.336-.433.68-.224c.221-.074.341-.313.268-.535-.074-.222-.314-.342-.535-.269l-1.346.442-.661.213c-.223.071-.345.31-.274.532.071.223.31.346.532.274zm6.037-2.033l1.324-.47.672-.24c.22-.08.335-.322.255-.542-.079-.22-.321-.334-.541-.255l-1.334.476-.657.232c-.22.078-.337.32-.26.54.078.22.32.336.54.259zm5.972-2.17c.652-.243 1.313-.492 1.983-.746.219-.083.329-.328.246-.546-.083-.219-.328-.329-.546-.246-.67.254-1.33.503-1.98.746-.218.082-.33.325-.248.544.082.22.326.33.545.249zm5.932-2.266l1.974-.774c.217-.086.324-.332.238-.55-.085-.217-.331-.324-.549-.238l-1.97.773c-.218.085-.326.33-.241.548.085.218.33.326.548.24zm5.908-2.341l1.965-.793c.216-.088.32-.335.233-.551-.088-.217-.335-.322-.551-.234l-1.963.792c-.217.087-.322.334-.235.55.087.218.334.323.55.236zm5.893-2.396l1.957-.806c.217-.09.32-.337.23-.553-.09-.216-.337-.319-.553-.23l-1.955.806c-.216.089-.32.336-.231.552.089.216.336.32.552.23zm5.866-2.428l1.955-.816c.215-.09.317-.339.227-.554-.09-.216-.338-.318-.554-.227l-1.954.816c-.216.09-.318.337-.228.553.09.216.338.318.554.228zm5.868-2.458l1.95-.822c.216-.09.317-.34.227-.555-.091-.215-.34-.316-.555-.225l-1.95.821c-.216.09-.317.34-.226.555.09.215.339.316.554.226zm5.842-2.465l1.948-.824c.215-.09.316-.34.224-.554-.09-.216-.339-.317-.554-.225l-1.948.823c-.215.091-.316.34-.225.555.091.215.34.316.555.225zm5.847-2.473l1.95-.825c.216-.091.317-.34.226-.555-.091-.215-.34-.316-.555-.225l-1.951.825c-.216.091-.316.34-.225.555.09.215.34.316.555.225zm5.847-2.47l1.95-.82c.215-.091.316-.34.225-.555-.09-.215-.339-.317-.554-.226l-1.95.821c-.216.09-.317.34-.226.555.091.215.34.316.555.225zm5.853-2.458l1.954-.816c.215-.09.318-.338.228-.553-.09-.216-.338-.318-.554-.228l-1.955.816c-.215.09-.317.338-.227.554.09.215.338.317.554.227zm5.865-2.439l1.956-.806c.216-.089.32-.336.23-.553-.088-.216-.336-.32-.552-.23l-1.958.807c-.216.089-.319.336-.23.553.09.216.338.318.554.23zm5.88-2.41l1.96-.793c.217-.087.322-.334.235-.551-.088-.217-.334-.322-.551-.234l-1.963.794c-.217.088-.321.335-.233.552.088.216.335.32.551.233zm5.886-2.364l1.967-.776c.217-.086.324-.332.239-.55-.086-.217-.331-.324-.55-.238l-1.968.777c-.218.087-.324.333-.238.55.087.217.333.324.55.237zm5.91-2.31l1.974-.755c.219-.083.329-.328.246-.546-.083-.219-.328-.329-.546-.245-.653.247-1.312.5-1.979.756-.218.084-.327.329-.243.547.084.218.33.327.547.243zm5.94-2.24c.67-.248 1.331-.49 1.986-.728.22-.08.333-.323.253-.543-.08-.22-.322-.333-.542-.253l-1.99.729c-.22.08-.332.324-.251.544.08.219.324.331.544.25zm5.969-2.148c.674-.236 1.34-.466 1.998-.69.221-.076.34-.317.264-.538-.076-.222-.316-.34-.538-.264-.66.225-1.327.456-2.003.692-.221.078-.338.319-.26.54.077.22.318.337.539.26zm6.008-2.026c.68-.22 1.351-.434 2.013-.641.223-.07.347-.307.277-.53-.07-.224-.308-.348-.53-.278-.665.208-1.338.423-2.021.644-.223.072-.345.31-.273.533.072.222.311.344.534.272zm6.063-1.863c.688-.2 1.365-.39 2.031-.574.226-.062.358-.295.296-.52-.062-.226-.295-.358-.52-.296-.67.184-1.35.376-2.043.577-.224.065-.354.3-.289.524.065.225.3.354.525.289zm6.109-1.63c.699-.168 1.383-.327 2.054-.475.228-.05.372-.277.322-.505-.05-.228-.276-.372-.505-.322-.676.15-1.366.31-2.07.48-.227.054-.367.283-.312.51.055.227.284.367.51.312zm6.192-1.292c.702-.122 1.396-.238 2.081-.346.231-.036.389-.253.352-.484-.036-.231-.253-.389-.484-.352-.69.109-1.388.225-2.094.348-.23.04-.385.26-.344.49.04.23.26.385.49.344zm6.26-.928c.707-.085 1.406-.162 2.094-.23.233-.023.403-.23.38-.463-.023-.233-.23-.403-.463-.38-.695.069-1.399.146-2.112.232-.232.028-.398.239-.37.47.028.233.239.398.47.37zm6.3-.549c.712-.037 1.413-.063 2.102-.08.234-.005.419-.2.413-.433-.005-.234-.2-.419-.433-.413-.697.017-1.406.043-2.126.08-.233.012-.413.211-.4.445.011.233.21.413.444.401zm6.314-.053c.713.028 1.412.068 2.097.12.233.017.436-.157.454-.39.017-.234-.157-.437-.39-.455-.696-.052-1.405-.093-2.128-.12-.234-.01-.43.172-.44.406-.009.233.173.43.407.44zm6.285.614c.704.116 1.39.247 2.058.392.229.05.454-.095.504-.324.05-.228-.095-.454-.324-.503-.682-.149-1.382-.282-2.1-.4-.231-.038-.45.118-.487.349-.038.23.118.448.35.486zm6.07 1.517c.671.235 1.318.488 1.942.76.215.093.464-.005.558-.22.093-.214-.005-.464-.22-.557-.643-.28-1.31-.54-2-.782-.22-.078-.461.038-.539.259-.077.22.04.462.26.54zm5.63 2.748c.587.387 1.144.797 1.674 1.227.181.148.448.12.595-.06.148-.182.12-.449-.061-.596-.551-.449-1.131-.875-1.74-1.278-.196-.129-.458-.075-.587.12-.13.195-.076.458.12.587zm4.614 4.19c.43.54.83 1.102 1.2 1.686.125.198.387.257.584.131.198-.125.257-.386.132-.584-.386-.61-.804-1.197-1.254-1.761-.146-.183-.412-.213-.595-.067-.183.145-.213.412-.067.595zm3.045 5.414c.24.641.452 1.3.637 1.978.061.225.294.358.52.297.225-.062.358-.294.296-.52-.19-.702-.41-1.386-.66-2.052-.082-.219-.326-.33-.545-.248-.22.082-.33.326-.248.545zm1.391 6.048c.073.682.122 1.377.148 2.083.01.233.206.416.44.407.233-.009.415-.205.406-.439-.026-.725-.077-1.439-.152-2.14-.025-.233-.233-.401-.466-.376-.232.024-.4.233-.376.465z"/>
                                <path fill="#997F5C" fill-rule="nonzero" d="M233.62 84.736c0 .684-.049 1.362-.147 2.034-.042.289.159.557.448.6.289.042.558-.159.6-.448.105-.722.157-1.451.157-2.186 0-.292-.237-.53-.529-.53-.292 0-.529.238-.529.53zm-1.319 5.982c-.28.612-.602 1.215-.968 1.807-.154.249-.076.575.172.729.249.153.575.076.729-.173.389-.63.732-1.271 1.03-1.924.121-.266.004-.58-.262-.701-.266-.122-.58-.004-.701.262zm-3.52 5.07c-.469.487-.969.963-1.5 1.428-.22.193-.243.527-.05.747.192.22.526.243.746.05.555-.485 1.077-.982 1.567-1.491.202-.211.195-.546-.015-.749-.211-.202-.546-.196-.749.015zm-4.798 3.904c-.572.37-1.167.73-1.784 1.08-.254.144-.344.467-.2.721.144.254.467.344.721.2.636-.36 1.249-.73 1.838-1.113.246-.16.316-.487.157-.732-.16-.246-.487-.315-.732-.156zm-5.557 2.956c-.63.275-1.275.54-1.936.794-.273.105-.41.411-.304.684.105.273.411.409.684.304.676-.26 1.336-.53 1.98-.812.267-.117.39-.429.273-.696-.117-.268-.429-.39-.697-.274zm-5.953 2.156c-.662.197-1.336.384-2.022.563-.283.073-.453.362-.38.645.074.283.363.452.646.379.698-.181 1.384-.372 2.057-.572.28-.083.44-.378.357-.658-.083-.28-.378-.44-.658-.357zm-6.168 1.498c-.68.132-1.37.255-2.069.37-.288.047-.484.319-.436.607.047.289.32.484.608.437.708-.116 1.407-.241 2.098-.375.286-.055.474-.333.419-.62-.056-.287-.334-.475-.62-.419zm-6.13.929c-.691.077-1.39.147-2.094.209-.291.026-.506.282-.48.573.025.292.281.507.573.481.713-.062 1.42-.133 2.119-.212.29-.032.5-.294.466-.584-.032-.29-.294-.5-.584-.467zm-6.286.48c-.696.03-1.397.053-2.104.068-.292.006-.524.248-.518.54.006.292.248.524.54.518.715-.015 1.424-.038 2.127-.068.292-.012.519-.26.506-.551-.012-.292-.259-.519-.551-.506zm-6.336.072c-.697-.014-1.4-.033-2.106-.06-.292-.011-.537.216-.548.509-.011.292.216.537.508.548.713.027 1.422.048 2.126.06.292.006.534-.226.54-.518.005-.292-.228-.534-.52-.54zm-6.33-.298c-.696-.052-1.396-.11-2.1-.174-.291-.027-.549.188-.575.479-.027.29.187.548.478.575.71.065 1.416.123 2.119.176.291.021.545-.198.567-.489.021-.291-.197-.545-.489-.567zm-6.304-.63c-.694-.087-1.39-.18-2.09-.279-.29-.04-.557.16-.598.45-.04.29.16.557.45.598.705.1 1.407.193 2.106.28.29.037.555-.168.591-.458.036-.29-.17-.555-.46-.591zm-6.265-.93c-.69-.118-1.383-.24-2.079-.369-.287-.053-.563.138-.616.425-.053.287.137.563.424.616.7.13 1.398.253 2.093.371.288.05.561-.145.61-.433.05-.288-.144-.561-.432-.61zm-6.221-1.185c-.686-.144-1.375-.293-2.066-.447-.285-.063-.568.116-.632.402-.063.285.117.568.402.631.696.155 1.388.305 2.078.45.286.06.567-.124.627-.41.06-.286-.123-.566-.41-.626zm-6.178-1.41c-.68-.167-1.364-.339-2.05-.515-.283-.073-.571.098-.644.381-.073.283.098.571.38.644.69.177 1.378.35 2.061.518.284.07.57-.104.64-.388.07-.284-.103-.57-.387-.64zm-6.137-1.607c-.674-.188-1.352-.38-2.034-.575-.28-.08-.574.082-.655.362-.08.281.082.574.363.655.684.197 1.365.39 2.043.577.282.079.573-.086.652-.368.078-.282-.087-.573-.369-.651zm-6.077-1.774c-.669-.205-1.34-.413-2.016-.625-.279-.088-.576.067-.664.346-.087.279.068.576.347.664.678.213 1.352.422 2.023.627.28.085.576-.072.661-.352.085-.28-.072-.575-.351-.66zm-6.042-1.922c-.664-.22-1.332-.442-2.004-.67-.277-.093-.577.056-.67.333-.094.277.054.577.331.67.675.228 1.345.452 2.012.672.277.091.576-.06.668-.337.092-.277-.06-.577-.337-.668zm-6.007-2.047c-.66-.232-1.324-.467-1.994-.706-.275-.098-.578.045-.676.32-.098.276.045.578.32.677l2 .707c.275.097.577-.048.674-.324.097-.275-.048-.577-.324-.674zm-5.975-2.15c-.654-.241-1.314-.486-1.981-.735-.274-.102-.579.037-.68.311-.103.274.036.579.31.681l1.985.736c.274.1.579-.04.68-.314.1-.274-.04-.578-.314-.68zm-5.926-2.224l-1.975-.759c-.273-.105-.58.031-.684.304-.106.272.03.579.303.684l1.978.76c.273.104.58-.033.684-.306.104-.273-.033-.58-.306-.683zm-5.918-2.292l-1.968-.774c-.272-.108-.58.026-.687.298-.107.272.026.579.298.686l1.971.775c.272.107.58-.027.686-.3.107-.271-.027-.578-.3-.685zm-5.904-2.336l-1.966-.784c-.272-.109-.58.023-.688.294-.109.272.023.58.295.688l1.967.786c.272.108.58-.025.688-.296.108-.272-.024-.58-.296-.688zm-5.898-2.36l-1.965-.788c-.271-.108-.58.023-.688.294-.109.272.023.58.294.689l1.965.788c.271.109.58-.023.688-.294.109-.272-.023-.58-.294-.689zm-5.9-2.364l-1.967-.785c-.272-.108-.58.024-.688.296-.108.271.025.58.296.687l1.967.785c.27.108.579-.024.687-.295.109-.271-.023-.58-.295-.688zm-5.9-2.344l-1.972-.774c-.272-.106-.579.028-.685.3-.107.272.028.58.3.686l1.97.773c.271.107.578-.026.686-.298.107-.272-.027-.58-.299-.687zm-5.925-2.306l-1.979-.755c-.273-.104-.579.034-.682.307-.104.273.034.579.307.682l1.975.754c.273.105.58-.032.684-.304.105-.273-.032-.58-.305-.684zm-5.953-2.241l-1.991-.727c-.275-.1-.578.043-.678.317-.1.275.043.579.318.678l1.985.725c.274.101.579-.04.68-.314.1-.274-.04-.578-.314-.68zm-5.997-2.148c-.676-.234-1.344-.464-2.006-.688-.276-.093-.577.055-.67.332-.094.277.054.577.331.67.659.224 1.325.452 1.998.686.277.096.578-.05.674-.326.096-.276-.05-.578-.327-.674zm-6.022-2.01l-.233-.075c-.598-.19-1.197-.374-1.798-.553-.28-.083-.574.076-.658.356-.083.28.076.575.356.658l.89.27 1.121.352c.278.089.576-.065.665-.343.089-.278-.065-.576-.343-.665zm-6.133-1.755c-.69-.173-1.38-.34-2.072-.498-.285-.065-.569.113-.634.398-.065.285.113.569.398.634.684.157 1.367.321 2.05.493.283.071.57-.1.642-.384.071-.284-.1-.571-.384-.643zm-6.247-1.36c-.699-.13-1.398-.25-2.096-.363-.288-.047-.56.149-.607.437-.046.289.15.56.438.607.69.112 1.382.232 2.073.36.288.052.564-.138.617-.425.053-.288-.137-.564-.425-.617zm-6.336-.953c-.707-.083-1.413-.157-2.117-.222-.29-.028-.548.186-.576.477-.027.291.187.55.478.576.696.065 1.394.139 2.093.22.29.034.553-.174.587-.465.034-.29-.174-.553-.465-.586zm-6.35-.519c-.712-.033-1.422-.057-2.128-.072-.292-.007-.534.225-.54.517-.007.292.225.534.517.54.697.016 1.398.04 2.103.073.292.013.54-.213.553-.505.014-.292-.212-.54-.504-.553zm-6.411-.057c-.716.022-1.426.052-2.13.093-.292.016-.515.266-.498.558.017.292.267.515.559.498.694-.04 1.394-.07 2.1-.09.293-.01.522-.254.514-.546-.009-.292-.253-.522-.545-.513zm-6.357.456c-.714.083-1.42.176-2.116.28-.29.042-.489.312-.446.6.043.29.312.49.601.446.686-.101 1.38-.193 2.083-.275.29-.033.499-.296.465-.586-.034-.29-.296-.499-.587-.465zm-6.328 1.054c-.705.157-1.397.325-2.077.504-.282.074-.451.364-.376.647.074.282.364.45.646.376.666-.175 1.345-.34 2.036-.493.286-.064.466-.346.402-.632-.063-.285-.346-.465-.63-.402zm-6.188 1.786c-.683.25-1.349.512-1.994.787-.27.115-.394.426-.28.695.115.269.426.394.695.279.628-.268 1.276-.524 1.942-.767.274-.1.416-.403.316-.678-.1-.275-.404-.416-.679-.316zm-5.88 2.737c-.633.374-1.238.762-1.815 1.166-.24.168-.298.498-.13.737.168.24.498.298.737.13.554-.388 1.136-.762 1.746-1.121.252-.148.335-.473.187-.725-.148-.251-.473-.335-.725-.187zM5.35 76.536c-.515.534-.989 1.085-1.42 1.654-.177.232-.131.564.101.741.233.177.565.131.742-.101.406-.535.852-1.055 1.339-1.558.203-.21.197-.546-.013-.749-.21-.203-.546-.197-.749.013zM1.77 82.022c-.265.684-.477 1.385-.637 2.102-.063.285.116.568.402.632.285.063.568-.117.631-.402.148-.665.345-1.315.591-1.95.106-.272-.03-.579-.303-.684-.272-.106-.579.03-.684.302z"/>
                                <path fill="url(#0noypxyahu)" d="M227.647 19.192H229.41199999999998V95.957H227.647zM213.529 26.251H215.29399999999998V103.016H213.529zM221.471 22.721H223.236V99.486H221.471z"/>
                                <path fill="url(#ybegz925tv)" d="M97.941 29.78H99.706V82.721H97.941zM92.647 28.898H94.412V81.839H92.647zM87.353 28.016H89.118V80.957H87.353zM61.765 19.192H63.53V72.13300000000001H61.765zM67.941 20.074H69.706V73.015H67.941zM73.235 20.957H75V73.898H73.235z"/>
                                <circle cx="15.594" cy="69.7" r="6.879" fill="url(#whg2fj2fiw)"/>
                                <circle cx="74.334" cy="103.039" r="8.467" fill="url(#dlk4aj2h8x)"/>
                                <circle cx="199.223" cy="107.273" r="12.701" fill="url(#ndxaahzq9y)"/>
                                <circle cx="172.763" cy="64.938" r="4.234" fill="url(#bmrv8zswkz)"/>
                                <circle cx="193.931" cy="60.704" r="4.234" fill="url(#bmrv8zswkz)"/>
                                <circle cx="227.799" cy="96.689" r="4.234" fill="url(#d4vkjt2gbA)"/>
                                <circle cx="142.07" cy="76.58" r="3.175" fill="url(#bmrv8zswkz)"/>
                                <circle cx="5.539" cy="101.981" r="4.234" fill="url(#bmrv8zswkz)"/>
                                <circle cx="39.407" cy="67.054" r="4.234" fill="url(#d4vkjt2gbA)"/>
                            </g>
                        </g>
                    </g>
                </g>
                <g mask="url(#pv4ah901ub)">
                    <g>
                        <path fill="#4D463D" fill-rule="nonzero" d="M86.356 32.32V21.952h3.077l5.82 10.37h4.85L92.98 19.944v-.067l6.723-11.306H95.02l-5.586 9.667h-3.077V8.571H82.04v23.75h4.315zm30.517 0v-3.712h-10.27V8.57h-4.314v23.75h14.584zm6.383 0l2.007-6.087h8.329l2.007 6.088h4.449l-8.363-23.75h-4.515l-8.363 23.75h4.45zm9.266-9.6H126.3l2.107-6.355c.469-1.338 1.004-3.68 1.004-3.68h.067s.501 2.342.936 3.68l2.108 6.356zm15.51 9.6v-9.934l7.893-13.815h-4.883l-3.68 6.991c-.77 1.472-1.438 3.178-1.438 3.178h-.067c-.034.034-.67-1.706-1.438-3.178l-3.713-6.99h-4.884l7.894 13.814v9.935h4.315zm12.721.402c4.047 0 6.523-2.275 6.523-5.118 0-5.486-8.296-5.184-8.296-7.593 0-1.07 1.07-1.539 2.174-1.539 2.61 0 4.182 1.472 4.182 1.472l1.572-3.144s-1.873-1.94-5.72-1.94c-3.68 0-6.523 1.84-6.523 5.017 0 5.486 8.296 5.152 8.296 7.694 0 1.003-1.037 1.538-2.241 1.538-2.777 0-4.65-1.873-4.65-1.873l-1.94 2.977s2.375 2.509 6.623 2.509zm17.193-.401l2.877-9.734c.267-.903.401-1.84.401-1.84h.067s.167.937.435 1.84l2.876 9.734h4.717l5.185-17.06h-4.416l-2.977 11.206c-.234.903-.368 1.806-.368 1.806h-.067s-.133-.903-.368-1.806l-3.144-11.172h-3.78l-3.144 11.172c-.234.903-.401 1.806-.401 1.806h-.067s-.1-.903-.335-1.806L172.46 15.26h-4.482l5.218 17.06h4.75zm22.956.401c3.88 0 5.218-3.01 5.184-3.01h.067s-.067.535-.067 1.204v1.405H210V21.65c0-4.316-2.61-6.791-7.092-6.791-4.047 0-6.69 2.107-6.69 2.107l1.606 3.044s2.241-1.639 4.683-1.639c1.873 0 3.278.77 3.278 3.01v.235h-.569c-2.776 0-10.101.368-10.101 5.786 0 3.412 2.743 5.319 5.787 5.319zm1.07-3.312c-1.74 0-2.576-1.07-2.576-2.207 0-2.375 3.512-2.676 5.687-2.676h.736v.401c0 2.074-1.606 4.482-3.847 4.482zm15.931 9.6v-7.158c0-.87-.067-1.472-.067-1.472h.067s1.505 2.342 4.884 2.342c4.482 0 7.793-3.512 7.793-8.931 0-5.285-2.943-8.931-7.56-8.931-4.013 0-5.485 2.81-5.485 2.81h-.067s.067-.536.067-1.171v-1.238h-3.88v23.75h4.248zm4.114-9.867c-2.81 0-4.248-2.61-4.248-5.252 0-3.78 2.074-5.385 4.282-5.385 2.508 0 4.248 2.107 4.248 5.352 0 3.378-1.94 5.285-4.282 5.285z" transform="translate(279 55)"/>
                        <g>
                            <path fill="#FF9632" fill-rule="nonzero" d="M13.647 19.267L26.734 32.379 72.251 32.379 25.957 6.824zM12.711 20.203L.535 32.379 24.886 32.379zM12.309 18.866L24.886 6.155 13.647 0 1.739 29.569z" transform="translate(279 55)"/>
                        </g>
                    </g>
                </g>
                <g fill="#6F6558" fill-rule="nonzero" mask="url(#pv4ah901ub)">
                    <g>
                        <path d="M20.196 19.058L33.28 32.284c3.353-3.58 5.188-8.321 5.12-13.226-.024-4.888-1.847-9.596-5.12-13.227L20.196 19.058zM19.2 20.053L6.258 32.996 19.2 38.4 32.142 32.996zM18.773 18.631L32.142 5.12 19.769 0 7.538 30.009zM0 19.058c-.001 4.85 1.827 9.523 5.12 13.084L18.062.853 0 19.058z" transform="translate(62 165)"/>
                    </g>
                </g>
                <g filter="url(#auz9cw0j1B)" mask="url(#pv4ah901ub)">
                    <g>
                        <path fill="#FF9632" fill-rule="nonzero" d="M10.578 14.45L20.721 24.284 56 24.284 20.119 5.118zM9.852 15.153L.415 24.284 19.289 24.284zM9.541 14.149L19.289 4.616 10.578 0 1.348 22.177z" transform="translate(682 165)"/>
                    </g>
                </g>
                <g fill="#3E3756" fill-rule="nonzero" mask="url(#pv4ah901ub)">
                    <g>
                        <path d="M12.34 18.814c-1.887 0-3.594-.773-4.82-2.019l-3.572 3.557 8.044 3.326 8.044-3.329-3.233-3.218c-1.191 1.047-2.753 1.683-4.464 1.683zM12.34 5.282c1.568 0 3.011.534 4.159 1.43l3.536-3.53-7.671-3.16-2.357 5.674c.727-.268 1.513-.413 2.332-.413zM5.574 12.048c0-2.486 1.34-4.659 3.338-5.835L11.248.596.044 11.767c-.002 3.007 1.14 5.9 3.194 8.095l2.547-6.127c-.138-.539-.212-1.104-.212-1.686zM20.729 3.64l-3.623 3.607c1.234 1.226 1.999 2.925 1.999 4.802 0 1.734-.652 3.315-1.726 4.512l3.35 3.336.219-.238c4.083-4.572 4.01-11.533-.22-16.019zM6.994 16.195c-.314-.405-.584-.846-.801-1.317L4.69 18.493l2.303-2.297zM12.598 7.034c-1.597 0-2.892 1.294-2.892 2.89v1.098c-.415.098-.726.47-.726.916v3.751c0 .52.422.942.942.942h5.35c.52 0 .942-.422.942-.942v-3.751c0-.446-.31-.819-.726-.917V9.925c0-1.596-1.294-2.89-2.89-2.89zm.292 7.146v.585c0 .172-.14.311-.311.311-.172 0-.311-.139-.311-.31v-.607c-.2-.114-.334-.329-.334-.575 0-.367.298-.664.664-.664.366 0 .664.297.664.664 0 .261-.152.488-.372.596zm1.467-3.185h-3.519V9.924c0-.972.788-1.76 1.76-1.76.971 0 1.759.789 1.759 1.76v1.071z" transform="translate(176 119)"/>
                    </g>
                </g>
                <ellipse cx="82" cy="211.5" fill="#6F6558" fill-opacity=".2" filter="url(#whul71mbqC)" mask="url(#pv4ah901ub)" rx="16" ry="3.5"/>
                <g mask="url(#pv4ah901ub)" opacity=".8">
                    <g fill-rule="nonzero">
                        <g transform="translate(591 116)">
                            <rect width="24" height="24" fill="#000" rx="12"/>
                            <path fill="#FFF" d="M12 12.403c.919 0 1.804.346 2.48.968l3.806 3.568h-1.818l-2.888-2.718c-.429-.394-.99-.612-1.572-.612-.582 0-1.142.218-1.57.612l-2.906 2.718H5.714l3.806-3.568c.676-.622 1.56-.968 2.48-.968zM7.549 7.086L10.42 9.77c.429.393.99.612 1.572.612.581 0 1.142-.219 1.57-.612l2.889-2.684h1.818l-3.789 3.55c-.68.615-1.563.956-2.48.956s-1.8-.34-2.48-.956L5.73 7.086H7.55z"/>
                        </g>
                        <g transform="translate(591 116) translate(12.6 12.6)">
                            <circle cx="4.5" cy="4.5" r="4.5" fill="url(#uytuvbjipD)"/>
                            <path fill="#FFF" d="M1.898 4.318c.136 0 .246.11.246.247v.002h.001v.001c0 1.102.77 2.022 1.798 2.248.158.035.321.053.49.053h.01c.137 0 .247.11.247.248 0 .136-.11.247-.246.247h-.011.04-.04c-.215 0-.425-.024-.627-.071C2.585 7.01 1.67 5.918 1.652 4.608V4.565c0-.137.11-.247.246-.247zM4.5 2.794c.944 0 1.709.768 1.709 1.714 0 .947-.765 1.714-1.709 1.714-.944 0-1.709-.767-1.709-1.714 0-.946.765-1.714 1.709-1.714zm0 .725c-.545 0-.986.443-.986.99 0 .545.441.988.986.988.545 0 .986-.443.986-.989s-.441-.99-.986-.99zm2.468 1.433c.14 0 .254.114.254.254s-.114.254-.254.254-.253-.113-.253-.254c0-.14.114-.254.253-.254zm-2.4-3.3c1.52 0 2.755 1.227 2.78 2.75v.049c0 .137-.11.248-.246.248s-.246-.111-.246-.248v-.004c0-1.258-1.004-2.28-2.25-2.3h-.049c-.137 0-.247-.111-.247-.248 0-.136.11-.247.246-.247h.011zM2.032 3.556c.14 0 .253.114.253.254s-.114.254-.253.254c-.14 0-.254-.114-.254-.254s.114-.254.254-.254z"/>
                        </g>
                    </g>
                </g>
            </g>
        </g>
    </g>
</svg>
