<svg xmlns="http://www.w3.org/2000/svg" xmlns:xlink="http://www.w3.org/1999/xlink" width="790" height="280" viewBox="0 0 790 280">
    <defs>
        <path id="eo9n9s68ue" d="M0 13.026V0c0 5.625 14.998 10.185 33.5 10.185C52.002 10.185 67 5.625 67 0v13.026c-4.698 5.416-16.75 8.873-33.5 8.873S4.207 18.442 0 13.026z"/>
        <path id="ss2721i3bh" d="M0 13.026V0c0 5.625 14.998 10.185 33.5 10.185C52.002 10.185 67 5.625 67 0v13.026c-4.698 5.416-16.75 8.873-33.5 8.873S4.207 18.442 0 13.026z"/>
        <path id="aps8b902lj" d="M0 13.026V0c0 5.625 14.998 10.185 33.5 10.185C52.002 10.185 67 5.625 67 0v13.026c-4.698 5.416-16.75 8.873-33.5 8.873S4.207 18.442 0 13.026z"/>
        <path id="0379n2k5ql" d="M0 13.026V0c0 5.625 14.998 10.185 33.5 10.185C52.002 10.185 67 5.625 67 0v13.026c-4.698 5.416-16.75 8.873-33.5 8.873S4.207 18.442 0 13.026z"/>
        <path id="v6fuikw0ln" d="M0 13.026V0c0 5.625 14.998 10.185 33.5 10.185C52.002 10.185 67 5.625 67 0v13.026c-4.698 5.416-16.75 8.873-33.5 8.873S4.207 18.442 0 13.026z"/>
        <path id="r5hdlqtfmp" d="M0 13.026V0c0 5.625 14.998 10.185 33.5 10.185C52.002 10.185 67 5.625 67 0v13.026c-4.698 5.416-16.75 8.873-33.5 8.873S4.207 18.442 0 13.026z"/>
        <path id="h4rvz1vx8r" d="M0 13.026V0c0 5.625 14.998 10.185 33.5 10.185C52.002 10.185 67 5.625 67 0v13.026c-4.698 5.416-16.75 8.873-33.5 8.873S4.207 18.442 0 13.026z"/>
        <path id="jb924lydpt" d="M0 13.026V0c0 5.625 14.998 10.185 33.5 10.185C52.002 10.185 67 5.625 67 0v13.026c-4.698 5.416-16.75 8.873-33.5 8.873S4.207 18.442 0 13.026z"/>
        <path id="wqrplftbmx" d="M0 13.026V0c0 5.625 14.998 10.185 33.5 10.185C52.002 10.185 67 5.625 67 0v13.026c-4.698 5.416-16.75 8.873-33.5 8.873S4.207 18.442 0 13.026z"/>
        <path id="va6xtgybbz" d="M0 13.026V0c0 5.625 14.998 10.185 33.5 10.185C52.002 10.185 67 5.625 67 0v13.026c-4.698 5.416-16.75 8.873-33.5 8.873S4.207 18.442 0 13.026z"/>
        <path id="xe3yeno1vB" d="M0 13.026V0c0 5.625 14.998 10.185 33.5 10.185C52.002 10.185 67 5.625 67 0v13.026c-4.698 5.416-16.75 8.873-33.5 8.873S4.207 18.442 0 13.026z"/>
        <path id="v6e6xseayD" d="M0 13.026V0c0 5.625 14.998 10.185 33.5 10.185C52.002 10.185 67 5.625 67 0v13.026c-4.698 5.416-16.75 8.873-33.5 8.873S4.207 18.442 0 13.026z"/>
        <path id="n83hhmu7fH" d="M0 13.026V0c0 5.625 14.998 10.185 33.5 10.185C52.002 10.185 67 5.625 67 0v13.026c-4.698 5.416-16.75 8.873-33.5 8.873S4.207 18.442 0 13.026z"/>
        <path id="63prrbrxuJ" d="M0 13.026V0c0 5.625 14.998 10.185 33.5 10.185C52.002 10.185 67 5.625 67 0v13.026c-4.698 5.416-16.75 8.873-33.5 8.873S4.207 18.442 0 13.026z"/>
        <path id="zssyfl3h1N" d="M0 13.026V0c0 5.625 14.998 10.185 33.5 10.185C52.002 10.185 67 5.625 67 0v13.026c-4.698 5.416-16.75 8.873-33.5 8.873S4.207 18.442 0 13.026z"/>
        <path id="g1hbxlel3P" d="M0 13.026V0c0 5.625 14.998 10.185 33.5 10.185C52.002 10.185 67 5.625 67 0v13.026c-4.698 5.416-16.75 8.873-33.5 8.873S4.207 18.442 0 13.026z"/>
        <path id="6i2flz82cT" d="M0 13.026V0c0 5.625 14.998 10.185 33.5 10.185C52.002 10.185 67 5.625 67 0v13.026c-4.698 5.416-16.75 8.873-33.5 8.873S4.207 18.442 0 13.026z"/>
        <path id="qjsfcy1pgW" d="M200.109 90.109c23.802-23.802 27.54-58.654 8.35-77.844-19.19-19.19-54.042-15.452-77.844 8.35-23.802 23.802-27.54 58.654-8.35 77.844 19.19 19.19 54.042 15.452 77.844-8.35z"/>
        <path id="lzm8cikw8Z" d="M26.661 24.5l36.151 27.945H24.731L13.016 40.832 26.661 24.5zM12.233 41.616l10.952 10.829H2.812l9.42-10.83zm3.843-24.5l9.69 6.824L3.82 50.094l12.256-32.979z"/>
        <path id="stcx57bv5ac" d="M77.289 81.519c21.449 21.449 25.904 51.769 9.951 67.721-15.952 15.953-46.272 11.498-67.721-9.951-21.45-21.45-25.905-51.77-9.952-67.722C25.52 55.614 55.84 60.07 77.289 81.519z"/>
        <path id="b0frheaooaf" d="M13.246 34.927l5.458 9.698-13.153.6 7.695-10.298zM25.898 18l27.164 24.951-33.085 1.674-6.085-10.343L25.898 18zm-6.737-5.823l6 5.362L6.136 43.29 19.16 12.177z"/>
        <filter id="oh39l3kuwd" width="104.5%" height="114.3%" x="-2.2%" y="-7.1%" filterUnits="objectBoundingBox">
            <feOffset dx="-1" dy="-3" in="SourceAlpha" result="shadowOffsetInner1"/>
            <feComposite in="shadowOffsetInner1" in2="SourceAlpha" k2="-1" k3="1" operator="arithmetic" result="shadowInnerInner1"/>
            <feColorMatrix in="shadowInnerInner1" values="0 0 0 0 1 0 0 0 0 0.684729064 0 0 0 0 0 0 0 0 1 0"/>
        </filter>
        <filter id="0ezfrhf0lw" width="104.5%" height="114.3%" x="-2.2%" y="-7.1%" filterUnits="objectBoundingBox">
            <feOffset dx="-1" dy="-3" in="SourceAlpha" result="shadowOffsetInner1"/>
            <feComposite in="shadowOffsetInner1" in2="SourceAlpha" k2="-1" k3="1" operator="arithmetic" result="shadowInnerInner1"/>
            <feColorMatrix in="shadowInnerInner1" values="0 0 0 0 1 0 0 0 0 0.684729064 0 0 0 0 0 0 0 0 1 0"/>
        </filter>
        <filter id="5d4ha8legG" width="104.5%" height="115%" x="-2.2%" y="-7.5%" filterUnits="objectBoundingBox">
            <feOffset dx="-1" dy="-3" in="SourceAlpha" result="shadowOffsetInner1"/>
            <feComposite in="shadowOffsetInner1" in2="SourceAlpha" k2="-1" k3="1" operator="arithmetic" result="shadowInnerInner1"/>
            <feColorMatrix in="shadowInnerInner1" values="0 0 0 0 1 0 0 0 0 0.684729064 0 0 0 0 0 0 0 0 1 0"/>
        </filter>
        <filter id="jh72j17d3M" width="104.5%" height="115%" x="-2.2%" y="-7.5%" filterUnits="objectBoundingBox">
            <feOffset dx="-1" dy="-3" in="SourceAlpha" result="shadowOffsetInner1"/>
            <feComposite in="shadowOffsetInner1" in2="SourceAlpha" k2="-1" k3="1" operator="arithmetic" result="shadowInnerInner1"/>
            <feColorMatrix in="shadowInnerInner1" values="0 0 0 0 1 0 0 0 0 0.684729064 0 0 0 0 0 0 0 0 1 0"/>
        </filter>
        <filter id="x73c77khyS" width="104.5%" height="114.3%" x="-2.2%" y="-7.1%" filterUnits="objectBoundingBox">
            <feOffset dx="-1" dy="-3" in="SourceAlpha" result="shadowOffsetInner1"/>
            <feComposite in="shadowOffsetInner1" in2="SourceAlpha" k2="-1" k3="1" operator="arithmetic" result="shadowInnerInner1"/>
            <feColorMatrix in="shadowInnerInner1" values="0 0 0 0 1 0 0 0 0 0.684729064 0 0 0 0 0 0 0 0 1 0"/>
        </filter>
        <filter id="a96c8klpuX" width="102.7%" height="102.7%" x="-1.4%" y="-1.4%" filterUnits="objectBoundingBox">
            <feOffset dx="-3" dy="-3" in="SourceAlpha" result="shadowOffsetInner1"/>
            <feComposite in="shadowOffsetInner1" in2="SourceAlpha" k2="-1" k3="1" operator="arithmetic" result="shadowInnerInner1"/>
            <feColorMatrix in="shadowInnerInner1" values="0 0 0 0 1 0 0 0 0 1 0 0 0 0 1 0 0 0 0.3 0"/>
        </filter>
        <filter id="dakpohz3jY" width="123.3%" height="139.6%" x="-8.3%" y="-14.2%" filterUnits="objectBoundingBox">
            <feOffset dx="2" dy="2" in="SourceAlpha" result="shadowOffsetOuter1"/>
            <feGaussianBlur in="shadowOffsetOuter1" result="shadowBlurOuter1" stdDeviation="2"/>
            <feColorMatrix in="shadowBlurOuter1" values="0 0 0 0 0.9 0 0 0 0 0.426057715 0 0 0 0 0.0860556402 0 0 0 1 0"/>
        </filter>
        <filter id="c0dlr69vhad" width="103.1%" height="103.1%" x="-1.5%" y="-1.5%" filterUnits="objectBoundingBox">
            <feOffset dx="2" dy="-2" in="SourceAlpha" result="shadowOffsetInner1"/>
            <feComposite in="shadowOffsetInner1" in2="SourceAlpha" k2="-1" k3="1" operator="arithmetic" result="shadowInnerInner1"/>
            <feColorMatrix in="shadowInnerInner1" result="shadowMatrixInner1" values="0 0 0 0 1 0 0 0 0 0.588235294 0 0 0 0 0.196078431 0 0 0 0.3 0"/>
            <feOffset dx="-3" dy="3" in="SourceAlpha" result="shadowOffsetInner2"/>
            <feComposite in="shadowOffsetInner2" in2="SourceAlpha" k2="-1" k3="1" operator="arithmetic" result="shadowInnerInner2"/>
            <feColorMatrix in="shadowInnerInner2" result="shadowMatrixInner2" values="0 0 0 0 1 0 0 0 0 1 0 0 0 0 1 0 0 0 0.1 0"/>
            <feMerge>
                <feMergeNode in="shadowMatrixInner1"/>
                <feMergeNode in="shadowMatrixInner2"/>
            </feMerge>
        </filter>
        <filter id="w8uvr8963ae" width="116.8%" height="124.2%" x="-12.6%" y="-18.2%" filterUnits="objectBoundingBox">
            <feOffset dx="-2" dy="-2" in="SourceAlpha" result="shadowOffsetOuter1"/>
            <feGaussianBlur in="shadowOffsetOuter1" result="shadowBlurOuter1" stdDeviation="1"/>
            <feColorMatrix in="shadowBlurOuter1" values="0 0 0 0 0.9 0 0 0 0 0.426057715 0 0 0 0 0.0860556402 0 0 0 0.15 0"/>
        </filter>
        <linearGradient id="z5aoyxnlaf" x1="0%" x2="72.194%" y1="50%" y2="50%">
            <stop offset="0%" stop-color="#FFEEB9"/>
            <stop offset="100%" stop-color="#FFC034"/>
        </linearGradient>
        <linearGradient id="ytiuvli5wV" x1="61.373%" x2="20.088%" y1="94.538%" y2="12.181%">
            <stop offset="0%" stop-color="#FF9632"/>
            <stop offset="99.942%" stop-color="#F39755"/>
        </linearGradient>
        <linearGradient id="xw98fz2mpaa" x1="0%" x2="76.251%" y1="64.225%" y2="57.184%">
            <stop offset="0%" stop-color="#FFF" stop-opacity=".4"/>
            <stop offset="100%" stop-color="#FFF"/>
        </linearGradient>
        <linearGradient id="7cutm83j8ab" x1="23.704%" x2="76.296%" y1="85.355%" y2="14.645%">
            <stop offset="0%" stop-color="#FF9632" stop-opacity=".3"/>
            <stop offset="100%" stop-color="#FF9632" stop-opacity=".05"/>
        </linearGradient>
        <linearGradient id="uv4zgxtl1ag" x1="81.969%" x2="17.188%" y1="74.832%" y2="74.832%">
            <stop offset="0%" stop-color="#FAC88E"/>
            <stop offset="100%" stop-color="#F39755"/>
        </linearGradient>
        <ellipse id="nuuts4t2wc" cx="33.5" cy="10.5" rx="33.5" ry="10.5"/>
        <ellipse id="6pb1ha3kwv" cx="33.5" cy="10.5" rx="33.5" ry="10.5"/>
        <ellipse id="7dswxucusF" cx="33.5" cy="10" rx="33.5" ry="10"/>
        <ellipse id="phojw8zl9L" cx="33.5" cy="10" rx="33.5" ry="10"/>
        <ellipse id="kudimcta3R" cx="33.5" cy="10.5" rx="33.5" ry="10.5"/>
        <rect id="4nex0v50ta" width="790" height="280" x="0" y="0" rx="3"/>
    </defs>
    <g fill="none" fill-rule="evenodd">
        <g>
            <g transform="translate(-101 -3077) translate(101 3077)">
                <mask id="d40y9orzqb" fill="#fff">
                    <use xlink:href="#4nex0v50ta"/>
                </mask>
                <use fill="#FFF" xlink:href="#4nex0v50ta"/>
                <path fill="#EBEEF2" d="M0 222H790V280H0z" mask="url(#d40y9orzqb)"/>
                <g mask="url(#d40y9orzqb)">
                    <g>
                        <g transform="translate(157 173)">
                            <use fill="#FFC15C" xlink:href="#nuuts4t2wc"/>
                            <use fill="#000" filter="url(#oh39l3kuwd)" xlink:href="#nuuts4t2wc"/>
                        </g>
                        <g transform="translate(157 173) translate(0 10)">
                            <mask id="4minxyjb2g" fill="#fff">
                                <use xlink:href="#eo9n9s68ue"/>
                            </mask>
                            <use fill="url(#z5aoyxnlaf)" xlink:href="#eo9n9s68ue"/>
                            <path fill="#FF9632" fill-opacity=".1" d="M2.451 2.444H4.085V18.74H2.451zM5.72 2.444H7.353999999999999V18.74H5.72zM22.061 6.519H23.695V22.814999999999998H22.061zM15.524 6.519H17.157999999999998V22.814999999999998H15.524zM18.793 6.519H20.427V22.814999999999998H18.793zM25.329 6.519H26.963V22.814999999999998H25.329zM12.256 6.519H13.89V22.814999999999998H12.256zM8.988 6.519H10.622V22.814999999999998H8.988zM28.598 6.519H30.232V22.814999999999998H28.598zM31.866 6.519H33.5V22.814999999999998H31.866zM48.207 6.519H49.841V22.814999999999998H48.207zM41.671 6.519H43.305V22.814999999999998H41.671zM44.939 6.519H46.573V22.814999999999998H44.939zM51.476 6.519H53.11V22.814999999999998H51.476zM38.402 6.519H40.036V22.814999999999998H38.402zM64.549 2.444H66.183V18.74H64.549zM58.012 6.519H59.646V22.814999999999998H58.012zM61.28 2.444H62.914V18.74H61.28zM54.744 6.519H56.378V22.814999999999998H54.744zM35.134 6.519H36.768V22.814999999999998H35.134z" mask="url(#4minxyjb2g)"/>
                        </g>
                        <g transform="translate(157 173) translate(0 22)">
                            <mask id="i81w212yni" fill="#fff">
                                <use xlink:href="#ss2721i3bh"/>
                            </mask>
                            <use fill="url(#z5aoyxnlaf)" xlink:href="#ss2721i3bh"/>
                            <path fill="#FF9632" fill-opacity=".1" d="M2.451 2.444H4.085V18.74H2.451zM5.72 2.444H7.353999999999999V18.74H5.72zM22.061 6.519H23.695V22.814999999999998H22.061zM15.524 6.519H17.157999999999998V22.814999999999998H15.524zM18.793 6.519H20.427V22.814999999999998H18.793zM25.329 6.519H26.963V22.814999999999998H25.329zM12.256 6.519H13.89V22.814999999999998H12.256zM8.988 6.519H10.622V22.814999999999998H8.988zM28.598 6.519H30.232V22.814999999999998H28.598zM31.866 6.519H33.5V22.814999999999998H31.866zM48.207 6.519H49.841V22.814999999999998H48.207zM41.671 6.519H43.305V22.814999999999998H41.671zM44.939 6.519H46.573V22.814999999999998H44.939zM51.476 6.519H53.11V22.814999999999998H51.476zM38.402 6.519H40.036V22.814999999999998H38.402zM64.549 2.444H66.183V18.74H64.549zM58.012 6.519H59.646V22.814999999999998H58.012zM61.28 2.444H62.914V18.74H61.28zM54.744 6.519H56.378V22.814999999999998H54.744zM35.134 6.519H36.768V22.814999999999998H35.134z" mask="url(#i81w212yni)"/>
                        </g>
                        <g transform="translate(157 173) translate(0 34)">
                            <mask id="i5ogyn0s6k" fill="#fff">
                                <use xlink:href="#aps8b902lj"/>
                            </mask>
                            <use fill="url(#z5aoyxnlaf)" xlink:href="#aps8b902lj"/>
                            <path fill="#FF9632" fill-opacity=".1" d="M2.451 2.444H4.085V18.74H2.451zM5.72 2.444H7.353999999999999V18.74H5.72zM22.061 6.519H23.695V22.814999999999998H22.061zM15.524 6.519H17.157999999999998V22.814999999999998H15.524zM18.793 6.519H20.427V22.814999999999998H18.793zM25.329 6.519H26.963V22.814999999999998H25.329zM12.256 6.519H13.89V22.814999999999998H12.256zM8.988 6.519H10.622V22.814999999999998H8.988zM28.598 6.519H30.232V22.814999999999998H28.598zM31.866 6.519H33.5V22.814999999999998H31.866zM48.207 6.519H49.841V22.814999999999998H48.207zM41.671 6.519H43.305V22.814999999999998H41.671zM44.939 6.519H46.573V22.814999999999998H44.939zM51.476 6.519H53.11V22.814999999999998H51.476zM38.402 6.519H40.036V22.814999999999998H38.402zM64.549 2.444H66.183V18.74H64.549zM58.012 6.519H59.646V22.814999999999998H58.012zM61.28 2.444H62.914V18.74H61.28zM54.744 6.519H56.378V22.814999999999998H54.744zM35.134 6.519H36.768V22.814999999999998H35.134z" mask="url(#i5ogyn0s6k)"/>
                        </g>
                        <g transform="translate(157 173) translate(0 46)">
                            <mask id="sps8km2bnm" fill="#fff">
                                <use xlink:href="#0379n2k5ql"/>
                            </mask>
                            <use fill="url(#z5aoyxnlaf)" xlink:href="#0379n2k5ql"/>
                            <path fill="#FF9632" fill-opacity=".1" d="M2.451 2.444H4.085V18.74H2.451zM5.72 2.444H7.353999999999999V18.74H5.72zM22.061 6.519H23.695V22.814999999999998H22.061zM15.524 6.519H17.157999999999998V22.814999999999998H15.524zM18.793 6.519H20.427V22.814999999999998H18.793zM25.329 6.519H26.963V22.814999999999998H25.329zM12.256 6.519H13.89V22.814999999999998H12.256zM8.988 6.519H10.622V22.814999999999998H8.988zM28.598 6.519H30.232V22.814999999999998H28.598zM31.866 6.519H33.5V22.814999999999998H31.866zM48.207 6.519H49.841V22.814999999999998H48.207zM41.671 6.519H43.305V22.814999999999998H41.671zM44.939 6.519H46.573V22.814999999999998H44.939zM51.476 6.519H53.11V22.814999999999998H51.476zM38.402 6.519H40.036V22.814999999999998H38.402zM64.549 2.444H66.183V18.74H64.549zM58.012 6.519H59.646V22.814999999999998H58.012zM61.28 2.444H62.914V18.74H61.28zM54.744 6.519H56.378V22.814999999999998H54.744zM35.134 6.519H36.768V22.814999999999998H35.134z" mask="url(#sps8km2bnm)"/>
                        </g>
                    </g>
                </g>
                <g mask="url(#d40y9orzqb)">
                    <g>
                        <g>
                            <g transform="translate(594 124) translate(0 59)">
                                <mask id="xib8i0nuwo" fill="#fff">
                                    <use xlink:href="#v6fuikw0ln"/>
                                </mask>
                                <use fill="url(#z5aoyxnlaf)" xlink:href="#v6fuikw0ln"/>
                                <path fill="#FF9632" fill-opacity=".1" d="M2.451 2.444H4.085V18.74H2.451zM5.72 2.444H7.353999999999999V18.74H5.72zM22.061 6.519H23.695V22.814999999999998H22.061zM15.524 6.519H17.157999999999998V22.814999999999998H15.524zM18.793 6.519H20.427V22.814999999999998H18.793zM25.329 6.519H26.963V22.814999999999998H25.329zM12.256 6.519H13.89V22.814999999999998H12.256zM8.988 6.519H10.622V22.814999999999998H8.988zM28.598 6.519H30.232V22.814999999999998H28.598zM31.866 6.519H33.5V22.814999999999998H31.866zM48.207 6.519H49.841V22.814999999999998H48.207zM41.671 6.519H43.305V22.814999999999998H41.671zM44.939 6.519H46.573V22.814999999999998H44.939zM51.476 6.519H53.11V22.814999999999998H51.476zM38.402 6.519H40.036V22.814999999999998H38.402zM64.549 2.444H66.183V18.74H64.549zM58.012 6.519H59.646V22.814999999999998H58.012zM61.28 2.444H62.914V18.74H61.28zM54.744 6.519H56.378V22.814999999999998H54.744zM35.134 6.519H36.768V22.814999999999998H35.134z" mask="url(#xib8i0nuwo)"/>
                            </g>
                            <g transform="translate(594 124) translate(0 59) translate(0 12)">
                                <mask id="oeij1vim1q" fill="#fff">
                                    <use xlink:href="#r5hdlqtfmp"/>
                                </mask>
                                <use fill="url(#z5aoyxnlaf)" xlink:href="#r5hdlqtfmp"/>
                                <path fill="#FF9632" fill-opacity=".1" d="M2.451 1.444H4.085V17.74H2.451zM5.72 1.444H7.353999999999999V17.74H5.72zM22.061 5.519H23.695V21.814999999999998H22.061zM15.524 5.519H17.157999999999998V21.814999999999998H15.524zM18.793 5.519H20.427V21.814999999999998H18.793zM25.329 5.519H26.963V21.814999999999998H25.329zM12.256 5.519H13.89V21.814999999999998H12.256zM8.988 5.519H10.622V21.814999999999998H8.988zM28.598 5.519H30.232V21.814999999999998H28.598zM31.866 5.519H33.5V21.814999999999998H31.866zM48.207 5.519H49.841V21.814999999999998H48.207zM41.671 5.519H43.305V21.814999999999998H41.671zM44.939 5.519H46.573V21.814999999999998H44.939zM51.476 5.519H53.11V21.814999999999998H51.476zM38.402 5.519H40.036V21.814999999999998H38.402zM64.549 1.444H66.183V17.74H64.549zM58.012 5.519H59.646V21.814999999999998H58.012zM61.28 1.444H62.914V17.74H61.28zM54.744 5.519H56.378V21.814999999999998H54.744zM35.134 5.519H36.768V21.814999999999998H35.134z" mask="url(#oeij1vim1q)"/>
                            </g>
                            <g transform="translate(594 124) translate(0 59) translate(0 24)">
                                <mask id="qaouho9fas" fill="#fff">
                                    <use xlink:href="#h4rvz1vx8r"/>
                                </mask>
                                <use fill="url(#z5aoyxnlaf)" xlink:href="#h4rvz1vx8r"/>
                                <path fill="#FF9632" fill-opacity=".1" d="M2.451 2.444H4.085V18.74H2.451zM5.72 2.444H7.353999999999999V18.74H5.72zM22.061 6.519H23.695V22.814999999999998H22.061zM15.524 6.519H17.157999999999998V22.814999999999998H15.524zM18.793 6.519H20.427V22.814999999999998H18.793zM25.329 6.519H26.963V22.814999999999998H25.329zM12.256 6.519H13.89V22.814999999999998H12.256zM8.988 6.519H10.622V22.814999999999998H8.988zM28.598 6.519H30.232V22.814999999999998H28.598zM31.866 6.519H33.5V22.814999999999998H31.866zM48.207 6.519H49.841V22.814999999999998H48.207zM41.671 6.519H43.305V22.814999999999998H41.671zM44.939 6.519H46.573V22.814999999999998H44.939zM51.476 6.519H53.11V22.814999999999998H51.476zM38.402 6.519H40.036V22.814999999999998H38.402zM64.549 2.444H66.183V18.74H64.549zM58.012 6.519H59.646V22.814999999999998H58.012zM61.28 2.444H62.914V18.74H61.28zM54.744 6.519H56.378V22.814999999999998H54.744zM35.134 6.519H36.768V22.814999999999998H35.134z" mask="url(#qaouho9fas)"/>
                            </g>
                            <g transform="translate(594 124) translate(0 59) translate(0 36)">
                                <mask id="djznruy90u" fill="#fff">
                                    <use xlink:href="#jb924lydpt"/>
                                </mask>
                                <use fill="url(#z5aoyxnlaf)" xlink:href="#jb924lydpt"/>
                                <path fill="#FF9632" fill-opacity=".1" d="M2.451 2.444H4.085V18.74H2.451zM5.72 2.444H7.353999999999999V18.74H5.72zM22.061 6.519H23.695V22.814999999999998H22.061zM15.524 6.519H17.157999999999998V22.814999999999998H15.524zM18.793 6.519H20.427V22.814999999999998H18.793zM25.329 6.519H26.963V22.814999999999998H25.329zM12.256 6.519H13.89V22.814999999999998H12.256zM8.988 6.519H10.622V22.814999999999998H8.988zM28.598 6.519H30.232V22.814999999999998H28.598zM31.866 6.519H33.5V22.814999999999998H31.866zM48.207 6.519H49.841V22.814999999999998H48.207zM41.671 6.519H43.305V22.814999999999998H41.671zM44.939 6.519H46.573V22.814999999999998H44.939zM51.476 6.519H53.11V22.814999999999998H51.476zM38.402 6.519H40.036V22.814999999999998H38.402zM64.549 2.444H66.183V18.74H64.549zM58.012 6.519H59.646V22.814999999999998H58.012zM61.28 2.444H62.914V18.74H61.28zM54.744 6.519H56.378V22.814999999999998H54.744zM35.134 6.519H36.768V22.814999999999998H35.134z" mask="url(#djznruy90u)"/>
                            </g>
                        </g>
                        <g>
                            <g transform="translate(594 124)">
                                <use fill="#FFC15C" xlink:href="#6pb1ha3kwv"/>
                                <use fill="#000" filter="url(#0ezfrhf0lw)" xlink:href="#6pb1ha3kwv"/>
                            </g>
                            <g transform="translate(594 124) translate(0 11)">
                                <mask id="2io8c3nq0y" fill="#fff">
                                    <use xlink:href="#wqrplftbmx"/>
                                </mask>
                                <use fill="url(#z5aoyxnlaf)" xlink:href="#wqrplftbmx"/>
                                <path fill="#FF9632" fill-opacity=".1" d="M2.451 2.444H4.085V18.74H2.451zM5.72 2.444H7.353999999999999V18.74H5.72zM22.061 6.519H23.695V22.814999999999998H22.061zM15.524 6.519H17.157999999999998V22.814999999999998H15.524zM18.793 6.519H20.427V22.814999999999998H18.793zM25.329 6.519H26.963V22.814999999999998H25.329zM12.256 6.519H13.89V22.814999999999998H12.256zM8.988 6.519H10.622V22.814999999999998H8.988zM28.598 6.519H30.232V22.814999999999998H28.598zM31.866 6.519H33.5V22.814999999999998H31.866zM48.207 6.519H49.841V22.814999999999998H48.207zM41.671 6.519H43.305V22.814999999999998H41.671zM44.939 6.519H46.573V22.814999999999998H44.939zM51.476 6.519H53.11V22.814999999999998H51.476zM38.402 6.519H40.036V22.814999999999998H38.402zM64.549 2.444H66.183V18.74H64.549zM58.012 6.519H59.646V22.814999999999998H58.012zM61.28 2.444H62.914V18.74H61.28zM54.744 6.519H56.378V22.814999999999998H54.744zM35.134 6.519H36.768V22.814999999999998H35.134z" mask="url(#2io8c3nq0y)"/>
                            </g>
                            <g transform="translate(594 124) translate(0 23)">
                                <mask id="1xgfvmj7rA" fill="#fff">
                                    <use xlink:href="#va6xtgybbz"/>
                                </mask>
                                <use fill="url(#z5aoyxnlaf)" xlink:href="#va6xtgybbz"/>
                                <path fill="#FF9632" fill-opacity=".1" d="M2.451 2.444H4.085V18.74H2.451zM5.72 2.444H7.353999999999999V18.74H5.72zM22.061 6.519H23.695V22.814999999999998H22.061zM15.524 6.519H17.157999999999998V22.814999999999998H15.524zM18.793 6.519H20.427V22.814999999999998H18.793zM25.329 6.519H26.963V22.814999999999998H25.329zM12.256 6.519H13.89V22.814999999999998H12.256zM8.988 6.519H10.622V22.814999999999998H8.988zM28.598 6.519H30.232V22.814999999999998H28.598zM31.866 6.519H33.5V22.814999999999998H31.866zM48.207 6.519H49.841V22.814999999999998H48.207zM41.671 6.519H43.305V22.814999999999998H41.671zM44.939 6.519H46.573V22.814999999999998H44.939zM51.476 6.519H53.11V22.814999999999998H51.476zM38.402 6.519H40.036V22.814999999999998H38.402zM64.549 2.444H66.183V18.74H64.549zM58.012 6.519H59.646V22.814999999999998H58.012zM61.28 2.444H62.914V18.74H61.28zM54.744 6.519H56.378V22.814999999999998H54.744zM35.134 6.519H36.768V22.814999999999998H35.134z" mask="url(#1xgfvmj7rA)"/>
                            </g>
                            <g transform="translate(594 124) translate(0 35)">
                                <mask id="p6wiif4j5C" fill="#fff">
                                    <use xlink:href="#xe3yeno1vB"/>
                                </mask>
                                <use fill="url(#z5aoyxnlaf)" xlink:href="#xe3yeno1vB"/>
                                <path fill="#FF9632" fill-opacity=".1" d="M2.451 2.444H4.085V18.74H2.451zM5.72 2.444H7.353999999999999V18.74H5.72zM22.061 6.519H23.695V22.814999999999998H22.061zM15.524 6.519H17.157999999999998V22.814999999999998H15.524zM18.793 6.519H20.427V22.814999999999998H18.793zM25.329 6.519H26.963V22.814999999999998H25.329zM12.256 6.519H13.89V22.814999999999998H12.256zM8.988 6.519H10.622V22.814999999999998H8.988zM28.598 6.519H30.232V22.814999999999998H28.598zM31.866 6.519H33.5V22.814999999999998H31.866zM48.207 6.519H49.841V22.814999999999998H48.207zM41.671 6.519H43.305V22.814999999999998H41.671zM44.939 6.519H46.573V22.814999999999998H44.939zM51.476 6.519H53.11V22.814999999999998H51.476zM38.402 6.519H40.036V22.814999999999998H38.402zM64.549 2.444H66.183V18.74H64.549zM58.012 6.519H59.646V22.814999999999998H58.012zM61.28 2.444H62.914V18.74H61.28zM54.744 6.519H56.378V22.814999999999998H54.744zM35.134 6.519H36.768V22.814999999999998H35.134z" mask="url(#p6wiif4j5C)"/>
                            </g>
                            <g transform="translate(594 124) translate(0 47)">
                                <mask id="vzilwywhnE" fill="#fff">
                                    <use xlink:href="#v6e6xseayD"/>
                                </mask>
                                <use fill="url(#z5aoyxnlaf)" xlink:href="#v6e6xseayD"/>
                                <path fill="#FF9632" fill-opacity=".1" d="M2.451 2.444H4.085V18.74H2.451zM5.72 2.444H7.353999999999999V18.74H5.72zM22.061 6.519H23.695V22.814999999999998H22.061zM15.524 6.519H17.157999999999998V22.814999999999998H15.524zM18.793 6.519H20.427V22.814999999999998H18.793zM25.329 6.519H26.963V22.814999999999998H25.329zM12.256 6.519H13.89V22.814999999999998H12.256zM8.988 6.519H10.622V22.814999999999998H8.988zM28.598 6.519H30.232V22.814999999999998H28.598zM31.866 6.519H33.5V22.814999999999998H31.866zM48.207 6.519H49.841V22.814999999999998H48.207zM41.671 6.519H43.305V22.814999999999998H41.671zM44.939 6.519H46.573V22.814999999999998H44.939zM51.476 6.519H53.11V22.814999999999998H51.476zM38.402 6.519H40.036V22.814999999999998H38.402zM64.549 2.444H66.183V18.74H64.549zM58.012 6.519H59.646V22.814999999999998H58.012zM61.28 2.444H62.914V18.74H61.28zM54.744 6.519H56.378V22.814999999999998H54.744zM35.134 6.519H36.768V22.814999999999998H35.134z" mask="url(#vzilwywhnE)"/>
                            </g>
                        </g>
                    </g>
                </g>
                <g mask="url(#d40y9orzqb)">
                    <g>
                        <g transform="translate(541 204)">
                            <use fill="#FFC15C" xlink:href="#7dswxucusF"/>
                            <use fill="#000" filter="url(#5d4ha8legG)" xlink:href="#7dswxucusF"/>
                        </g>
                        <g transform="translate(541 204) translate(0 10)">
                            <mask id="gpck00rmlI" fill="#fff">
                                <use xlink:href="#n83hhmu7fH"/>
                            </mask>
                            <use fill="url(#z5aoyxnlaf)" xlink:href="#n83hhmu7fH"/>
                            <path fill="#FF9632" fill-opacity=".1" d="M2.451 2.444H4.085V18.74H2.451zM5.72 2.444H7.353999999999999V18.74H5.72zM22.061 6.519H23.695V22.814999999999998H22.061zM15.524 6.519H17.157999999999998V22.814999999999998H15.524zM18.793 6.519H20.427V22.814999999999998H18.793zM25.329 6.519H26.963V22.814999999999998H25.329zM12.256 6.519H13.89V22.814999999999998H12.256zM8.988 6.519H10.622V22.814999999999998H8.988zM28.598 6.519H30.232V22.814999999999998H28.598zM31.866 6.519H33.5V22.814999999999998H31.866zM48.207 6.519H49.841V22.814999999999998H48.207zM41.671 6.519H43.305V22.814999999999998H41.671zM44.939 6.519H46.573V22.814999999999998H44.939zM51.476 6.519H53.11V22.814999999999998H51.476zM38.402 6.519H40.036V22.814999999999998H38.402zM64.549 2.444H66.183V18.74H64.549zM58.012 6.519H59.646V22.814999999999998H58.012zM61.28 2.444H62.914V18.74H61.28zM54.744 6.519H56.378V22.814999999999998H54.744zM35.134 6.519H36.768V22.814999999999998H35.134z" mask="url(#gpck00rmlI)"/>
                        </g>
                        <g transform="translate(541 204) translate(0 22)">
                            <mask id="weelwy2slK" fill="#fff">
                                <use xlink:href="#63prrbrxuJ"/>
                            </mask>
                            <use fill="url(#z5aoyxnlaf)" xlink:href="#63prrbrxuJ"/>
                            <path fill="#FF9632" fill-opacity=".1" d="M2.451 2.444H4.085V18.74H2.451zM5.72 2.444H7.353999999999999V18.74H5.72zM22.061 6.519H23.695V22.814999999999998H22.061zM15.524 6.519H17.157999999999998V22.814999999999998H15.524zM18.793 6.519H20.427V22.814999999999998H18.793zM25.329 6.519H26.963V22.814999999999998H25.329zM12.256 6.519H13.89V22.814999999999998H12.256zM8.988 6.519H10.622V22.814999999999998H8.988zM28.598 6.519H30.232V22.814999999999998H28.598zM31.866 6.519H33.5V22.814999999999998H31.866zM48.207 6.519H49.841V22.814999999999998H48.207zM41.671 6.519H43.305V22.814999999999998H41.671zM44.939 6.519H46.573V22.814999999999998H44.939zM51.476 6.519H53.11V22.814999999999998H51.476zM38.402 6.519H40.036V22.814999999999998H38.402zM64.549 2.444H66.183V18.74H64.549zM58.012 6.519H59.646V22.814999999999998H58.012zM61.28 2.444H62.914V18.74H61.28zM54.744 6.519H56.378V22.814999999999998H54.744zM35.134 6.519H36.768V22.814999999999998H35.134z" mask="url(#weelwy2slK)"/>
                        </g>
                    </g>
                </g>
                <g mask="url(#d40y9orzqb)">
                    <g>
                        <g transform="translate(190 204)">
                            <use fill="#FFB741" xlink:href="#phojw8zl9L"/>
                            <use fill="#000" filter="url(#jh72j17d3M)" xlink:href="#phojw8zl9L"/>
                        </g>
                        <g transform="translate(190 204) translate(0 10)">
                            <mask id="ifiuomyt8O" fill="#fff">
                                <use xlink:href="#zssyfl3h1N"/>
                            </mask>
                            <use fill="url(#z5aoyxnlaf)" xlink:href="#zssyfl3h1N"/>
                            <path fill="#FF9632" fill-opacity=".1" d="M2.451 2.444H4.085V18.74H2.451zM5.72 2.444H7.353999999999999V18.74H5.72zM22.061 6.519H23.695V22.814999999999998H22.061zM15.524 6.519H17.157999999999998V22.814999999999998H15.524zM18.793 6.519H20.427V22.814999999999998H18.793zM25.329 6.519H26.963V22.814999999999998H25.329zM12.256 6.519H13.89V22.814999999999998H12.256zM8.988 6.519H10.622V22.814999999999998H8.988zM28.598 6.519H30.232V22.814999999999998H28.598zM31.866 6.519H33.5V22.814999999999998H31.866zM48.207 6.519H49.841V22.814999999999998H48.207zM41.671 6.519H43.305V22.814999999999998H41.671zM44.939 6.519H46.573V22.814999999999998H44.939zM51.476 6.519H53.11V22.814999999999998H51.476zM38.402 6.519H40.036V22.814999999999998H38.402zM64.549 2.444H66.183V18.74H64.549zM58.012 6.519H59.646V22.814999999999998H58.012zM61.28 2.444H62.914V18.74H61.28zM54.744 6.519H56.378V22.814999999999998H54.744zM35.134 6.519H36.768V22.814999999999998H35.134z" mask="url(#ifiuomyt8O)"/>
                        </g>
                        <g transform="translate(190 204) translate(0 22)">
                            <mask id="10nfysksbQ" fill="#fff">
                                <use xlink:href="#g1hbxlel3P"/>
                            </mask>
                            <use fill="url(#z5aoyxnlaf)" xlink:href="#g1hbxlel3P"/>
                            <path fill="#FF9632" fill-opacity=".1" d="M2.451 2.444H4.085V18.74H2.451zM5.72 2.444H7.353999999999999V18.74H5.72zM22.061 6.519H23.695V22.814999999999998H22.061zM15.524 6.519H17.157999999999998V22.814999999999998H15.524zM18.793 6.519H20.427V22.814999999999998H18.793zM25.329 6.519H26.963V22.814999999999998H25.329zM12.256 6.519H13.89V22.814999999999998H12.256zM8.988 6.519H10.622V22.814999999999998H8.988zM28.598 6.519H30.232V22.814999999999998H28.598zM31.866 6.519H33.5V22.814999999999998H31.866zM48.207 6.519H49.841V22.814999999999998H48.207zM41.671 6.519H43.305V22.814999999999998H41.671zM44.939 6.519H46.573V22.814999999999998H44.939zM51.476 6.519H53.11V22.814999999999998H51.476zM38.402 6.519H40.036V22.814999999999998H38.402zM64.549 2.444H66.183V18.74H64.549zM58.012 6.519H59.646V22.814999999999998H58.012zM61.28 2.444H62.914V18.74H61.28zM54.744 6.519H56.378V22.814999999999998H54.744zM35.134 6.519H36.768V22.814999999999998H35.134z" mask="url(#10nfysksbQ)"/>
                        </g>
                    </g>
                </g>
                <g mask="url(#d40y9orzqb)">
                    <g>
                        <g transform="translate(66 216)">
                            <use fill="#FFC15C" xlink:href="#kudimcta3R"/>
                            <use fill="#000" filter="url(#x73c77khyS)" xlink:href="#kudimcta3R"/>
                        </g>
                        <g transform="translate(66 216) translate(0 10)">
                            <mask id="1v922d0bzU" fill="#fff">
                                <use xlink:href="#6i2flz82cT"/>
                            </mask>
                            <use fill="url(#z5aoyxnlaf)" xlink:href="#6i2flz82cT"/>
                            <path fill="#FF9632" fill-opacity=".1" d="M2.451 2.444H4.085V18.74H2.451zM5.72 2.444H7.353999999999999V18.74H5.72zM22.061 6.519H23.695V22.814999999999998H22.061zM15.524 6.519H17.157999999999998V22.814999999999998H15.524zM18.793 6.519H20.427V22.814999999999998H18.793zM25.329 6.519H26.963V22.814999999999998H25.329zM12.256 6.519H13.89V22.814999999999998H12.256zM8.988 6.519H10.622V22.814999999999998H8.988zM28.598 6.519H30.232V22.814999999999998H28.598zM31.866 6.519H33.5V22.814999999999998H31.866zM48.207 6.519H49.841V22.814999999999998H48.207zM41.671 6.519H43.305V22.814999999999998H41.671zM44.939 6.519H46.573V22.814999999999998H44.939zM51.476 6.519H53.11V22.814999999999998H51.476zM38.402 6.519H40.036V22.814999999999998H38.402zM64.549 2.444H66.183V18.74H64.549zM58.012 6.519H59.646V22.814999999999998H58.012zM61.28 2.444H62.914V18.74H61.28zM54.744 6.519H56.378V22.814999999999998H54.744zM35.134 6.519H36.768V22.814999999999998H35.134z" mask="url(#1v922d0bzU)"/>
                        </g>
                    </g>
                </g>
                <g mask="url(#d40y9orzqb)">
                    <g>
                        <g transform="translate(285 41)">
                            <use fill="url(#ytiuvli5wV)" xlink:href="#qjsfcy1pgW"/>
                            <use fill="#000" filter="url(#a96c8klpuX)" xlink:href="#qjsfcy1pgW"/>
                        </g>
                        <g>
                            <g fill-rule="nonzero" transform="translate(285 41) translate(137 17) rotate(50 32.812 34.78)">
                                <use fill="#000" filter="url(#dakpohz3jY)" xlink:href="#lzm8cikw8Z"/>
                                <use fill="url(#xw98fz2mpaa)" xlink:href="#lzm8cikw8Z"/>
                            </g>
                        </g>
                        <g transform="translate(285 41)">
                            <use fill="url(#7cutm83j8ab)" xlink:href="#stcx57bv5ac"/>
                            <use fill="#000" filter="url(#c0dlr69vhad)" xlink:href="#stcx57bv5ac"/>
                        </g>
                        <g>
                            <g fill-rule="nonzero" transform="translate(285 41) rotate(-120 58.94 62.593) rotate(45 29.307 28.701)">
                                <use fill="#000" filter="url(#w8uvr8963ae)" xlink:href="#b0frheaooaf"/>
                                <use fill="url(#uv4zgxtl1ag)" xlink:href="#b0frheaooaf"/>
                            </g>
                        </g>
                    </g>
                </g>
            </g>
        </g>
    </g>
</svg>
