<svg xmlns="http://www.w3.org/2000/svg" xmlns:xlink="http://www.w3.org/1999/xlink" width="790" height="280" viewBox="0 0 790 280">
    <defs>
        <linearGradient id="kcko3s28mc" x1="42.487%" x2="32.954%" y1="44.274%" y2="7.633%">
            <stop offset="0%" stop-color="#FFF"/>
            <stop offset="99.942%" stop-color="#FAFBFC"/>
        </linearGradient>
        <linearGradient id="fi9nht8vpf" x1="44.257%" x2="27.361%" y1="58.419%" y2="30.347%">
            <stop offset="0%" stop-color="#B39C7D"/>
            <stop offset="100%" stop-color="#997F5C"/>
        </linearGradient>
        <filter id="xuf6cbguge" width="102.9%" height="102.9%" x="-1.4%" y="-1.4%" filterUnits="objectBoundingBox">
            <feOffset dx="-4" dy="-4" in="SourceAlpha" result="shadowOffsetInner1"/>
            <feComposite in="shadowOffsetInner1" in2="SourceAlpha" k2="-1" k3="1" operator="arithmetic" result="shadowInnerInner1"/>
            <feColorMatrix in="shadowInnerInner1" values="0 0 0 0 0.921568627 0 0 0 0 0.933333333 0 0 0 0 0.949019608 0 0 0 1 0"/>
        </filter>
        <filter id="o8w6ruklyg" width="119%" height="150.8%" x="-9.5%" y="-25.4%" filterUnits="objectBoundingBox">
            <feGaussianBlur in="SourceGraphic" stdDeviation="10"/>
        </filter>
        <rect id="scyenvflfa" width="790" height="280" x="0" y="0" rx="3"/>
        <path id="tu6tvaqizd" d="M112.96 112.96c29.837-29.839 34.523-73.529 10.467-97.585C99.37-8.682 55.68-3.995 25.842 25.842-3.995 55.68-8.682 99.37 15.375 123.427c24.056 24.056 67.746 19.37 97.584-10.468z"/>
    </defs>
    <g fill="none" fill-rule="evenodd">
        <g>
            <g transform="translate(-101 -1433) translate(101 1433)">
                <mask id="8q0os67sob" fill="#fff">
                    <use xlink:href="#scyenvflfa"/>
                </mask>
                <use fill="#B39C7D" xlink:href="#scyenvflfa"/>
                <g fill="#FFF" fill-rule="nonzero" mask="url(#8q0os67sob)" opacity=".5">
                    <g>
                        <path d="M540.381 95.665l-.354-.392L327.297 310 540.02 524.72l.355-.378c54.416-58.03 84.2-134.858 83.095-214.349-.395-79.204-29.972-155.498-83.089-214.328zM328.703 310L539.991 96.729l-.352-.394c52.952 58.648 82.437 134.704 82.831 213.667l.024 2.377c.476 77.598-28.556 152.487-81.229 209.538l-1.267 1.361L328.703 310zM522.884 534.98L312 325.295 101.116 534.98 312 622.541l210.884-87.56zM312 326.704l209.116 207.928L312 621.458l-209.117-86.826L312 326.704zM522.88 83.742L321.074.346 121.586 489.141l183.972-186.055L522.88 83.742zM321.619 1.654L521.12 84.096 304.847 302.383 124.412 484.86 321.619 1.654zM84.218 522.912L295.432 12.85.5 309.776v.206C.478 388.704 30.185 464.538 83.688 522.34l.53.572zM292.568 17.15L83.893 521.084l-1.064-1.158C31.03 463.112 2.067 389.18 1.51 312.336l-.009-2.149L292.568 17.15z" transform="translate(-60 -156)"/>
                    </g>
                </g>
                <g mask="url(#8q0os67sob)">
                    <g>
                        <g transform="translate(510 70)">
                            <use fill="url(#kcko3s28mc)" xlink:href="#tu6tvaqizd"/>
                            <use fill="#000" filter="url(#xuf6cbguge)" xlink:href="#tu6tvaqizd"/>
                        </g>
                        <path fill="url(#fi9nht8vpf)" fill-rule="nonzero" d="M63.603 68.262l24.687 27.54-27.373 9.962-22.472-10.138 25.158-27.364zM91.53 35.824c6.238 7.75 9.712 17.857 9.758 28.412.13 10.59-3.368 20.921-9.758 28.844L66.592 65.004l24.938-29.18zM62.316 24.439L35.734 93.73c-6.326-7.5-8.336-18.355-8.334-28.819l34.916-40.473zm1.98-.72l24.124 10.08L38.69 92.654l25.605-68.937z" transform="translate(510 70) rotate(20 64.346 64.741)"/>
                    </g>
                </g>
                <ellipse cx="257" cy="142" fill="#B39C7D" filter="url(#o8w6ruklyg)" mask="url(#8q0os67sob)" opacity=".7" rx="158" ry="59"/>
                <g mask="url(#8q0os67sob)">
                    <g>
                        <g>
                            <path fill="#FFF" fill-rule="nonzero" d="M44.04 41.559l28.533 28.843c7.312-7.809 11.314-18.146 11.165-28.843-.053-10.66-4.027-20.926-11.165-28.843L44.04 41.559zM41.869 43.73L13.646 71.953 41.869 83.738 70.092 71.953zM40.939 40.629L70.092 11.165 43.11 0 16.438 65.44zM0 41.559c-.003 10.577 3.984 20.767 11.165 28.533L39.388 1.861 0 41.559z" transform="translate(140 98)"/>
                        </g>
                        <g>
                            <path fill="#FFF" fill-rule="nonzero" d="M158.221 13.119c-4.187-.156-8.123 1.983-10.258 5.574v-4.955h-5.595v32.824h5.595V25.196c.49-4.329 4.346-7.485 8.704-7.122 5.595 0 8.703 3.406 8.703 9.599v18.889h5.596V26.744c0-8.36-4.974-13.625-12.745-13.625zM128.069 2.9h-5.595v6.503c.028 1.158-.421 2.278-1.244 3.097-.822.819-1.946 1.267-3.108 1.238h-6.217l-10.258 25.083-10.569-25.083h-5.595l13.366 32.205-3.419 8.36h-7.46v4.955h5.595c3.263 0 6.205-1.954 7.46-4.955l14.61-35.3h6.839V38.51c-.202 2.165.53 4.312 2.013 5.908 1.482 1.595 3.576 2.487 5.758 2.453h7.771v-5.265h-9.636V18.693h9.636v-4.955h-9.636V2.9h-.311zM81.753 25.196c0-7.432-5.285-11.767-13.678-11.767-7.285-.233-13.518 5.167-14.299 12.386h5.596c.517-4.402 4.254-7.726 8.703-7.741 2.155-.245 4.306.48 5.87 1.976 1.562 1.498 2.374 3.611 2.212 5.765v2.168h-7.77c-10.88 0-15.543 3.406-15.543 9.29 0 6.192 4.663 9.908 12.434 9.908 5.906 0 9.636-2.167 11.19-5.883.311 3.096 2.176 5.264 6.528 5.264h3.73v-4.955h-4.973V25.196zm-5.596 11.767c0 3.406-4.04 5.883-9.947 5.883-4.662 0-7.46-1.858-7.46-4.954v-1.239c0-3.097 3.109-4.955 9.636-4.955h7.771v5.265zM44.14.423h-5.595v37.778c-.202 2.165.53 4.313 2.013 5.908 1.483 1.595 3.576 2.487 5.758 2.453h2.798v-4.955H44.14V.423zM.311.423L5.906.423 5.906 46.562.311 46.562zM34.815.423h-6.839L10.57 17.763c-1.647 1.696-1.78 4.344-.311 6.194l18.03 22.605h7.149L14.92 20.551 34.815.423z" transform="translate(140 98) translate(108.162 20.062)"/>
                        </g>
                    </g>
                </g>
            </g>
        </g>
    </g>
</svg>
