<svg xmlns="http://www.w3.org/2000/svg" xmlns:xlink="http://www.w3.org/1999/xlink" width="248" height="142" viewBox="0 0 248 142">
    <defs>
        <linearGradient id="1mnkubz03c" x1="50%" x2="50%" y1="0%" y2="100%">
            <stop offset="0%" stop-opacity=".1"/>
            <stop offset="100%" stop-color="#FFF" stop-opacity=".1"/>
        </linearGradient>
        <filter id="47r2ojptza" width="105.8%" height="140.8%" x="-2.9%" y="-14.6%" filterUnits="objectBoundingBox">
            <feOffset dy="2" in="SourceAlpha" result="shadowOffsetOuter1"/>
            <feGaussianBlur in="shadowOffsetOuter1" result="shadowBlurOuter1" stdDeviation="2"/>
            <feComposite in="shadowBlurOuter1" in2="SourceAlpha" operator="out" result="shadowBlurOuter1"/>
            <feColorMatrix in="shadowBlurOuter1" values="0 0 0 0 0 0 0 0 0 0 0 0 0 0 0 0 0 0 0.1 0"/>
        </filter>
        <rect id="ka956xa05b" width="240" height="34.286" x="0" y="0" rx="1"/>
    </defs>
    <g fill="none" fill-rule="evenodd">
        <g>
            <g>
                <g transform="translate(-64 -1406) translate(68 1406) translate(20)">
                    <rect width="199" height="107.333" x=".5" y=".5" fill="#FFF" stroke="#EBEEF2" rx="2"/>
                    <g fill="#8E8E93" fill-opacity=".5" fill-rule="nonzero">
                        <g>
                            <path d="M8.57 2.917L5.837 5.657 3.095 2.92 2.708 3.296 2.708 3.3 5.452 6.043 2.727 8.777 3.089 9.167 3.095 9.167 5.831 6.42 8.565 9.153 8.959 8.778 8.959 8.773 6.215 6.034 8.944 3.295 8.576 2.917z" transform="translate(178.75 12.5)"/>
                        </g>
                    </g>
                    <path fill="#333" fill-rule="nonzero" d="M19.217 22.8v-7.675h-1.1V22.8h1.1zm-5.792-1.442c.9-.408 1.517-1.25 1.858-2.25.342.925.95 1.675 1.842 2.059l.6-.867c-1.283-.533-1.9-1.858-1.9-3.108v-.425h1.583v-.909h-4.3v.909h1.6v.425c0 1.308-.625 2.716-1.908 3.291l.625.875zm13.133-2.075v-1.608h1.025v-.9h-1.025v-1.65h-1.1v4.158h1.1zm-5.675.092c2.325-.517 3.584-1.8 3.584-3.842h-3.584v.875h2.359c-.142.925-1 1.7-2.759 2.084l.4.883zm5.675 3.333v-3.125h-1.083v.734H22.65v-.734h-1.092v3.125h5zm-1.083-.875H22.65v-.675h2.825v.675zM36.5 20.742v-5.617h-1.1v1.067h-1.708c-.375-.384-.892-.609-1.492-.609-1.133 0-2.017.842-2.017 1.984 0 1.15.884 1.991 2.017 1.991.6 0 1.133-.233 1.508-.625H35.4v1.809h1.1zM32.2 18.6c-.558 0-.975-.392-.975-1.033 0-.634.417-1.025.975-1.025.567 0 .983.391.983 1.025 0 .641-.416 1.033-.983 1.033zm3.2-.542h-1.233c.041-.15.058-.325.058-.491 0-.175-.025-.342-.058-.5H35.4v.991zm1.275 4.609v-.875h-4.133v-1.6h-1.1v2.475h5.233zm1.533-3.517c1.684-.367 2.767-1.092 3.234-2.233h1.625v.658h-1.7v.825h1.7v.575h1.1v-3.85h-1.1v.967h-1.409c.034-.217.05-.442.05-.675h-3.425v.875H40.5c-.133.9-.917 1.633-2.658 1.975l.366.883zm6.117 3.575v-.867h-4.108v-.483h3.95v-2.117h-5.059v.867h3.959v.433h-3.95v2.167h5.208z"/>
                    <path fill="#999" fill-rule="nonzero" d="M17.12 44.067v-3.862h-.484v.817h-1.33c-.245-.304-.618-.49-1.068-.49-.77 0-1.347.548-1.347 1.312s.577 1.313 1.347 1.313c.45 0 .829-.187 1.074-.496h1.324v1.406h.484zm-2.882-1.33c-.513 0-.892-.374-.892-.893s.379-.892.892-.892c.508 0 .887.373.887.892 0 .52-.38.893-.887.893zm2.398-.461H15.51c.047-.134.07-.28.07-.432 0-.157-.023-.303-.07-.437h1.126v.869zm.63 3.039v-.39h-3.01V43.67h-.484v1.645h3.494zm1.167-2.328c1.154-.274 1.954-.834 2.28-1.656h1.29v.624h-1.366v.373h1.366v.543h.484v-2.672h-.484v.759h-1.185c.035-.164.053-.327.053-.502h-2.34v.39h1.82c-.087.829-.816 1.453-2.093 1.75l.175.392zm4.229 2.392V45h-3.063v-.607h2.888V43.11h-3.372v.385h2.893v.537h-2.881v1.347h3.535zm3.984-4.334v-.367h-1.307v-.531h-.478v.53H23.56v.368h3.086zm.956 2.03v-1.237h.776v-.396h-.776v-1.26h-.478v2.893h.479zm-2.502-.082c.758 0 1.254-.326 1.254-.857 0-.531-.496-.858-1.254-.858-.753 0-1.248.327-1.248.858 0 .53.495.857 1.248.857zm0-.355c-.484 0-.793-.187-.793-.502s.309-.502.793-.502c.484 0 .8.187.8.502s-.316.502-.8.502zm2.695 2.735v-.367h-3.033v-.502h2.84v-1.16h-3.325v.355h2.853v.455h-2.835v1.22h3.5zm6.703.059v-5.227h-.479v5.227h.479zm-4.002-1.004c.595-.303 1.108-.962 1.347-1.726.251.717.765 1.318 1.371 1.598l.269-.385c-.77-.327-1.4-1.23-1.4-2.117v-.666h1.23v-.396h-2.922v.397h1.213v.664c0 .905-.636 1.89-1.388 2.246l.28.385zm9.146-1.4v-1.195h.776v-.397h-.776v-1.237h-.478v2.83h.478zm-3.873.065c1.54-.374 2.462-1.26 2.462-2.579h-2.404v.391h1.879c-.082.84-.829 1.487-2.118 1.797l.181.39zm3.873 2.269v-2.095h-.478v.66h-2.357v-.66h-.472v2.095h3.307zm-.478-.385h-2.357V44.3h2.357v.677zm4.148-2.876c1.149 0 1.837-.315 1.837-.904 0-.59-.688-.91-1.837-.91-1.15 0-1.838.32-1.838.91 0 .589.689.904 1.838.904zm0-.356c-.858 0-1.348-.198-1.348-.548 0-.35.49-.549 1.348-.549.857 0 1.347.199 1.347.549 0 .35-.49.548-1.347.548zm2.368 1.097v-.385h-4.737v.385h4.737zm-.45 2.531V45H42v-.53h3.073v-1.18h-3.558v.363h3.086v.466h-3.069v1.254h3.699zm6.703-1.26v-3.908h-.484v1.225h-1.143v.397h1.143v2.286h.484zm-4.054-.746c.613-.245 1.08-.741 1.301-1.365.222.566.67 1.015 1.248 1.242l.251-.367c-.752-.28-1.266-.969-1.266-1.698v-.665h-.478v.648c0 .799-.525 1.54-1.307 1.825l.251.38zm4.177 1.948v-.39h-3.01v-1.243h-.478v1.633h3.488zm5.349-1.942v-3.168h-.46v1.36h-.7v-1.267h-.456v3.04h.455v-1.383h.7v1.418h.461zm-1.92-.42l-.046-.386c-.548.111-1.015.14-1.761.14v-.711h1.499v-.368h-1.5v-.659h1.558v-.385h-2.018v2.514h.332c.84 0 1.336-.023 1.937-.145zm1.92 2.479v-1.785h-3.517v.385h3.039v1.4h.478zm5.384-.006v-5.233h-.46v2.211h-.672v-2.088h-.449v4.859h.45v-2.38h.67v2.63h.461zm-1.843-3.944v-.39h-1.062v-.741h-.472v.74H58.35v.392h2.596zm-1.295 2.736c.647 0 1.12-.484 1.12-1.196 0-.7-.473-1.19-1.12-1.19-.648 0-1.12.49-1.12 1.19 0 .712.472 1.196 1.12 1.196zm0-.396c-.409 0-.694-.333-.694-.8 0-.454.285-.787.694-.787.402 0 .694.333.694.788 0 .466-.292.799-.694.799zm8.342-1.08l.186-.379c-.922-.134-1.826-.735-1.826-1.423v-.03h1.64v-.384h-3.821v.385h1.65v.029c0 .688-.904 1.29-1.814 1.423l.181.38c.811-.14 1.581-.578 1.902-1.196.315.618 1.09 1.056 1.902 1.196zm-1.675 2.69V43.57h2.141l-.006-.391h-4.725v.39h2.112v1.862h.478zm7.216 0v-5.233h-.455v5.233h.455zm-1.067-.257v-4.86h-.45v1.763h-.863v.396h.864v2.701h.449zm-3.139-.863c.52-.321.899-.916 1.085-1.61.187.636.537 1.19 1.033 1.493l.274-.373c-.688-.42-1.08-1.307-1.08-2.147v-.98h-.46v.998c0 .898-.432 1.837-1.15 2.257l.298.362zm9.876.449v-.397h-1.172v-1.417c.431-.228.688-.601.688-1.074 0-.816-.787-1.341-1.902-1.341-1.108 0-1.901.525-1.901 1.341 0 .473.262.852.7 1.08v1.411H74.45v.397h4.754zm-2.386-1.92c-.84 0-1.44-.384-1.44-.968 0-.583.6-.968 1.44-.968s1.447.385 1.447.968c0 .584-.607.969-1.447.969zm.735 1.523h-1.458v-1.23c.216.052.467.081.723.081.263 0 .514-.03.735-.082v1.231zm2.771.712c.21 0 .385-.163.385-.403 0-.239-.175-.414-.385-.414-.21 0-.385.175-.385.414 0 .24.175.403.385.403z"/>
                    <rect width="175" height="25" x="12.5" y="62.5" fill="#6F6558" rx="1"/>
                    <path fill="#FFF" fill-rule="nonzero" d="M81.653 77.5v-1.295l.66-.805 1.213 2.1h.752l-1.551-2.637 1.33-1.656h-.753l-1.633 2.03h-.018v-2.03h-.676V77.5h.676zm3.891.076c.397 0 .724-.175 1.021-.426h.017l.059.35h.548v-1.93c0-.87-.367-1.36-1.166-1.36-.514 0-.951.187-1.284.397l.198.49c.275-.181.619-.339.969-.339.472 0 .612.321.612.7-.659.047-1.143.1-1.47.28-.332.204-.449.555-.449.91 0 .566.391.928.945.928zm.204-.531c-.285 0-.501-.117-.501-.443 0-.135-.024-.286.145-.444.205-.186.508-.186 1.126-.262v.793c-.262.24-.49.356-.77.356zm2.993-3.39v-.722h-.689v.723h.689zm-.018 3.845v-3.208h-.665V77.5h.665zm1.575 0v-.828l.543-.624.869 1.452h.73l-1.214-1.907 1.09-1.301h-.74l-1.26 1.557h-.018v-2.998h-.653V77.5h.653zm3.46.076c.396 0 .723-.175 1.02-.426h.018l.058.35h.549v-1.93c0-.87-.368-1.36-1.167-1.36-.514 0-.951.187-1.284.397l.199.49c.274-.181.618-.339.968-.339.473 0 .613.321.613.7-.66.047-1.144.1-1.47.28-.333.204-.45.555-.45.91 0 .566.391.928.945.928zm.204-.531c-.286 0-.502-.117-.502-.443 0-.135-.023-.286.146-.444.204-.186.507-.186 1.126-.262v.793c-.263.24-.49.356-.77.356zm3.266.53c.794 0 1.22-.437 1.22-.973 0-.607-.496-.805-.945-.975-.35-.128-.683-.233-.683-.507 0-.228.163-.397.513-.397.275 0 .49.117.718.28l.315-.414c-.263-.204-.601-.379-1.044-.379-.706 0-1.138.403-1.138.94 0 .547.496.763.916.932l.123.05c.307.12.589.242.589.505 0 .25-.17.431-.566.431-.35 0-.624-.14-.91-.367l-.315.431c.309.257.764.444 1.207.444zm7.362.374v-5.267h-.607v5.267h.607zm-4.013-1.003c.618-.292 1.09-.928 1.324-1.657.25.683.717 1.248 1.33 1.523l.332-.473c-.822-.356-1.365-1.254-1.365-2.135v-.501h1.173v-.496h-2.952v.496h1.173v.501c0 .893-.543 1.896-1.36 2.264l.345.478zm9.152-1.412v-1.16h.753v-.496h-.753v-1.202h-.6v2.858h.6zm-3.89.064c1.569-.367 2.461-1.254 2.461-2.625h-2.432v.49h1.767c-.088.753-.74 1.365-2.024 1.651l.227.484zm3.89 2.287v-2.13h-.595v.596h-2.176v-.595h-.595v2.129h3.366zm-.595-.484h-2.176v-.578h2.176v.578zm4.235-1.447c1.097 0 1.937-.583 1.937-1.487 0-.887-.84-1.488-1.937-1.488s-1.936.601-1.936 1.488c0 .904.84 1.487 1.936 1.487zm0-.496c-.776 0-1.353-.385-1.353-.991 0-.607.577-.992 1.353-.992s1.353.385 1.353.992c0 .606-.577.991-1.353.991zm2.392 1.826v-.496h-4.772v.496h4.772zm5.367.047v-.496h-2.095v-.898h1.645v-.484h-3.156v-.736h3.04V73.05h-3.64v.484h3.045v.706h-3.034v1.698h1.5v.898h-2.077v.496h4.772zm6.673 0v-.496h-2.094v-.898h1.645v-.484h-3.156v-.736h3.039V73.05h-3.64v.484h3.045v.706h-3.033v1.698h1.499v.898h-2.077v.496h4.772zm4.55-.998c.193-1.057.198-1.772.198-2.443v-.683h-3.646v.484h3.045v.344c-.003.623-.025 1.326-.204 2.234l.607.064zm.81.881v-.496h-4.765v.496h4.766zm4.941-.706v-3.826h-.6v3.826h.6zm-2.84-.84c.793 0 1.394-.554 1.394-1.318 0-.776-.601-1.318-1.394-1.318-.794 0-1.4.542-1.4 1.318 0 .764.606 1.318 1.4 1.318zm0-.519c-.467 0-.811-.32-.811-.799 0-.49.344-.8.81-.8.462 0 .811.31.811.8 0 .478-.35.8-.81.8zm2.992 2.701v-.49h-2.986v-1.237h-.607v1.727h3.593z"/>
                    <g fill="#FFF" fill-rule="nonzero">
                        <path d="M5.338 4.963l3.459 3.444c.886-.932 1.371-2.167 1.353-3.444-.006-1.273-.488-2.499-1.353-3.444L5.338 4.963zM5.075 5.222L1.654 8.593 5.075 10 8.496 8.593zM4.962 4.852L8.496 1.333 5.226 0 1.992 7.815zM0 4.963c0 1.263.483 2.48 1.353 3.407L4.774.222 0 4.963z" transform="translate(63.75 70)"/>
                    </g>
                </g>
                <g>
                    <g transform="translate(-64 -1406) translate(68 1406) translate(0 98)">
                        <use fill="#000" filter="url(#47r2ojptza)" xlink:href="#ka956xa05b"/>
                        <rect width="239" height="33.286" x=".5" y=".5" fill="#FEE500" stroke="#000" stroke-linejoin="square" stroke-opacity=".04" rx="1"/>
                    </g>
                    <path fill="#000" fill-opacity=".85" fill-rule="nonzero" d="M100.857 20.608v-3.68h1.096v-.688h-1.096v-2.856h-.824v7.224h.824zm-5.12-1.128c2.624-1.32 3.256-3.208 3.256-5.368h-3.288v.672h2.472c-.032.4-.096.776-.192 1.128l-2.648.168.112.712 2.288-.224c-.424.904-1.168 1.632-2.448 2.272l.448.64zm12.48 1.128v-3.68h1.096v-.688h-1.096v-2.856h-.824v7.224h.824zm-5.12-1.128c2.624-1.32 3.256-3.208 3.256-5.368h-3.288v.672h2.472c-.032.4-.096.776-.192 1.128l-2.648.168.112.712 2.288-.224c-.424.904-1.168 1.632-2.448 2.272l.448.64zm13.432.248v-.672h-2.872V17.68c1.32-.128 2.248-.856 2.248-1.928 0-1.184-1.128-1.936-2.656-1.936-1.536 0-2.656.752-2.656 1.936 0 1.08.92 1.792 2.24 1.92v1.384h-2.848v.672h6.544zm-3.28-2.696c-1.08 0-1.856-.488-1.856-1.28s.776-1.28 1.856-1.28c1.072 0 1.848.488 1.848 1.28s-.776 1.28-1.848 1.28zM120.425 20v-1.776l.904-1.104 1.664 2.88h1.032l-2.128-3.616 1.824-2.272h-1.032l-2.24 2.784h-.024v-2.784h-.928V20h.928zm5.16 0v-6.368h-.912V20h.912zm2.144-5.272v-.992h-.944v.992h.944zM127.705 20v-4.4h-.912V20h.912zm2.184 1.784V20.36l-.024-.752c.376.32.768.496 1.16.496.992 0 1.896-.872 1.896-2.376 0-1.352-.624-2.24-1.744-2.24-.488 0-.968.272-1.352.592h-.024l-.072-.48h-.752v6.184h.912zm.96-2.44c-.28 0-.616-.104-.96-.4v-2.152c.376-.36.704-.536 1.048-.536.736 0 1.032.552 1.032 1.488 0 1.032-.48 1.6-1.12 1.6zm7.936-1.464c1.504 0 2.656-.8 2.656-2.04 0-1.216-1.152-2.04-2.656-2.04-1.504 0-2.656.824-2.656 2.04 0 1.24 1.152 2.04 2.656 2.04zm0-.68c-1.064 0-1.856-.528-1.856-1.36 0-.832.792-1.36 1.856-1.36s1.856.528 1.856 1.36c0 .832-.792 1.36-1.856 1.36zm3.28 2.504v-.68h-6.544v.68h6.544zm7.36.064v-.68h-2.872v-1.232h2.256v-.664h-4.328v-1.008h4.168v-2.288h-4.992v.664h4.176v.968h-4.16v2.328h2.056v1.232h-2.848v.68h6.544zm9.152 0v-.68h-2.872v-1.232h2.256v-.664h-4.328v-1.008h4.168v-2.288h-4.992v.664h4.176v.968h-4.16v2.328h2.056v1.232h-2.848v.68h6.544zm6.24-1.368c.28-1.536.272-2.544.272-3.512v-.776h-5v.664h4.176v.472c-.004.854-.035 1.818-.28 3.064l.832.088zm1.112 1.208v-.68h-6.536v.68h6.536zm6.776-.968v-5.248h-.824v5.248h.824zm-3.896-1.152c1.088 0 1.912-.76 1.912-1.808 0-1.064-.824-1.808-1.912-1.808s-1.92.744-1.92 1.808c0 1.048.832 1.808 1.92 1.808zm0-.712c-.64 0-1.112-.44-1.112-1.096 0-.672.472-1.096 1.112-1.096.632 0 1.112.424 1.112 1.096 0 .656-.48 1.096-1.112 1.096zm4.104 3.704v-.672h-4.096v-1.696h-.832v2.368h4.928z" transform="translate(-64 -1406) translate(68 1406) translate(0 98)"/>
                    <path fill="#171B1D" d="M88.3 13.968l-.028-.142c-.31-1.486-1.58-2.4-3.333-2.4l-3.762.001H69.17c-1.753 0-3.035.924-3.345 2.41l-.03.142c-.055.324-.083.646-.081 1.04v4.16c.002.516.054.885.055.89l.002.015c.207 1.71 1.477 2.731 3.399 2.731H80.569c.1 0 .18-.08.18-.18V15.9v-.001c0-.1-.08-.18-.18-.18h-.658c-.1 0-.18.08-.18.18V21.802H69.425c-1.706 0-2.686-1.041-2.687-2.588V15.01c0-1.56.98-2.566 2.687-2.566h15.26c1.707 0 2.675.995 2.675 2.555l.001 4.205c-.001 1.546-.97 2.593-2.677 2.593l-.349.004-.416.003h-.196c-.1 0-.18.08-.18.18v.649c0 .1.08.18.18.18h.457l.185-.003h.574c1.921 0 3.18-1.026 3.386-2.737l.002-.015c0-.004.053-.373.055-.89v-4.16c.002-.393-.026-.716-.081-1.04" transform="translate(-64 -1406) translate(68 1406) translate(0 98) rotate(1 77.048 17.121)"/>
                    <path fill="#171B1D" d="M75.149 18.773c0 .682.426 1.145 1.062 1.145h.284c.1 0 .182-.081.182-.182v-.569c0-.047-.018-.093-.053-.129-.036-.035-.082-.053-.128-.052h-.328v-4.552-.001c0-.1-.08-.18-.18-.18h-.657-.001-.001c-.1 0-.18.08-.18.18v4.34" transform="translate(-64 -1406) translate(68 1406) translate(0 98) rotate(1 75.913 17.086)"/>
                    <path fill="#171B1D" d="M77.424 16.287V18.818c0 .682.428 1.14 1.064 1.14h.275c.1 0 .18-.081.18-.18v-.572c0-.024-.005-.048-.014-.07-.009-.021-.022-.041-.039-.058-.035-.036-.081-.053-.127-.053h-.321v-2.737-.001c0-.1-.08-.18-.18-.18h-.658c-.1 0-.18.08-.18.18" transform="translate(-64 -1406) translate(68 1406) translate(0 98) rotate(1 78.184 18.032)"/>
                    <path fill="#171B1D" d="M77.661 15.287h.657c.075 0 .14-.045.167-.11.01-.021.014-.045.014-.07v-.639c0-.024-.005-.048-.014-.07-.027-.064-.091-.11-.166-.11h-.657-.001c-.1 0-.18.08-.18.179v.641c0 .02.005.041.012.06.025.069.09.119.168.119" transform="translate(-64 -1406) translate(68 1406) translate(0 98) rotate(1 77.99 14.788)"/>
                    <path fill="#171B1D" d="M74.369 14.452l.008-.022c.003-.012.006-.024.007-.036 0-.007-.002-.05-.004-.06-.006-.02-.015-.04-.026-.058l-.012-.018-.025-.022-.024-.017c-.009-.004-.017-.009-.026-.012-.017-.006-.062-.012-.062-.012h-.752c-.006 0-.02 0-.025.002-.018.004-.027.005-.043.012-.023.01-.043.023-.06.04l-2.31 1.984c-.254.255-.277.658-.052.939l2.342 2.61.01.01.009.008c.014.014.03.025.05.033.002.002.006.002.009.004.02.007.04.012.062.012h.776c.019-.001.037-.005.055-.012.007-.002.014-.006.021-.01.012-.005.022-.013.032-.021l.018-.015c.012-.013.023-.028.031-.045v-.002l.006-.018c.006-.015.009-.031.01-.047v-.017c0-.038-.013-.076-.038-.108l-2.49-2.851 2.467-2.198c.016-.015.027-.033.036-.053" transform="translate(-64 -1406) translate(68 1406) translate(0 98) rotate(1 72.601 17.022)"/>
                    <path fill="#171B1D" d="M70.313 14.32c0-.099-.08-.18-.18-.18h-.657-.002c-.022 0-.043.006-.063.013l-.016.008c-.014.007-.027.016-.038.026l-.014.012c-.013.015-.024.03-.032.048l-.002.004c-.01.022-.015.046-.015.071v5.297c0 .025.005.05.015.07.027.066.09.112.166.112h.658c.1 0 .18-.081.18-.18V14.321v-.001" transform="translate(-64 -1406) translate(68 1406) translate(0 98) rotate(1 69.803 16.97)"/>
                    <path fill="#171B1D" d="M84.748 18.235l.008-.033.006-.036c.08-.462.015-.922.013-.938-.105-.866-.765-1.405-1.723-1.405h-1.635c-.05 0-.096.02-.128.053-.033.033-.053.078-.053.129v.645c0 .026.005.05.014.071.018.044.053.078.096.096.022.01.046.015.071.015h1.525c.606 0 .913.274.913.804v.018c0 .542-.307.816-.913.816h-1.525c-.009 0-.017.004-.026.005-.015.002-.03.003-.043.01-.02.007-.036.02-.05.032-.003.003-.007.004-.01.006-.002.003-.003.007-.006.01-.013.015-.025.03-.032.05-.006.012-.007.026-.009.04-.001.01-.005.018-.005.029v.647c0 .1.08.18.18.18h1.658c.885 0 1.515-.48 1.674-1.244" transform="translate(-64 -1406) translate(68 1406) translate(0 98) rotate(1 83.019 17.651)"/>
                </g>
                <path fill="url(#1mnkubz03c)" d="M0 132L240 132 230 142 10 142z" transform="translate(-64 -1406) translate(68 1406)"/>
            </g>
        </g>
    </g>
</svg>
