<svg xmlns="http://www.w3.org/2000/svg" xmlns:xlink="http://www.w3.org/1999/xlink" width="248" height="145" viewBox="0 0 248 145">
    <defs>
        <filter id="c9w3l4jfac" width="105.8%" height="114.6%" x="-2.9%" y="-5.2%" filterUnits="objectBoundingBox">
            <feOffset dy="2" in="SourceAlpha" result="shadowOffsetOuter1"/>
            <feGaussianBlur in="shadowOffsetOuter1" result="shadowBlurOuter1" stdDeviation="2"/>
            <feComposite in="shadowBlurOuter1" in2="SourceAlpha" operator="out" result="shadowBlurOuter1"/>
            <feColorMatrix in="shadowBlurOuter1" values="0 0 0 0 0 0 0 0 0 0 0 0 0 0 0 0 0 0 0.05 0"/>
        </filter>
        <filter id="bznhnp8y1e" width="245.8%" height="245.8%" x="-72.9%" y="-52.1%" filterUnits="objectBoundingBox">
            <feOffset dy="2" in="SourceAlpha" result="shadowOffsetOuter1"/>
            <feGaussianBlur in="shadowOffsetOuter1" result="shadowBlurOuter1" stdDeviation="2"/>
            <feColorMatrix in="shadowBlurOuter1" values="0 0 0 0 0 0 0 0 0 0 0 0 0 0 0 0 0 0 0.1 0"/>
        </filter>
        <linearGradient id="4jzms8myoa" x1="50%" x2="50%" y1="17.092%" y2="100%">
            <stop offset="0%" stop-opacity=".1"/>
            <stop offset="100%" stop-color="#FFF" stop-opacity=".1"/>
        </linearGradient>
        <circle id="8ul1i1q31f" cx="4.8" cy="4.8" r="4.8"/>
        <path id="821iojatsb" d="M183.3 0c0 1.657 1.343 3 3 3s3-1.343 3-3H240v96l-50.7.001V96c0-1.657-1.343-3-3-3s-3 1.343-3 3H0V0h183.3z"/>
    </defs>
    <g fill="none" fill-rule="evenodd">
        <g>
            <g transform="translate(-59 -2154) translate(63 2154)">
                <path fill="url(#4jzms8myoa)" d="M0 130.663L0 127.163 239.76 127.163 240 130.663 230 144.763 10 144.763z"/>
                <g transform="translate(14.7 4.163)">
                    <rect width="15.4" height="15.4" x="-.5" y="-.5" fill="#FFF" stroke="#EBEEF2" rx="7.7"/>
                    <g fill="#6F6558" fill-rule="nonzero">
                        <path d="M4.474 4.222l2.899 2.93c.743-.793 1.15-1.843 1.134-2.93-.005-1.083-.41-2.126-1.134-2.93l-2.899 2.93zM4.254 4.443L1.386 7.31 4.254 8.507 7.121 7.31zM4.159 4.128L7.121 1.134 4.38 0 1.67 6.648zM0 4.222c0 1.075.405 2.11 1.134 2.899L4.001.189 0 4.222z" transform="translate(2.88 2.88)"/>
                    </g>
                </g>
                <path fill="#333" fill-rule="nonzero" d="M42.566 16.408v-8.87H41.3v8.87h1.267zm-6.086-2.055c.403 0 .787-.005 1.152-.014.365-.01.723-.026 1.075-.048.352-.023.703-.053 1.051-.091.35-.039.703-.09 1.061-.154l-.134-1.027c-.314.051-.62.094-.917.13-.298.035-.597.063-.898.086-.3.022-.608.04-.921.053-.314.012-.637.019-.97.019v-1.594h2.87V8.296h-4.175v1.008h2.88v1.41h-2.87v3.64h.796zm14.774-3.552v-.94h-1.056V8.727h1.124v-.941h-6.576v.94h1.123V9.86h-1.066v.941h6.451zm-2.313-.94h-1.815V8.727h1.815V9.86zm3.091 2.39v-.999h-7.987v.999h7.987zm-.74 4.07v-.912h-5.068v-.48h4.838V12.74h-6.105v.912h4.857v.432h-4.848v2.237h6.327zm4.522-1.805v-2.044h1.94v-.999h-1.94V9.428h-1.046v2.045h-1.94v.999h1.94v2.044h1.046zm10.695-2.572v-.999h-1.066c.077-.448.122-.857.135-1.229.012-.37.019-.73.019-1.075v-.787H59.52v.98h4.829v.249c0 .083-.003.17-.01.259l-5.069.115.135.97 4.877-.211c-.013.121-.03.241-.048.36-.02.118-.039.241-.058.37H58.55v.998h7.959zm-.567 4.348v-.96h-5.27v-.528h4.982v-2.332h-6.25v.95h4.993v.48h-4.973v2.39h6.518zm9.005.087V7.537h-1.2v8.842h1.2zm-1.824-.403V7.7h-1.171v2.852h-.874v1.036h.874v4.388h1.171zm-4.896-1.652c.55 0 1.083-.012 1.599-.038.515-.026 1.057-.09 1.627-.192l-.106-1.018c-.448.07-.873.12-1.277.15-.403.028-.816.049-1.238.062V11.8h1.891V8.41h-3.13V9.42h1.901V10.8h-1.89v3.523h.623zm15.293 2.084v-8.87h-1.267v8.87h1.267zm-4.752-1.93c.333 0 .642-.074.926-.22.285-.148.53-.36.735-.634.205-.276.366-.608.485-.999.118-.39.177-.829.177-1.315s-.059-.923-.177-1.31c-.119-.388-.28-.717-.485-.99-.205-.271-.45-.48-.735-.628-.284-.147-.593-.22-.926-.22-.333 0-.642.073-.926.22-.285.147-.53.357-.735.629-.205.272-.366.601-.485.989-.118.387-.177.824-.177 1.31 0 .486.059.925.177 1.315.119.39.28.723.485.999.205.275.45.486.735.633.284.147.593.221.926.221zm0-1.152c-.326 0-.592-.171-.797-.514-.205-.342-.307-.843-.307-1.502 0-.66.102-1.158.307-1.498.205-.339.47-.508.797-.508.326 0 .592.17.797.508.205.34.307.839.307 1.498 0 .66-.102 1.16-.307 1.502-.205.343-.47.514-.797.514z"/>
                <path fill="#666" fill-rule="nonzero" d="M225.604 3.23V0h-.281v3.23h.28zm-.634-.16V.073h-.28v.71h-.501c-.055-.164-.134-.29-.236-.379-.102-.089-.224-.133-.365-.133-.106 0-.2.026-.285.08-.084.052-.156.127-.216.224s-.106.215-.138.353c-.033.138-.049.293-.049.466 0 .173.016.329.049.468.032.14.078.258.138.355.06.097.132.172.216.225.084.053.179.079.285.079.141 0 .262-.044.363-.133.101-.089.18-.215.238-.378h.5V3.07h.281zm-1.382-.824c-.13 0-.233-.076-.308-.228-.076-.153-.114-.36-.114-.625 0-.261.038-.468.114-.62.075-.153.178-.23.308-.23s.232.077.307.23c.076.152.114.359.114.62 0 .264-.038.472-.114.625-.075.152-.178.228-.307.228zm1.101-.482h-.439c.01-.058.017-.116.022-.176.004-.06.007-.125.007-.195s-.003-.134-.007-.194c-.005-.06-.012-.119-.022-.177h.44v.742zm3.989.194V1.08h.479V.835h-.479V.004h-.295v1.954h.295zm-2.365-.118c.19-.072.353-.18.491-.32.138-.142.24-.308.308-.498.072.166.175.312.308.44.133.127.287.223.462.288l.155-.23c-.115-.04-.22-.093-.317-.161-.096-.068-.178-.146-.246-.234-.069-.088-.122-.183-.16-.286-.039-.103-.058-.209-.058-.317V.166h-.295v.33c0 .123-.019.242-.056.357-.037.115-.091.221-.162.317-.07.096-.155.182-.254.257-.098.076-.209.135-.331.179l.155.234zm1.339 1.386c.163 0 .31-.014.441-.04.13-.026.242-.064.335-.113.092-.05.163-.11.212-.184.05-.073.074-.157.074-.25 0-.094-.025-.177-.074-.25-.049-.074-.12-.135-.212-.186-.093-.05-.204-.089-.335-.115-.13-.026-.278-.04-.441-.04-.166 0-.314.014-.445.04-.13.026-.242.065-.334.115-.093.05-.164.112-.213.186-.049.073-.074.156-.074.25 0 .093.025.177.074.25.05.073.12.134.213.184.092.049.204.087.334.113.131.026.28.04.445.04zm0-.23c-.24 0-.428-.032-.565-.094-.137-.063-.205-.15-.205-.263 0-.115.068-.204.205-.267.137-.062.325-.093.565-.093.24 0 .428.031.563.093.136.063.204.152.204.267 0 .113-.068.2-.204.263-.135.062-.323.093-.563.093zm5.296-1.527l.122-.238c-.146-.021-.29-.061-.428-.119-.14-.057-.264-.128-.373-.212-.11-.084-.197-.178-.263-.28-.066-.104-.099-.212-.099-.325v-.18h-.31v.18c0 .115-.032.225-.097.33-.064.104-.15.198-.259.28-.108.083-.231.153-.37.21-.14.056-.283.095-.429.116l.119.238c.125-.022.248-.055.369-.1.121-.044.234-.098.34-.163.106-.065.2-.139.283-.221.082-.083.149-.174.2-.272.052.098.12.189.205.272.084.082.178.156.282.221.105.065.217.12.339.164.12.044.244.077.369.099zm-1.055 1.764v-1.17h1.321l-.004-.245h-2.916v.245h1.304v1.17h.295zm4.36-1.31V.002h-.296v1.92h.295zm-1.732-.202c.122 0 .234-.019.336-.056.102-.037.191-.09.267-.157.075-.067.134-.147.176-.24.042-.094.063-.198.063-.31 0-.113-.02-.216-.063-.31-.042-.094-.1-.174-.176-.241-.076-.067-.165-.12-.267-.157-.102-.037-.214-.056-.336-.056-.123 0-.235.019-.339.056-.103.037-.192.09-.266.157-.074.067-.133.147-.175.241-.042.094-.063.197-.063.31 0 .112.021.216.063.31.042.093.1.173.175.24.074.068.163.12.266.157.104.037.216.056.339.056zm0-.249c-.082 0-.156-.012-.223-.037-.068-.026-.126-.061-.175-.107-.05-.045-.088-.1-.115-.162-.028-.062-.042-.132-.042-.208 0-.075.014-.144.042-.207.027-.064.066-.119.115-.164.05-.046.107-.081.175-.106.067-.026.141-.038.223-.038.079 0 .153.012.221.038.069.025.127.06.177.106.049.045.087.1.115.164.027.063.041.132.041.207 0 .076-.014.146-.041.208-.028.063-.066.117-.115.162-.05.046-.108.081-.177.107-.068.025-.142.037-.221.037zm1.731 1.76V2.1h-2.156v.237h1.861v.897h.295zm3.273-1.98v-.215h-1.944V.763h1.886V.09h-2.185v.209h1.894v.263h-1.887v.69h2.236zm.054 1.941v-.216h-2.016v-.299h1.915v-.687h-.425v-.295h.789v-.22h-2.93v.22h.791v.295h-.443v.212h1.926v.27h-1.915v.72h2.308zm-.821-1.202h-.76v-.295h.76v.295z"/>
                <g transform="translate(.3 4.163)">
                    <circle cx="7.2" cy="7.2" r="7.2" fill="#23292F"/>
                    <g fill="#FFF" fill-rule="nonzero">
                        <path d="M6.145 0h1.04L5.02 2.2c-.784.798-2.055.798-2.84 0L.013 0h1.042L2.7 1.672c.499.504 1.3.504 1.799 0L6.145 0zM1.041 6.12H0l2.18-2.214c.784-.797 2.055-.797 2.84 0L7.2 6.12H6.16L4.5 4.435c-.499-.505-1.3-.505-1.799 0L1.041 6.12z" transform="translate(3.6 4.5)"/>
                    </g>
                </g>
                <path fill="#E66D16" fill-rule="nonzero" d="M221.045 15.967v-1.065h-1.239V8.786h-1.132l-2.074 1.786.758.864 1.172-1.066-.039.624v3.908h-1.401v1.065h3.955zm3.408.135c.384 0 .739-.074 1.065-.221.327-.147.61-.373.85-.677.24-.304.427-.688.562-1.152.134-.464.201-1.013.201-1.646 0-.64-.067-1.192-.201-1.656-.135-.464-.322-.848-.562-1.152-.24-.304-.523-.53-.85-.677-.326-.147-.681-.221-1.065-.221-.378 0-.727.074-1.047.22-.32.148-.6.374-.84.678-.24.304-.427.688-.561 1.152-.135.464-.202 1.016-.202 1.656 0 .633.067 1.182.202 1.646.134.464.321.848.561 1.152.24.304.52.53.84.677.32.147.67.22 1.047.22zm0-1.114c-.167 0-.328-.038-.485-.115-.157-.077-.296-.215-.418-.413-.121-.198-.219-.462-.292-.792-.074-.33-.11-.75-.11-1.262s.036-.936.11-1.272c.073-.336.17-.602.292-.797.122-.195.261-.333.418-.413.157-.08.318-.12.485-.12.173 0 .34.04.504.12.163.08.305.218.427.413.122.195.22.46.293.797.073.336.11.76.11 1.272s-.037.932-.11 1.262c-.074.33-.171.594-.293.792-.122.198-.264.336-.427.413-.163.077-.331.115-.504.115zm5.721 1.114c.384 0 .74-.074 1.066-.221.326-.147.61-.373.85-.677.24-.304.427-.688.561-1.152.135-.464.202-1.013.202-1.646 0-.64-.067-1.192-.202-1.656-.134-.464-.321-.848-.561-1.152-.24-.304-.524-.53-.85-.677-.326-.147-.682-.221-1.066-.221-.377 0-.726.074-1.046.22-.32.148-.6.374-.84.678-.24.304-.427.688-.562 1.152-.134.464-.201 1.016-.201 1.656 0 .633.067 1.182.201 1.646.135.464.322.848.562 1.152.24.304.52.53.84.677.32.147.669.22 1.046.22zm0-1.114c-.166 0-.328-.038-.484-.115-.157-.077-.296-.215-.418-.413-.122-.198-.22-.462-.293-.792-.073-.33-.11-.75-.11-1.262s.037-.936.11-1.272c.074-.336.171-.602.293-.797.122-.195.26-.333.418-.413.156-.08.318-.12.484-.12.173 0 .341.04.504.12.164.08.306.218.428.413.121.195.219.46.292.797.074.336.11.76.11 1.272s-.036.932-.11 1.262c-.073.33-.17.594-.292.792-.122.198-.264.336-.428.413-.163.077-.33.115-.504.115zm5.454-.839c.308 0 .554-.112.738-.336.184-.224.276-.56.276-1.008 0-.448-.092-.78-.276-.999-.184-.218-.43-.327-.738-.327-.304 0-.547.11-.729.327-.182.218-.273.551-.273 1 0 .447.091.783.273 1.007.182.224.425.336.73.336zm.558 1.89l2.424-4.56h-.474l-2.43 4.56h.48zm-.558-2.262c-.164 0-.298-.076-.402-.228-.104-.152-.156-.4-.156-.744 0-.34.052-.584.156-.732.104-.148.238-.222.402-.222.168 0 .304.073.408.22.104.145.156.39.156.734s-.052.592-.156.744c-.104.152-.24.228-.408.228zm3.048 2.25c.304 0 .548-.11.732-.333.184-.222.276-.557.276-1.005 0-.448-.092-.78-.276-.999-.184-.218-.428-.327-.732-.327s-.549.11-.735.327c-.186.218-.279.551-.279 1 0 .447.093.782.28 1.004.185.222.43.333.734.333zm0-.372c-.168 0-.304-.075-.408-.225-.104-.15-.156-.397-.156-.74 0-.345.052-.59.156-.739.104-.148.24-.222.408-.222.168 0 .303.074.405.222.102.148.153.394.153.738s-.05.591-.153.741c-.102.15-.237.225-.405.225z"/>
                <g transform="translate(0 34.463)">
                    <mask id="hne0s5lpgd" fill="#fff">
                        <use xlink:href="#821iojatsb"/>
                    </mask>
                    <g>
                        <use fill="#000" filter="url(#c9w3l4jfac)" xlink:href="#821iojatsb"/>
                        <path fill="#FFF" stroke="#DEE3EB" stroke-linejoin="square" d="M182.835.5H.5v95h182.335c.11-.766.468-1.453.99-1.975.634-.633 1.509-1.025 2.475-1.025.967 0 1.842.392 2.475 1.025.522.523.88 1.21.99 1.976L239.5 95.5V.5h-49.735c-.11.766-.468 1.453-.99 1.975-.634.633-1.509 1.025-2.475 1.025-.966 0-1.841-.392-2.475-1.025-.522-.522-.88-1.209-.99-1.975z"/>
                    </g>
                    <path fill="#B39C7D" d="M186 0H240V96H186z" mask="url(#hne0s5lpgd)"/>
                </g>
                <path fill="#FFF" fill-rule="nonzero" d="M203.84 119.063c.427 0 .812-.061 1.155-.184.343-.122.636-.304.877-.546.242-.241.43-.544.562-.908.132-.364.199-.788.199-1.272 0-.488-.067-.912-.2-1.271-.132-.359-.321-.657-.569-.893-.246-.237-.546-.412-.897-.527-.35-.114-.747-.171-1.189-.171h-1.583v5.772h1.645zm-.132-.928h-.359v-3.924h.359c.27 0 .513.035.73.106.215.07.398.182.549.335.15.153.267.353.347.6.08.248.121.548.121.901 0 .354-.04.656-.12.905-.082.25-.197.454-.348.612-.15.16-.334.276-.55.352-.216.075-.459.113-.73.113zm5.858 1.037c.275 0 .544-.043.807-.129.263-.086.503-.204.721-.355l-.39-.702c-.156.1-.313.175-.472.227-.158.052-.328.078-.51.078-.328 0-.6-.093-.816-.277-.215-.185-.347-.457-.393-.815h2.69c.016-.052.03-.126.04-.223.01-.096.015-.196.015-.3 0-.302-.039-.58-.117-.835-.078-.254-.194-.475-.347-.663-.153-.187-.343-.332-.57-.436-.225-.104-.49-.156-.791-.156-.26 0-.512.053-.757.16-.244.106-.461.26-.65.46-.19.2-.343.442-.457.725-.115.284-.172.602-.172.956 0 .358.056.68.168.963.112.283.265.523.46.718.195.195.424.344.686.448.263.104.548.156.855.156zm.71-2.73h-1.779c.042-.317.153-.558.335-.721.182-.164.388-.246.617-.246.28 0 .488.087.624.261.135.174.202.41.202.706zm3.065 4.298v-1.326l-.031-.718c.166.151.34.268.522.351.182.083.37.125.562.125.239 0 .47-.053.694-.16.224-.106.421-.26.593-.46.171-.2.31-.447.413-.741.104-.294.156-.628.156-1.002 0-.333-.039-.637-.117-.913-.078-.276-.19-.51-.34-.702-.147-.192-.327-.342-.537-.448-.21-.107-.451-.16-.722-.16-.234 0-.461.054-.682.163-.221.11-.423.242-.605.398h-.031l-.078-.452h-.936v6.045h1.139zm.795-2.512c-.12 0-.247-.024-.382-.074-.135-.05-.273-.134-.413-.253v-1.92c.15-.15.295-.263.433-.338.137-.076.282-.114.433-.114.301 0 .52.11.659.332.137.22.206.542.206.963 0 .479-.09.832-.269 1.061-.18.229-.401.343-.667.343zm4.914.944c.27 0 .533-.052.788-.156.255-.104.479-.254.671-.449.192-.194.347-.434.464-.717.117-.283.176-.605.176-.963 0-.364-.059-.69-.176-.975-.117-.286-.272-.527-.464-.722-.192-.195-.416-.344-.67-.448-.256-.104-.518-.156-.789-.156-.275 0-.54.052-.791.156-.252.104-.475.253-.667.448-.193.195-.347.436-.464.722-.117.286-.176.61-.176.975 0 .358.059.68.176.963.117.283.271.523.464.718.192.195.414.344.667.448.252.104.516.156.791.156zm0-.936c-.296 0-.525-.122-.686-.367-.161-.244-.242-.572-.242-.982 0-.416.08-.748.242-.995.161-.247.39-.37.686-.37.297 0 .526.123.687.37.161.247.242.579.242.995 0 .41-.081.738-.242.982-.161.245-.39.367-.687.367zm4.306.936c.286 0 .537-.036.753-.11.215-.072.396-.17.542-.296.145-.124.256-.27.331-.436.076-.167.113-.346.113-.539 0-.202-.036-.375-.109-.518-.073-.143-.167-.264-.284-.363-.118-.099-.248-.182-.39-.25-.144-.067-.288-.13-.433-.187l-.332-.12c-.107-.04-.201-.083-.285-.13-.083-.046-.15-.098-.198-.155-.05-.058-.075-.125-.075-.203 0-.125.047-.226.14-.304.094-.078.24-.117.438-.117.166 0 .326.035.48.105.153.07.307.16.463.269l.515-.694c-.182-.135-.395-.259-.64-.37-.244-.113-.527-.168-.85-.168-.244 0-.466.032-.666.097s-.371.157-.511.277c-.14.12-.25.261-.328.425-.078.164-.117.345-.117.542 0 .182.036.34.11.476.072.135.166.253.28.355.114.101.242.187.382.257s.281.132.421.184l.336.132c.109.042.207.089.292.14.086.053.155.108.207.168.052.06.078.132.078.215 0 .135-.05.246-.152.331-.101.086-.261.129-.48.129-.203 0-.399-.042-.589-.125-.19-.083-.383-.2-.58-.35l-.523.717c.218.182.475.33.772.444.296.115.593.172.889.172zm3.19-5.18c.198 0 .36-.058.488-.175.127-.117.19-.266.19-.448 0-.187-.063-.338-.19-.453-.128-.114-.29-.171-.488-.171-.197 0-.361.057-.491.171-.13.115-.195.266-.195.453 0 .182.065.331.195.448.13.117.294.176.491.176zm.562 5.07v-4.367h-1.139v4.368h1.139zm2.831.11c.193 0 .364-.017.515-.05.15-.034.286-.072.406-.114l-.188-.834c-.057.026-.124.048-.202.066-.078.018-.154.027-.227.027-.395 0-.592-.244-.592-.733V115.6h1.076v-.905h-1.076v-1.17h-.96l-.132 1.17-.671.054v.85h.616v1.935c0 .244.026.468.078.67.052.204.135.377.25.52.114.142.262.253.444.331.182.078.403.117.663.117z"/>
                <path fill="#333" fill-rule="nonzero" d="M15.787 75.863v-.533H14.75v-4.774h-.525l-1.419 1.224.353.425.958-.857c-.005.053-.007.114-.007.184v3.798h-1.174v.533h2.851zm2.664.1c.274 0 .528-.053.763-.161.236-.108.44-.275.612-.5.173-.226.31-.51.41-.85.102-.341.152-.747.152-1.217 0-.47-.05-.877-.151-1.22-.101-.344-.238-.628-.41-.854-.173-.225-.377-.392-.613-.5-.235-.108-.49-.162-.763-.162s-.528.054-.763.162c-.235.108-.44.275-.616.5-.175.226-.312.51-.41.853-.098.344-.148.75-.148 1.22 0 .471.05.877.148 1.218.098.34.235.624.41.85.176.225.38.392.616.5.235.108.49.162.763.162zm0-.532c-.168 0-.329-.037-.482-.112-.154-.074-.288-.198-.403-.37-.116-.173-.208-.4-.278-.681-.07-.28-.104-.625-.104-1.033 0-.413.035-.76.104-1.04.07-.281.162-.507.278-.677.115-.17.25-.293.403-.368.153-.074.314-.111.482-.111.168 0 .329.037.483.111.153.075.289.197.406.368.118.17.212.396.281.676.07.281.105.628.105 1.04 0 .409-.035.753-.105 1.034-.07.28-.163.508-.28.68-.118.173-.254.297-.407.371-.154.075-.315.112-.483.112zm4.291.533c.274 0 .528-.054.764-.162.235-.108.439-.275.612-.5.172-.226.31-.51.41-.85.1-.341.151-.747.151-1.217 0-.47-.05-.877-.151-1.22-.1-.344-.238-.628-.41-.854-.173-.225-.377-.392-.612-.5-.236-.108-.49-.162-.764-.162-.273 0-.528.054-.763.162-.235.108-.44.275-.615.5-.176.226-.312.51-.41.853-.1.344-.148.75-.148 1.22 0 .471.049.877.147 1.218.099.34.235.624.41.85.176.225.381.392.616.5.235.108.49.162.763.162zm0-.533c-.168 0-.328-.037-.482-.112-.154-.074-.288-.198-.403-.37-.115-.173-.208-.4-.277-.681-.07-.28-.105-.625-.105-1.033 0-.413.035-.76.105-1.04.07-.281.162-.507.277-.677.115-.17.25-.293.403-.368.154-.074.314-.111.482-.111.168 0 .33.037.483.111.153.075.289.197.407.368.117.17.21.396.28.676.07.281.105.628.105 1.04 0 .409-.035.753-.105 1.034-.07.28-.163.508-.28.68-.118.173-.254.297-.407.371-.154.075-.315.112-.483.112z"/>
                <path fill="#B39C7D" fill-rule="nonzero" d="M14.635 85.715v-1.692h.555v-.166h-.555v-1.339h-.19v3.197h.19zm-2.275-.641c.254-.127.473-.272.657-.436.184-.163.335-.34.455-.529.12-.19.21-.389.267-.597.057-.21.086-.423.086-.641h-1.44v.162h1.253c-.026.391-.155.75-.387 1.076-.232.327-.565.598-.999.814l.108.151zm5.713-1.45v-.163h-1.955v-.871h-.19v1.033h2.145zm.335.593v-.162h-2.887v.162h2.887zM16.961 85.7c.338 0 .604-.05.797-.149.193-.1.29-.242.29-.427 0-.09-.025-.172-.074-.244-.049-.072-.12-.133-.214-.182-.094-.05-.208-.087-.342-.112-.134-.025-.287-.038-.457-.038-.17 0-.323.013-.457.038-.135.025-.249.063-.342.112-.094.049-.165.11-.215.182-.049.072-.073.153-.073.244 0 .185.096.327.29.427.193.1.458.15.797.15zm0-.158c-.274 0-.492-.037-.654-.112-.162-.074-.243-.176-.243-.306s.081-.231.243-.306c.162-.074.38-.111.654-.111.273 0 .491.037.653.111.162.075.243.177.243.306 0 .13-.08.232-.243.306-.162.075-.38.112-.653.112z"/>
                <path fill="#999" fill-rule="nonzero" d="M18.44 106.735v-1.731h-.295v1.731h.295zm-1.735-.093c.123 0 .235-.018.339-.054.103-.036.192-.087.268-.152.075-.064.134-.142.176-.234.042-.09.063-.193.063-.306 0-.11-.02-.21-.063-.302-.042-.091-.1-.17-.176-.234-.076-.065-.165-.115-.268-.151-.104-.036-.216-.054-.339-.054-.122 0-.234.018-.336.054-.102.036-.19.086-.265.151-.074.065-.133.143-.175.234-.042.091-.063.192-.063.302 0 .113.021.215.063.306.042.092.1.17.175.234.074.065.163.116.265.152.102.036.214.054.336.054zm0-.245c-.079 0-.153-.012-.221-.036-.069-.024-.127-.058-.175-.103-.048-.044-.086-.097-.113-.158-.028-.061-.042-.13-.042-.204 0-.072.014-.138.042-.2.027-.06.065-.113.113-.158.048-.044.106-.078.175-.102.068-.024.142-.036.221-.036.082 0 .157.012.225.036.069.024.127.058.177.102.049.045.087.097.115.159.027.06.041.127.041.2 0 .074-.014.142-.041.203-.028.061-.066.114-.115.158-.05.045-.108.079-.177.103-.068.024-.143.036-.225.036zm1.735 1.789v-1.292h-.291v.396H16.65v-.396h-.291v1.292h2.08zm-.291-.238H16.65v-.428h1.498v.428zm3.61-.96v-1.984h-.295v.475h-.63v.241h.63v.432h-.63v.238h.63v.597h.296zm-2.195-.149c.123 0 .235-.001.336-.003.126-.002.242-.006.348-.01.105-.006.205-.013.3-.024.095-.011.192-.025.29-.042l-.029-.237c-.093.014-.185.027-.273.038-.09.01-.183.018-.283.023-.1.005-.208.008-.326.01-.117.003-.25.004-.4.004v-.49h1.095v-.914h-1.393v.242h1.105v.446H19.24v.958h.324zm2.196 1.394v-1.073H19.6v.241h1.864v.832h.296zm2.57-2.6v-.237h-.806v-.392h-.296v.392h-.802v.238h1.904zm.59 1.79v-1.109h.48v-.248h-.48v-1.062h-.295v2.419h.295zm-1.544-.41c.115 0 .22-.015.315-.044.095-.029.176-.069.245-.12.068-.052.121-.115.158-.19.037-.074.056-.157.056-.248 0-.089-.019-.17-.056-.245-.037-.074-.09-.137-.158-.189-.069-.051-.15-.091-.245-.12-.095-.029-.2-.043-.315-.043-.115 0-.22.014-.313.043-.094.029-.175.069-.243.12-.069.052-.121.115-.159.19-.037.074-.055.155-.055.244 0 .091.018.174.055.249.038.074.09.137.159.189.068.051.15.091.243.12.093.029.198.043.313.043zm0-.231c-.149 0-.268-.033-.356-.099-.09-.066-.134-.157-.134-.272 0-.113.045-.202.134-.268.088-.066.207-.099.356-.099.146 0 .265.033.356.099.092.066.137.155.137.268 0 .115-.045.206-.137.272-.09.066-.21.099-.356.099zm1.688 1.375v-.241h-1.857v-.684h-.295v.925h2.152zm4.385-1.598v-.238h-.439c.038-.192.06-.362.067-.51.006-.147.009-.284.009-.411v-.245h-2.178v.234h1.886v.156c0 .05-.001.102-.004.157l-1.962.061.036.234 1.912-.086-.025.194c-.01.067-.023.14-.04.216h-2.17v.238h2.908zm-.23 1.627v-.23h-2.041v-.339h1.926v-.752h-2.225v.23h1.937v.303h-1.93v.788h2.333zm3.37.043V105h-.285v3.23h.284zm-.66-.169v-2.98h-.277v1.08h-.4v.244h.4v1.656h.278zm-1.763-.623c.103 0 .204-.001.302-.003.098-.003.197-.008.297-.015.1-.007.201-.017.304-.029.103-.012.211-.027.324-.046l-.025-.242c-.209.036-.403.06-.583.07-.18.011-.363.017-.547.017v-.713h.864v-1.12h-1.16v.242h.875v.644h-.864v1.195h.213zm5.634.8V105h-.296v3.236h.296zm-1.703-.735c.12 0 .23-.026.331-.08.1-.052.187-.128.26-.226.071-.098.128-.217.168-.355.041-.138.062-.293.062-.466 0-.173-.02-.328-.062-.466-.04-.138-.097-.256-.169-.355-.072-.098-.158-.174-.259-.226-.1-.053-.211-.08-.331-.08-.12 0-.23.027-.331.08-.101.052-.188.128-.26.226-.072.099-.128.217-.169.355-.04.138-.061.293-.061.466 0 .173.02.328.061.466.041.138.097.257.17.355.071.098.158.174.259.227.1.053.21.079.33.079zm0-.263c-.08 0-.152-.02-.218-.061-.066-.04-.123-.099-.171-.175-.048-.075-.085-.166-.112-.271-.026-.106-.04-.225-.04-.357 0-.13.014-.248.04-.354.027-.107.064-.198.112-.272.048-.075.105-.132.171-.173.066-.04.139-.061.218-.061.079 0 .151.02.216.061.065.04.121.098.169.173.048.074.085.165.112.272.026.106.04.225.04.354 0 .132-.014.251-.04.357-.027.105-.064.196-.112.271-.048.076-.104.134-.17.175-.064.04-.136.061-.215.061zm4.946-.752v-.23h-1.897v-.346h1.793v-.223h-1.793v-.339h1.88v-.23H36.85v1.368h2.192zm.342.54v-.238h-2.92v.238h2.92zm-.302 1.13v-.241h-1.944v-.655h-.295v.896h2.239zm4.154.076v-3.237h-.295v3.237h.295zm-2.196-.781c.14 0 .275-.002.407-.006.132-.003.264-.01.396-.018.132-.008.266-.02.401-.036.136-.015.277-.035.423-.06l-.028-.24c-.142.021-.279.04-.41.055-.133.016-.262.028-.39.036-.127.009-.254.015-.381.018-.127.004-.257.006-.389.006v-.753h1.192V105.3h-1.498v.241h1.199v.673h-1.188v1.239h.266zm5.487-1.282v-.227h-.476v-.615h.486v-.227H44.17v.227h.49v.615h-.48v.227h2.348zm-.77-.227h-.804v-.615h.803v.615zm1.061.731v-.234h-2.923v.234h2.923zm-.277 1.52v-.224h-1.994v-.302h1.897v-.71h-2.196v.22h1.904v.277H44.26v.738h2.282zm4.133-1.725l.122-.238c-.146-.021-.289-.061-.428-.119-.14-.057-.264-.128-.373-.212-.109-.084-.197-.178-.263-.28-.066-.104-.099-.212-.099-.325v-.18h-.31v.18c0 .115-.032.225-.096.33-.065.104-.152.198-.26.28-.108.083-.231.153-.37.21-.14.056-.282.095-.429.116l.119.238c.125-.022.248-.055.369-.1.121-.044.235-.098.34-.163.106-.065.2-.139.283-.221.083-.083.15-.174.2-.272.052.098.12.189.205.272.084.082.178.156.282.221.105.065.218.12.339.164.121.044.244.077.369.099zm-1.055 1.764v-1.17h1.321l-.003-.245h-2.916v.245h1.303v1.17h.295zm4.216-1.278v-.526h.478v-.245h-.478v-.435h.478v-.245h-.478v-.5h-.296v1.95h.296zm-2.11-.191c.149 0 .289-.001.42-.004.13-.002.257-.007.38-.016.122-.008.243-.019.363-.032.12-.013.243-.03.37-.052l-.028-.242c-.123.022-.241.04-.357.053-.115.013-.231.024-.349.032-.117.008-.239.014-.363.016-.125.003-.258.004-.4.004v-.447h1.156v-.874h-1.455v.24h1.163v.408H51.47v.914h.256zm1.08 1.462c.163 0 .31-.014.441-.04.13-.026.242-.064.335-.113.092-.05.163-.11.212-.184.05-.073.074-.157.074-.25 0-.094-.025-.177-.074-.25-.049-.074-.12-.135-.212-.186-.093-.05-.204-.089-.335-.115-.13-.026-.278-.04-.441-.04-.166 0-.314.014-.445.04-.13.026-.241.065-.333.115-.09.05-.161.112-.21.186-.05.073-.074.156-.074.25 0 .093.025.177.074.25.049.073.12.134.21.184.092.049.203.087.333.113.131.026.28.04.445.04zm0-.227c-.242 0-.432-.031-.569-.094-.137-.062-.205-.151-.205-.266 0-.115.068-.204.205-.267.137-.062.327-.093.569-.093.242 0 .431.031.567.093.136.063.203.152.203.267 0 .115-.067.204-.203.266-.136.063-.325.094-.567.094zm4.468.237V105h-.296v3.236h.296zm-1.584-1.48c.124 0 .24-.018.347-.055.107-.037.198-.089.274-.155.075-.066.135-.146.178-.24.043-.093.065-.196.065-.309 0-.113-.022-.216-.065-.31-.043-.093-.103-.173-.178-.239-.076-.066-.167-.117-.274-.155-.107-.037-.223-.055-.347-.055-.125 0-.24.018-.346.055-.106.038-.197.09-.274.155-.076.066-.136.146-.18.24-.043.093-.064.196-.064.31 0 .112.021.215.064.309.044.093.104.173.18.24.077.065.168.117.274.154.106.037.22.056.346.056zm0-.251c-.084 0-.162-.013-.233-.038-.07-.025-.131-.06-.181-.104-.05-.045-.09-.098-.12-.16-.028-.063-.042-.131-.042-.206 0-.074.014-.143.043-.205.029-.062.068-.116.119-.162.05-.046.11-.08.181-.104.071-.024.149-.036.233-.036.084 0 .161.012.232.036.07.024.131.058.182.104.05.046.09.1.118.162.03.062.044.13.044.205 0 .075-.015.143-.044.205-.028.063-.068.116-.118.16-.05.045-.111.08-.182.105-.071.025-.148.038-.232.038zm-.99 1.022c.146 0 .303 0 .471-.002.168 0 .342-.006.52-.016.18-.01.362-.024.548-.043.186-.02.37-.046.552-.08l-.025-.219c-.178.027-.36.048-.545.063-.186.016-.37.027-.551.034-.181.008-.358.012-.53.013l-.476.002.036.248zm4.834.468c.132 0 .257-.021.375-.065.117-.043.219-.106.304-.189.085-.082.153-.18.203-.293.05-.113.076-.24.076-.382 0-.117-.019-.224-.056-.32-.037-.096-.092-.18-.164-.254-.072-.073-.16-.13-.266-.17-.106-.042-.23-.062-.37-.062-.116 0-.242.016-.379.047l.119-.691h1.033v-.303h-1.263l-.216 1.25.212.06c.077-.026.15-.047.221-.062.071-.016.141-.024.211-.024.096 0 .181.013.256.04.074.026.136.062.185.108.05.045.088.102.117.17.029.07.043.145.043.23 0 .093-.015.18-.047.259-.03.079-.074.143-.13.192-.054.05-.12.089-.197.119-.077.03-.161.045-.252.045-.084 0-.156-.01-.214-.029-.06-.019-.11-.04-.155-.065-.045-.024-.083-.045-.115-.064-.033-.02-.066-.044-.1-.072l-.176.24c.041.04.088.075.142.109.054.033.113.063.175.09.062.026.13.047.202.063.072.015.147.023.226.023zm2.261.018c.137 0 .264-.027.382-.08.117-.055.22-.138.306-.251.086-.113.155-.254.205-.425.05-.17.076-.373.076-.608s-.026-.439-.076-.61c-.05-.172-.119-.314-.205-.427-.087-.113-.189-.196-.306-.25-.118-.054-.245-.081-.382-.081s-.264.027-.381.08c-.118.055-.22.138-.308.251-.088.113-.156.255-.205.427-.05.171-.074.375-.074.61s.024.438.074.608c.049.17.117.312.205.425.087.113.19.196.308.25.117.054.244.081.381.081zm0-.266c-.084 0-.164-.019-.241-.056-.077-.037-.144-.099-.202-.185-.057-.087-.103-.2-.138-.34-.035-.141-.052-.313-.052-.517 0-.207.017-.38.052-.52.035-.14.08-.254.138-.339.058-.085.125-.146.202-.183.077-.038.157-.056.241-.056.084 0 .165.018.241.056.077.037.145.098.204.183.059.085.105.198.14.339.035.14.052.313.052.52 0 .204-.017.376-.052.516-.035.14-.081.254-.14.34-.059.087-.127.149-.204.186-.076.037-.157.056-.24.056zm1.804-.875c.185 0 .332-.067.443-.202.11-.134.165-.336.165-.604 0-.27-.055-.469-.165-.6-.11-.13-.258-.196-.443-.196-.183 0-.328.065-.438.196-.109.131-.163.33-.163.6 0 .268.054.47.163.604.11.135.255.202.438.202zm.335 1.134l1.454-2.736h-.284l-1.458 2.736h.288zm-.335-1.357c-.099 0-.179-.046-.241-.137-.063-.091-.094-.24-.094-.446 0-.204.031-.35.094-.44.062-.088.142-.133.24-.133.102 0 .183.044.246.132.062.087.093.234.093.44 0 .207-.031.356-.093.447-.063.091-.144.137-.245.137zm1.829 1.35c.182 0 .328-.067.439-.2.11-.133.165-.334.165-.603 0-.269-.055-.469-.165-.6-.11-.13-.257-.196-.44-.196-.182 0-.329.066-.44.197-.112.13-.168.33-.168.599 0 .269.056.47.168.603.111.133.258.2.44.2zm0-.223c-.101 0-.183-.045-.245-.135-.063-.09-.094-.239-.094-.445 0-.206.031-.354.094-.443.062-.089.144-.133.245-.133.1 0 .181.044.243.133.06.089.091.237.091.443 0 .206-.03.355-.091.445-.062.09-.143.135-.243.135zm3.55-1.52v-.212h-1.945v-.277h1.887v-.673h-2.186v.208h1.894v.263h-1.886v.691h2.235zm.316.468v-.223h-2.927v.223h2.927zm-.263 1.462v-.212h-2.016v-.3h1.915v-.687h-2.214v.213h1.923v.27h-1.915v.716h2.307zm4.37-1.627v-.238h-.439c.039-.192.061-.362.067-.51.006-.147.009-.284.009-.411v-.245H70.86v.234h1.886v.156c0 .05 0 .102-.003.157l-1.962.061.036.234 1.911-.086c-.007.062-.015.127-.025.194-.01.067-.023.14-.04.216h-2.17v.238h2.909zm-.23 1.627v-.23H71.13v-.339h1.926v-.752h-2.225v.23h1.937v.303h-1.93v.788h2.333zm3.37.043V105h-.285v3.23h.285zm-.659-.169v-2.98h-.277v1.08h-.4v.244h.4v1.656h.277zm-1.764-.623c.103 0 .204-.001.302-.003.099-.003.198-.008.297-.015.1-.007.201-.017.305-.029.103-.012.21-.027.324-.046l-.026-.242c-.208.036-.403.06-.583.07-.18.011-.362.017-.547.017v-.713h.864v-1.12h-1.16v.242h.876v.644h-.864v1.195h.212zm5.634.8V105h-.295v3.236h.295zm-1.703-.735c.12 0 .23-.026.331-.08.101-.052.188-.128.26-.226.072-.098.128-.217.169-.355.04-.138.061-.293.061-.466 0-.173-.02-.328-.061-.466-.041-.138-.097-.256-.17-.355-.071-.098-.158-.174-.259-.226-.1-.053-.21-.08-.33-.08-.12 0-.231.027-.332.08-.1.052-.187.128-.26.226-.071.099-.128.217-.168.355-.041.138-.062.293-.062.466 0 .173.02.328.062.466.04.138.097.257.169.355.072.098.158.174.259.227.1.053.211.079.331.079zm0-.263c-.079 0-.152-.02-.218-.061-.066-.04-.123-.099-.17-.175-.049-.075-.086-.166-.112-.271-.027-.106-.04-.225-.04-.357 0-.13.013-.248.04-.354.026-.107.063-.198.111-.272.048-.075.105-.132.171-.173.066-.04.139-.061.218-.061.08 0 .151.02.216.061.065.04.121.098.17.173.047.074.085.165.111.272.026.106.04.225.04.354 0 .132-.014.251-.04.357-.026.105-.064.196-.112.271-.048.076-.104.134-.169.175-.065.04-.137.061-.216.061zm4.947-.752v-.23h-1.898v-.346h1.793v-.223h-1.793v-.339h1.88v-.23h-2.175v1.368h2.193zm.342.54v-.238h-2.92v.238h2.92zm-.303 1.13v-.241h-1.944v-.655h-.295v.896h2.24zm4.147.08V105h-.295v3.236h.295zm-1.702-.735c.12 0 .23-.026.33-.08.102-.052.188-.128.26-.226.072-.098.128-.217.17-.355.04-.138.06-.293.06-.466 0-.173-.02-.328-.06-.466-.042-.138-.098-.256-.17-.355-.072-.098-.158-.174-.26-.226-.1-.053-.21-.08-.33-.08-.12 0-.23.027-.332.08-.1.052-.187.128-.259.226-.072.099-.128.217-.169.355-.04.138-.061.293-.061.466 0 .173.02.328.061.466.04.138.097.257.17.355.071.098.158.174.258.227.101.053.212.079.332.079zm0-.263c-.08 0-.152-.02-.218-.061-.066-.04-.123-.099-.171-.175-.048-.075-.085-.166-.112-.271-.026-.106-.04-.225-.04-.357 0-.13.014-.248.04-.354.027-.107.064-.198.112-.272.048-.075.105-.132.17-.173.067-.04.14-.061.219-.061.079 0 .15.02.216.061.064.04.12.098.169.173.048.074.085.165.111.272.027.106.04.225.04.354 0 .132-.013.251-.04.357-.026.105-.063.196-.111.271-.048.076-.105.134-.17.175-.064.04-.136.061-.215.061zm5.032.997V105h-.295v1.17h-.925v.245h.925v1.821h.295zm-2.25-.799c.154 0 .295-.002.423-.005.129-.004.25-.01.366-.016.115-.008.228-.018.338-.033.11-.014.225-.032.342-.054l-.036-.245c-.108.022-.214.04-.318.053-.105.013-.212.023-.323.03-.11.007-.226.013-.347.016-.121.004-.254.006-.398.006v-1.638h1.174v-.245h-1.469v2.131h.248zm5.544.8V105h-.295v3.236h.295zm-1.702-.735c.12 0 .23-.026.33-.08.102-.052.188-.128.26-.226.072-.098.128-.217.17-.355.04-.138.06-.293.06-.466 0-.173-.02-.328-.06-.466-.042-.138-.098-.256-.17-.355-.072-.098-.158-.174-.26-.226-.1-.053-.21-.08-.33-.08-.12 0-.23.027-.332.08-.1.052-.187.128-.259.226-.072.099-.128.217-.169.355-.04.138-.061.293-.061.466 0 .173.02.328.061.466.04.138.097.257.17.355.071.098.158.174.258.227.101.053.212.079.332.079zm0-.263c-.08 0-.152-.02-.218-.061-.066-.04-.123-.099-.171-.175-.048-.075-.085-.166-.112-.271-.026-.106-.04-.225-.04-.357 0-.13.014-.248.04-.354.027-.107.064-.198.112-.272.048-.075.105-.132.17-.173.067-.04.14-.061.219-.061.079 0 .15.02.216.061.064.04.12.098.169.173.048.074.085.165.111.272.027.106.04.225.04.354 0 .132-.013.251-.04.357-.026.105-.063.196-.111.271-.048.076-.105.134-.17.175-.064.04-.136.061-.215.061zm4.993-.853v-.23h-1.955v-.32h1.886v-.76h-2.185v.23h1.894v.313H94.85v.767h2.247zm-.065 1.8v-.976h-.943v-.33h1.314v-.238h-2.927v.237h1.314v.331h-.922v.976h2.164zm-.292-.238h-1.584v-.504h1.584v.504zm2.506-.96c.168 0 .323-.022.466-.064.143-.042.267-.102.371-.18.104-.078.187-.172.247-.282.06-.11.09-.233.09-.368 0-.134-.03-.256-.09-.365-.06-.11-.143-.203-.247-.28-.104-.079-.228-.14-.37-.183-.144-.043-.299-.064-.467-.064-.168 0-.323.021-.466.064-.143.044-.267.104-.371.182-.104.078-.187.172-.247.281-.06.11-.09.231-.09.365 0 .135.03.257.09.368.06.11.143.204.247.282.104.078.228.138.37.18.144.042.299.063.467.063zm0-.242c-.127 0-.245-.016-.355-.047-.109-.031-.203-.075-.282-.131-.08-.057-.142-.125-.187-.205-.046-.08-.069-.17-.069-.269 0-.096.023-.184.069-.264.045-.08.108-.15.187-.207.079-.058.173-.102.282-.133.11-.032.228-.047.355-.047.127 0 .245.015.355.047.109.03.203.075.282.133.08.057.142.126.187.207.046.08.069.168.069.264 0 .099-.023.188-.069.269-.045.08-.108.148-.187.205-.079.056-.173.1-.282.131-.11.031-.228.047-.355.047zm1.472 1.055v-.245h-2.934v.245h2.934zm3.312.029v-.242h-1.32v-.608h1.032v-.238h-1.987v-.522h1.912v-.982h-2.21v.24h1.922v.505h-1.915v.997h.946v.608h-1.314v.242h2.934zm3.672.4v-1.678h.533v-.249h-.533v-1.3h-.295v3.226h.295zm-2.365-.62c.091-.046.178-.105.261-.178.083-.073.16-.156.232-.249.072-.092.137-.193.193-.302.056-.11.103-.223.139-.34.036.108.081.212.136.311.056.1.118.192.188.277.07.086.145.162.226.23.082.07.168.126.26.172l.169-.238c-.118-.055-.227-.13-.328-.225-.1-.095-.189-.2-.264-.318-.076-.118-.135-.242-.179-.373-.043-.13-.064-.261-.064-.39v-.411h.716v-.245h-1.746v.245h.738v.41c0 .137-.023.276-.068.416-.046.14-.107.273-.184.398s-.167.238-.27.338c-.103.101-.212.18-.328.238l.173.234zm6.117-.778v-.237h-1.314v-.375h.972v-.237h-1.92v-.598h1.898v-.237h-2.192v1.072h.946v.375h-1.314v.237h2.924zm-1.462 1.397c.17 0 .324-.012.46-.038.138-.025.253-.063.348-.113.095-.05.168-.112.218-.184.05-.072.076-.154.076-.248s-.026-.176-.076-.248c-.05-.072-.123-.134-.218-.184-.095-.05-.21-.088-.347-.113-.137-.026-.29-.038-.461-.038-.346 0-.617.05-.814.151-.196.1-.295.245-.295.432s.099.331.295.432c.197.1.468.151.814.151zm0-.23c-.257 0-.456-.03-.598-.09-.141-.06-.212-.148-.212-.263 0-.115.07-.203.212-.263s.341-.09.598-.09c.254 0 .452.03.592.09.14.06.21.148.21.263 0 .115-.07.203-.21.263-.14.06-.338.09-.592.09zm5.306-1.13l.134-.245c-.142-.027-.283-.076-.423-.148s-.267-.159-.378-.261c-.112-.102-.203-.217-.272-.344-.07-.127-.105-.259-.105-.396v-.248h-.31v.248c0 .137-.034.269-.104.396-.07.127-.16.242-.271.344-.112.102-.237.188-.377.26-.139.07-.28.12-.42.149l.132.244c.123-.028.244-.071.364-.127.12-.057.233-.125.338-.206.106-.08.202-.17.288-.271.087-.101.155-.21.206-.328.05.12.118.23.205.331.086.101.182.192.288.272.105.08.219.148.34.203.121.056.243.098.365.126zm.278.928v-.245h-2.927v.245h2.927zm2.89-.925v-.803h.472v-.245h-.472V105h-.295v1.872h.295zm-2.47-.086c.14 0 .29-.002.45-.004.162-.002.328-.008.501-.016.173-.009.348-.022.524-.04.176-.018.35-.042.52-.074l-.021-.208c-.14.021-.283.039-.43.052-.148.013-.298.022-.449.027v-.27c.195-.024.35-.087.468-.19.118-.101.177-.231.177-.39 0-.089-.02-.169-.058-.241-.038-.072-.093-.134-.164-.185-.07-.052-.155-.092-.252-.12-.097-.027-.204-.04-.322-.04-.12 0-.229.013-.326.04-.097.028-.18.068-.25.12-.07.051-.124.113-.162.185-.038.072-.058.152-.058.241 0 .159.06.29.179.394.118.105.276.168.473.19v.28c-.151.005-.298.008-.44.01l-.399.001.04.238zm.944-.742c-.156 0-.282-.034-.378-.1-.096-.068-.144-.158-.144-.27 0-.114.048-.203.144-.269.096-.066.222-.099.378-.099.154 0 .278.033.374.099.096.066.144.155.144.268 0 .113-.048.203-.144.27-.096.067-.22.101-.374.101zm1.523 2.142v-1.174h-.292v.339H116.7v-.339h-.292v1.174h2.056zm-.292-.245H116.7v-.36h1.472v.36zm1.771.537l.206-.098c-.159-.256-.275-.532-.35-.828-.074-.295-.111-.596-.111-.903 0-.307.037-.608.111-.902.075-.294.191-.57.35-.83l-.206-.093c-.165.268-.295.552-.388.85-.094.297-.14.622-.14.975 0 .355.046.681.14.979.093.298.223.58.388.85zm3.208-1.11v-2.364h-.299v.889h-.648v.241h.648v1.235h.299zm-2.495-.413c.19-.07.355-.175.497-.315.142-.14.247-.303.317-.488.07.166.171.313.306.441.134.128.291.225.471.29l.148-.23c-.118-.041-.224-.097-.32-.166-.096-.07-.179-.148-.247-.234-.068-.087-.122-.18-.16-.281-.039-.1-.058-.204-.058-.31v-.158h.71v-.241h-1.725v.241h.72v.162c0 .115-.02.227-.06.335-.039.108-.095.208-.167.3-.072.093-.158.176-.257.249-.1.073-.21.131-.33.174l.155.23zm2.585 1.202v-.241h-1.858v-.756h-.298v.997h2.156zm2.48-2.62v-.22h-.777v-.328h-.295v.328h-.782v.22h1.854zm.584 1.99v-1.155h.475v-.245h-.475V105h-.296v2.527h.296zm-2.484-.37c.139 0 .29-.002.455-.006.164-.004.334-.01.508-.02s.35-.023.53-.041c.18-.018.356-.043.526-.074l-.021-.212c-.14.024-.283.042-.43.055-.148.014-.296.024-.445.031v-.23c.187-.02.335-.072.443-.157.108-.085.162-.197.162-.337 0-.076-.018-.145-.054-.207-.036-.06-.087-.112-.153-.154-.066-.042-.146-.075-.238-.098-.092-.022-.195-.034-.308-.034-.113 0-.216.012-.31.034-.093.023-.173.056-.239.098s-.117.093-.153.154c-.036.062-.054.13-.054.207 0 .14.055.252.164.337.11.085.257.137.445.157v.244c-.156.005-.307.009-.452.011-.145.003-.282.004-.409.004l.033.237zm.975-.703c-.146 0-.262-.025-.347-.075-.085-.05-.128-.121-.128-.213 0-.086.043-.155.128-.207.085-.051.2-.077.347-.077.144 0 .259.026.344.077.085.052.128.121.128.207 0 .092-.043.162-.128.213-.085.05-.2.075-.344.075zm1.624 1.703v-.241h-1.861v-.554h-.296v.795h2.157zm.86.299c.168-.269.299-.552.393-.85.093-.297.14-.624.14-.979 0-.353-.047-.678-.14-.975-.094-.298-.225-.581-.393-.85l-.201.094c.156.259.271.535.347.83.076.293.113.594.113.901 0 .307-.037.609-.113.904-.076.295-.191.571-.347.828l.201.097zm2.967-2.822v-.238h-.807v-.392h-.295v.392h-.803v.238h1.905zm.59 1.789v-1.109h.479v-.248h-.479v-1.062h-.295v2.419h.295zm-1.544-.41c.115 0 .22-.015.315-.044.094-.029.176-.069.244-.12.069-.052.122-.115.159-.19.037-.074.056-.157.056-.248 0-.089-.019-.17-.056-.245-.037-.074-.09-.137-.159-.189-.068-.051-.15-.091-.244-.12-.095-.029-.2-.043-.315-.043-.116 0-.22.014-.314.043-.093.029-.174.069-.243.12-.068.052-.12.115-.158.19-.037.074-.056.155-.056.244 0 .091.019.174.056.249.037.074.09.137.158.189.069.051.15.091.243.12.094.029.198.043.314.043zm0-.231c-.15 0-.268-.033-.357-.099-.089-.066-.133-.157-.133-.272 0-.113.044-.202.133-.268.089-.066.208-.099.357-.099.146 0 .265.033.356.099.091.066.137.155.137.268 0 .115-.046.206-.137.272-.091.066-.21.099-.356.099zm1.688 1.375v-.241h-1.858v-.684h-.295v.925h2.153zm4.216-2.549v-.237h-1.138v-.389h-.299v.389H132.6v.237h2.596zm-1.286 1.26c.327 0 .582-.046.767-.138.185-.093.277-.225.277-.398 0-.173-.092-.306-.277-.4-.185-.093-.44-.14-.767-.14-.33 0-.589.047-.774.14-.184.094-.277.227-.277.4 0 .173.093.305.277.398.185.092.443.138.774.138zm0-.223c-.237 0-.42-.027-.55-.08-.13-.055-.195-.132-.195-.233 0-.1.065-.178.195-.232.13-.054.313-.081.55-.081.238 0 .42.027.548.08.127.055.19.132.19.233 0 .1-.063.178-.19.232-.128.054-.31.081-.548.081zm.148 1.588v-.897h1.318v-.24h-2.927v.24h1.31v.897h.299zm3.013-.27v-.835l.454-.54.788 1.375h.375l-.954-1.635.824-1.004h-.374l-1.102 1.325h-.01v-1.325h-.336v2.639h.335zm2.041 0l.382-.713c.067-.127.138-.269.212-.425h.015l.12.223.107.202.388.713h.368l-.77-1.347.72-1.292h-.35l-.353.673c-.033.063-.064.123-.092.182l-.095.203h-.014c-.044-.076-.08-.144-.112-.203l-.097-.182-.36-.673h-.367l.72 1.274-.77 1.365h.348zm2.348 0v-1.12h.475l.64 1.12h.379l-.677-1.156c.18-.043.324-.126.434-.248.109-.123.163-.287.163-.493 0-.137-.022-.253-.068-.348-.046-.095-.11-.171-.19-.23-.082-.059-.18-.101-.292-.126-.113-.025-.237-.038-.371-.038h-.828v2.639h.335zm.442-1.39h-.442v-.979h.442c.21 0 .368.035.477.104.11.07.164.192.164.368 0 .172-.054.3-.164.383-.109.083-.268.124-.477.124zm1.844 1.39v-1.048h.435c.144 0 .276-.016.394-.048.12-.033.222-.083.308-.15.087-.067.153-.152.2-.255.047-.104.07-.225.07-.364 0-.144-.024-.265-.072-.364-.048-.098-.115-.178-.201-.239-.087-.061-.19-.105-.312-.131-.121-.027-.256-.04-.405-.04h-.752v2.639h.335zm.392-1.318h-.392v-1.051h.378c.232 0 .407.037.523.11.117.073.175.204.175.394 0 .19-.056.328-.167.416-.112.087-.284.131-.517.131zm2.318.9v-.788h.731v-.245h-.73v-.785h-.263v.785h-.731v.245h.73v.788h.263zm1.563.418v-.835l.453-.54.789 1.375h.374l-.954-1.635.825-1.004h-.375l-1.101 1.325h-.011v-1.325h-.335v2.639h.335zm3.553 0v-.285h-1.228v-.96h1.001v-.285h-1v-.828h1.187v-.281h-1.522v2.639h1.562zm1.44 0v-2.358h.8v-.281h-1.934v.28h.8v2.359h.334zm1.606 0v-1.246h1.23v1.246h.332v-2.639h-.331v1.105h-1.231v-1.105h-.335v2.639h.335zm5.68.266v-3.225h-.284v3.225h.284zm-.63-.169v-2.98h-.277v1.151h-.439v.26h.44v1.569h.276zm-2.13-.626c.105 0 .224-.002.356-.004.132-.002.269-.007.412-.014.143-.008.285-.018.428-.033.143-.014.277-.033.402-.057l-.018-.216-.166.02-.173.016v-1.498h.267v-.238h-1.476v.238h.266v1.537c-.062.003-.12.004-.175.004h-.153l.03.245zm.568-.256v-1.53h.403v1.516l-.203.009c-.066 0-.133.003-.2.005zm5.407 1.058V105h-.295v1.231h-.702c-.012-.151-.04-.287-.083-.408-.043-.122-.1-.225-.17-.31-.072-.085-.153-.15-.246-.196-.092-.046-.192-.069-.3-.069-.118 0-.226.027-.324.08-.099.052-.184.128-.256.226-.072.099-.128.217-.167.355-.04.138-.06.293-.06.466 0 .173.02.328.06.466.04.138.095.257.167.355.072.098.157.174.256.227.098.053.206.079.324.079.113 0 .216-.024.311-.072.095-.048.177-.116.247-.205.07-.089.125-.197.167-.324.042-.127.067-.27.074-.429h.702v1.764h.295zm-1.796-.997c-.077 0-.148-.02-.213-.061-.064-.04-.12-.099-.167-.175-.047-.075-.083-.166-.108-.271-.025-.106-.038-.225-.038-.357 0-.13.013-.248.038-.354.025-.107.061-.198.108-.272.047-.075.103-.132.167-.173.065-.04.136-.061.213-.061.077 0 .147.02.21.061.064.04.12.098.166.173.047.074.083.165.108.272.025.106.038.225.038.354 0 .132-.013.251-.038.357-.025.105-.061.196-.108.271-.047.076-.102.134-.166.175-.063.04-.133.061-.21.061zm5.378.59v-.24h-1.321v-.609h1.033v-.238h-1.987v-.522h1.912v-.982h-2.21v.24h1.922v.505h-1.916v.997h.947v.608h-1.314v.242h2.934zm3.931.4V105h-.28v3.23h.28zm-.633-.158v-2.999h-.281v.71h-.5c-.056-.164-.134-.29-.236-.379-.102-.089-.224-.133-.366-.133-.105 0-.2.026-.284.08-.084.052-.156.127-.216.224s-.106.215-.139.353c-.032.138-.048.293-.048.466 0 .173.016.329.048.468.033.14.079.258.139.355.06.097.132.172.216.225.084.053.179.079.284.079.142 0 .263-.044.364-.133.1-.089.18-.215.238-.378h.5v1.062h.28zm-1.383-.825c-.13 0-.232-.076-.307-.228-.076-.153-.114-.36-.114-.625 0-.261.038-.468.114-.62.075-.153.178-.23.307-.23.13 0 .233.077.308.23.076.152.114.359.114.62 0 .264-.038.472-.114.625-.075.152-.178.228-.308.228zm1.102-.482h-.44c.01-.058.018-.116.022-.176.005-.06.008-.125.008-.195s-.003-.134-.008-.194c-.004-.06-.012-.119-.021-.177h.439v.742zm-151.675 6.862v-3.23h-.299v3.23h.299zm-2.42-.623c.188-.091.353-.224.497-.398.144-.174.252-.374.324-.6.075.214.184.404.328.57.144.165.31.29.497.374l.165-.23c-.12-.053-.232-.124-.336-.213-.105-.089-.195-.189-.27-.3-.076-.112-.135-.233-.178-.364-.044-.131-.065-.264-.065-.398v-.248h.738v-.238h-.735v-.5h-.298v.5h-.746v.238h.75v.248c0 .142-.022.28-.064.416-.042.135-.1.262-.174.38-.075.117-.163.222-.265.315-.102.092-.213.167-.333.225l.166.223zm5.001-2.034v-.238h-.806v-.363h-.296v.363h-.802v.238h1.904zm.59 1.307v-.807h.48v-.248h-.48v-.821h-.295v1.876h.295zm-1.544-.026c.115 0 .22-.013.315-.04.095-.026.176-.063.245-.113.068-.049.121-.108.158-.178.037-.07.056-.147.056-.234 0-.086-.019-.164-.056-.232-.037-.068-.09-.127-.158-.176-.069-.05-.15-.087-.245-.114-.095-.026-.2-.04-.315-.04-.115 0-.22.014-.315.04-.095.027-.176.064-.243.114-.067.049-.12.108-.157.176-.037.068-.055.146-.055.232 0 .087.018.165.055.234.038.07.09.13.157.178.067.05.148.087.243.114.095.026.2.04.315.04zm0-.223c-.149 0-.268-.03-.356-.09-.09-.06-.134-.144-.134-.252 0-.105.045-.189.134-.25.088-.061.207-.092.356-.092s.268.03.358.092c.09.061.135.145.135.25 0 .108-.045.192-.135.252-.09.06-.21.09-.358.09zm1.544 1.559v-1.166h-.291v.342H19.87v-.342h-.292v1.166h2.03zm-.291-.238H19.87v-.356h1.447v.356zm3.744.278V110.4h-.295v3.226h.295zm-2.178-.832c.259 0 .517-.01.774-.032s.527-.062.81-.12l-.033-.251c-.268.055-.528.094-.779.117-.25.023-.499.034-.743.034v-1.829h-.296v2.081h.267zm5.328.842v-1.717h.533v-.245h-.533V110.4h-.295v3.236h.295zm-2.092-.806c.151 0 .293-.002.425-.005.132-.004.26-.01.382-.018.122-.009.242-.02.36-.035.117-.014.237-.033.36-.057l-.033-.245c-.117.022-.232.039-.344.052-.111.013-.226.024-.343.033-.118.008-.24.014-.364.018-.125.003-.26.005-.403.005v-1.624h1.206v-.244h-1.501v2.12h.255zm3.23.58c.064 0 .12-.023.167-.069.047-.045.07-.105.07-.18 0-.074-.023-.135-.07-.183-.047-.048-.103-.072-.168-.072-.064 0-.12.024-.167.072-.047.048-.07.109-.07.183 0 .075.023.135.07.18.047.046.103.069.167.069z"/>
                <g fill="#B39C7D" fill-rule="nonzero">
                    <path d="M1.645 1.54c.168 0 .322-.015.461-.048.14-.032.258-.079.356-.14.099-.061.176-.136.23-.223.056-.088.084-.186.084-.294 0-.108-.028-.205-.083-.291-.055-.087-.132-.16-.23-.222-.099-.061-.218-.108-.357-.14-.14-.033-.293-.049-.46-.049-.169 0-.322.016-.46.049C1.048.214.93.26.83.322.73.383.653.457.6.544.544.63.517.727.517.835c0 .108.027.206.081.294.054.087.131.162.23.223.1.061.22.108.357.14.138.033.291.049.46.049zm0-.237c-.122 0-.234-.01-.335-.032-.1-.022-.187-.053-.26-.094-.074-.04-.13-.09-.17-.147C.84.972.82.907.82.835.82.763.84.7.88.643.92.586.976.538 1.05.497c.073-.041.16-.072.26-.094.101-.021.213-.032.335-.032.123 0 .235.01.337.032.102.022.19.053.263.094.073.04.13.09.169.146.04.056.06.12.06.192 0 .072-.02.137-.06.195-.04.057-.096.106-.17.147-.073.041-.16.072-.262.094-.102.021-.214.032-.337.032zm-.403 1.93V2.084h.81v1.149h.299V2.084h.763v-.24H.191v.24h.752v1.149h.299zm5.184-1.397v-.238H5.112v-.374h.972V.986H4.165V.39h1.897V.15H3.87v1.073h.947v.374H3.503v.238h2.923zM4.964 3.233c.17 0 .324-.013.461-.038s.253-.063.348-.113c.094-.05.167-.112.217-.184.05-.072.076-.155.076-.248 0-.094-.025-.177-.076-.249-.05-.072-.123-.133-.217-.183-.095-.05-.211-.089-.348-.114-.137-.025-.29-.038-.46-.038-.346 0-.617.05-.814.152-.197.1-.295.244-.295.432 0 .187.098.33.295.432.197.1.468.15.813.15zm0-.23c-.256 0-.456-.03-.597-.09-.142-.06-.213-.148-.213-.263 0-.116.071-.203.213-.263.141-.06.34-.09.597-.09.255 0 .452.03.593.09.14.06.21.147.21.263 0 .115-.07.202-.21.262-.14.06-.338.09-.593.09zm4.511-1.088V.007h-.299v.684h-.702v.241h.702v.983h.3zm-2.509-.054c.194-.074.362-.182.502-.322s.246-.307.315-.499c.07.168.17.314.303.438.132.123.286.219.464.286l.158-.23c-.117-.041-.225-.096-.322-.166s-.18-.149-.248-.238c-.069-.088-.121-.186-.159-.291-.037-.106-.055-.216-.055-.331v-.32h-.296v.33c0 .123-.019.241-.057.355-.039.114-.093.219-.164.315-.07.096-.157.181-.257.256-.101.074-.214.133-.339.176l.155.241zM8.41 3.23c.165 0 .314-.014.446-.041.132-.028.245-.067.338-.119.094-.052.165-.115.215-.19.049-.076.073-.162.073-.258s-.024-.182-.073-.258c-.05-.075-.121-.14-.215-.192-.093-.053-.206-.093-.338-.119-.132-.026-.28-.04-.446-.04-.166 0-.315.014-.449.04-.133.026-.246.066-.338.119-.092.053-.164.117-.214.192-.05.076-.076.162-.076.258s.025.182.076.257c.05.076.122.14.214.191.092.052.205.091.338.119.134.027.283.041.449.041zm0-.234c-.245 0-.437-.033-.575-.099-.138-.066-.207-.158-.207-.275 0-.12.07-.213.207-.28.138-.065.33-.098.575-.098.244 0 .436.033.574.099.138.066.207.159.207.279 0 .117-.07.21-.207.275-.138.066-.33.1-.574.1zm5.151-1.847V.922h-.475V.317h.486V.09h-2.369v.227h.49v.605h-.479v.226h2.347zm-.77-.226h-.803V.317h.803v.605zm.785 2.275v-.223H11.58V2.67h1.897v-.709h-.94v-.306h1.311v-.238h-2.92v.238h1.315v.306h-.962v.22h1.905v.277h-1.894v.738h2.283zm4.219.036V.003h-.281v3.23h.28zm-.634-.159V.076h-.28v.709h-.501c-.055-.163-.134-.29-.236-.378-.102-.089-.224-.133-.365-.133-.106 0-.2.026-.285.079-.084.053-.156.128-.216.225s-.106.215-.138.353c-.033.138-.049.293-.049.466 0 .173.016.329.049.468.032.139.078.257.138.354.06.098.132.173.216.225.084.053.18.08.285.08.141 0 .263-.045.363-.134.101-.088.18-.214.238-.378h.5v1.062h.281zM15.78 2.25c-.13 0-.232-.076-.308-.229-.076-.152-.113-.36-.113-.624 0-.262.037-.469.113-.621.076-.153.178-.229.308-.229s.232.076.308.229c.075.152.113.36.113.62 0 .265-.038.473-.113.625-.076.153-.179.229-.308.229zm1.101-.482h-.439c.01-.058.017-.117.022-.177.005-.06.007-.125.007-.194 0-.07-.002-.135-.007-.195s-.012-.118-.022-.176h.44v.742zm4.13 1.461V0h-.3v3.23h.3zm-2.42-.623c.188-.09.353-.223.497-.397.144-.174.252-.374.324-.6.075.214.184.403.328.569.144.166.31.29.497.374l.165-.23c-.12-.053-.232-.124-.336-.212-.105-.09-.195-.19-.27-.301-.076-.112-.135-.233-.179-.364-.043-.13-.064-.263-.064-.397V.799h.738V.562h-.735v-.5h-.299v.5h-.745v.237h.749v.249c0 .141-.021.28-.063.415-.042.136-.1.263-.175.38-.074.118-.162.223-.264.315-.102.093-.213.168-.333.225l.165.223zm6.398-.226V1.23h.478V.986h-.478V.004h-.296V2.38h.296zm-1.602-.558c.12 0 .231-.02.334-.058.104-.038.193-.093.269-.164.075-.07.134-.155.176-.252.042-.097.063-.204.063-.322 0-.118-.021-.225-.063-.322-.042-.097-.1-.18-.176-.25-.076-.07-.165-.125-.269-.164-.103-.04-.214-.06-.334-.06-.12 0-.232.02-.335.06-.103.04-.193.094-.268.164-.076.07-.135.153-.177.25-.042.097-.063.204-.063.322 0 .118.021.225.063.322.042.097.101.181.177.252.075.071.165.126.268.164.103.038.215.058.335.058zm0-.256c-.08 0-.153-.013-.22-.04-.067-.026-.126-.063-.176-.111-.05-.048-.09-.105-.117-.171-.028-.066-.042-.139-.042-.218 0-.08.014-.152.042-.218.027-.066.066-.123.117-.17.05-.049.109-.086.176-.112.067-.027.14-.04.22-.04.079 0 .152.013.22.04.066.026.125.063.176.111.05.048.089.105.117.171.027.066.041.139.041.218 0 .08-.014.152-.041.218-.028.066-.067.123-.117.17-.05.049-.11.086-.177.112-.067.027-.14.04-.22.04zm1.746 1.595V2.92h-1.858v-.782h-.295v1.023h2.153zm3.402.068V.004h-.285v1.314h-.457V.076h-.277v2.991h.277V1.562h.457V3.23h.285zm-2.376-.835c.175 0 .357-.007.545-.02.188-.013.392-.04.61-.08l-.029-.256c-.194.038-.376.064-.547.077-.17.013-.333.021-.49.023V.396h-.295v1.998h.206zm6.681.425v-.241h-1.317v-.695h.964V.234h-.288V.81H30.55V.234h-.292v1.649h.965v.695h-1.31v.24h2.926zm-.64-1.174h-1.65v-.594h1.65v.594zm3.675 1.588V.003h-.295v3.23h.295zm-2.448-.601c.269-.132.498-.281.688-.447.19-.165.344-.345.464-.54.12-.194.208-.4.265-.617.056-.217.084-.442.084-.675h-1.512V.59h1.213c-.03.384-.157.729-.378 1.034-.22.304-.548.56-.982.766l.158.242zM0 3.236L0 3.416 35.646 3.416 35.646 3.236z" transform="translate(15.6 116.996)"/>
                </g>
                <path fill="#B39C7D" fill-rule="nonzero" d="M22.98 85.513c.137 0 .264-.027.382-.08.117-.055.22-.138.306-.251.086-.113.154-.254.205-.425.05-.17.075-.373.075-.608s-.025-.439-.075-.61c-.05-.172-.119-.314-.205-.427-.087-.113-.189-.196-.306-.25-.118-.054-.245-.081-.382-.081s-.264.027-.382.08c-.117.055-.22.138-.307.251-.088.113-.156.255-.206.427-.049.171-.073.375-.073.61s.024.438.073.608c.05.17.118.312.206.425.087.113.19.196.307.25.118.054.245.081.382.081zm0-.266c-.084 0-.164-.019-.241-.056-.077-.037-.144-.099-.202-.185-.057-.087-.104-.2-.138-.34-.035-.141-.053-.313-.053-.517 0-.207.018-.38.053-.52.034-.14.08-.254.138-.339.058-.085.125-.146.202-.183.077-.038.157-.056.241-.056.084 0 .164.018.241.056.077.037.145.098.204.183.058.085.105.198.14.339.035.14.052.313.052.52 0 .204-.017.376-.052.516-.035.14-.082.254-.14.34-.06.087-.127.149-.204.186-.077.037-.157.056-.241.056z"/>
                <rect width="17.4" height="5.4" x="30.3" y="81.263" fill="#FCF5F0" rx="2.7"/>
                <rect width="17.4" height="5.4" x="50.1" y="81.263" fill="#FCF5F0" rx="2.7"/>
                <path fill="#F39755" fill-rule="nonzero" d="M35.724 84.143v-1.485h-.399v1.485h.399zm-1.503-.066c.108 0 .208-.016.299-.048.09-.032.17-.077.236-.135.068-.058.12-.127.158-.207.038-.08.057-.168.057-.264 0-.094-.019-.181-.057-.261-.038-.08-.09-.15-.157-.207-.067-.058-.146-.103-.237-.135-.092-.032-.191-.048-.299-.048-.108 0-.207.016-.298.048-.092.032-.171.077-.239.135-.068.058-.121.127-.159.207-.038.08-.057.167-.057.26 0 .097.019.185.057.265.038.08.091.149.159.207.068.058.148.103.239.135.09.032.19.048.298.048zm0-.327c-.106 0-.193-.029-.262-.086-.07-.057-.104-.137-.104-.241 0-.102.035-.182.104-.239.069-.057.156-.085.262-.085.106 0 .193.028.261.085.068.057.102.137.102.239 0 .104-.034.184-.102.241-.068.057-.155.086-.261.086zm1.503 1.638v-1.125h-.393v.258h-1.05v-.258h-.393v1.125h1.836zm-.393-.312h-1.05v-.252h1.05v.252zm3.36-.984v-.315h-.357c.032-.16.05-.301.055-.423.005-.122.008-.24.008-.351v-.222h-1.899v.315h1.509c0 .096-.004.199-.012.309-.008.11-.026.234-.054.372h-1.752v.315h2.502zm-.306 1.296V84.38h-1.902v1.008h1.902zm-.387-.31h-1.125v-.39h1.125v.39zm3.12.343v-1.356h.396v-.327h-.396v-1.08h-.396v2.763h.396zm-.576-2.04v-.315h-.6v-.36h-.396v.36h-.612v.315h1.608zm-.795 1.476c.1 0 .193-.016.278-.048.084-.032.158-.078.22-.137.062-.059.11-.129.146-.21.035-.08.052-.17.052-.268 0-.096-.017-.184-.052-.264-.035-.08-.084-.15-.146-.209-.062-.059-.136-.104-.22-.136-.085-.032-.178-.048-.278-.048-.1 0-.193.016-.279.048-.086.032-.16.077-.224.136-.063.06-.111.129-.147.209-.035.08-.052.168-.052.264 0 .098.017.187.052.268.035.081.084.151.148.21.063.06.137.105.223.137.086.032.179.048.279.048zm0-.324c-.094 0-.172-.03-.233-.089-.06-.059-.091-.141-.091-.247 0-.106.03-.19.091-.25s.139-.09.233-.09.171.03.231.09.09.143.09.247c0 .108-.03.191-.09.25-.06.06-.137.089-.231.089zm4.263.885v-2.763h-.399v2.763h.399zm-2.088-.465c.246-.118.45-.25.612-.395.162-.145.291-.302.389-.47.096-.17.165-.35.205-.54.04-.192.06-.393.06-.605h-1.326v.315h.921c-.014.154-.044.296-.092.427-.047.131-.113.253-.199.366-.086.113-.193.219-.321.317s-.28.189-.456.273l.207.312zM54.666 85.42v-1.11h1.062v-.317h-.363c.034-.194.054-.365.06-.512.006-.147.009-.285.009-.415v-.25h-1.917v.319h1.53c0 .12-.004.249-.012.387s-.029.295-.063.47h-1.74v.319h1.032v1.11h.402zm3.693-.002v-2.763h-.375v1.056h-.231V82.7h-.369v2.595h.369v-1.266h.231v1.389h.375zm-1.203-.687V82.94h-1.089v1.79h1.089zm-.366-.31h-.354v-1.17h.354v1.17zm4.128 1v-1.356h.396v-.327h-.396v-1.08h-.396v2.763h.396zm-.576-2.04v-.315h-.6v-.36h-.396v.36h-.612v.315h1.608zm-.795 1.476c.1 0 .193-.016.278-.048.084-.032.158-.078.22-.137.062-.059.11-.129.145-.21.035-.08.053-.17.053-.268 0-.096-.018-.184-.053-.264-.034-.08-.083-.15-.145-.209-.062-.059-.136-.104-.22-.136-.086-.032-.178-.048-.278-.048-.1 0-.193.016-.279.048-.086.032-.16.077-.224.136-.063.06-.111.129-.146.209-.036.08-.053.168-.053.264 0 .098.017.187.053.268.034.081.083.151.146.21.064.06.138.105.224.137.086.032.179.048.279.048zm0-.324c-.094 0-.171-.03-.232-.089s-.092-.141-.092-.247c0-.106.03-.19.092-.25.06-.06.138-.09.232-.09s.171.03.231.09.09.143.09.247c0 .108-.03.191-.09.25-.06.06-.137.089-.231.089zm4.263.885v-2.763h-.399v2.763h.399zm-2.088-.465c.246-.118.45-.25.612-.395.162-.145.291-.302.388-.47.097-.17.166-.35.206-.54.04-.192.06-.393.06-.605h-1.326v.315h.921c-.014.154-.044.296-.091.427s-.114.253-.2.366c-.086.113-.193.219-.321.317s-.28.189-.456.273l.207.312z"/>
                <path fill="#333" fill-rule="nonzero" d="M13.45 49.163c.262 0 .499-.038.71-.113.211-.075.391-.187.54-.336.149-.149.264-.335.346-.56.081-.223.122-.484.122-.782 0-.3-.04-.561-.122-.782-.082-.22-.199-.404-.35-.55-.153-.145-.337-.253-.553-.324-.216-.07-.46-.105-.732-.105h-.974v3.552h1.013zm-.082-.571h-.22v-2.415h.22c.166 0 .316.022.449.065.133.043.245.112.338.206.093.095.164.218.214.37.05.152.074.337.074.554 0 .218-.025.404-.074.557-.05.154-.121.28-.214.377-.093.098-.205.17-.338.216-.133.046-.283.07-.449.07zm3.605.638c.17 0 .335-.026.497-.08.161-.052.31-.125.444-.218l-.24-.432c-.096.061-.193.108-.29.14-.098.032-.203.048-.315.048-.202 0-.369-.057-.502-.17-.133-.114-.213-.282-.242-.502h1.656c.01-.032.017-.078.024-.137.006-.06.01-.121.01-.185 0-.186-.025-.357-.073-.514-.048-.156-.119-.292-.213-.408-.095-.115-.211-.204-.35-.268-.14-.064-.302-.096-.488-.096-.16 0-.315.032-.465.098-.15.066-.284.16-.401.283-.117.123-.21.272-.281.447-.07.174-.106.37-.106.588 0 .22.035.418.104.592.068.175.163.322.283.442.12.12.26.212.422.276.162.064.337.096.526.096zm.437-1.68h-1.095c.026-.195.095-.343.207-.444.112-.1.238-.151.379-.151.173 0 .3.053.384.16.083.108.125.253.125.435zm1.886 2.645v-.816l-.02-.442c.103.093.21.165.322.216.112.051.228.077.346.077.147 0 .29-.033.427-.098.138-.066.26-.16.365-.284.106-.123.19-.275.254-.456.064-.18.096-.386.096-.616 0-.205-.024-.392-.072-.562-.048-.17-.117-.314-.208-.432-.092-.118-.202-.21-.332-.276-.13-.066-.277-.098-.444-.098-.144 0-.284.033-.42.1-.136.068-.26.15-.372.245h-.019l-.048-.278h-.576v3.72h.701zm.49-1.546c-.074 0-.152-.015-.236-.045-.083-.03-.168-.083-.254-.156v-1.181c.093-.093.182-.163.266-.209.085-.046.174-.07.267-.07.185 0 .32.068.405.204.085.136.128.334.128.593 0 .295-.056.512-.166.653-.11.14-.247.211-.41.211zm3.024.581c.166 0 .328-.032.484-.096.157-.064.295-.156.413-.276.119-.12.214-.267.286-.442.072-.174.108-.372.108-.592 0-.224-.036-.424-.108-.6-.072-.176-.167-.324-.286-.444-.118-.12-.256-.212-.413-.276-.156-.064-.318-.096-.484-.096-.17 0-.332.032-.488.096-.155.064-.292.156-.41.276-.118.12-.214.268-.286.444-.072.176-.108.376-.108.6 0 .22.036.418.108.592.072.175.168.322.286.442.118.12.255.212.41.276.156.064.318.096.488.096zm0-.576c-.183 0-.324-.075-.423-.226-.099-.15-.149-.352-.149-.604 0-.256.05-.46.15-.612.098-.152.24-.228.422-.228s.323.076.422.228c.1.152.149.356.149.612 0 .252-.05.454-.149.604-.1.15-.24.226-.422.226zm2.65.576c.175 0 .33-.022.462-.067.133-.045.244-.106.334-.183.09-.076.158-.166.204-.268.046-.103.07-.213.07-.332 0-.124-.023-.23-.068-.319-.044-.088-.103-.162-.175-.223-.072-.06-.152-.112-.24-.154-.088-.041-.177-.08-.266-.115l-.204-.074c-.066-.024-.124-.05-.175-.08-.052-.028-.092-.06-.123-.095-.03-.036-.045-.077-.045-.125 0-.077.028-.14.086-.187.058-.048.147-.072.269-.072.102 0 .2.021.295.064.094.044.19.099.286.166l.316-.427c-.112-.083-.243-.16-.393-.228-.15-.069-.325-.103-.523-.103-.15 0-.288.02-.41.06-.124.04-.229.096-.315.17-.087.074-.154.16-.202.262-.048.1-.072.212-.072.333 0 .112.023.21.067.293.045.083.103.156.173.218.07.063.149.116.235.159.087.043.173.08.26.113.07.028.139.056.206.081.067.026.127.055.18.087.053.032.095.066.127.103.032.037.048.08.048.132 0 .083-.031.151-.093.204-.063.053-.161.079-.296.079-.124 0-.245-.026-.362-.077-.117-.051-.236-.123-.358-.216l-.321.442c.134.112.293.203.475.273s.365.106.547.106zm1.962-3.187c.122 0 .222-.036.3-.108.079-.072.118-.164.118-.276 0-.115-.04-.208-.118-.279-.078-.07-.178-.105-.3-.105-.121 0-.222.035-.302.105-.08.07-.12.164-.12.279 0 .112.04.204.12.276.08.072.18.108.302.108zm.346 3.12v-2.688h-.7v2.688h.7zm1.742.067c.119 0 .224-.01.317-.031.093-.021.176-.044.25-.07l-.115-.513c-.036.016-.077.03-.125.04-.048.012-.095.017-.14.017-.243 0-.364-.15-.364-.451v-1.19h.662v-.557h-.662v-.72h-.59l-.082.72-.413.033v.524h.38v1.19c0 .15.015.288.047.413s.083.231.154.319c.07.088.161.156.273.204.112.048.248.072.408.072z"/>
                <path fill="#DEE3EB" fill-rule="nonzero" d="M37.942 49.163l.388-1.757c.03-.14.056-.28.08-.415.024-.136.048-.271.074-.406h.02c.022.135.046.27.071.406.026.136.053.274.082.415l.398 1.757h.883l.658-3.552h-.677l-.278 1.733c-.026.185-.052.372-.08.561l-.079.571h-.024c-.038-.192-.076-.383-.112-.573-.037-.19-.075-.377-.113-.56l-.413-1.732h-.605l-.413 1.733-.115.561c-.038.189-.075.38-.11.571h-.02c-.025-.192-.052-.381-.081-.568-.029-.188-.056-.376-.082-.564l-.283-1.733h-.725l.687 3.552h.869zm3.484-3.12c.122 0 .222-.036.3-.108.079-.072.118-.164.118-.276 0-.115-.04-.208-.118-.279-.078-.07-.178-.105-.3-.105-.121 0-.222.035-.302.105-.08.07-.12.164-.12.279 0 .112.04.204.12.276.08.072.18.108.302.108zm.346 3.12v-2.688h-.7v2.688h.7zm1.742.067c.119 0 .224-.01.317-.031.093-.021.176-.044.25-.07l-.115-.513c-.036.016-.077.03-.125.04-.048.012-.095.017-.14.017-.243 0-.364-.15-.364-.451v-1.19h.662v-.557h-.662v-.72h-.59l-.082.72-.413.033v.524h.38v1.19c0 .15.015.288.047.413s.083.231.154.319c.07.088.161.156.273.204.112.048.248.072.408.072zm1.733-.067v-1.848c.103-.1.194-.175.274-.226.08-.051.176-.077.288-.077.134 0 .231.042.29.125.06.083.089.229.089.437v1.589h.706v-1.675c0-.34-.066-.604-.197-.795-.131-.19-.343-.285-.634-.285-.182 0-.341.04-.477.12-.136.08-.259.17-.368.273l.03-.504v-.965h-.702v3.83h.701zm3.317.067c.14 0 .275-.034.403-.1.128-.068.242-.15.341-.246h.014l.058.279h.571v-3.83h-.705v.945l.028.422c-.096-.09-.195-.16-.297-.213-.103-.053-.23-.08-.384-.08-.144 0-.284.033-.42.099s-.257.16-.363.28c-.105.122-.19.27-.252.445-.062.174-.093.372-.093.593 0 .22.025.417.077.59.05.173.124.32.22.442.096.121.212.214.348.278.136.064.288.096.454.096zm.182-.58c-.179 0-.316-.07-.412-.207-.096-.138-.144-.347-.144-.629 0-.134.015-.253.045-.355.03-.103.07-.189.12-.26.05-.07.108-.123.175-.158.068-.035.14-.053.216-.053.084 0 .167.016.25.046.083.03.166.082.25.156v1.18c-.077.103-.156.175-.238.217-.082.041-.169.062-.262.062zm2.664.513V47.56c.077-.196.173-.332.288-.41.116-.08.226-.118.332-.118.054 0 .103.003.146.01.043.006.087.017.132.033l.125-.61c-.042-.016-.087-.03-.135-.04-.048-.012-.108-.017-.182-.017-.14 0-.278.046-.413.139-.134.093-.251.227-.35.403h-.02l-.047-.475h-.576v2.688h.7zm1.906.048c.154 0 .298-.029.434-.087.136-.057.262-.136.377-.235h.015l.052.274h.576v-1.57c0-.39-.086-.685-.259-.885-.173-.2-.43-.3-.773-.3-.21 0-.413.03-.607.09-.193.062-.364.137-.511.226l.211.504c.122-.08.25-.142.387-.187.136-.045.266-.067.39-.067.206 0 .336.042.392.127.056.085.078.198.065.339-.557.016-.958.103-1.203.261-.244.159-.359.403-.343.732 0 .115.02.221.058.317.038.096.092.178.16.247.07.069.153.122.25.159.098.036.207.055.329.055zm.216-.538c-.102 0-.188-.032-.257-.096s-.105-.152-.108-.264c-.003-.096.027-.179.089-.25.062-.07.17-.116.324-.139.154-.022.315-.04.485-.052v.542c-.083.083-.167.146-.252.19-.085.043-.179.066-.281.07zm3.211.49l.274-1.171c.029-.125.054-.25.077-.377l.072-.406h.024c.025.144.05.279.074.403.024.125.05.252.08.38l.282 1.17h.83l.663-2.687h-.653l-.292 1.33c-.026.13-.048.26-.068.388-.019.128-.041.26-.067.394h-.024c-.029-.135-.056-.266-.081-.394-.026-.128-.055-.257-.087-.389l-.336-1.33h-.629l-.321 1.33c-.035.128-.066.257-.091.387-.026.13-.052.261-.077.396h-.02c-.025-.135-.047-.266-.067-.394-.019-.128-.041-.257-.067-.389l-.293-1.33h-.705l.696 2.689h.806z"/>
                <path fill="#FF9632" d="M12 51.863H30V52.863H12z"/>
                <path fill="#999" fill-rule="nonzero" d="M158.833 46.39v-.213h-.777V45.9h-.296v.277h-.78v.213h1.853zm.583 1.45v-.835h.476v-.248h-.476v-.825h-.295v1.908h.295zm-2.484-.075c.142 0 .294 0 .458-.002.163-.001.331-.006.505-.014.174-.009.35-.021.528-.038.177-.017.353-.041.525-.072l-.018-.191c-.139.02-.282.035-.43.047-.147.012-.296.021-.444.029v-.188c.187-.016.334-.06.442-.133.108-.072.162-.168.162-.288 0-.134-.068-.239-.205-.313-.137-.074-.319-.112-.547-.112-.233 0-.417.038-.553.112-.135.074-.203.179-.203.313 0 .123.055.22.164.292.109.072.257.115.444.13v.197c-.156.005-.306.008-.451.01l-.409.001.032.22zm.976-.616c-.146 0-.262-.02-.347-.063-.086-.042-.128-.099-.128-.17 0-.073.042-.13.128-.17.085-.04.2-.061.347-.061.144 0 .259.02.344.061.085.04.128.097.128.17 0 .071-.043.128-.128.17-.085.042-.2.063-.344.063zm1.63 1.977v-.213h-1.914v-.273h1.792v-.66h-2.091v.21h1.8v.252h-1.79v.684h2.204zm3.608-1.358v-.237h-.72v-.457c.125-.05.221-.117.29-.198.068-.082.102-.177.102-.285 0-.093-.026-.177-.079-.252-.053-.074-.128-.137-.225-.189-.097-.051-.216-.091-.356-.119-.14-.027-.298-.041-.474-.041-.175 0-.332.014-.471.041-.14.028-.258.068-.357.12-.098.05-.174.114-.226.188-.053.075-.08.159-.08.252 0 .11.034.206.101.286.067.08.166.147.295.2v.454h-.723v.237h2.923zm-1.462-.806c-.259 0-.462-.033-.61-.099-.147-.066-.221-.157-.221-.272 0-.117.074-.209.221-.273.148-.065.351-.098.61-.098.26 0 .463.033.61.098.148.064.222.156.222.273 0 .115-.074.206-.221.272-.148.066-.351.099-.61.099zm.45.569h-.896v-.378c.067.012.138.02.212.027.075.006.153.009.234.009.084 0 .164-.003.238-.01.074-.005.145-.014.212-.026v.378zm-.45 1.627c.348 0 .62-.05.814-.148.194-.098.292-.24.292-.424 0-.185-.098-.327-.292-.427-.194-.1-.466-.15-.814-.15-.345 0-.616.05-.811.15-.196.1-.294.242-.294.427 0 .184.098.326.294.424.195.099.466.148.811.148zm0-.227c-.254 0-.452-.03-.594-.09-.141-.06-.212-.145-.212-.255 0-.11.07-.196.212-.256s.34-.09.594-.09c.255 0 .453.03.594.09.142.06.213.145.213.256 0 .11-.071.195-.213.255-.141.06-.34.09-.594.09zm3.77-2.477v-.226h-.807V45.9h-.295v.328h-.803v.226h1.905zm.59 1.253v-.763h.479v-.245h-.479v-.777h-.295v1.785h.295zm-1.544-.05c.235 0 .423-.047.563-.14.14-.094.21-.224.21-.39 0-.165-.07-.295-.21-.388-.14-.094-.328-.14-.563-.14-.233 0-.42.046-.56.14-.14.093-.21.223-.21.389 0 .165.07.295.21.388.14.094.327.14.56.14zm0-.22c-.152 0-.271-.027-.359-.08-.087-.055-.131-.131-.131-.23 0-.098.044-.174.131-.228.088-.054.207-.081.359-.081.15 0 .27.027.36.081.088.054.133.13.133.229 0 .098-.045.174-.133.228-.09.054-.21.081-.36.081zm1.663 1.689v-.227h-1.872v-.31h1.753v-.716h-2.052v.22h1.76v.28h-1.75v.753h2.16zm3.978.036v-1.678h.533v-.248h-.533v-1.3h-.295v3.226h.295zm-2.365-.62c.09-.045.178-.105.26-.178.083-.073.16-.156.233-.248.072-.093.136-.193.192-.303.057-.109.103-.222.139-.34.036.108.082.212.137.312.055.1.117.192.187.277.07.085.145.162.227.23.081.069.168.126.259.171l.17-.237c-.118-.056-.228-.13-.328-.225-.101-.095-.19-.201-.265-.319-.076-.118-.135-.242-.178-.373-.043-.13-.065-.26-.065-.39v-.41h.716v-.245h-1.746v.244h.738v.41c0 .138-.022.276-.068.417-.046.14-.107.273-.184.397-.076.125-.166.238-.27.339-.103.1-.212.18-.327.237l.173.234zm5.698-.226v-1.149h.48v-.245h-.48v-.993h-.295v2.387h.295zm-2.365-.447c.195-.072.36-.179.499-.32.138-.142.24-.309.308-.5.072.17.175.32.311.448s.295.226.477.293l.148-.234c-.12-.043-.229-.1-.326-.17-.097-.069-.18-.149-.25-.239s-.124-.187-.162-.291c-.039-.105-.058-.212-.058-.322v-.407h-.295v.4c0 .124-.019.244-.056.36-.037.115-.091.22-.162.316-.07.096-.156.181-.256.256-.1.074-.21.133-.333.176l.155.234zm2.506 1.22v-.24h-1.847v-.76h-.295v1h2.142z"/>
                <path fill="#6F6558" fill-rule="nonzero" d="M165.622 85.463v-.749l.349-.446.687 1.195h.587l-.957-1.617.813-1.047h-.587l-.882 1.155h-.01V82.8h-.533v2.664h.533zm3.55 0v-.447h-1.08V82.8h-.534v2.664h1.613zm.662 0l.187-.684h.864l.187.684h.558l-.857-2.664h-.626l-.853 2.664h.54zm.936-1.098h-.634l.08-.292c.04-.139.08-.282.118-.43.038-.148.074-.295.108-.441h.014c.041.144.08.29.117.44.038.148.077.292.117.431l.08.292zm2.088 1.098v-.976l.802-1.688h-.554l-.266.648-.117.293c-.04.095-.08.194-.121.297h-.014l-.117-.297-.114-.293-.266-.648h-.565l.799 1.688v.976h.533z"/>
                <path fill="#999" fill-rule="nonzero" d="M13.649 98.152c.175 0 .336-.018.484-.053.148-.034.274-.084.38-.149.105-.065.188-.143.246-.234.06-.091.089-.193.089-.306 0-.113-.03-.215-.089-.306-.058-.091-.14-.17-.246-.234-.106-.065-.232-.115-.38-.15-.148-.034-.309-.052-.484-.052-.178 0-.34.018-.486.053-.147.034-.273.084-.378.149-.106.065-.188.143-.247.234-.059.091-.088.193-.088.306 0 .113.03.215.088.306.059.091.141.17.247.234.105.065.231.115.378.15.146.034.308.052.486.052zm0-.378c-.219 0-.392-.031-.52-.092-.129-.061-.193-.152-.193-.272 0-.118.064-.208.193-.27.128-.062.301-.094.52-.094.218 0 .391.032.518.094s.191.152.191.27c0 .12-.064.21-.19.272-.128.061-.3.092-.52.092zm-.335 2.095v-1.084h.666v1.084h.482v-1.084h.695V98.4h-3.002v.385h.68v1.084h.479zm4.918.01v-3.326h-.476v3.327h.476zm-1.7-1.468c.13 0 .25-.02.362-.061.112-.041.208-.098.29-.17.082-.072.146-.157.193-.257.046-.1.07-.21.07-.33 0-.117-.024-.226-.07-.327-.047-.1-.111-.187-.193-.26-.082-.071-.178-.128-.29-.168-.111-.041-.232-.062-.362-.062-.13 0-.25.02-.361.062-.112.04-.208.097-.288.169-.08.072-.144.158-.191.259-.047.1-.07.21-.07.328 0 .12.023.23.07.329.047.1.11.185.19.257.081.072.177.129.289.17.111.04.232.06.361.06zm0-.407c-.13 0-.237-.036-.322-.108-.085-.072-.128-.173-.128-.302 0-.13.043-.23.128-.303.085-.072.193-.108.322-.108.13 0 .237.036.323.108.085.072.127.173.127.303s-.042.23-.127.302c-.086.072-.193.108-.323.108zm-.99 1.202c.144 0 .3 0 .465-.003.165-.003.337-.009.515-.018.177-.01.358-.025.541-.045.184-.02.365-.049.542-.085l-.029-.342c-.175.027-.355.047-.54.061-.184.015-.368.026-.55.033-.183.007-.36.011-.53.012-.17.002-.328.002-.475.002l.061.385zm5.832.666v-1.645h.483v-.396h-.483v-1.274H20.9v3.315h.475zm-2.38-.68c.188-.091.345-.22.47-.387.127-.167.226-.356.298-.567.07.2.163.376.28.53.118.153.263.274.436.363l.288-.375c-.134-.064-.25-.149-.346-.253-.096-.105-.175-.222-.237-.351-.063-.13-.109-.268-.139-.414-.03-.147-.045-.294-.045-.443v-.483h-.479v.483c0 .153-.016.306-.048.459-.033.152-.082.296-.148.43-.066.134-.15.256-.252.364-.102.108-.222.194-.362.259l.285.385zm5.048-1.948v-.37h-.738v-.339h-.479v.339h-.734v.37h1.951zm.659 1.415v-.867h.439v-.39h-.44v-.842h-.474v2.1h.475zm-1.635-.122c.12 0 .23-.015.33-.043.1-.03.185-.07.257-.121.072-.052.128-.113.168-.185.04-.072.059-.153.059-.242 0-.088-.02-.169-.06-.24-.039-.073-.095-.135-.167-.188-.072-.053-.158-.094-.257-.122-.1-.03-.21-.044-.33-.044-.12 0-.23.015-.329.044-.1.028-.185.07-.257.122-.072.053-.128.115-.168.187-.04.072-.06.153-.06.241 0 .09.02.17.06.242.04.072.096.133.168.185.072.052.157.092.257.12.1.03.21.044.33.044zm0-.342c-.108 0-.195-.021-.26-.063-.067-.042-.1-.104-.1-.186 0-.081.033-.143.1-.185.065-.042.152-.063.26-.063.108 0 .195.021.261.063.066.042.1.104.1.185 0 .082-.034.144-.1.186-.066.042-.153.063-.26.063zm.555 1.677c.17 0 .324-.013.462-.04.138-.026.255-.064.351-.114.096-.05.17-.113.222-.186.051-.073.077-.155.077-.246 0-.094-.026-.177-.077-.25-.052-.074-.126-.136-.222-.186-.096-.05-.213-.089-.35-.115-.139-.027-.293-.04-.463-.04-.17 0-.325.013-.463.04-.138.026-.255.065-.35.115-.097.05-.17.112-.222.185-.052.074-.078.157-.078.25 0 .092.026.174.078.247.051.073.125.135.221.186.096.05.213.088.351.115.138.026.292.04.463.04zm0-.352c-.211 0-.371-.02-.479-.058-.108-.038-.162-.097-.162-.176 0-.082.054-.141.162-.179.108-.037.268-.055.479-.055.211 0 .37.018.479.055.108.038.162.097.162.179 0 .079-.054.138-.162.176-.108.038-.268.058-.48.058z"/>
                <circle cx="12.6" cy="106.463" r="1" fill="#C1C5CC"/>
                <circle cx="12.6" cy="118.463" r="1" fill="#C1C5CC"/>
                <g>
                    <path fill="#DEE3EB" fill-rule="nonzero" d="M77.1 0c.497 0 .9.403.9.9v5.4c0 .497-.403.9-.9.9H.9c-.497 0-.9-.403-.9-.9V.9C0 .403.403 0 .9 0h76.2zm0 .3H.9C.584.3.325.545.302.855L.3.9v5.4c0 .316.245.575.555.598L.9 6.9h76.2c.316 0 .575-.245.598-.555L77.7 6.3V.9c0-.316-.245-.575-.555-.598L77.1.3z" transform="translate(96 52.463)"/>
                    <path fill="#B39C7D" d="M57.4 0H78v7.2H57.4c-.552 0-1-.448-1-1V1c0-.552.448-1 1-1z" transform="translate(96 52.463) matrix(-1 0 0 1 134.4 0)"/>
                    <path fill="#FFF" fill-rule="nonzero" d="M63.26 5.1v-.749l.35-.446.687 1.195h.587l-.958-1.616.814-1.048h-.587l-.882 1.156h-.01V2.436h-.533V5.1h.532zm2.225 0l.285-.59c.033-.07.066-.14.097-.211.031-.07.063-.147.097-.229h.014c.041.082.078.158.11.229.033.07.066.141.1.21l.298.591h.59l-.748-1.35.702-1.314h-.562l-.252.547c-.029.063-.057.127-.085.195l-.091.226h-.018c-.041-.084-.077-.16-.107-.226-.03-.068-.06-.132-.091-.195l-.267-.547h-.59l.702 1.289L64.92 5.1h.565zm2.502 0V4.092h.371l.547 1.008h.594l-.623-1.09c.154-.06.277-.153.37-.278.092-.125.138-.288.138-.49 0-.153-.026-.282-.077-.385-.052-.103-.123-.186-.213-.248-.09-.063-.196-.107-.318-.133-.123-.027-.254-.04-.393-.04h-.929V5.1h.533zm.346-1.43h-.346v-.813h.346c.173 0 .304.028.394.085.09.056.135.156.135.3s-.045.252-.135.323c-.09.07-.221.106-.394.106zm2.11 1.43v-.947h.356c.144 0 .278-.017.403-.052.125-.035.233-.088.326-.16.092-.072.165-.164.22-.276.053-.111.08-.243.08-.394 0-.158-.027-.29-.08-.398-.055-.106-.128-.192-.222-.257s-.204-.111-.331-.139c-.127-.027-.264-.041-.41-.041h-.875V5.1h.532zm.32-1.368h-.32v-.875h.302c.185 0 .324.03.42.09.094.06.141.168.141.324 0 .307-.18.461-.543.461z" transform="translate(96 52.463)"/>
                    <path fill="#6F6558" fill-rule="nonzero" d="M41.66 4.8v-.749l.35-.446.687 1.195h.587l-.958-1.616.814-1.048h-.587l-.882 1.156h-.01V2.136h-.533V4.8h.532zm3.611 0v-.446H44.13V3.64h.936v-.447h-.936V2.58h1.102v-.443h-1.635V4.8h1.674zm1.602 0V2.579h.756v-.443h-2.037v.443h.748V4.8h.533zm1.721 0V3.648h1.008V4.8h.53V2.136h-.53v1.048h-1.008V2.136h-.533V4.8h.533zM6.86 4.8v-.749l.35-.446.687 1.195h.587l-.958-1.616.814-1.048h-.587l-.882 1.156h-.01V2.136h-.533V4.8h.532zm2.225 0l.285-.59c.068-.14.126-.278.194-.44h.014c.083.162.14.3.21.44l.298.59h.59l-.748-1.35.702-1.314h-.562l-.252.547c-.058.126-.108.252-.176.421h-.018c-.083-.169-.137-.295-.198-.42l-.267-.548h-.59l.702 1.289L8.52 4.8h.565zm2.502 0V3.792h.371l.547 1.008h.594l-.623-1.09c.306-.12.508-.36.508-.768 0-.615-.44-.806-1-.806h-.93V4.8h.533zm.346-1.43h-.346v-.813h.346c.345 0 .529.097.529.385 0 .288-.184.429-.53.429zm2.11 1.43v-.947h.356c.572 0 1.03-.273 1.03-.882 0-.633-.458-.835-1.045-.835h-.874V4.8h.532zm.32-1.368h-.32v-.875h.302c.37 0 .561.101.561.414 0 .306-.18.461-.543.461zm3.294.976V3.64h.727v-.375h-.727V2.5h-.393v.766h-.727v.375h.727v.767h.393zm2.541.392v-.749l.35-.446.687 1.195h.587l-.958-1.616.814-1.048h-.587l-.882 1.156h-.01V2.136h-.533V4.8h.532zm3.611 0v-.446h-1.141V3.64h.936v-.447h-.936V2.58h1.102v-.443h-1.635V4.8h1.674zm1.602 0V2.579h.756v-.443H24.13v.443h.748V4.8h.533zm1.721 0V3.648h1.008V4.8h.53V2.136h-.53v1.048h-1.008V2.136h-.533V4.8h.533z" transform="translate(96 52.463)"/>
                    <path fill="#DEE3EB" d="M34.5 0H35.5V7.2H34.5z" transform="translate(96 52.463)"/>
                </g>
                <g>
                    <g transform="translate(164.4 68.063)">
                        <use fill="#000" filter="url(#bznhnp8y1e)" xlink:href="#8ul1i1q31f"/>
                        <use fill="#23292F" xlink:href="#8ul1i1q31f"/>
                    </g>
                    <g fill="#FFF" fill-rule="nonzero">
                        <path d="M4.097 0h.694L3.347 1.467c-.523.531-1.37.531-1.894 0L.01 0h.694L1.8 1.115c.333.336.867.336 1.2 0L4.096 0zM.694 4.08H0l1.453-1.476c.523-.531 1.37-.531 1.894 0L4.8 4.08h-.694L3 2.956c-.333-.336-.867-.336-1.2 0L.695 4.08z" transform="translate(164.4 68.063) translate(2.4 3)"/>
                    </g>
                </g>
            </g>
        </g>
    </g>
</svg>
