<svg xmlns="http://www.w3.org/2000/svg" xmlns:xlink="http://www.w3.org/1999/xlink" width="388" height="237" viewBox="0 0 388 237">
    <defs>
        <linearGradient id="vz02mmp0mc" x1="50%" x2="50%" y1="0%" y2="100%">
            <stop offset="0%" stop-opacity=".1"/>
            <stop offset="100%" stop-color="#FFF" stop-opacity=".1"/>
        </linearGradient>
        <filter id="vtd24cakba" width="103.7%" height="125.8%" x="-1.8%" y="-9.2%" filterUnits="objectBoundingBox">
            <feOffset dy="2" in="SourceAlpha" result="shadowOffsetOuter1"/>
            <feGaussianBlur in="shadowOffsetOuter1" result="shadowBlurOuter1" stdDeviation="2"/>
            <feComposite in="shadowBlurOuter1" in2="SourceAlpha" operator="out" result="shadowBlurOuter1"/>
            <feColorMatrix in="shadowBlurOuter1" values="0 0 0 0 0 0 0 0 0 0 0 0 0 0 0 0 0 0 0.1 0"/>
        </filter>
        <rect id="vlvw4pmwub" width="380" height="54.325" x="0" y=".688" rx="1"/>
    </defs>
    <g fill="none" fill-rule="evenodd">
        <g>
            <g>
                <g>
                    <g transform="translate(-776 -1184) translate(200 1144) translate(580 40) translate(31.667)">
                        <rect width="315.667" height="170.651" x=".5" y=".5" fill="#FFF" stroke="#EBEEF2" rx="2"/>
                        <g fill="#8E8E93" fill-opacity=".5" fill-rule="nonzero">
                            <g>
                                <path d="M13.569 4.621L9.242 8.963 4.901 4.627 4.288 5.222 4.288 5.229 8.633 9.575 4.318 13.906 4.891 14.524 4.901 14.524 9.232 10.173 13.562 14.502 14.185 13.908 14.185 13.901 9.841 9.561 14.161 5.22 13.579 4.621z" transform="translate(283.02 19.806)"/>
                            </g>
                        </g>
                        <path fill="#333" fill-rule="nonzero" d="M30.426 36.126v-12.16h-1.741v12.16h1.741zm-9.17-2.284c1.425-.647 2.402-1.98 2.943-3.565.54 1.465 1.504 2.654 2.916 3.261l.95-1.373c-2.032-.845-3.009-2.945-3.009-4.925v-.674h2.507v-1.439h-6.808v1.44h2.533v.673c0 2.073-.99 4.304-3.021 5.215l.99 1.387zm20.795-3.288v-2.548h1.623v-1.427H42.05v-2.614h-1.742v6.589h1.742zm-8.986.145c3.682-.819 5.674-2.852 5.674-6.087h-5.674V26H36.8c-.224 1.465-1.583 2.693-4.367 3.3l.633 1.4zm8.986 5.282v-4.952h-1.716v1.162h-4.473V31.03h-1.728v4.952h7.917zm-1.716-1.387h-4.473v-1.07h4.473v1.07zm17.457-1.73v-8.899H56.05v1.69h-2.705c-.594-.607-1.412-.964-2.362-.964-1.794 0-3.193 1.334-3.193 3.143 0 1.822 1.399 3.156 3.193 3.156.95 0 1.795-.37 2.389-.99h2.678v2.865h1.742zm-6.809-3.393c-.884 0-1.543-.62-1.543-1.637 0-1.004.66-1.624 1.543-1.624.898 0 1.557.62 1.557 1.624 0 1.017-.66 1.637-1.557 1.637zm5.067-.858h-1.953c.066-.238.093-.515.093-.78 0-.276-.04-.54-.093-.791h1.953v1.57zm2.019 7.302v-1.387h-6.545v-2.535h-1.741v3.922h8.286zm2.428-5.572c2.665-.581 4.38-1.73 5.119-3.539h2.573v1.043h-2.692v1.307h2.692v.911h1.742v-6.1h-1.742v1.532h-2.23c.053-.344.08-.7.08-1.07h-5.424v1.387h3.51c-.211 1.426-1.451 2.588-4.209 3.129l.58 1.4zm9.684 5.664v-1.373h-6.505v-.766h6.255v-3.354h-8.01v1.373h6.268v.687h-6.254v3.433h8.246z"/>
                        <path fill="#999" fill-rule="nonzero" d="M27.107 69.822v-6.118h-.767v1.294h-2.106c-.388-.481-.979-.777-1.69-.777-1.22 0-2.134.87-2.134 2.08s.915 2.08 2.134 2.08c.711 0 1.312-.296 1.7-.786h2.096v2.227h.767zm-4.563-2.107c-.813 0-1.413-.592-1.413-1.414 0-.823.6-1.414 1.413-1.414.804 0 1.404.591 1.404 1.414 0 .822-.6 1.414-1.404 1.414zm3.796-.73h-1.782c.073-.213.11-.444.11-.684 0-.25-.037-.48-.11-.693h1.782v1.377zm.998 4.815v-.619h-4.766v-1.987h-.767V71.8h5.533zm1.847-3.688c1.829-.434 3.094-1.321 3.611-2.625h2.041v.99h-2.161v.591h2.161v.86h.767v-4.234h-.767v1.202h-1.875c.056-.259.083-.518.083-.795h-3.703v.62h2.881c-.138 1.312-1.293 2.3-3.315 2.772l.277.62zm6.696 3.79v-.6h-4.849v-.962h4.572v-2.033h-5.339v.61h4.582v.85h-4.563v2.135h5.597zm6.308-6.867v-.583H40.12v-.84h-.757v.84h-2.06v.583h4.886zm1.515 3.216v-1.96h1.228v-.628h-1.228v-1.996h-.757v4.584h.757zm-3.962-.13c1.2 0 1.985-.517 1.985-1.358 0-.841-.785-1.359-1.985-1.359-1.192 0-1.977.518-1.977 1.359s.785 1.359 1.977 1.359zm0-.563c-.767 0-1.256-.296-1.256-.795 0-.5.49-.795 1.256-.795s1.265.296 1.265.795c0 .5-.499.795-1.265.795zm4.267 4.335v-.583h-4.803v-.794h4.498v-1.84h-5.265v.564h4.517v.721h-4.489v1.932h5.542zm10.612.092v-8.281h-.757v8.281h.757zm-6.336-1.59c.942-.48 1.755-1.525 2.134-2.735.397 1.136 1.21 2.088 2.17 2.532l.425-.61c-1.22-.518-2.217-1.95-2.217-3.355v-1.054h1.95v-.628h-4.628v.628h1.92v1.054c0 1.433-1.006 2.995-2.197 3.558l.443.61zm14.482-2.218v-1.895h1.229v-.628h-1.229v-1.96h-.757v4.483h.757zm-6.132.102c2.438-.592 3.897-1.997 3.897-4.085h-3.805v.619H59.7c-.13 1.33-1.312 2.357-3.353 2.847l.287.619zm6.132 3.595v-3.318h-.757v1.045h-3.731v-1.045h-.749v3.318h5.237zm-.757-.61h-3.731v-1.072h3.73v1.072zm6.567-4.556c1.82 0 2.91-.5 2.91-1.433 0-.934-1.09-1.442-2.91-1.442s-2.91.508-2.91 1.442c0 .933 1.09 1.433 2.91 1.433zm0-.564c-1.358 0-2.134-.315-2.134-.87 0-.554.776-.868 2.134-.868 1.358 0 2.133.314 2.133.869 0 .554-.775.869-2.133.869zm3.75 1.737v-.61h-7.5v.61h7.5zm-.712 4.012V71.3H66.5v-.84h4.867v-1.868h-5.634v.573h4.886v.74H65.76v1.987h5.855zm10.613-1.997v-6.192h-.767v1.94h-1.81v.63h1.81v3.622h.767zm-6.42-1.183c.97-.388 1.71-1.174 2.06-2.163.351.897 1.062 1.609 1.977 1.97l.397-.583c-1.191-.444-2.004-1.534-2.004-2.69v-1.053h-.758v1.025c0 1.267-.83 2.44-2.068 2.893l.397.601zm6.614 3.087v-.619h-4.766v-1.969h-.757V71.8h5.523zm8.47-3.078v-5.018h-.73v2.153h-1.109v-2.005h-.72v4.815h.72v-2.19h1.109v2.245h.73zm-3.04-.665l-.073-.61c-.869.176-1.607.222-2.79.222V66.54h2.374v-.582H84.99v-1.045h2.466v-.61H84.26v3.984h.526c1.33 0 2.115-.037 3.067-.231zm3.04 3.928v-2.828h-5.57v.61h4.812v2.218h.757zm8.524-.01v-8.29h-.73v3.503h-1.062V63.88h-.71v7.7h.71v-3.772h1.063v4.169h.73zm-2.918-6.247v-.62h-1.681v-1.173h-.749v1.174h-1.68v.619h4.11zm-2.05 4.335c1.024 0 1.772-.767 1.772-1.895 0-1.11-.748-1.886-1.773-1.886s-1.773.777-1.773 1.886c0 1.128.748 1.895 1.773 1.895zm0-.629c-.647 0-1.1-.527-1.1-1.266 0-.721.453-1.248 1.1-1.248.636 0 1.098.527 1.098 1.248 0 .74-.462 1.266-1.099 1.266zm13.207-1.71l.295-.6c-1.459-.213-2.89-1.165-2.89-2.256v-.046h2.595v-.61h-6.05v.61h2.614v.046c0 1.09-1.432 2.043-2.872 2.255l.286.601c1.284-.222 2.503-.915 3.01-1.895.5.98 1.728 1.673 3.012 1.895zm-2.651 4.261v-2.948h3.39l-.01-.62h-7.48v.62h3.343v2.948h.757zm11.425 0v-8.29h-.72v8.29h.72zm-1.69-.407V63.88h-.711v2.792h-1.367v.628h1.367v4.28h.71zm-4.97-1.367c.823-.509 1.423-1.452 1.719-2.551.295 1.007.85 1.885 1.635 2.366l.434-.592c-1.09-.665-1.709-2.07-1.709-3.401V64.48h-.73v1.58c0 1.424-.683 2.912-1.82 3.577l.472.574zm15.638.711v-.628h-1.857v-2.246c.684-.36 1.09-.952 1.09-1.7 0-1.295-1.247-2.127-3.011-2.127-1.755 0-3.01.832-3.01 2.126 0 .749.415 1.35 1.107 1.71v2.237h-1.847v.628h7.528zm-3.778-3.04c-1.33 0-2.281-.61-2.281-1.535 0-.924.951-1.534 2.281-1.534s2.29.61 2.29 1.534-.96 1.534-2.29 1.534zm1.164 2.412h-2.31v-1.95c.342.083.74.129 1.146.129.416 0 .813-.046 1.164-.13v1.95zm4.387 1.127c.332 0 .61-.258.61-.637 0-.38-.278-.657-.61-.657-.333 0-.61.278-.61.657s.277.637.61.637z"/>
                        <rect width="277.083" height="39.612" x="19.792" y="99.029" fill="#6F6558" rx="1"/>
                        <path fill="#FFF" fill-rule="nonzero" d="M129.284 122.796v-2.051l1.044-1.276 1.921 3.327h1.192l-2.457-4.177 2.106-2.625h-1.192l-2.586 3.216h-.028v-3.216h-1.07v6.802h1.07zm6.16.12c.629 0 1.146-.277 1.617-.674h.028l.092.554h.869v-3.059c0-1.377-.582-2.153-1.848-2.153-.812 0-1.505.295-2.032.628l.314.776c.434-.286.98-.536 1.534-.536.748 0 .97.509.97 1.11-1.044.073-1.81.157-2.328.443-.527.324-.711.878-.711 1.442 0 .897.618 1.47 1.496 1.47zm.324-.84c-.452 0-.794-.185-.794-.703 0-.212-.037-.453.23-.702.324-.296.804-.296 1.783-.416v1.257c-.415.379-.775.564-1.219.564zm4.738-5.37v-1.147h-1.09v1.147h1.09zm-.027 6.09v-5.083h-1.053v5.083h1.053zm2.493 0v-1.312l.86-.989 1.376 2.301h1.154l-1.921-3.022 1.727-2.061h-1.173L143 120.181h-.028v-4.751h-1.034v7.366h1.034zm5.477.12c.628 0 1.146-.277 1.617-.674h.027l.093.554h.868v-3.059c0-1.377-.582-2.153-1.847-2.153-.813 0-1.506.295-2.032.628l.314.776c.434-.286.979-.536 1.533-.536.748 0 .97.509.97 1.11-1.044.073-1.81.157-2.328.443-.526.324-.71.878-.71 1.442 0 .897.618 1.47 1.495 1.47zm.324-.84c-.453 0-.795-.185-.795-.703 0-.212-.037-.453.231-.702.323-.296.804-.296 1.783-.416v1.257c-.416.379-.776.564-1.22.564zm5.172.84c1.256 0 1.93-.693 1.93-1.543 0-.961-.785-1.275-1.496-1.543-.554-.204-1.08-.37-1.08-.805 0-.36.258-.628.812-.628.434 0 .776.185 1.136.444l.499-.657c-.416-.323-.951-.6-1.653-.6-1.118 0-1.801.637-1.801 1.488 0 .868.785 1.21 1.45 1.478l.195.078c.486.192.931.385.931.8 0 .398-.267.685-.895.685-.555 0-.989-.222-1.441-.583l-.499.684c.49.407 1.21.703 1.912.703zm11.656.592v-8.346h-.96v8.346h.96zm-6.355-1.59c.98-.462 1.728-1.47 2.097-2.625.397 1.082 1.136 1.978 2.106 2.413l.526-.749c-1.302-.564-2.161-1.987-2.161-3.383v-.795h1.856v-.785h-4.673v.785h1.856v.795c0 1.414-.858 3.004-2.152 3.587l.545.757zm14.492-2.236v-1.84h1.191v-.785h-1.191v-1.904h-.951v4.529h.95zm-6.16.101c2.484-.582 3.897-1.987 3.897-4.159h-3.851v.777h2.798c-.138 1.192-1.173 2.162-3.205 2.615l.36.767zm6.16 3.624v-3.374h-.942v.943h-3.445v-.943h-.942v3.374h5.329zm-.942-.768h-3.445v-.915h3.445v.915zm6.705-2.292c1.737 0 3.067-.924 3.067-2.357 0-1.405-1.33-2.357-3.067-2.357-1.736 0-3.066.952-3.066 2.357 0 1.433 1.33 2.357 3.066 2.357zm0-.785c-1.228 0-2.143-.61-2.143-1.572 0-.961.915-1.571 2.143-1.571 1.229 0 2.143.61 2.143 1.571 0 .962-.914 1.572-2.143 1.572zm3.787 2.893v-.786h-7.555v.786h7.555zm8.497.073v-.785h-3.316v-1.424h2.605v-.767h-4.997v-1.164h4.812v-2.644h-5.763v.767h4.821v1.119h-4.803v2.69h2.374v1.423h-3.288v.785h7.555zm10.566 0v-.785h-3.315v-1.424h2.604v-.767h-4.997v-1.164h4.812v-2.644h-5.763v.767h4.821v1.119h-4.802v2.69h2.373v1.423h-3.288v.785h7.555zm7.204-1.58c.306-1.676.315-2.808.315-3.87v-1.084h-5.773v.767h4.821v.545c-.005.987-.04 2.1-.323 3.54l.96.102zm1.284 1.396v-.786h-7.546v.786h7.546zm7.823-1.119v-6.063h-.951v6.063h.951zm-4.498-1.33c1.256 0 2.208-.879 2.208-2.09 0-1.229-.952-2.088-2.208-2.088-1.256 0-2.216.86-2.216 2.088 0 1.211.96 2.09 2.216 2.09zm0-.823c-.739 0-1.284-.509-1.284-1.267 0-.776.545-1.266 1.284-1.266.73 0 1.284.49 1.284 1.266 0 .758-.554 1.267-1.284 1.267zm4.738 4.28v-.777h-4.728v-1.96h-.961v2.736h5.69z"/>
                        <g fill="#FFF" fill-rule="nonzero">
                            <path d="M8.452 7.864l5.477 5.457c1.403-1.477 2.17-3.433 2.142-5.457-.01-2.017-.773-3.96-2.142-5.458L8.452 7.864zM8.036 8.274L2.619 13.615 8.036 15.845 13.452 13.615zM7.857 7.688L13.452 2.113 8.274 0 3.155 12.382zM0 7.864c0 2.001.765 3.93 2.143 5.399L7.56.353 0 7.862z" transform="translate(100.938 110.913)"/>
                        </g>
                    </g>
                    <g>
                        <g transform="translate(-776 -1184) translate(200 1144) translate(580 40) translate(0 154.59)">
                            <use fill="#000" filter="url(#vtd24cakba)" xlink:href="#vlvw4pmwub"/>
                            <rect width="379" height="53.325" x=".5" y="1.188" fill="#FEE500" stroke="#000" stroke-linejoin="square" stroke-opacity=".04" rx="1"/>
                        </g>
                        <path fill="#000" fill-opacity=".85" fill-rule="nonzero" d="M159.69 33.34v-5.83h1.736v-1.09h-1.736v-4.526h-1.304V33.34h1.304zm-8.106-1.787c4.154-2.092 5.155-5.083 5.155-8.505h-5.206v1.064h3.914c-.05.634-.152 1.23-.304 1.788l-4.193.266.178 1.128 3.622-.355c-.67 1.432-1.849 2.586-3.876 3.6l.71 1.014zm19.76 1.787v-5.83h1.735v-1.09h-1.735v-4.526h-1.305V33.34h1.305zm-8.107-1.787c4.155-2.092 5.155-5.083 5.155-8.505h-5.206v1.064h3.914c-.05.634-.152 1.23-.304 1.788l-4.192.266.177 1.128 3.623-.355c-.672 1.432-1.85 2.586-3.876 3.6l.71 1.014zm21.267.393V30.88h-4.547v-2.18c2.09-.203 3.56-1.356 3.56-3.055 0-1.876-1.787-3.067-4.206-3.067-2.432 0-4.205 1.191-4.205 3.067 0 1.711 1.456 2.84 3.546 3.042v2.193h-4.509v1.065h10.361zm-5.193-4.272c-1.71 0-2.939-.773-2.939-2.028s1.23-2.028 2.94-2.028c1.696 0 2.925.773 2.925 2.028s-1.229 2.028-2.926 2.028zm11.362 4.703v-2.814l1.431-1.75 2.635 4.564h1.634l-3.37-5.73 2.889-3.6h-1.634l-3.547 4.412h-.038v-4.411h-1.47v9.329h1.47zm8.17 0v-10.09H197.4v10.09h1.444zm3.395-8.353v-1.572h-1.495v1.572h1.495zm-.038 8.353v-6.972h-1.444v6.972h1.444zm3.458 2.827v-2.257l-.038-1.191c.595.507 1.216.786 1.836.786 1.571 0 3.002-1.382 3.002-3.765 0-2.142-.988-3.55-2.76-3.55-.774 0-1.534.432-2.142.939h-.038l-.114-.76h-1.19v9.798h1.444zm1.52-3.866c-.444 0-.976-.165-1.52-.634v-3.41c.595-.57 1.114-.85 1.66-.85 1.164 0 1.633.875 1.633 2.358 0 1.636-.76 2.536-1.773 2.536zm12.565-2.32c2.381 0 4.205-1.268 4.205-3.232 0-1.927-1.824-3.233-4.205-3.233-2.381 0-4.205 1.306-4.205 3.233 0 1.964 1.824 3.232 4.205 3.232zm0-1.078c-1.685 0-2.939-.836-2.939-2.154 0-1.319 1.254-2.155 2.94-2.155 1.684 0 2.938.836 2.938 2.155 0 1.318-1.254 2.154-2.939 2.154zm5.193 3.968V30.83h-10.36v1.078h10.36zm11.654.101v-1.077h-4.548V28.98h3.572v-1.052h-6.852V26.33h6.6v-3.626h-7.905v1.052h6.612v1.534h-6.587v3.689h3.256v1.952h-4.51v1.077h10.362zm14.49 0v-1.077h-4.547V28.98h3.572v-1.052h-6.853V26.33h6.6v-3.626h-7.904v1.052h6.612v1.534h-6.587v3.689h3.255v1.952h-4.509v1.077h10.361zm9.88-2.167c.444-2.434.431-4.031.431-5.565v-1.23h-7.917V24.1h6.612v.747c-.006 1.353-.055 2.881-.443 4.855l1.317.14zm1.761 1.914v-1.078h-10.349v1.078h10.35zm10.729-1.534v-8.315h-1.305v8.315h1.305zm-6.169-1.825c1.723 0 3.027-1.204 3.027-2.865 0-1.686-1.304-2.865-3.027-2.865s-3.04 1.18-3.04 2.865c0 1.66 1.317 2.865 3.04 2.865zm0-1.128c-1.013 0-1.76-.698-1.76-1.737 0-1.065.747-1.737 1.76-1.737 1 0 1.76.672 1.76 1.737 0 1.04-.76 1.737-1.76 1.737zm6.498 5.868v-1.064h-6.485v-2.688h-1.318v3.752h7.803z" transform="translate(-776 -1184) translate(200 1144) translate(580 40) translate(0 154.59)"/>
                        <path fill="#171B1D" d="M139.81 22.82l-.047-.225c-.491-2.355-2.501-3.802-5.277-3.802H109.52c-2.776 0-4.805 1.463-5.296 3.818l-.047.225c-.087.513-.131 1.025-.129 1.649v6.59c.004.819.087 1.404.088 1.41l.003.024c.327 2.71 2.339 4.329 5.381 4.329h18.048c.158 0 .286-.128.286-.285V25.88v-.003c0-.158-.128-.285-.285-.285h-.002H126.53h-.003c-.158 0-.285.127-.285.285V35.232h-16.318c-2.702 0-4.253-1.65-4.255-4.1l.001-6.662c0-2.472 1.55-4.065 4.254-4.065H134.085c2.703 0 4.235 1.576 4.235 4.048l.002 6.662c-.002 2.45-1.537 4.109-4.239 4.109l-.553.007-.659.004h-.31c-.157 0-.285.128-.285.285V36.55c0 .157.127.285.284.285h.725l.292-.004h.91c3.042 0 5.034-1.626 5.36-4.337l.004-.025c.001-.005.084-.59.088-1.41v-6.59c.002-.624-.042-1.135-.13-1.648" transform="translate(-776 -1184) translate(200 1144) translate(580 40) translate(0 154.59) rotate(1 121.993 27.816)"/>
                        <path fill="#171B1D" d="M118.986 30.433c0 1.08.674 1.814 1.681 1.814h.45c.159 0 .288-.129.288-.288v-.902-.001c0-.073-.028-.147-.084-.203-.056-.056-.13-.084-.203-.083h-.519v-7.212-.002c0-.157-.127-.285-.285-.285H119.271h-.001c-.158 0-.285.128-.285.285v6.877" transform="translate(-776 -1184) translate(200 1144) translate(580 40) translate(0 154.59) rotate(1 120.195 27.759)"/>
                        <path fill="#171B1D" d="M122.588 26.493v4.011c0 1.08.677 1.806 1.684 1.806h.436c.158 0 .285-.128.285-.286v-.904-.002c0-.038-.007-.075-.022-.11-.014-.034-.034-.065-.061-.092-.056-.056-.13-.084-.203-.084h-.506v-4.336-.002c0-.158-.128-.286-.285-.286h-1.041-.002c-.157 0-.285.128-.285.285" transform="translate(-776 -1184) translate(200 1144) translate(580 40) translate(0 154.59) rotate(1 123.79 29.259)"/>
                        <path fill="#171B1D" d="M122.963 24.909h1.041c.119 0 .22-.071.264-.173.014-.034.023-.072.023-.112v-1.012c0-.04-.009-.077-.023-.111-.043-.102-.145-.174-.263-.174h-1.04-.002c-.157 0-.285.126-.285.282v1.015c0 .035.008.067.02.097.039.109.142.188.265.188" transform="translate(-776 -1184) translate(200 1144) translate(580 40) translate(0 154.59) rotate(1 123.484 24.118)"/>
                        <path fill="#171B1D" d="M117.75 23.587c.006-.011.009-.023.013-.035.006-.02.01-.038.011-.058.001-.01-.003-.08-.006-.094-.009-.034-.024-.063-.041-.093-.006-.01-.011-.019-.019-.027-.012-.014-.025-.025-.04-.036-.012-.01-.024-.018-.038-.026-.013-.008-.026-.015-.041-.02-.027-.01-.097-.019-.098-.019h-1.188-.002c-.01 0-.031.001-.04.003-.029.006-.043.009-.069.02-.035.014-.066.035-.093.061l-3.657 3.146c-.404.402-.44 1.041-.084 1.486l3.708 4.135c.005.007.012.011.017.018l.013.012c.023.022.05.04.078.053l.016.005c.031.012.064.02.098.02H117.509l.007-.001c.03-.001.06-.008.087-.018.012-.004.023-.01.034-.015.018-.01.035-.021.051-.035.01-.007.02-.014.028-.023.02-.02.036-.044.05-.07v-.005c.005-.01.006-.019.01-.028.008-.025.013-.05.014-.075l.001-.027c-.002-.06-.02-.12-.06-.17l-3.943-4.519 3.906-3.481c.025-.025.042-.054.056-.084" transform="translate(-776 -1184) translate(200 1144) translate(580 40) translate(0 154.59) rotate(1 114.952 27.659)"/>
                        <path fill="#171B1D" d="M111.328 23.378c0-.157-.127-.285-.285-.285H110.003 110c-.035 0-.068.008-.099.02l-.026.013c-.022.01-.042.024-.06.04l-.022.02c-.02.023-.038.048-.051.076l-.003.006c-.015.035-.023.073-.023.112v8.393c0 .04.008.078.023.113.043.103.144.175.262.175h1.043c.157 0 .284-.128.284-.285v-.001-8.394-.003" transform="translate(-776 -1184) translate(200 1144) translate(580 40) translate(0 154.59) rotate(1 110.522 27.577)"/>
                        <path fill="#171B1D" d="M134.185 29.58s.009-.034.012-.053l.01-.056c.126-.733.024-1.461.02-1.486-.166-1.373-1.211-2.226-2.728-2.226h-2.589c-.08 0-.151.032-.203.084-.052.052-.084.124-.084.203v1.023c0 .04.008.079.023.113.029.068.084.123.152.152.035.015.072.023.112.023h2.415c.96 0 1.446.435 1.446 1.274v.03c0 .857-.487 1.292-1.446 1.292H128.91c-.015 0-.027.006-.041.008-.024.003-.047.005-.07.014-.03.012-.055.032-.08.053-.004.004-.009.005-.013.01l-.01.014c-.02.024-.04.049-.052.078-.008.021-.01.043-.013.065-.002.015-.01.03-.01.046v1.023l.001.002c0 .158.128.285.285.285h2.624c1.403 0 2.4-.76 2.653-1.97" transform="translate(-776 -1184) translate(200 1144) translate(580 40) translate(0 154.59) rotate(1 131.446 28.655)"/>
                    </g>
                    <path fill="url(#vz02mmp0mc)" d="M0 209.15L380 209.15 364.167 236.313 15.833 236.313z" transform="translate(-776 -1184) translate(200 1144) translate(580 40)"/>
                </g>
            </g>
        </g>
    </g>
</svg>
