<svg xmlns="http://www.w3.org/2000/svg" xmlns:xlink="http://www.w3.org/1999/xlink" width="388" height="237" viewBox="0 0 388 237">
    <defs>
        <linearGradient id="1j47xlj8wc" x1="50%" x2="50%" y1="0%" y2="100%">
            <stop offset="0%" stop-opacity=".1"/>
            <stop offset="100%" stop-color="#FFF" stop-opacity=".1"/>
        </linearGradient>
        <filter id="4wimswrzda" width="103.7%" height="125.8%" x="-1.8%" y="-9.2%" filterUnits="objectBoundingBox">
            <feOffset dy="2" in="SourceAlpha" result="shadowOffsetOuter1"/>
            <feGaussianBlur in="shadowOffsetOuter1" result="shadowBlurOuter1" stdDeviation="2"/>
            <feComposite in="shadowBlurOuter1" in2="SourceAlpha" operator="out" result="shadowBlurOuter1"/>
            <feColorMatrix in="shadowBlurOuter1" values="0 0 0 0 0 0 0 0 0 0 0 0 0 0 0 0 0 0 0.1 0"/>
        </filter>
        <rect id="zo5pac3jjb" width="380" height="54.325" x="0" y="0" rx="1"/>
    </defs>
    <g fill="none" fill-rule="evenodd">
        <g>
            <g>
                <g>
                    <g transform="translate(-776 -1204) translate(200 1144) translate(580 60) translate(31.667)">
                        <rect width="315.667" height="170.651" x=".5" y=".5" fill="#FFF" stroke="#EBEEF2" rx="2"/>
                        <path fill="#333" fill-rule="nonzero" d="M25.502 35.196c.672 0 1.283-.128 1.834-.385.55-.257 1.04-.637 1.47-1.141l-1.092-1.288c-.28.299-.595.544-.945.735-.35.191-.749.287-1.197.287-.41 0-.782-.082-1.113-.245-.331-.163-.616-.401-.854-.714-.238-.313-.42-.693-.546-1.141-.126-.448-.189-.952-.189-1.512s.07-1.06.21-1.498c.14-.439.331-.812.574-1.12.243-.308.532-.544.868-.707.336-.163.7-.245 1.092-.245.392 0 .742.082 1.05.245.308.163.593.371.854.623l1.092-1.316c-.336-.355-.76-.665-1.274-.931-.513-.266-1.101-.399-1.764-.399-.653 0-1.272.121-1.855.364s-1.094.597-1.533 1.064c-.439.467-.786 1.036-1.043 1.708-.257.672-.385 1.433-.385 2.282 0 .868.124 1.633.371 2.296.247.663.586 1.218 1.015 1.666.43.448.933.789 1.512 1.022.579.233 1.195.35 1.848.35zm8.078 0c.485 0 .957-.093 1.414-.28.457-.187.859-.455 1.204-.805.345-.35.623-.78.833-1.288.21-.509.315-1.085.315-1.729 0-.653-.105-1.237-.315-1.75-.21-.513-.488-.945-.833-1.295s-.747-.618-1.204-.805c-.457-.187-.929-.28-1.414-.28-.495 0-.968.093-1.421.28-.453.187-.852.455-1.197.805-.345.35-.623.782-.833 1.295-.21.513-.315 1.097-.315 1.75 0 .644.105 1.22.315 1.729.21.509.488.938.833 1.288.345.35.744.618 1.197.805.453.187.926.28 1.421.28zm0-1.68c-.532 0-.943-.22-1.232-.658-.29-.439-.434-1.027-.434-1.764 0-.747.145-1.342.434-1.785.29-.443.7-.665 1.232-.665s.943.222 1.232.665c.29.443.434 1.038.434 1.785 0 .737-.145 1.325-.434 1.764-.29.439-.7.658-1.232.658zM41.112 35v-5.39c.299-.29.565-.509.798-.658.233-.15.513-.224.84-.224.392 0 .674.121.847.364.173.243.259.667.259 1.274V35h2.058v-4.886c0-.99-.191-1.762-.574-2.317-.383-.555-.999-.833-1.848-.833-.532 0-1.003.121-1.414.364-.41.243-.789.532-1.134.868h-.056l-.14-1.036h-1.68V35h2.044zm8.974 0v-5.39c.299-.29.565-.509.798-.658.233-.15.513-.224.84-.224.392 0 .674.121.847.364.173.243.259.667.259 1.274V35h2.058v-4.886c0-.99-.191-1.762-.574-2.317-.383-.555-.999-.833-1.848-.833-.532 0-1.003.121-1.414.364-.41.243-.789.532-1.134.868h-.056l-.14-1.036h-1.68V35h2.044zm10.332.196c.495 0 .978-.077 1.449-.231.471-.154.903-.366 1.295-.637l-.7-1.26c-.28.177-.562.313-.847.406-.285.093-.59.14-.917.14-.588 0-1.076-.166-1.463-.497-.387-.331-.623-.819-.707-1.463h4.83c.028-.093.051-.226.07-.399.019-.173.028-.352.028-.539 0-.541-.07-1.04-.21-1.498-.14-.457-.348-.854-.623-1.19-.275-.336-.616-.597-1.022-.784-.406-.187-.88-.28-1.421-.28-.467 0-.92.096-1.358.287-.439.191-.828.467-1.169.826-.34.36-.614.793-.819 1.302-.205.509-.308 1.08-.308 1.715 0 .644.1 1.22.301 1.729.2.509.476.938.826 1.288.35.35.76.618 1.232.805.471.187.982.28 1.533.28zm1.274-4.9H58.5c.075-.57.275-1.001.602-1.295.327-.294.695-.441 1.106-.441.504 0 .877.156 1.12.469.243.313.364.735.364 1.267zm6.79 4.9c.439 0 .882-.077 1.33-.231.448-.154.859-.394 1.232-.721l-.812-1.358c-.215.187-.453.338-.714.455-.261.117-.532.175-.812.175-.57 0-1.036-.22-1.4-.658-.364-.439-.546-1.027-.546-1.764 0-.747.184-1.342.553-1.785.369-.443.852-.665 1.449-.665.224 0 .432.044.623.133.191.089.385.217.581.385l.98-1.33c-.29-.243-.62-.448-.994-.616-.373-.168-.803-.252-1.288-.252-.532 0-1.04.093-1.526.28-.485.187-.91.455-1.274.805-.364.35-.656.782-.875 1.295-.22.513-.329 1.097-.329 1.75 0 .644.098 1.22.294 1.729.196.509.464.938.805 1.288.34.35.744.618 1.211.805.467.187.97.28 1.512.28zm6.916 0c.345 0 .653-.03.924-.091.27-.06.513-.128.728-.203l-.336-1.498c-.103.047-.224.086-.364.119-.14.033-.275.049-.406.049-.71 0-1.064-.439-1.064-1.316v-3.472h1.932V27.16H74.88v-2.1h-1.722l-.238 2.1-1.204.098v1.526h1.106v3.472c0 .439.047.84.14 1.204.093.364.243.674.448.931.205.257.471.455.798.595.327.14.723.21 1.19.21zm9.87-.196l1.134-5.124c.084-.41.161-.814.231-1.211.07-.397.142-.791.217-1.183h.056c.065.392.135.786.21 1.183.075.397.154.8.238 1.211L88.516 35h2.576l1.918-10.36h-1.974l-.812 5.054c-.075.541-.152 1.087-.231 1.638-.08.55-.156 1.106-.231 1.666h-.07c-.112-.56-.222-1.118-.329-1.673-.107-.555-.217-1.099-.329-1.631L87.83 24.64h-1.764l-1.204 5.054c-.112.541-.224 1.087-.336 1.638-.112.55-.22 1.106-.322 1.666h-.056c-.075-.56-.154-1.113-.238-1.659-.084-.546-.163-1.094-.238-1.645l-.826-5.054h-2.114L82.734 35h2.534zm11.06.14c.448 0 .87-.084 1.267-.252.397-.168.763-.397 1.099-.686h.042l.154.798h1.68v-4.578c0-1.139-.252-2-.756-2.583-.504-.583-1.255-.875-2.254-.875-.616 0-1.206.089-1.771.266-.565.177-1.062.397-1.491.658l.616 1.47c.355-.233.73-.415 1.127-.546.397-.13.777-.196 1.141-.196.597 0 .978.124 1.141.371.163.247.226.576.189.987-1.624.047-2.793.301-3.507.763s-1.048 1.174-1.001 2.135c0 .336.056.644.168.924.112.28.268.52.469.721.2.2.443.355.728.462.285.107.604.161.959.161zm.63-1.568c-.299 0-.548-.093-.749-.28-.2-.187-.306-.443-.315-.77-.01-.28.077-.523.259-.728.182-.205.497-.34.945-.406.448-.065.92-.117 1.414-.154v1.582c-.243.243-.488.427-.735.553-.247.126-.52.194-.819.203zM104.714 35V23.828h-2.044V35h2.044zm4.41 0V23.828h-2.044V35h2.044zm5.768.196c.495 0 .978-.077 1.449-.231.471-.154.903-.366 1.295-.637l-.7-1.26c-.28.177-.562.313-.847.406-.285.093-.59.14-.917.14-.588 0-1.076-.166-1.463-.497-.387-.331-.623-.819-.707-1.463h4.83c.028-.093.051-.226.07-.399.019-.173.028-.352.028-.539 0-.541-.07-1.04-.21-1.498-.14-.457-.348-.854-.623-1.19-.275-.336-.616-.597-1.022-.784-.406-.187-.88-.28-1.421-.28-.467 0-.92.096-1.358.287-.439.191-.828.467-1.169.826-.34.36-.614.793-.819 1.302-.205.509-.308 1.08-.308 1.715 0 .644.1 1.22.301 1.729.2.509.476.938.826 1.288.35.35.76.618 1.232.805.471.187.982.28 1.533.28zm1.274-4.9h-3.192c.075-.57.275-1.001.602-1.295.327-.294.695-.441 1.106-.441.504 0 .877.156 1.12.469.243.313.364.735.364 1.267zm6.328 4.9c.345 0 .653-.03.924-.091.27-.06.513-.128.728-.203l-.336-1.498c-.103.047-.224.086-.364.119-.14.033-.275.049-.406.049-.71 0-1.064-.439-1.064-1.316v-3.472h1.932V27.16h-1.932v-2.1h-1.722l-.238 2.1-1.204.098v1.526h1.106v3.472c0 .439.047.84.14 1.204.093.364.243.674.448.931.205.257.471.455.798.595.327.14.723.21 1.19.21z"/>
                        <g fill="#8E8E93" fill-opacity=".5" fill-rule="nonzero">
                            <g>
                                <path d="M13.569 4.621L9.242 8.963 4.901 4.627 4.288 5.222 4.288 5.229 8.633 9.575 4.318 13.906 4.891 14.524 4.901 14.524 9.232 10.173 13.562 14.502 14.185 13.908 14.185 13.901 9.841 9.561 14.161 5.22 13.579 4.621z" transform="translate(283.02 19.806)"/>
                            </g>
                        </g>
                        <path fill="#999" fill-rule="nonzero" d="M26.456 70v-3.201h1.331c.44 0 .842-.05 1.205-.149.363-.099.676-.25.94-.456.264-.205.468-.466.61-.781.144-.315.215-.686.215-1.111 0-.44-.073-.81-.22-1.111-.146-.3-.352-.544-.616-.732-.264-.187-.58-.32-.951-.401-.37-.08-.783-.121-1.238-.121h-2.299V70h1.023zm1.2-4.026h-1.2v-3.212h1.155c.712 0 1.245.112 1.6.335.357.224.534.626.534 1.205 0 .58-.17 1.003-.511 1.27-.341.268-.867.402-1.579.402zM32.84 70v-8.756h-1.001V70h1.001zm3.953.143c.41 0 .777-.06 1.1-.181.322-.121.616-.266.88-.435l-.363-.66c-.22.147-.451.262-.693.346-.242.085-.51.127-.803.127-.572 0-1.036-.187-1.392-.561-.355-.374-.552-.884-.588-1.529h4.026c.014-.073.025-.16.033-.258.007-.1.01-.204.01-.314 0-.425-.053-.81-.159-1.155-.106-.345-.26-.64-.462-.885-.201-.246-.449-.435-.742-.567-.294-.132-.631-.198-1.012-.198-.345 0-.68.073-1.007.22-.326.147-.614.356-.863.627-.25.271-.45.601-.6.99-.15.389-.225.825-.225 1.309 0 .491.075.931.225 1.32.15.389.354.717.61.984.257.268.56.472.908.611.349.14.72.209 1.117.209zm1.33-3.608h-3.2c.029-.293.095-.555.198-.786.102-.231.23-.426.385-.584.154-.157.328-.278.522-.363.194-.084.398-.126.61-.126.47 0 .835.158 1.095.473.26.315.39.777.39 1.386zm3.084 3.608c.374 0 .728-.072 1.062-.215.334-.142.643-.331.93-.566h.032l.088.638h.825v-3.674c0-.367-.04-.7-.12-1.001-.081-.3-.204-.56-.37-.776-.164-.216-.379-.383-.643-.5-.264-.117-.575-.176-.935-.176-.484 0-.937.073-1.358.22-.422.147-.772.308-1.05.484l.395.715c.235-.161.514-.299.836-.413.323-.113.66-.17 1.012-.17.242 0 .444.042.605.126.162.085.288.197.38.336.091.14.156.3.192.484.037.183.055.37.055.561-1.18.015-2.088.189-2.722.523-.635.333-.952.885-.952 1.655 0 .271.044.515.132.731.088.217.21.4.363.55.154.15.338.266.55.347.213.08.444.121.693.121zm.286-.803c-.3 0-.55-.083-.748-.248-.198-.165-.297-.42-.297-.764 0-.227.04-.424.121-.588.081-.165.224-.307.43-.424.205-.117.481-.21.83-.28.348-.07.786-.123 1.314-.16v1.771c-.293.257-.568.436-.825.539-.256.103-.531.154-.825.154zm5.658.803c.352 0 .664-.048.935-.143.271-.095.499-.222.682-.38.183-.157.323-.344.418-.56.095-.217.143-.446.143-.688 0-.286-.055-.524-.165-.715-.11-.19-.251-.354-.424-.49-.172-.135-.366-.25-.583-.346-.216-.095-.434-.183-.654-.264l-.49-.192c-.157-.063-.298-.132-.423-.21-.125-.076-.224-.165-.297-.264-.073-.099-.11-.221-.11-.368 0-.235.088-.436.264-.605.176-.169.451-.253.825-.253.271 0 .515.05.732.148.216.1.43.226.643.38l.484-.649c-.235-.183-.51-.341-.825-.473-.315-.132-.66-.198-1.034-.198-.323 0-.612.044-.869.132-.257.088-.473.209-.649.363-.176.154-.31.334-.401.539-.092.205-.138.425-.138.66 0 .257.053.475.16.655.106.18.245.337.417.473.173.135.364.25.572.346.21.095.42.18.633.253.161.066.325.134.49.204.164.07.311.148.44.236.128.088.232.187.313.297.08.11.121.242.121.396 0 .257-.097.477-.291.66-.195.183-.49.275-.886.275-.36 0-.68-.064-.962-.192-.283-.129-.552-.3-.809-.512l-.495.66c.286.235.623.43 1.012.588.389.158.796.237 1.221.237zm5.537 0c.41 0 .777-.06 1.1-.181.322-.121.616-.266.88-.435l-.363-.66c-.22.147-.451.262-.693.346-.242.085-.51.127-.803.127-.572 0-1.036-.187-1.392-.561-.355-.374-.552-.884-.588-1.529h4.026c.014-.073.025-.16.033-.258.007-.1.01-.204.01-.314 0-.425-.053-.81-.159-1.155-.106-.345-.26-.64-.462-.885-.202-.246-.449-.435-.742-.567-.294-.132-.631-.198-1.012-.198-.345 0-.68.073-1.007.22-.326.147-.614.356-.863.627-.25.271-.45.601-.6.99-.15.389-.225.825-.225 1.309 0 .491.075.931.225 1.32.15.389.354.717.61.984.257.268.56.472.908.611.349.14.72.209 1.117.209zm1.33-3.608h-3.2c.029-.293.095-.555.198-.786.102-.231.23-.426.385-.584.154-.157.328-.278.522-.363.194-.084.398-.126.61-.126.47 0 .835.158 1.095.473.26.315.39.777.39 1.386zm6.256 3.608c.36 0 .704-.066 1.034-.198.33-.132.627-.319.891-.561l-.429-.671c-.19.169-.403.31-.638.424-.235.113-.491.17-.77.17s-.53-.055-.754-.165c-.223-.11-.417-.264-.582-.462-.166-.198-.292-.438-.38-.72-.088-.283-.132-.596-.132-.941s.048-.658.143-.94c.095-.283.226-.527.39-.732.166-.205.362-.363.589-.473.227-.11.477-.165.748-.165.242 0 .458.05.649.148.19.1.374.23.55.391l.517-.671c-.213-.19-.458-.356-.737-.495-.279-.14-.616-.209-1.012-.209-.381 0-.746.07-1.094.209-.349.14-.655.345-.919.616s-.475.601-.633.99c-.157.389-.236.832-.236 1.331s.072.94.215 1.325c.143.386.34.712.594.98.253.267.55.47.89.61.342.14.71.209 1.106.209zm4.844 0c.366 0 .717-.07 1.05-.209.334-.14.629-.343.886-.61.256-.268.46-.594.61-.98.15-.384.226-.826.226-1.325s-.076-.942-.226-1.331c-.15-.389-.354-.719-.61-.99-.257-.271-.552-.477-.886-.616-.334-.14-.684-.209-1.05-.209-.367 0-.717.07-1.05.209-.334.14-.63.345-.886.616-.257.271-.46.601-.61.99-.151.389-.226.832-.226 1.331s.075.94.225 1.325c.15.386.354.712.61.98.257.267.553.47.886.61.334.14.684.209 1.05.209zm0-.836c-.257 0-.492-.055-.704-.165-.213-.11-.395-.264-.545-.462-.15-.198-.267-.438-.352-.72-.084-.283-.126-.596-.126-.941s.042-.658.126-.94c.084-.283.202-.527.352-.732.15-.205.332-.363.545-.473.212-.11.447-.165.704-.165.256 0 .491.055.704.165.212.11.396.268.55.473.154.205.273.45.357.732.085.282.127.595.127.94s-.042.658-.127.94c-.084.283-.203.523-.357.721-.154.198-.338.352-.55.462-.213.11-.448.165-.704.165zm4.887.693v-4.334c.301-.3.572-.528.814-.682.242-.154.517-.231.825-.231.396 0 .684.125.864.374.18.25.27.656.27 1.221V70h1v-3.784c0-.77-.146-1.353-.44-1.749-.293-.396-.755-.594-1.386-.594-.41 0-.775.099-1.094.297-.32.198-.622.436-.908.715h-.033l-.088-.858h-.825V70h1.001zm6.263 0v-4.334c.3-.3.572-.528.814-.682.242-.154.517-.231.825-.231.396 0 .684.125.864.374.18.25.269.656.269 1.221V70h1.001v-3.784c0-.77-.147-1.353-.44-1.749-.293-.396-.755-.594-1.386-.594-.41 0-.776.099-1.094.297-.32.198-.622.436-.908.715h-.033l-.088-.858h-.825V70h1.001zm7.67.143c.411 0 .778-.06 1.1-.181.323-.121.617-.266.88-.435l-.362-.66c-.22.147-.451.262-.693.346-.242.085-.51.127-.803.127-.572 0-1.036-.187-1.392-.561-.356-.374-.552-.884-.588-1.529h4.026c.014-.073.025-.16.033-.258.007-.1.01-.204.01-.314 0-.425-.052-.81-.159-1.155-.106-.345-.26-.64-.462-.885-.202-.246-.449-.435-.742-.567-.294-.132-.631-.198-1.012-.198-.345 0-.68.073-1.007.22-.326.147-.614.356-.863.627-.25.271-.45.601-.6.99-.15.389-.225.825-.225 1.309 0 .491.075.931.225 1.32.15.389.354.717.61.984.257.268.56.472.908.611.349.14.72.209 1.117.209zm1.332-3.608h-3.201c.029-.293.095-.555.198-.786.102-.231.23-.426.385-.584.154-.157.328-.278.522-.363.194-.084.398-.126.61-.126.47 0 .835.158 1.095.473.26.315.39.777.39 1.386zm4.25 3.608c.359 0 .703-.066 1.033-.198.33-.132.627-.319.891-.561l-.429-.671c-.19.169-.403.31-.638.424-.234.113-.491.17-.77.17-.278 0-.53-.055-.753-.165-.224-.11-.418-.264-.583-.462-.165-.198-.292-.438-.38-.72-.088-.283-.132-.596-.132-.941s.048-.658.143-.94c.096-.283.226-.527.39-.732.166-.205.362-.363.59-.473.227-.11.476-.165.747-.165.242 0 .459.05.65.148.19.1.373.23.55.391l.516-.671c-.212-.19-.458-.356-.737-.495-.278-.14-.616-.209-1.012-.209-.381 0-.746.07-1.094.209-.349.14-.655.345-.919.616s-.474.601-.632.99c-.158.389-.237.832-.237 1.331s.072.94.215 1.325c.143.386.34.712.594.98.253.267.55.47.89.61.342.14.71.209 1.106.209zm4.667 0c.183 0 .37-.022.561-.066.19-.044.37-.095.539-.154l-.198-.748c-.103.037-.216.072-.341.105-.125.032-.238.049-.341.049-.352 0-.594-.099-.726-.297-.132-.198-.198-.484-.198-.858v-3.333H95.1v-.814h-1.617v-1.672h-.836l-.121 1.672-.935.055v.759h.891v3.311c0 .3.03.574.088.82.059.245.154.454.286.627.132.172.306.306.523.401.216.095.485.143.808.143zm5.353 2.431l3.047-8.547h-.979l-1.067 3.256-.253.83-.253.842h-.055c-.095-.271-.192-.554-.291-.847l-.28-.825-1.222-3.256h-1.045l2.398 5.918-.935 2.629h.935zm6.054-2.431c.367 0 .717-.07 1.05-.209.334-.14.63-.343.886-.61.257-.268.46-.594.61-.98.15-.384.226-.826.226-1.325s-.075-.942-.225-1.331c-.15-.389-.354-.719-.611-.99s-.552-.477-.886-.616c-.333-.14-.683-.209-1.05-.209s-.717.07-1.05.209c-.334.14-.63.345-.886.616-.257.271-.46.601-.61.99-.15.389-.226.832-.226 1.331s.075.94.225 1.325c.15.386.354.712.611.98.257.267.552.47.885.61.334.14.684.209 1.051.209zm0-.836c-.257 0-.491-.055-.704-.165-.213-.11-.394-.264-.544-.462-.15-.198-.268-.438-.353-.72-.084-.283-.126-.596-.126-.941s.042-.658.126-.94c.085-.283.202-.527.353-.732.15-.205.331-.363.544-.473.213-.11.447-.165.704-.165.257 0 .491.055.704.165.213.11.396.268.55.473.154.205.273.45.358.732.084.282.126.595.126.94s-.042.658-.126.94c-.085.283-.204.523-.358.721-.154.198-.337.352-.55.462-.213.11-.447.165-.704.165zm5.625.836c.41 0 .773-.099 1.089-.297.315-.198.612-.458.89-.781h.034l.077.935h.836v-5.973h-1.001v4.235c-.286.36-.55.618-.792.775-.242.158-.517.237-.825.237-.396 0-.682-.125-.858-.374-.176-.25-.264-.653-.264-1.21v-3.663h-1.001v3.784c0 .763.145 1.342.434 1.738.29.396.75.594 1.38.594zM116.7 70v-3.839c.096-.257.206-.473.33-.649.125-.176.253-.317.385-.424.132-.106.266-.183.402-.23.136-.048.266-.072.39-.072.125 0 .228.007.308.022.081.015.173.04.275.077l.187-.88c-.095-.051-.192-.086-.291-.104-.1-.019-.215-.028-.347-.028-.337 0-.65.112-.94.336-.29.223-.541.526-.754.907h-.033l-.088-1.089h-.825V70h1.001zm7.004 0l1.199-4.862c.066-.323.133-.633.203-.93.07-.297.138-.599.204-.907h.044l.192.907c.063.297.13.607.204.93L126.97 70h1.222l1.672-8.063h-.98l-.846 4.389c-.154.858-.308 1.727-.462 2.607h-.055c-.096-.44-.19-.876-.28-1.309-.093-.433-.19-.865-.292-1.298l-1.133-4.389h-.924l-1.111 4.389c-.103.44-.202.875-.297 1.303-.096.43-.191.864-.286 1.304h-.044c-.081-.44-.16-.875-.237-1.304l-.117-.647-.12-.656-.846-4.389h-1.056L122.494 70h1.21zm8.176.143c.374 0 .728-.072 1.062-.215.333-.142.643-.331.93-.566h.032l.088.638h.825v-3.674c0-.367-.04-.7-.12-1.001-.081-.3-.204-.56-.37-.776-.164-.216-.379-.383-.643-.5-.264-.117-.575-.176-.935-.176-.484 0-.936.073-1.358.22-.422.147-.772.308-1.05.484l.395.715c.235-.161.514-.299.836-.413.323-.113.66-.17 1.012-.17.242 0 .444.042.605.126.162.085.288.197.38.336.092.14.156.3.192.484.037.183.055.37.055.561-1.18.015-2.088.189-2.722.523-.635.333-.952.885-.952 1.655 0 .271.044.515.132.731.088.217.21.4.363.55.154.15.338.266.55.347.213.08.444.121.693.121zm.286-.803c-.3 0-.55-.083-.748-.248-.198-.165-.297-.42-.297-.764 0-.227.04-.424.121-.588.081-.165.224-.307.43-.424.205-.117.482-.21.83-.28.348-.07.786-.123 1.314-.16v1.771c-.293.257-.568.436-.825.539-.256.103-.531.154-.825.154zm5.097.66v-8.756h-1.001V70h1.001zm2.545 0v-8.756h-1.001V70h1zm3.952.143c.411 0 .778-.06 1.1-.181.323-.121.616-.266.88-.435l-.363-.66c-.22.147-.45.262-.693.346-.242.085-.51.127-.803.127-.572 0-1.036-.187-1.391-.561-.356-.374-.552-.884-.589-1.529h4.026c.015-.073.026-.16.033-.258.008-.1.011-.204.011-.314 0-.425-.053-.81-.16-1.155-.106-.345-.26-.64-.461-.885-.202-.246-.45-.435-.743-.567-.293-.132-.63-.198-1.012-.198-.344 0-.68.073-1.006.22-.327.147-.614.356-.864.627-.249.271-.449.601-.6.99-.15.389-.225.825-.225 1.309 0 .491.076.931.226 1.32.15.389.354.717.61.984.257.268.56.472.908.611.348.14.72.209 1.116.209zm1.331-3.608h-3.2c.029-.293.095-.555.197-.786.103-.231.231-.426.385-.584.154-.157.328-.278.523-.363.194-.084.398-.126.61-.126.47 0 .834.158 1.095.473.26.315.39.777.39 1.386zm3.777 3.608c.183 0 .37-.022.561-.066.19-.044.37-.095.539-.154l-.198-.748c-.103.037-.216.072-.341.105-.125.032-.238.049-.341.049-.352 0-.594-.099-.726-.297-.132-.198-.198-.484-.198-.858v-3.333h1.617v-.814h-1.617v-1.672h-.836l-.121 1.672-.935.055v.759h.891v3.311c0 .3.03.574.088.82.059.245.154.454.286.627.132.172.306.306.523.401.216.095.485.143.808.143zm5.694 0c.184 0 .37-.022.561-.066.191-.044.37-.095.54-.154l-.199-.748c-.102.037-.216.072-.34.105-.125.032-.239.049-.342.049-.352 0-.594-.099-.726-.297-.132-.198-.198-.484-.198-.858v-3.333h1.617v-.814h-1.617v-1.672h-.836l-.12 1.672-.936.055v.759h.891v3.311c0 .3.03.574.088.82.059.245.154.454.286.627.132.172.306.306.523.401.216.095.486.143.808.143zm4.129 0c.367 0 .717-.07 1.05-.209.334-.14.63-.343.886-.61.257-.268.46-.594.61-.98.15-.384.226-.826.226-1.325s-.075-.942-.225-1.331c-.15-.389-.354-.719-.611-.99s-.552-.477-.886-.616c-.333-.14-.683-.209-1.05-.209s-.717.07-1.05.209c-.334.14-.63.345-.886.616-.257.271-.46.601-.61.99-.15.389-.226.832-.226 1.331s.075.94.225 1.325c.15.386.354.712.611.98.257.267.552.47.886.61.333.14.683.209 1.05.209zm0-.836c-.257 0-.491-.055-.704-.165-.213-.11-.394-.264-.544-.462-.15-.198-.268-.438-.353-.72-.084-.283-.126-.596-.126-.941s.042-.658.126-.94c.085-.283.202-.527.352-.732.15-.205.332-.363.545-.473.213-.11.447-.165.704-.165.257 0 .491.055.704.165.213.11.396.268.55.473.154.205.273.45.358.732.084.282.126.595.126.94s-.042.658-.126.94c-.085.283-.204.523-.358.721-.154.198-.337.352-.55.462-.213.11-.447.165-.704.165zm7.63.836c.411 0 .774-.099 1.09-.297.315-.198.612-.458.89-.781h.033l.077.935h.836v-5.973h-1v4.235c-.287.36-.55.618-.793.775-.242.158-.517.237-.825.237-.396 0-.682-.125-.858-.374-.176-.25-.264-.653-.264-1.21v-3.663h-1v3.784c0 .763.144 1.342.434 1.738.29.396.75.594 1.38.594zm6.043 0c.352 0 .664-.048.935-.143.271-.095.499-.222.682-.38.183-.157.323-.344.418-.56.095-.217.143-.446.143-.688 0-.286-.055-.524-.165-.715-.11-.19-.251-.354-.424-.49-.172-.135-.366-.25-.583-.346-.216-.095-.434-.183-.654-.264l-.49-.192c-.157-.063-.298-.132-.423-.21-.125-.076-.224-.165-.297-.264-.073-.099-.11-.221-.11-.368 0-.235.088-.436.264-.605.176-.169.451-.253.825-.253.271 0 .515.05.731.148.217.1.431.226.644.38l.484-.649c-.235-.183-.51-.341-.825-.473-.315-.132-.66-.198-1.034-.198-.323 0-.612.044-.869.132-.257.088-.473.209-.649.363-.176.154-.31.334-.402.539-.091.205-.137.425-.137.66 0 .257.053.475.16.655.106.18.245.337.418.473.172.135.363.25.571.346.21.095.42.18.633.253.161.066.325.134.49.204.165.07.311.148.44.236.128.088.232.187.313.297.08.11.121.242.121.396 0 .257-.097.477-.292.66-.194.183-.489.275-.885.275-.36 0-.68-.064-.962-.192-.283-.129-.552-.3-.809-.512l-.495.66c.286.235.623.43 1.012.588.389.158.796.237 1.221.237zm5.537 0c.41 0 .777-.06 1.1-.181.322-.121.616-.266.88-.435l-.363-.66c-.22.147-.451.262-.693.346-.242.085-.51.127-.803.127-.572 0-1.036-.187-1.392-.561-.356-.374-.552-.884-.588-1.529h4.026c.014-.073.025-.16.033-.258.007-.1.01-.204.01-.314 0-.425-.052-.81-.159-1.155-.106-.345-.26-.64-.462-.885-.202-.246-.449-.435-.742-.567-.294-.132-.631-.198-1.012-.198-.345 0-.68.073-1.007.22-.326.147-.614.356-.863.627-.25.271-.45.601-.6.99-.15.389-.225.825-.225 1.309 0 .491.075.931.225 1.32.15.389.354.717.61.984.257.268.56.472.908.611.349.14.72.209 1.117.209zm1.33-3.608h-3.2c.029-.293.095-.555.198-.786.102-.231.23-.426.385-.584.154-.157.328-.278.522-.363.195-.084.398-.126.61-.126.47 0 .835.158 1.095.473.26.315.39.777.39 1.386zM184.245 70v-2.552l1.386-1.65L188.039 70h1.144l-2.915-4.994 2.519-3.069h-1.144l-3.366 4.048h-.033v-4.048h-1.023V70h1.023zm10.168 0v-.869h-3.52v-7.194h-1.023V70h4.543zm.927 0l.781-2.464h2.948l.77 2.464h1.078l-2.739-8.063h-1.133L194.305 70h1.034zm3.476-3.278h-2.442l.396-1.232c.147-.462.286-.913.418-1.353.132-.44.26-.898.385-1.375h.044c.132.47.264.926.396 1.37.132.443.272.896.418 1.358l.385 1.232zM203.923 70v-3.135l2.42-4.928h-1.056l-1.045 2.277c-.125.3-.253.592-.385.874-.132.283-.271.578-.418.886h-.044c-.147-.308-.282-.603-.407-.886l-.385-.874-1.034-2.277h-1.089l2.42 4.928V70h1.023zm4.019.143c.352 0 .663-.048.935-.143.271-.095.498-.222.682-.38.183-.157.322-.344.418-.56.095-.217.143-.446.143-.688 0-.286-.055-.524-.165-.715-.11-.19-.252-.354-.424-.49-.172-.135-.367-.25-.583-.346-.216-.095-.434-.183-.654-.264l-.49-.192c-.157-.063-.299-.132-.423-.21-.125-.076-.224-.165-.297-.264-.074-.099-.11-.221-.11-.368 0-.235.088-.436.264-.605.176-.169.45-.253.825-.253.271 0 .515.05.731.148.216.1.431.226.644.38l.484-.649c-.235-.183-.51-.341-.825-.473-.316-.132-.66-.198-1.034-.198-.323 0-.613.044-.87.132-.256.088-.472.209-.648.363-.176.154-.31.334-.402.539-.091.205-.137.425-.137.66 0 .257.053.475.16.655.106.18.245.337.417.473.173.135.363.25.572.346.21.095.42.18.633.253l.49.204c.164.07.31.148.44.236.127.088.232.187.313.297.08.11.12.242.12.396 0 .257-.097.477-.29.66-.195.183-.49.275-.886.275-.36 0-.68-.064-.963-.192-.282-.129-.552-.3-.808-.512l-.495.66c.286.235.623.43 1.012.588.388.158.795.237 1.22.237zm5.25-.143l.836-3.201c.081-.286.153-.57.215-.853l.192-.885h.055c.074.308.14.601.198.88.059.279.129.557.21.836l.868 3.223h1.21l1.606-5.973h-.946l-.88 3.454c-.066.286-.128.567-.187.842-.058.275-.12.551-.187.83h-.044c-.073-.279-.143-.556-.209-.83-.066-.275-.135-.556-.209-.842l-.935-3.454h-.979l-.924 3.454c-.08.279-.152.557-.214.836-.063.279-.127.557-.193.836h-.055c-.058-.279-.117-.556-.176-.83l-.176-.842-.89-3.454h-1.024L212.015 70h1.177zm7.605.143c.374 0 .728-.072 1.061-.215.334-.142.644-.331.93-.566h.033l.088.638h.825v-3.674c0-.367-.04-.7-.121-1.001-.08-.3-.203-.56-.369-.776-.165-.216-.379-.383-.643-.5-.264-.117-.576-.176-.935-.176-.484 0-.937.073-1.358.22-.422.147-.772.308-1.051.484l.396.715c.235-.161.513-.299.836-.413.323-.113.66-.17 1.012-.17.242 0 .444.042.605.126.161.085.288.197.38.336.091.14.155.3.192.484.037.183.055.37.055.561-1.18.015-2.088.189-2.722.523-.635.333-.952.885-.952 1.655 0 .271.044.515.132.731.088.217.209.4.363.55.154.15.337.266.55.347.213.08.444.121.693.121zm.286-.803c-.3 0-.55-.083-.748-.248-.198-.165-.297-.42-.297-.764 0-.227.04-.424.121-.588.08-.165.224-.307.429-.424.205-.117.482-.21.83-.28.349-.07.787-.123 1.315-.16v1.771c-.293.257-.568.436-.825.539-.257.103-.532.154-.825.154zm5.097 3.179v-2.024l-.022-1.045c.271.22.546.39.825.511.278.121.553.182.825.182.344 0 .673-.072.984-.215.312-.142.587-.352.825-.626.239-.276.43-.613.572-1.013.143-.4.215-.856.215-1.369 0-.462-.052-.88-.154-1.254-.103-.374-.255-.693-.457-.957s-.45-.47-.748-.616c-.297-.147-.636-.22-1.017-.22-.352 0-.69.084-1.012.253-.323.169-.62.363-.891.583h-.033l-.088-.682h-.825v8.492h1zm1.463-3.212c-.198 0-.424-.046-.677-.138-.253-.091-.515-.254-.786-.489v-3.135c.293-.271.57-.477.83-.616.26-.14.519-.209.776-.209.286 0 .528.053.726.16.198.106.359.256.484.45.124.195.216.428.275.699.058.271.088.572.088.902 0 .374-.043.708-.127 1.001-.084.293-.203.54-.357.742-.154.202-.336.358-.545.468-.209.11-.438.165-.687.165z"/>
                        <rect width="277.083" height="39.612" x="20" y="99" fill="#6F6558" rx="1"/>
                        <g fill="#FFF" fill-rule="nonzero">
                            <path d="M28.832 12.13c.48 0 .902-.09 1.265-.27.364-.18.692-.44.985-.78l-.51-.58c-.233.253-.486.453-.76.6-.273.147-.586.22-.94.22-.353 0-.67-.07-.95-.21-.28-.14-.518-.34-.715-.6-.196-.26-.348-.577-.454-.95-.107-.373-.16-.79-.16-1.25 0-.46.055-.873.165-1.24.11-.367.266-.678.47-.935.203-.257.446-.453.73-.59.283-.137.598-.205.945-.205.32 0 .601.065.845.195.243.13.461.298.654.505l.5-.6c-.106-.12-.228-.233-.364-.34-.137-.107-.29-.203-.46-.29-.17-.087-.355-.155-.555-.205-.2-.05-.41-.075-.63-.075-.467 0-.899.087-1.296.26-.396.173-.74.425-1.03.755-.29.33-.516.73-.68 1.2-.163.47-.245 1.002-.245 1.595s.08 1.125.24 1.595c.16.47.384.868.67 1.195.287.327.625.575 1.015.745.39.17.812.255 1.265.255zm5.224 0c.333 0 .652-.063.955-.19.303-.127.572-.312.805-.555.233-.243.418-.54.555-.89.136-.35.205-.752.205-1.205 0-.453-.069-.857-.205-1.21-.137-.353-.322-.653-.555-.9-.233-.247-.502-.433-.805-.56-.303-.127-.622-.19-.955-.19-.334 0-.652.063-.955.19-.303.127-.572.313-.805.56-.233.247-.418.547-.555.9-.137.353-.205.757-.205 1.21 0 .453.068.855.205 1.205.137.35.322.647.555.89.233.243.502.428.805.555.303.127.621.19.955.19zm0-.76c-.233 0-.447-.05-.64-.15-.194-.1-.358-.24-.495-.42s-.243-.398-.32-.655c-.077-.257-.115-.542-.115-.855 0-.313.038-.598.115-.855.077-.257.183-.478.32-.665.136-.187.301-.33.495-.43.193-.1.407-.15.64-.15.233 0 .447.05.64.15.193.1.36.243.5.43s.248.408.325.665c.076.257.115.542.115.855 0 .313-.039.598-.115.855-.077.257-.185.475-.325.655-.14.18-.307.32-.5.42-.194.1-.407.15-.64.15zm4.443.63V8.06c.273-.273.52-.48.74-.62.22-.14.47-.21.75-.21.36 0 .622.113.785.34.163.227.245.597.245 1.11V12h.91V8.56c0-.7-.133-1.23-.4-1.59-.267-.36-.687-.54-1.26-.54-.373 0-.705.09-.995.27-.29.18-.565.397-.825.65h-.03l-.08-.78h-.75V12h.91zm5.694 0V8.06c.273-.273.52-.48.74-.62.22-.14.47-.21.75-.21.36 0 .621.113.785.34.163.227.244.597.244 1.11V12h.91V8.56c0-.7-.133-1.23-.4-1.59-.266-.36-.686-.54-1.26-.54-.373 0-.705.09-.995.27-.29.18-.564.397-.825.65h-.03l-.08-.78h-.75V12h.91zm6.973.13c.373 0 .707-.055 1-.165.293-.11.56-.242.8-.395l-.33-.6c-.2.133-.41.238-.63.315-.22.077-.464.115-.73.115-.52 0-.942-.17-1.265-.51-.324-.34-.502-.803-.535-1.39h3.66c.013-.067.023-.145.03-.235.007-.09.01-.185.01-.285 0-.387-.049-.737-.145-1.05-.097-.313-.237-.582-.42-.805-.183-.223-.408-.395-.675-.515-.267-.12-.574-.18-.92-.18-.313 0-.618.067-.915.2-.297.133-.559.323-.785.57-.227.247-.409.547-.545.9-.137.353-.205.75-.205 1.19 0 .447.068.847.205 1.2.136.353.322.652.555.895.233.243.508.428.825.555.316.127.655.19 1.015.19zm1.21-3.28h-2.91c.026-.267.087-.505.18-.715.093-.21.21-.387.35-.53.14-.143.298-.253.475-.33.177-.077.362-.115.555-.115.426 0 .758.143.995.43.236.287.355.707.355 1.26zm3.863 3.28c.327 0 .64-.06.94-.18.3-.12.57-.29.81-.51l-.39-.61c-.173.153-.366.282-.58.385-.213.103-.447.155-.7.155-.253 0-.482-.05-.685-.15-.203-.1-.38-.24-.53-.42-.15-.18-.265-.398-.345-.655-.08-.257-.12-.542-.12-.855 0-.313.043-.598.13-.855.087-.257.205-.478.355-.665.15-.187.328-.33.535-.43.207-.1.434-.15.68-.15.22 0 .417.045.59.135.173.09.34.208.5.355l.47-.61c-.193-.173-.416-.323-.67-.45-.253-.127-.56-.19-.92-.19-.346 0-.678.063-.995.19-.316.127-.595.313-.835.56-.24.247-.431.547-.575.9-.143.353-.215.757-.215 1.21 0 .453.065.855.195 1.205.13.35.31.647.54.89.23.243.5.428.81.555.31.127.645.19 1.005.19zm4.244 0c.166 0 .336-.02.51-.06.173-.04.336-.087.49-.14l-.18-.68c-.094.033-.197.065-.31.095-.114.03-.217.045-.31.045-.32 0-.54-.09-.66-.27-.12-.18-.18-.44-.18-.78V7.31h1.47v-.74h-1.47V5.05h-.76l-.11 1.52-.85.05v.69h.81v3.01c0 .273.026.522.08.745.053.223.14.413.26.57.12.157.278.278.474.365.197.087.442.13.736.13zm5.176 0c.167 0 .337-.02.51-.06.174-.04.337-.087.49-.14l-.18-.68c-.093.033-.197.065-.31.095-.113.03-.216.045-.31.045-.32 0-.54-.09-.66-.27-.12-.18-.18-.44-.18-.78V7.31h1.47v-.74h-1.47V5.05h-.76l-.11 1.52-.85.05v.69h.81v3.01c0 .273.027.522.08.745.054.223.14.413.26.57.12.157.279.278.475.365.197.087.442.13.735.13zm3.753 0c.334 0 .652-.063.956-.19.303-.127.571-.312.805-.555.233-.243.418-.54.555-.89.136-.35.205-.752.205-1.205 0-.453-.069-.857-.206-1.21-.136-.353-.321-.653-.555-.9-.233-.247-.501-.433-.804-.56-.304-.127-.622-.19-.956-.19-.333 0-.651.063-.955.19-.303.127-.571.313-.804.56-.234.247-.419.547-.556.9-.136.353-.204.757-.204 1.21 0 .453.068.855.204 1.205.137.35.322.647.556.89.233.243.501.428.804.555.304.127.622.19.956.19zm0-.76c-.233 0-.446-.05-.64-.15-.193-.1-.358-.24-.495-.42-.136-.18-.243-.398-.32-.655-.076-.257-.114-.542-.114-.855 0-.313.038-.598.114-.855.077-.257.184-.478.32-.665.137-.187.302-.33.495-.43.194-.1.407-.15.64-.15.234 0 .447.05.64.15.194.1.36.243.5.43s.249.408.325.665c.077.257.116.542.116.855 0 .313-.039.598-.115.855-.077.257-.186.475-.326.655-.14.18-.306.32-.5.42-.193.1-.406.15-.64.15zm6.367.63V9.68l1.26-1.5L79.23 12h1.04l-2.65-4.54 2.29-2.79h-1.04l-3.06 3.68h-.03V4.67h-.93V12h.93zm6.273.13c.34 0 .662-.065.965-.195.304-.13.586-.302.846-.515h.03l.08.58h.75V8.66c0-.333-.037-.637-.11-.91-.074-.273-.186-.508-.335-.705-.15-.197-.346-.348-.586-.455-.24-.107-.523-.16-.85-.16-.44 0-.851.067-1.234.2-.384.133-.702.28-.956.44l.36.65c.214-.147.467-.272.76-.375.294-.103.6-.155.92-.155.22 0 .404.038.55.115.147.077.262.178.346.305.083.127.141.273.175.44.033.167.05.337.05.51-1.074.013-1.899.172-2.475.475-.577.303-.865.805-.865 1.505 0 .247.04.468.12.665.08.197.19.363.33.5s.306.242.5.315c.193.073.403.11.63.11zm.26-.73c-.273 0-.5-.075-.68-.225-.18-.15-.27-.382-.27-.695 0-.207.037-.385.11-.535.074-.15.204-.278.39-.385.187-.107.439-.192.756-.255.316-.063.715-.112 1.195-.145v1.61c-.267.233-.517.397-.75.49-.234.093-.484.14-.75.14zm4.184-5.95c.18 0 .33-.055.45-.165.12-.11.18-.252.18-.425 0-.187-.06-.332-.18-.435-.12-.103-.27-.155-.45-.155s-.33.052-.45.155c-.12.103-.18.248-.18.435 0 .173.06.315.18.425.12.11.27.165.45.165zm.45 6.55V6.57h-.91V12h.91zm2.323 0v-1.43l1.02-1.19L91.88 12h.99l-2.06-3.25 1.82-2.18h-1.01l-2.33 2.87h-.02v-5.4h-.9V12h.9zm5.444.13c.34 0 .661-.065.965-.195.303-.13.585-.302.844-.515h.03l.08.58h.75V8.66c0-.333-.036-.637-.11-.91-.073-.273-.184-.508-.335-.705-.15-.197-.344-.348-.584-.455-.24-.107-.524-.16-.85-.16-.44 0-.852.067-1.236.2-.383.133-.701.28-.954.44l.36.65c.213-.147.466-.272.76-.375.293-.103.6-.155.92-.155.22 0 .403.038.55.115.146.077.261.178.344.305.084.127.142.273.175.44.034.167.05.337.05.51-1.073.013-1.898.172-2.474.475-.577.303-.866.805-.866 1.505 0 .247.04.468.12.665.08.197.19.363.33.5s.307.242.5.315c.194.073.404.11.63.11zm.26-.73c-.274 0-.5-.075-.68-.225-.18-.15-.27-.382-.27-.695 0-.207.036-.385.11-.535.073-.15.203-.278.39-.385.186-.107.438-.192.755-.255.316-.063.715-.112 1.194-.145v1.61c-.266.233-.516.397-.75.49-.233.093-.483.14-.75.14zm5.143.73c.32 0 .603-.043.85-.13.247-.087.453-.202.62-.345.166-.143.293-.313.38-.51.087-.197.13-.405.13-.625 0-.26-.05-.477-.15-.65-.1-.173-.228-.322-.385-.445s-.334-.228-.53-.315c-.197-.087-.395-.167-.595-.24l-.445-.175c-.144-.057-.272-.12-.385-.19-.113-.07-.203-.15-.27-.24s-.1-.202-.1-.335c0-.213.08-.397.24-.55.16-.153.41-.23.75-.23.246 0 .468.045.665.135.197.09.391.205.585.345l.44-.59c-.213-.167-.463-.31-.75-.43s-.6-.18-.94-.18c-.293 0-.557.04-.79.12-.234.08-.43.19-.59.33-.16.14-.282.303-.365.49-.084.187-.125.387-.125.6 0 .233.048.432.145.595.096.163.223.307.38.43.156.123.33.228.52.315s.382.163.575.23c.147.06.295.122.445.185.15.063.283.135.4.215.117.08.212.17.285.27.073.1.11.22.11.36 0 .233-.088.433-.265.6-.177.167-.445.25-.805.25-.327 0-.618-.058-.875-.175-.257-.117-.502-.272-.735-.465l-.45.6c.26.213.567.392.92.535.353.143.723.215 1.11.215zm6.597-.13l.76-2.91c.073-.26.138-.518.195-.775l.174-.805h.05c.067.28.127.547.18.8.054.253.117.507.19.76l.79 2.93h1.1l1.46-5.43h-.86l-.8 3.14c-.06.26-.116.515-.17.765-.053.25-.11.502-.17.755h-.04c-.066-.253-.13-.505-.19-.755s-.123-.505-.19-.765l-.85-3.14h-.89l-.84 3.14c-.073.253-.138.507-.194.76-.057.253-.116.507-.175.76h-.05l-.16-.755c-.054-.25-.107-.505-.16-.765l-.81-3.14h-.93l1.51 5.43h1.07zm6.913.13c.34 0 .661-.065.965-.195.303-.13.585-.302.845-.515h.03l.08.58h.75V8.66c0-.333-.037-.637-.11-.91-.074-.273-.185-.508-.335-.705-.15-.197-.345-.348-.585-.455-.24-.107-.523-.16-.85-.16-.44 0-.852.067-1.235.2-.383.133-.702.28-.955.44l.36.65c.213-.147.466-.272.76-.375.293-.103.6-.155.92-.155.22 0 .403.038.55.115.147.077.261.178.345.305.083.127.141.273.175.44.033.167.05.337.05.51-1.073.013-1.898.172-2.475.475-.577.303-.865.805-.865 1.505 0 .247.04.468.12.665.08.197.19.363.33.5s.306.242.5.315c.193.073.403.11.63.11zm.26-.73c-.273 0-.5-.075-.68-.225-.18-.15-.27-.382-.27-.695 0-.207.036-.385.11-.535.073-.15.203-.278.39-.385.186-.107.438-.192.755-.255.316-.063.715-.112 1.195-.145v1.61c-.267.233-.517.397-.75.49-.233.093-.483.14-.75.14zm4.633.6V4.04h-.91V12h.91zm2.313 0V4.04h-.91V12h.91zm3.594.13c.373 0 .706-.055 1-.165.293-.11.56-.242.8-.395l-.33-.6c-.2.133-.41.238-.63.315-.22.077-.464.115-.73.115-.52 0-.942-.17-1.265-.51-.323-.34-.502-.803-.535-1.39h3.66c.013-.067.023-.145.03-.235.007-.09.01-.185.01-.285 0-.387-.049-.737-.145-1.05-.097-.313-.237-.582-.42-.805-.183-.223-.408-.395-.675-.515-.267-.12-.573-.18-.92-.18-.313 0-.618.067-.915.2-.297.133-.559.323-.785.57-.227.247-.408.547-.545.9-.137.353-.205.75-.205 1.19 0 .447.068.847.205 1.2.136.353.322.652.555.895.233.243.508.428.825.555.317.127.655.19 1.015.19zm1.21-3.28h-2.91c.026-.267.087-.505.18-.715.093-.21.21-.387.35-.53.14-.143.298-.253.475-.33.177-.077.362-.115.555-.115.427 0 .758.143.995.43.236.287.355.707.355 1.26zm3.433 3.28c.167 0 .337-.02.51-.06.173-.04.337-.087.49-.14l-.18-.68c-.093.033-.197.065-.31.095-.113.03-.216.045-.31.045-.32 0-.54-.09-.66-.27-.12-.18-.18-.44-.18-.78V7.31h1.47v-.74h-1.47V5.05h-.76l-.11 1.52-.85.05v.69h.81v3.01c0 .273.027.522.08.745.053.223.14.413.26.57.12.157.278.278.475.365.197.087.442.13.735.13z" transform="translate(93 110)"/>
                            <g>
                                <path d="M8.452 7.864l5.477 5.457c1.403-1.477 2.17-3.433 2.142-5.457-.01-2.017-.773-3.96-2.142-5.458L8.452 7.864zM8.036 8.274L2.619 13.615 8.036 15.845 13.452 13.615zM7.857 7.688L13.452 2.113 8.274 0 3.155 12.382zM0 7.864c0 2.001.765 3.93 2.143 5.399L7.56.353 0 7.862z" transform="translate(93 110) translate(0 .913)"/>
                            </g>
                        </g>
                    </g>
                    <g>
                        <g transform="translate(-776 -1204) translate(200 1144) translate(580 60) translate(0 155.59)">
                            <use fill="#000" filter="url(#4wimswrzda)" xlink:href="#zo5pac3jjb"/>
                            <rect width="379" height="53.325" x=".5" y=".5" fill="#FEE500" stroke="#000" stroke-linejoin="square" stroke-opacity=".04" rx="1"/>
                        </g>
                        <g>
                            <path fill="#000" fill-rule="nonzero" d="M51.476 15.363c.576 0 1.082-.108 1.518-.324.436-.216.83-.528 1.182-.936l-.612-.696c-.28.304-.584.544-.912.72-.328.176-.704.264-1.128.264-.424 0-.804-.084-1.14-.252-.336-.168-.622-.408-.858-.72s-.418-.692-.546-1.14c-.128-.448-.192-.948-.192-1.5s.066-1.048.198-1.488c.132-.44.32-.814.564-1.122.244-.308.536-.544.876-.708.34-.164.718-.246 1.134-.246.384 0 .722.078 1.014.234.292.156.554.358.786.606l.6-.72c-.128-.144-.274-.28-.438-.408-.164-.128-.348-.244-.552-.348-.204-.104-.426-.186-.666-.246-.24-.06-.492-.09-.756-.09-.56 0-1.078.104-1.554.312-.476.208-.888.51-1.236.906s-.62.876-.816 1.44c-.196.564-.294 1.202-.294 1.914s.096 1.35.288 1.914c.192.564.46 1.042.804 1.434.344.392.75.69 1.218.894.468.204.974.306 1.518.306zm6.268 0c.4 0 .782-.076 1.146-.228.364-.152.686-.374.966-.666.28-.292.502-.648.666-1.068.164-.42.246-.902.246-1.446 0-.544-.082-1.028-.246-1.452-.164-.424-.386-.784-.666-1.08-.28-.296-.602-.52-.966-.672-.364-.152-.746-.228-1.146-.228-.4 0-.782.076-1.146.228-.364.152-.686.376-.966.672-.28.296-.502.656-.666 1.08-.164.424-.246.908-.246 1.452 0 .544.082 1.026.246 1.446.164.42.386.776.666 1.068.28.292.602.514.966.666.364.152.746.228 1.146.228zm0-.912c-.28 0-.536-.06-.768-.18-.232-.12-.43-.288-.594-.504-.164-.216-.292-.478-.384-.786-.092-.308-.138-.65-.138-1.026s.046-.718.138-1.026c.092-.308.22-.574.384-.798.164-.224.362-.396.594-.516.232-.12.488-.18.768-.18s.536.06.768.18c.232.12.432.292.6.516.168.224.298.49.39.798.092.308.138.65.138 1.026s-.046.718-.138 1.026c-.092.308-.222.57-.39.786-.168.216-.368.384-.6.504-.232.12-.488.18-.768.18zm5.332.756v-4.728c.328-.328.624-.576.888-.744.264-.168.564-.252.9-.252.432 0 .746.136.942.408.196.272.294.716.294 1.332v3.984h1.092v-4.128c0-.84-.16-1.476-.48-1.908-.32-.432-.824-.648-1.512-.648-.448 0-.846.108-1.194.324-.348.216-.678.476-.99.78h-.036l-.096-.936h-.9v6.516h1.092zm6.832 0v-4.728c.328-.328.624-.576.888-.744.264-.168.564-.252.9-.252.432 0 .746.136.942.408.196.272.294.716.294 1.332v3.984h1.092v-4.128c0-.84-.16-1.476-.48-1.908-.32-.432-.824-.648-1.512-.648-.448 0-.846.108-1.194.324-.348.216-.678.476-.99.78h-.036l-.096-.936h-.9v6.516h1.092zm8.368.156c.448 0 .848-.066 1.2-.198s.672-.29.96-.474l-.396-.72c-.24.16-.492.286-.756.378-.264.092-.556.138-.876.138-.624 0-1.13-.204-1.518-.612-.388-.408-.602-.964-.642-1.668h4.392c.016-.08.028-.174.036-.282.008-.108.012-.222.012-.342 0-.464-.058-.884-.174-1.26-.116-.376-.284-.698-.504-.966-.22-.268-.49-.474-.81-.618-.32-.144-.688-.216-1.104-.216-.376 0-.742.08-1.098.24-.356.16-.67.388-.942.684-.272.296-.49.656-.654 1.08-.164.424-.246.9-.246 1.428 0 .536.082 1.016.246 1.44.164.424.386.782.666 1.074.28.292.61.514.99.666.38.152.786.228 1.218.228zm1.452-3.936h-3.492c.032-.32.104-.606.216-.858s.252-.464.42-.636c.168-.172.358-.304.57-.396.212-.092.434-.138.666-.138.512 0 .91.172 1.194.516.284.344.426.848.426 1.512zm4.636 3.936c.392 0 .768-.072 1.128-.216.36-.144.684-.348.972-.612l-.468-.732c-.208.184-.44.338-.696.462-.256.124-.536.186-.84.186-.304 0-.578-.06-.822-.18s-.456-.288-.636-.504c-.18-.216-.318-.478-.414-.786-.096-.308-.144-.65-.144-1.026s.052-.718.156-1.026c.104-.308.246-.574.426-.798.18-.224.394-.396.642-.516s.52-.18.816-.18c.264 0 .5.054.708.162.208.108.408.25.6.426l.564-.732c-.232-.208-.5-.388-.804-.54-.304-.152-.672-.228-1.104-.228-.416 0-.814.076-1.194.228-.38.152-.714.376-1.002.672-.288.296-.518.656-.69 1.08-.172.424-.258.908-.258 1.452 0 .544.078 1.026.234 1.446.156.42.372.776.648 1.068.276.292.6.514.972.666.372.152.774.228 1.206.228zm5.092 0c.2 0 .404-.024.612-.072.208-.048.404-.104.588-.168l-.216-.816c-.112.04-.236.078-.372.114-.136.036-.26.054-.372.054-.384 0-.648-.108-.792-.324-.144-.216-.216-.528-.216-.936V9.579h1.764V8.69h-1.764V6.867h-.912l-.132 1.824-1.02.06v.828h.972v3.612c0 .328.032.626.096.894s.168.496.312.684c.144.188.334.334.57.438.236.104.53.156.882.156zm6.212 0c.2 0 .404-.024.612-.072.208-.048.404-.104.588-.168l-.216-.816c-.112.04-.236.078-.372.114-.136.036-.26.054-.372.054-.384 0-.648-.108-.792-.324-.144-.216-.216-.528-.216-.936V9.579h1.764V8.69H94.9V6.867h-.912l-.132 1.824-1.02.06v.828h.972v3.612c0 .328.032.626.096.894s.168.496.312.684c.144.188.334.334.57.438.236.104.53.156.882.156zm4.504 0c.4 0 .782-.076 1.146-.228.364-.152.686-.374.966-.666.28-.292.502-.648.666-1.068.164-.42.246-.902.246-1.446 0-.544-.082-1.028-.246-1.452-.164-.424-.386-.784-.666-1.08-.28-.296-.602-.52-.966-.672-.364-.152-.746-.228-1.146-.228-.4 0-.782.076-1.146.228-.364.152-.686.376-.966.672-.28.296-.502.656-.666 1.08-.164.424-.246.908-.246 1.452 0 .544.082 1.026.246 1.446.164.42.386.776.666 1.068.28.292.602.514.966.666.364.152.746.228 1.146.228zm0-.912c-.28 0-.536-.06-.768-.18-.232-.12-.43-.288-.594-.504-.164-.216-.292-.478-.384-.786-.092-.308-.138-.65-.138-1.026s.046-.718.138-1.026c.092-.308.22-.574.384-.798.164-.224.362-.396.594-.516.232-.12.488-.18.768-.18s.536.06.768.18c.232.12.432.292.6.516.168.224.298.49.39.798.092.308.138.65.138 1.026s-.046.718-.138 1.026c-.092.308-.222.57-.39.786-.168.216-.368.384-.6.504-.232.12-.488.18-.768.18zm7.64.756v-2.784l1.512-1.8 2.628 4.584h1.248l-3.18-5.448 2.748-3.348h-1.248l-3.672 4.416h-.036V6.41h-1.116v8.796h1.116zm7.528.156c.408 0 .794-.078 1.158-.234.364-.156.702-.362 1.014-.618h.036l.096.696h.9v-4.008c0-.4-.044-.764-.132-1.092-.088-.328-.222-.61-.402-.846-.18-.236-.414-.418-.702-.546-.288-.128-.628-.192-1.02-.192-.528 0-1.022.08-1.482.24-.46.16-.842.336-1.146.528l.432.78c.256-.176.56-.326.912-.45s.72-.186 1.104-.186c.264 0 .484.046.66.138.176.092.314.214.414.366.1.152.17.328.21.528.04.2.06.404.06.612-1.288.016-2.278.206-2.97.57-.692.364-1.038.966-1.038 1.806 0 .296.048.562.144.798.096.236.228.436.396.6.168.164.368.29.6.378.232.088.484.132.756.132zm.312-.876c-.328 0-.6-.09-.816-.27-.216-.18-.324-.458-.324-.834 0-.248.044-.462.132-.642.088-.18.244-.334.468-.462.224-.128.526-.23.906-.306.38-.076.858-.134 1.434-.174v1.932c-.32.28-.62.476-.9.588-.28.112-.58.168-.9.168zm5.548.72V13.49l1.224-1.428 1.908 3.144h1.188l-2.472-3.9 2.184-2.616h-1.212l-2.796 3.444h-.024v-6.48h-1.08v9.552h1.08zm6.532.156c.408 0 .794-.078 1.158-.234.364-.156.702-.362 1.014-.618h.036l.096.696h.9v-4.008c0-.4-.044-.764-.132-1.092-.088-.328-.222-.61-.402-.846-.18-.236-.414-.418-.702-.546-.288-.128-.628-.192-1.02-.192-.528 0-1.022.08-1.482.24-.46.16-.842.336-1.146.528l.432.78c.256-.176.56-.326.912-.45s.72-.186 1.104-.186c.264 0 .484.046.66.138.176.092.314.214.414.366.1.152.17.328.21.528.04.2.06.404.06.612-1.288.016-2.278.206-2.97.57-.692.364-1.038.966-1.038 1.806 0 .296.048.562.144.798.096.236.228.436.396.6.168.164.368.29.6.378.232.088.484.132.756.132zm.312-.876c-.328 0-.6-.09-.816-.27-.216-.18-.324-.458-.324-.834 0-.248.044-.462.132-.642.088-.18.244-.334.468-.462.224-.128.526-.23.906-.306.38-.076.858-.134 1.434-.174v1.932c-.32.28-.62.476-.9.588-.28.112-.58.168-.9.168zm7 .876c.4 0 .782-.076 1.146-.228.364-.152.686-.374.966-.666.28-.292.502-.648.666-1.068.164-.42.246-.902.246-1.446 0-.544-.082-1.028-.246-1.452-.164-.424-.386-.784-.666-1.08-.28-.296-.602-.52-.966-.672-.364-.152-.746-.228-1.146-.228-.4 0-.782.076-1.146.228-.364.152-.686.376-.966.672-.28.296-.502.656-.666 1.08-.164.424-.246.908-.246 1.452 0 .544.082 1.026.246 1.446.164.42.386.776.666 1.068.28.292.602.514.966.666.364.152.746.228 1.146.228zm0-.912c-.28 0-.536-.06-.768-.18-.232-.12-.43-.288-.594-.504-.164-.216-.292-.478-.384-.786-.092-.308-.138-.65-.138-1.026s.046-.718.138-1.026c.092-.308.22-.574.384-.798.164-.224.362-.396.594-.516.232-.12.488-.18.768-.18s.536.06.768.18c.232.12.432.292.6.516.168.224.298.49.39.798.092.308.138.65.138 1.026s-.046.718-.138 1.026c-.092.308-.222.57-.39.786-.168.216-.368.384-.6.504-.232.12-.488.18-.768.18zm7.64.756v-2.784l1.512-1.8 2.628 4.584h1.248l-3.18-5.448 2.748-3.348h-1.248l-3.672 4.416h-.036V6.41h-1.116v8.796h1.116zm7.132 0V5.655h-1.092v9.552h1.092zm2.236-7.86c.216 0 .396-.066.54-.198.144-.132.216-.302.216-.51 0-.224-.072-.398-.216-.522-.144-.124-.324-.186-.54-.186-.216 0-.396.062-.54.186-.144.124-.216.298-.216.522 0 .208.072.378.216.51.144.132.324.198.54.198zm.54 7.86V8.69H151.5v6.516h1.092zm2.8 2.748v-2.208l-.024-1.14c.296.24.596.426.9.558.304.132.604.198.9.198.376 0 .734-.078 1.074-.234.34-.156.64-.384.9-.684.26-.3.468-.668.624-1.104.156-.436.234-.934.234-1.494 0-.504-.056-.96-.168-1.368-.112-.408-.278-.756-.498-1.044-.22-.288-.492-.512-.816-.672-.324-.16-.694-.24-1.11-.24-.384 0-.752.092-1.104.276-.352.184-.676.396-.972.636h-.036l-.096-.744h-.9v9.264h1.092zm1.596-3.504c-.216 0-.462-.05-.738-.15-.276-.1-.562-.278-.858-.534v-3.42c.32-.296.622-.52.906-.672.284-.152.566-.228.846-.228.312 0 .576.058.792.174.216.116.392.28.528.492.136.212.236.466.3.762s.096.624.096.984c0 .408-.046.772-.138 1.092-.092.32-.222.59-.39.81-.168.22-.366.39-.594.51-.228.12-.478.18-.75.18z" transform="translate(-776 -1204) translate(200 1144) translate(580 60) translate(0 155.59) translate(110 17)"/>
                            <path fill="#171B1D" d="M36.761 5.026l-.046-.225C36.224 2.447 34.214 1 31.438 1H6.472C3.696 1 1.667 2.464 1.176 4.819l-.047.225C1.041 5.556.998 6.067 1 6.69v6.59c.004.82.087 1.405.088 1.41l.003.025c.327 2.71 2.339 4.329 5.381 4.329H24.52c.158 0 .286-.128.286-.285V8.086v-.002c0-.158-.128-.285-.286-.285h-.001H23.477c-.157 0-.284.127-.284.284v9.355H6.875c-2.702 0-4.253-1.65-4.255-4.1l.001-6.663c0-2.472 1.55-4.065 4.254-4.065H31.037c2.703 0 4.235 1.577 4.235 4.049l.002 6.662c-.002 2.45-1.537 4.109-4.239 4.108l-.553.008-.66.004h-.31c-.157 0-.284.128-.284.285V18.754l-.001.002c0 .157.128.285.285.285h.207l.517-.001.293-.003h.91c3.042 0 5.033-1.627 5.36-4.337l.004-.025c0-.006.084-.59.087-1.41v-6.59c.003-.624-.041-1.135-.129-1.649" transform="translate(-776 -1204) translate(200 1144) translate(580 60) translate(0 155.59) translate(110 17) rotate(1 18.945 10.022)"/>
                            <path fill="#171B1D" d="M15.938 12.64c0 1.08.674 1.814 1.681 1.814h.45c.158 0 .288-.129.288-.288v-.902-.001c0-.074-.028-.147-.084-.203-.056-.056-.13-.084-.203-.083h-.519V5.764v-.002c0-.158-.128-.285-.285-.285h-.001-1.041-.001c-.158 0-.285.127-.285.285v6.877" transform="translate(-776 -1204) translate(200 1144) translate(580 60) translate(0 155.59) translate(110 17) rotate(1 17.147 9.966)"/>
                            <path fill="#171B1D" d="M19.54 8.7v4.011c0 1.08.677 1.806 1.684 1.806h.436c.158 0 .285-.129.285-.286v-.904-.003c0-.037-.008-.074-.022-.11-.014-.033-.034-.065-.061-.092-.056-.056-.13-.083-.203-.083h-.506V8.702 8.7c0-.157-.128-.285-.285-.285h-1.041-.002c-.157 0-.285.127-.285.285" transform="translate(-776 -1204) translate(200 1144) translate(580 60) translate(0 155.59) translate(110 17) rotate(1 20.743 11.466)"/>
                            <path fill="#171B1D" d="M19.915 7.116h1.042c.118 0 .22-.072.262-.173.015-.035.023-.072.023-.112V5.82c0-.04-.008-.077-.022-.111-.043-.102-.145-.174-.263-.174h-1.04-.002c-.157 0-.285.126-.285.282v1.015c0 .034.008.066.02.097.039.109.141.188.265.188" transform="translate(-776 -1204) translate(200 1144) translate(580 60) translate(0 155.59) translate(110 17) rotate(1 20.436 6.325)"/>
                            <path fill="#171B1D" d="M14.702 5.794c.006-.012.009-.023.013-.035.005-.02.01-.039.011-.058.001-.01-.003-.08-.007-.094-.008-.034-.023-.063-.04-.093-.006-.01-.011-.02-.019-.028-.012-.013-.025-.024-.04-.036-.012-.01-.024-.018-.038-.025-.013-.008-.026-.015-.041-.02-.027-.01-.097-.02-.098-.02h-1.189v.001h-.001c-.01 0-.031.001-.04.003-.029.006-.044.008-.069.019-.035.015-.067.036-.093.062L9.394 8.616c-.404.402-.44 1.041-.084 1.486l3.708 4.135c.005.007.012.011.017.017l.013.013c.023.021.049.04.078.052l.016.006c.03.012.064.02.098.02H14.46l.008-.002c.03 0 .06-.007.087-.017l.034-.015c.018-.01.035-.022.051-.035.01-.007.02-.014.027-.023.02-.021.037-.045.05-.071l.001-.004.01-.029c.008-.024.013-.049.014-.074l.001-.027c-.002-.06-.021-.121-.06-.17l-3.943-4.52 3.906-3.48c.025-.025.042-.054.056-.084" transform="translate(-776 -1204) translate(200 1144) translate(580 60) translate(0 155.59) translate(110 17) rotate(1 11.904 9.865)"/>
                            <path fill="#171B1D" d="M8.28 5.585c0-.158-.127-.285-.285-.285H6.955h-.003c-.035 0-.068.008-.099.02-.01.003-.018.008-.026.013-.022.01-.042.024-.06.04-.007.006-.015.012-.022.02-.02.022-.038.047-.051.076l-.003.005v.001c-.015.034-.023.072-.023.112v8.393c0 .04.008.078.023.112.043.103.144.176.262.176H7.995c.158 0 .285-.128.285-.286V5.587v-.002" transform="translate(-776 -1204) translate(200 1144) translate(580 60) translate(0 155.59) translate(110 17) rotate(1 7.474 9.784)"/>
                            <path fill="#171B1D" d="M31.137 11.787l.012-.053.01-.056c.125-.733.024-1.462.02-1.486-.166-1.373-1.211-2.227-2.728-2.227h-2.589c-.08 0-.151.032-.203.084-.052.052-.084.124-.084.204v1.023c0 .04.008.078.023.113.029.068.083.123.152.152.034.014.072.023.112.023h2.415c.959 0 1.445.435 1.446 1.274v.029c0 .858-.487 1.293-1.446 1.293h-2.415c-.014 0-.026.006-.04.008-.024.003-.048.005-.07.014-.03.012-.055.031-.08.053-.004.003-.009.005-.013.009-.004.004-.006.01-.01.015-.02.023-.04.049-.052.078-.009.02-.01.043-.013.064-.003.016-.01.03-.01.046v1.024l.001.001v.001c0 .158.128.285.285.285h2.624c1.403 0 2.4-.76 2.653-1.971" transform="translate(-776 -1204) translate(200 1144) translate(580 60) translate(0 155.59) translate(110 17) rotate(1 28.398 10.862)"/>
                        </g>
                    </g>
                    <path fill="url(#1j47xlj8wc)" d="M0 209.15L380 209.15 364.167 236.313 15.833 236.313z" transform="translate(-776 -1204) translate(200 1144) translate(580 60)"/>
                </g>
            </g>
        </g>
    </g>
</svg>
