<svg xmlns="http://www.w3.org/2000/svg" xmlns:xlink="http://www.w3.org/1999/xlink" width="358" height="260" viewBox="0 0 358 260">
    <defs>
        <filter id="nus4oc81lc" width="104.7%" height="111.7%" x="-2.3%" y="-4.2%" filterUnits="objectBoundingBox">
            <feOffset dy="2" in="SourceAlpha" result="shadowOffsetOuter1"/>
            <feGaussianBlur in="shadowOffsetOuter1" result="shadowBlurOuter1" stdDeviation="2"/>
            <feComposite in="shadowBlurOuter1" in2="SourceAlpha" operator="out" result="shadowBlurOuter1"/>
            <feColorMatrix in="shadowBlurOuter1" values="0 0 0 0 0 0 0 0 0 0 0 0 0 0 0 0 0 0 0.05 0"/>
        </filter>
        <filter id="vu32oazs8e" width="217%" height="217%" x="-58.5%" y="-41.8%" filterUnits="objectBoundingBox">
            <feOffset dy="2" in="SourceAlpha" result="shadowOffsetOuter1"/>
            <feGaussianBlur in="shadowOffsetOuter1" result="shadowBlurOuter1" stdDeviation="2"/>
            <feColorMatrix in="shadowBlurOuter1" values="0 0 0 0 0 0 0 0 0 0 0 0 0 0 0 0 0 0 0.1 0"/>
        </filter>
        <linearGradient id="wmazgrhmua" x1="50%" x2="50%" y1="17.092%" y2="100%">
            <stop offset="0%" stop-opacity=".1"/>
            <stop offset="100%" stop-color="#FFF" stop-opacity=".1"/>
        </linearGradient>
        <circle id="29uf6dpxof" cx="210.983" cy="47.983" r="5.983"/>
        <path id="kvshapi49b" d="M228.474 0c0 2.065 1.674 3.74 3.739 3.74s3.74-1.675 3.74-3.74h63.194v119.659h-63.195c0-2.065-1.674-3.74-3.739-3.74s-3.74 1.675-3.74 3.74H0V0h228.474z"/>
    </defs>
    <g fill="none" fill-rule="evenodd">
        <g>
            <g>
                <g transform="translate(-804 -1884) translate(200 1824) translate(604 60)">
                    <rect width="356.647" height="268.353" x=".5" y=".5" fill="#FFF" stroke="#DEE3EB" rx="2"/>
                    <g>
                        <path fill="#FF9632" d="M0 108H357.647V112.471H0z" transform="translate(0 29)"/>
                        <g>
                            <path fill="url(#wmazgrhmua)" d="M0.294 159.035L0.294 155.123 299.994 155.123 300.294 159.035 287.794 174.794 12.794 174.794z" transform="translate(0 29) translate(29)"/>
                            <g transform="translate(0 29) translate(29) translate(32.43 5.653)">
                                <rect width="17.094" height="17.094" x="-.5" y="-.5" fill="#FFF" stroke="#EBEEF2" rx="8.547"/>
                                <g fill="#6F6558" fill-rule="nonzero">
                                    <path d="M5 4.719l3.24 3.275c.83-.887 1.285-2.06 1.268-3.275-.006-1.21-.457-2.376-1.268-3.275L5 4.719zM4.754 4.965L1.549 8.17 4.754 9.508 7.958 8.17zM4.648 4.613L7.958 1.268 4.895 0 1.866 7.43zM0 4.719c0 1.2.452 2.358 1.268 3.24L4.472.21 0 4.72z" transform="translate(3.219 3.219)"/>
                                </g>
                            </g>
                            <path fill="#333" fill-rule="nonzero" d="M57.71 16.338l.79-1.64c.093-.193.183-.388.27-.585.087-.197.177-.408.27-.635h.04c.113.227.215.438.305.635s.182.392.275.585l.83 1.64h1.64l-2.08-3.75L62 8.938h-1.56l-.7 1.52c-.08.173-.158.353-.235.54-.077.187-.162.397-.255.63h-.05c-.113-.233-.212-.443-.295-.63-.083-.187-.168-.367-.255-.54l-.74-1.52h-1.64l1.95 3.58-2.08 3.82h1.57zm6.533 0v-2.8h1.03l1.52 2.8h1.65l-1.73-3.03c.427-.167.769-.423 1.025-.77.257-.347.385-.8.385-1.36 0-.427-.071-.783-.215-1.07-.143-.287-.34-.517-.59-.69-.25-.173-.545-.297-.885-.37-.34-.073-.703-.11-1.09-.11h-2.58v7.4h1.48zm.96-3.97h-.96v-2.26h.96c.48 0 .845.078 1.095.235.25.157.375.435.375.835 0 .4-.125.698-.375.895-.25.197-.615.295-1.095.295zm5.444 3.97v-2.63h.99c.4 0 .773-.048 1.12-.145.346-.097.648-.245.905-.445.256-.2.46-.455.61-.765.15-.31.225-.675.225-1.095 0-.44-.075-.808-.225-1.105-.15-.297-.355-.535-.615-.715-.26-.18-.567-.308-.92-.385-.354-.077-.734-.115-1.14-.115h-2.43v7.4h1.48zm.89-3.8h-.89v-2.43h.84c.513 0 .901.083 1.165.25.263.167.395.467.395.9 0 .853-.504 1.28-1.51 1.28zM78 15.248v-2.13h2.02v-1.04H78v-2.13h-1.09v2.13h-2.02v1.04h2.02v2.13H78zm4.373 1.09v-2.08l.97-1.24 1.91 3.32h1.63l-2.66-4.49 2.26-2.91h-1.63l-2.45 3.21h-.03v-3.21h-1.48v7.4h1.48zm9.444 0v-1.24h-3v-6.16h-1.48v7.4h4.48zm1.423 0l.52-1.9h2.4l.52 1.9h1.55l-2.38-7.4h-1.74l-2.37 7.4h1.5zm2.6-3.05h-1.76l.22-.81c.113-.387.223-.785.33-1.195.107-.41.207-.818.3-1.225h.04c.113.4.222.807.325 1.22.103.413.212.813.325 1.2l.22.81zm5.383 3.05v-2.71l2.23-4.69h-1.54l-.74 1.8c-.106.28-.215.552-.325.815-.11.263-.221.538-.335.825h-.04l-.325-.825c-.103-.263-.208-.535-.315-.815l-.74-1.8h-1.57l2.22 4.69v2.71h1.48z" transform="translate(0 29) translate(29)"/>
                            <path fill="#666" fill-rule="nonzero" d="M276.772 3.613V2.37h.528l.712 1.244h.42l-.752-1.284c.2-.048.36-.14.482-.276.121-.136.182-.319.182-.548 0-.152-.025-.28-.076-.386-.05-.105-.121-.19-.212-.256-.09-.065-.199-.112-.324-.14-.125-.028-.263-.042-.412-.042h-.92v2.932h.372zm.492-1.544h-.492V.981h.492c.232 0 .409.039.53.116.121.077.182.213.182.408 0 .192-.06.334-.182.426-.121.092-.298.138-.53.138zm1.973 1.596c.136 0 .265-.026.386-.078.122-.052.234-.12.338-.206h.012l.032.232h.3V2.277c0-.133-.014-.255-.044-.364-.029-.11-.074-.203-.134-.282-.06-.079-.138-.14-.234-.182-.096-.043-.209-.064-.34-.064-.176 0-.34.027-.494.08-.153.053-.28.112-.382.176l.144.26c.086-.059.187-.109.304-.15.118-.041.24-.062.368-.062.088 0 .162.015.22.046.059.03.105.071.138.122.034.05.057.11.07.176.014.067.02.135.02.204-.429.005-.759.069-.99.19-.23.121-.346.322-.346.602 0 .099.016.187.048.266.032.079.076.145.132.2.056.055.123.097.2.126.078.03.162.044.252.044zm.104-.292c-.109 0-.2-.03-.272-.09-.072-.06-.108-.153-.108-.278 0-.083.015-.154.044-.214.03-.06.082-.111.156-.154.075-.043.176-.077.302-.102.127-.025.286-.045.478-.058v.644c-.106.093-.206.159-.3.196-.093.037-.193.056-.3.056zm2.174.292c.066 0 .134-.008.204-.024.069-.016.134-.035.196-.056l-.072-.272c-.038.013-.079.026-.124.038-.046.012-.087.018-.124.018-.128 0-.216-.036-.264-.108-.048-.072-.072-.176-.072-.312V1.737h.588v-.296h-.588V.833h-.304l-.044.608-.34.02v.276h.324v1.204c0 .11.01.209.032.298.021.09.056.165.104.228.048.063.111.111.19.146.078.035.176.052.294.052zm1.533 0c.15 0 .283-.022.4-.066.117-.044.224-.097.32-.158l-.132-.24c-.08.053-.164.095-.252.126-.088.03-.185.046-.292.046-.208 0-.377-.068-.506-.204-.13-.136-.2-.321-.214-.556h1.464c.005-.027.01-.058.012-.094.003-.036.004-.074.004-.114 0-.155-.02-.295-.058-.42-.039-.125-.095-.233-.168-.322-.073-.09-.163-.158-.27-.206-.107-.048-.23-.072-.368-.072-.125 0-.247.027-.366.08-.119.053-.223.13-.314.228-.09.099-.163.219-.218.36-.055.141-.082.3-.082.476 0 .179.027.339.082.48.055.141.129.26.222.358.093.097.203.171.33.222.127.05.262.076.406.076zm.484-1.312h-1.164c.01-.107.035-.202.072-.286.037-.084.084-.155.14-.212.056-.057.12-.101.19-.132.07-.03.145-.046.222-.046.17 0 .303.057.398.172.095.115.142.283.142.504z" transform="translate(0 29) translate(29)"/>
                            <g transform="translate(0 29) translate(29) translate(16.335 5.653)">
                                <circle cx="8.047" cy="8.047" r="8.047" fill="#23292F"/>
                                <g fill="#FFF" fill-rule="nonzero">
                                    <path d="M6.868 0h1.163l-2.42 2.46c-.877.89-2.298.89-3.175 0L.015 0h1.164l1.839 1.869c.557.564 1.453.564 2.01 0L6.868 0zM1.164 6.84H0l2.436-2.475c.877-.89 2.298-.89 3.175 0L8.047 6.84H6.884L5.029 4.956c-.557-.564-1.452-.564-2.01 0L1.164 6.84z" transform="translate(4.024 5.03)"/>
                                </g>
                            </g>
                            <path fill="#E66D16" fill-rule="nonzero" d="M263.05 18.846v-1.191h-1.384V10.82H260.4l-2.318 1.996.848.965 1.309-1.19-.043.697v4.367h-1.566v1.19h4.42zm3.809.15c.43 0 .826-.082 1.191-.247.365-.164.681-.417.95-.756.268-.34.477-.77.627-1.288.15-.518.226-1.132.226-1.84 0-.715-.076-1.332-.226-1.85-.15-.52-.36-.949-.627-1.288-.269-.34-.585-.592-.95-.757-.365-.164-.762-.246-1.191-.246-.422 0-.812.082-1.17.246-.357.165-.67.417-.938.757-.269.34-.478.769-.628 1.287-.15.519-.225 1.136-.225 1.851 0 .708.075 1.322.225 1.84.15.519.36.948.628 1.288.268.34.58.592.939.756.357.165.747.247 1.169.247zm0-1.245c-.186 0-.367-.043-.542-.128-.175-.086-.33-.24-.467-.462-.135-.222-.245-.517-.327-.885-.082-.368-.123-.839-.123-1.41 0-.573.04-1.047.123-1.423.082-.375.192-.672.327-.89.136-.218.292-.372.467-.461.175-.09.356-.135.542-.135.193 0 .38.045.563.135.183.089.342.243.478.46.136.22.245.516.327.891.082.376.123.85.123 1.422s-.04 1.043-.123 1.411c-.082.368-.191.663-.327.885-.136.222-.295.376-.478.462-.182.085-.37.128-.563.128zm6.395 1.245c.429 0 .826-.082 1.19-.247.366-.164.682-.417.95-.756.268-.34.478-.77.628-1.288.15-.518.225-1.132.225-1.84 0-.715-.075-1.332-.225-1.85-.15-.52-.36-.949-.628-1.288-.268-.34-.584-.592-.95-.757-.364-.164-.761-.246-1.19-.246-.422 0-.812.082-1.17.246-.357.165-.67.417-.939.757-.268.34-.477.769-.627 1.287-.15.519-.226 1.136-.226 1.851 0 .708.076 1.322.226 1.84.15.519.36.948.627 1.288.269.34.582.592.94.756.357.165.747.247 1.169.247zm0-1.245c-.186 0-.367-.043-.542-.128-.175-.086-.33-.24-.467-.462-.136-.222-.245-.517-.327-.885-.082-.368-.123-.839-.123-1.41 0-.573.04-1.047.123-1.423.082-.375.191-.672.327-.89.136-.218.292-.372.467-.461.175-.09.356-.135.542-.135.193 0 .38.045.563.135.182.089.342.243.477.46.136.22.245.516.328.891.082.376.123.85.123 1.422s-.041 1.043-.123 1.411c-.083.368-.192.663-.328.885-.135.222-.295.376-.477.462-.182.085-.37.128-.563.128zm6.095-.937c.345 0 .62-.125.825-.376.206-.25.309-.626.309-1.126 0-.501-.103-.873-.309-1.117-.205-.243-.48-.365-.825-.365-.34 0-.611.122-.814.365-.204.244-.305.616-.305 1.117 0 .5.101.876.305 1.126.203.25.475.376.814.376zm.624 2.112l2.71-5.096h-.53l-2.716 5.096h.536zm-.624-2.528c-.183 0-.333-.085-.449-.255-.116-.17-.174-.447-.174-.831 0-.38.058-.653.174-.818.116-.166.266-.249.45-.249.187 0 .34.082.455.245.117.163.175.437.175.822 0 .384-.058.661-.175.831-.116.17-.268.255-.456.255zm3.407 2.515c.34 0 .612-.124.818-.372.206-.249.309-.623.309-1.124 0-.5-.103-.873-.309-1.116-.206-.244-.478-.366-.818-.366-.34 0-.614.122-.821.366-.208.243-.312.616-.312 1.116 0 .501.104.875.312 1.124.207.248.481.372.821.372zm0-.416c-.188 0-.34-.084-.456-.251-.116-.168-.174-.444-.174-.829 0-.384.058-.66.174-.824.116-.166.268-.249.456-.249s.339.083.453.249c.114.165.17.44.17.824 0 .385-.056.66-.17.829-.114.167-.265.251-.453.251z" transform="translate(0 29) translate(29)"/>
                            <g>
                                <g transform="translate(0 29) translate(29) translate(0 50)">
                                    <mask id="a20cnluyfd" fill="#fff">
                                        <use xlink:href="#kvshapi49b"/>
                                    </mask>
                                    <g>
                                        <use fill="#000" filter="url(#nus4oc81lc)" xlink:href="#kvshapi49b"/>
                                        <path fill="#FFF" stroke="#DEE3EB" stroke-linejoin="square" d="M228.003.5H.5v118.659h227.503c.114-.971.556-1.841 1.212-2.498.767-.767 1.827-1.241 2.998-1.241 1.17 0 2.23.474 2.998 1.241.656.657 1.098 1.527 1.212 2.498h62.224V.5h-62.224c-.114.97-.556 1.841-1.212 2.498-.768.767-1.827 1.241-2.998 1.241-1.17 0-2.23-.474-2.998-1.241-.656-.657-1.098-1.527-1.212-2.498z"/>
                                    </g>
                                    <path fill="#B39C7D" d="M231.839 0H299.147V119.659H231.839z" mask="url(#a20cnluyfd)"/>
                                    <path fill="#333" fill-rule="nonzero" d="M19.678 51.603v-.664h-1.292v-5.95h-.656l-1.768 1.525.44.53 1.194-1.068c-.006.066-.01.142-.01.229v4.734h-1.462v.664h3.554zm3.32.126c.341 0 .659-.068.952-.202.293-.135.547-.343.763-.624.215-.281.385-.634.511-1.06.126-.424.189-.93.189-1.516s-.063-1.093-.189-1.52c-.126-.429-.296-.783-.511-1.064-.216-.282-.47-.49-.763-.624-.293-.135-.61-.202-.952-.202-.34 0-.658.067-.95.202-.294.134-.55.342-.768.624-.219.28-.39.635-.512 1.063-.122.428-.184.935-.184 1.521 0 .587.062 1.092.184 1.517.123.425.293.778.512 1.059.218.281.474.489.767.624.293.134.61.202.951.202zm0-.665c-.209 0-.41-.046-.6-.139-.192-.092-.36-.246-.503-.462-.144-.215-.26-.498-.346-.848-.087-.35-.13-.78-.13-1.288 0-.514.043-.947.13-1.297.087-.35.202-.63.346-.843.143-.213.31-.365.502-.458.192-.093.392-.139.601-.139.21 0 .41.046.602.14.191.092.36.244.507.457.146.212.263.493.35.843.087.35.13.783.13 1.297 0 .509-.043.938-.13 1.288-.087.35-.204.633-.35.848-.147.216-.316.37-.507.462-.192.093-.392.14-.602.14zm5.35.665c.34 0 .657-.068.95-.202.294-.135.548-.343.763-.624.216-.281.386-.634.512-1.06.125-.424.188-.93.188-1.516s-.063-1.093-.188-1.52c-.126-.429-.296-.783-.512-1.064-.215-.282-.47-.49-.763-.624-.293-.135-.61-.202-.95-.202-.342 0-.659.067-.952.202-.293.134-.549.342-.767.624-.219.28-.39.635-.512 1.063-.123.428-.184.935-.184 1.521 0 .587.061 1.092.184 1.517.123.425.293.778.512 1.059.218.281.474.489.767.624.293.134.61.202.951.202zm0-.665c-.21 0-.41-.046-.602-.139-.192-.092-.36-.246-.503-.462-.143-.215-.258-.498-.345-.848-.087-.35-.13-.78-.13-1.288 0-.514.043-.947.13-1.297.087-.35.202-.63.345-.843.144-.213.311-.365.503-.458.191-.093.392-.139.601-.139.21 0 .41.046.601.14.192.092.36.244.508.457.146.212.263.493.35.843.086.35.13.783.13 1.297 0 .509-.044.938-.13 1.288-.087.35-.204.633-.35.848-.147.216-.316.37-.508.462-.191.093-.391.14-.6.14z" mask="url(#a20cnluyfd)"/>
                                    <text fill="#B39C7D" font-family="SpoqaHanSans-Regular, SpoqaHanSans" font-size="5" letter-spacing="-.208" mask="url(#a20cnluyfd)">
                                        <tspan x="15" y="63">Balance</tspan>
                                    </text>
                                    <path fill="#B39C7D" fill-rule="nonzero" d="M38.643 63.632c.17 0 .33-.034.476-.101.147-.068.274-.172.381-.312.108-.14.193-.317.256-.53.063-.212.094-.465.094-.758s-.031-.547-.094-.76c-.063-.215-.148-.392-.256-.532-.107-.141-.234-.245-.381-.312-.147-.068-.305-.101-.476-.101-.17 0-.329.033-.475.1-.147.068-.275.172-.384.313-.11.14-.194.317-.256.531-.061.214-.092.468-.092.76 0 .294.03.547.092.76.062.212.147.388.256.529.11.14.237.244.384.312.146.067.305.1.475.1zm0-.332c-.104 0-.205-.024-.3-.07-.096-.046-.18-.123-.252-.231-.071-.108-.129-.25-.172-.424-.044-.175-.065-.39-.065-.644 0-.257.021-.473.065-.648.043-.175.1-.316.172-.422.072-.106.156-.183.252-.23.095-.045.196-.069.3-.069.105 0 .205.024.301.07.096.046.18.123.254.229.073.106.131.247.175.422.043.175.065.39.065.648 0 .254-.022.469-.065.644-.044.175-.102.316-.175.424-.074.108-.158.185-.254.231-.096.046-.196.07-.3.07z" mask="url(#a20cnluyfd)"/>
                                    <rect width="21.688" height="6.731" x="48" y="58" fill="#FCF5F0" mask="url(#a20cnluyfd)" rx="3.365"/>
                                    <text fill="#F39755" font-family="SpoqaHanSans-Bold, SpoqaHanSans" font-size="4" font-weight="bold" letter-spacing="-.167" mask="url(#a20cnluyfd)">
                                        <tspan x="52" y="62.516">Deposit</tspan>
                                    </text>
                                    <rect width="21.688" height="6.731" x="72.447" y="58.334" fill="#FCF5F0" mask="url(#a20cnluyfd)" rx="3.365"/>
                                    <text fill="#F39755" font-family="SpoqaHanSans-Bold, SpoqaHanSans" font-size="4" font-weight="bold" letter-spacing="-.167" mask="url(#a20cnluyfd)">
                                        <tspan x="78.351" y="63.516">Trade</tspan>
                                    </text>
                                    <path fill="#333" fill-rule="nonzero" d="M16.764 18.323c.327 0 .622-.047.886-.14.263-.095.487-.234.673-.42.185-.185.329-.417.43-.697.102-.279.153-.604.153-.975 0-.375-.05-.7-.152-.975s-.248-.504-.437-.685c-.19-.182-.419-.316-.688-.404-.27-.088-.574-.132-.913-.132h-1.214v4.428h1.262zm-.102-.712h-.275V14.6h.275c.208 0 .394.027.56.081.165.054.306.14.422.257.115.118.204.272.266.461.062.19.093.42.093.691 0 .271-.031.503-.093.694-.062.192-.15.348-.266.47-.116.121-.257.211-.422.269-.166.058-.352.087-.56.087zm4.494.796c.211 0 .417-.033.619-.1.201-.065.386-.156.553-.271l-.299-.539c-.12.076-.24.134-.362.174-.121.04-.252.06-.392.06-.25 0-.46-.071-.625-.213-.165-.142-.266-.35-.302-.625h2.064c.012-.04.022-.097.03-.17.008-.074.012-.151.012-.231 0-.231-.03-.445-.09-.64-.06-.196-.148-.365-.266-.509-.118-.143-.263-.255-.437-.335-.173-.08-.376-.12-.607-.12-.2 0-.393.041-.58.123-.188.082-.354.2-.5.353-.146.154-.262.34-.35.557-.088.217-.132.461-.132.733 0 .275.043.521.13.738.085.218.202.401.352.55.15.15.325.265.527.345.201.08.42.12.655.12zm.544-2.095h-1.364c.032-.243.118-.427.257-.553.14-.126.297-.188.473-.188.215 0 .375.066.479.2.103.134.155.314.155.541zm2.351 3.297v-1.017l-.023-.55c.127.115.26.205.4.269.14.064.284.096.431.096.184 0 .361-.041.533-.123.171-.082.323-.2.454-.353.132-.154.238-.343.317-.568.08-.226.12-.482.12-.77 0-.255-.03-.488-.09-.7-.06-.21-.146-.39-.26-.538-.114-.147-.251-.262-.413-.344-.161-.082-.346-.122-.553-.122-.18 0-.354.041-.524.125-.17.084-.324.186-.463.305h-.024l-.06-.347h-.718v4.637h.873zm.61-1.926c-.091 0-.189-.02-.292-.057-.104-.038-.21-.103-.318-.195V15.96c.116-.116.227-.203.332-.26.106-.059.217-.088.333-.088.23 0 .4.085.505.255.106.17.159.416.159.739 0 .367-.07.638-.207.813-.137.176-.308.264-.511.264zm3.77.724c.207 0 .409-.04.604-.12.196-.08.367-.195.515-.344.147-.15.266-.333.356-.55.09-.218.134-.464.134-.74 0-.279-.045-.528-.134-.747-.09-.22-.209-.404-.356-.554-.148-.15-.32-.264-.515-.344-.195-.08-.397-.12-.604-.12-.211 0-.414.04-.607.12-.194.08-.364.195-.512.344-.147.15-.266.334-.356.554-.09.219-.134.468-.134.748 0 .275.044.521.134.738.09.218.209.401.356.55.148.15.318.265.512.345.193.08.396.12.607.12zm0-.718c-.227 0-.403-.094-.527-.282-.123-.187-.185-.438-.185-.753 0-.32.062-.574.185-.763.124-.19.3-.284.527-.284.227 0 .403.094.526.284.124.19.186.443.186.763 0 .315-.062.566-.186.753-.123.188-.299.282-.526.282zm3.303.718c.219 0 .411-.028.577-.084.165-.056.304-.132.416-.228.111-.095.196-.207.254-.335.058-.127.087-.265.087-.412 0-.156-.028-.289-.084-.398-.056-.11-.129-.203-.218-.279-.09-.075-.19-.14-.3-.191-.11-.052-.22-.1-.332-.144l-.254-.092c-.082-.03-.154-.063-.218-.099-.064-.036-.115-.076-.153-.12-.038-.044-.057-.095-.057-.155 0-.096.036-.174.108-.234.072-.06.184-.09.335-.09.128 0 .25.028.368.081.118.054.236.123.356.207l.395-.533c-.14-.103-.303-.198-.49-.284-.188-.086-.406-.128-.653-.128-.187 0-.358.024-.511.074-.154.05-.285.121-.392.213-.108.091-.192.2-.252.326-.06.125-.09.264-.09.416 0 .14.029.26.084.365.056.103.128.194.216.272.088.078.185.143.293.197.108.054.215.101.323.14.088.037.174.07.257.103.084.031.159.067.225.107.066.04.118.083.158.129.04.046.06.1.06.164 0 .104-.039.189-.117.255-.077.065-.2.098-.368.098-.155 0-.306-.032-.451-.095-.146-.064-.294-.154-.446-.27l-.4.55c.167.14.364.254.591.342.228.088.455.132.683.132zm2.447-3.973c.151 0 .276-.045.373-.135.098-.09.147-.204.147-.344 0-.143-.049-.259-.147-.347-.097-.088-.222-.131-.373-.131-.152 0-.278.043-.377.131-.1.088-.15.204-.15.347 0 .14.05.254.15.344.1.09.225.135.377.135zm.43 3.889v-3.35h-.873v3.35h.873zm2.172.084c.148 0 .28-.013.395-.04.116-.025.22-.054.311-.086l-.143-.64c-.044.02-.096.037-.156.05-.06.015-.118.022-.174.022-.303 0-.454-.188-.454-.563v-1.484h.825v-.694h-.825v-.897h-.736l-.102.897-.514.042v.652h.472v1.484c0 .188.02.36.06.515.04.155.104.288.192.398.087.11.201.194.34.254.14.06.31.09.51.09z" mask="url(#a20cnluyfd)"/>
                                    <path fill="#DEE3EB" fill-rule="nonzero" d="M47.292 18.323l.485-2.19c.036-.175.069-.348.099-.518.03-.169.06-.338.092-.505h.024c.028.167.058.336.09.505.032.17.066.343.102.518l.496 2.19h1.101l.82-4.428h-.844l-.347 2.16-.099.7-.098.712h-.03c-.048-.24-.095-.477-.14-.715-.047-.237-.094-.47-.141-.697l-.515-2.16h-.754l-.514 2.16-.144.7c-.048.236-.094.473-.138.712h-.023c-.032-.24-.066-.475-.102-.709-.036-.233-.07-.467-.102-.703l-.353-2.16h-.903l.855 4.428h1.083zm4.344-3.89c.151 0 .276-.044.374-.134.097-.09.146-.204.146-.344 0-.143-.049-.259-.146-.347-.098-.088-.223-.131-.374-.131-.152 0-.277.043-.377.131-.1.088-.15.204-.15.347 0 .14.05.254.15.344.1.09.225.135.377.135zm.43 3.89v-3.35h-.873v3.35h.874zm2.172.084c.148 0 .28-.013.395-.04.116-.025.22-.054.311-.086l-.143-.64c-.044.02-.096.037-.156.05-.06.015-.117.022-.173.022-.303 0-.455-.188-.455-.563v-1.484h.826v-.694h-.826v-.897h-.736l-.102.897-.514.042v.652h.473v1.484c0 .188.02.36.06.515.04.155.103.288.19.398.089.11.202.194.342.254s.309.09.508.09zm2.16-.084v-2.304c.128-.123.242-.217.341-.28.1-.065.22-.097.36-.097.167 0 .287.052.361.156.074.104.11.285.11.544v1.98h.88v-2.087c0-.423-.081-.753-.245-.99-.163-.238-.427-.356-.79-.356-.227 0-.425.05-.595.15-.17.099-.322.213-.458.34l.036-.628v-1.203h-.873v4.775h.873zm4.134.084c.176 0 .343-.042.503-.126.16-.084.301-.186.425-.305h.018l.072.347h.712v-4.775h-.88v1.179l.036.527c-.12-.112-.243-.2-.371-.267-.128-.066-.287-.098-.479-.098-.18 0-.354.04-.523.122-.17.082-.32.199-.452.35-.132.152-.236.336-.314.554-.078.217-.117.463-.117.739 0 .275.032.52.096.735.064.216.156.4.275.55.12.152.265.268.434.348.17.08.358.12.565.12zm.228-.724c-.224 0-.395-.086-.515-.258-.12-.171-.18-.432-.18-.783 0-.168.02-.316.058-.443.037-.128.087-.236.15-.323.061-.088.134-.154.218-.198.083-.044.173-.066.269-.066.103 0 .207.02.31.057.105.038.208.103.312.195v1.472c-.096.127-.194.217-.296.269-.102.052-.21.078-.326.078zm3.32.64v-1.999c.096-.243.216-.413.36-.511.143-.098.28-.147.412-.147.068 0 .129.004.183.012.053.008.108.022.164.042l.156-.76c-.052-.02-.108-.037-.168-.05-.06-.014-.135-.021-.227-.021-.176 0-.347.057-.515.173-.167.116-.313.283-.436.503h-.024l-.06-.593h-.718v3.35h.873zm2.376.06c.191 0 .371-.036.541-.108.17-.072.326-.17.47-.293h.018l.065.34h.718v-1.956c0-.486-.107-.854-.323-1.104-.215-.249-.536-.373-.963-.373-.263 0-.515.037-.757.113-.241.076-.454.17-.637.281l.263.629c.152-.1.312-.178.482-.234.17-.056.332-.083.488-.083.255 0 .417.052.487.158.07.106.097.246.08.422-.693.02-1.193.129-1.498.326-.305.197-.448.502-.428.912 0 .144.024.276.072.395.048.12.115.223.2.308.086.086.19.152.312.198.121.046.258.069.41.069zm.269-.67c-.128 0-.235-.04-.32-.12-.086-.08-.13-.19-.135-.33-.004-.119.033-.223.11-.31.079-.088.213-.146.405-.174.191-.028.392-.05.604-.066v.676c-.104.104-.209.183-.314.237-.106.054-.223.083-.35.087zm4.002.61l.341-1.46c.036-.156.068-.312.096-.47l.09-.505h.03c.032.18.063.347.093.502.03.156.062.313.098.473l.353 1.46h1.035l.826-3.35h-.814l-.365 1.657c-.032.163-.06.325-.083.484-.024.16-.052.323-.084.49h-.03c-.036-.167-.07-.33-.102-.49-.032-.16-.068-.32-.108-.484l-.418-1.658H70.9L70.5 16.63c-.044.16-.082.32-.114.481l-.095.494h-.024c-.032-.168-.06-.331-.084-.49-.024-.16-.052-.322-.084-.485l-.365-1.658h-.88l.868 3.35h1.005z" mask="url(#a20cnluyfd)"/>
                                    <path fill="#FF9632" d="M14.957 21.688H37.393V22.81H14.957z" mask="url(#a20cnluyfd)"/>
                                    <path fill="#DEE3EB" fill-rule="nonzero" d="M215.76 22.436c.62 0 1.122.502 1.122 1.122v6.73c0 .62-.503 1.122-1.122 1.122h-94.98c-.619 0-1.121-.502-1.121-1.121v-6.731c0-.62.502-1.122 1.122-1.122h94.979zm0 .374h-94.98c-.394 0-.717.305-.745.692l-.002.056v6.73c0 .395.305.718.692.746l.056.003h94.979c.394 0 .717-.306.746-.693l.002-.055v-6.731c0-.394-.305-.717-.692-.746l-.056-.002z" mask="url(#a20cnluyfd)"/>
                                    <path fill="#B39C7D" d="M190.958 22.436h25.924v8.974h-25.924c-.552 0-1-.447-1-1v-6.974c0-.552.448-1 1-1z" mask="url(#a20cnluyfd)" transform="matrix(-1 0 0 1 406.84 0)"/>
                                    <path fill="#FFF" fill-rule="nonzero" d="M198.51 28.793v-.933l.435-.557.857 1.49h.731l-1.193-2.015 1.014-1.306h-.732l-1.099 1.44h-.013v-1.44h-.665v3.32h.665zm2.773 0l.354-.736c.042-.087.082-.174.121-.262.04-.089.08-.184.121-.285h.018c.051.101.097.196.137.285.04.088.082.175.124.262l.372.736h.736l-.933-1.683.875-1.638h-.7l-.314.682c-.036.078-.071.159-.106.243l-.114.282h-.023c-.05-.104-.095-.198-.132-.282-.038-.084-.076-.165-.115-.243l-.332-.682h-.735l.875 1.607-.934 1.714h.705zm3.118 0v-1.257h.462l.683 1.257h.74l-.776-1.36c.191-.074.344-.19.46-.345.115-.156.172-.36.172-.61 0-.192-.032-.352-.096-.48-.064-.13-.153-.232-.265-.31-.112-.078-.244-.133-.397-.166-.153-.033-.316-.05-.49-.05h-1.157v3.32h.664zm.431-1.782h-.43v-1.014h.43c.215 0 .38.036.491.106.113.07.169.195.169.375 0 .179-.056.313-.169.401-.112.088-.276.132-.491.132zm2.63 1.782v-1.18h.444c.18 0 .347-.022.502-.065.156-.044.291-.11.406-.2.116-.09.207-.204.274-.343.067-.14.101-.303.101-.492 0-.197-.034-.362-.1-.495-.068-.134-.16-.24-.277-.321-.116-.081-.254-.139-.413-.173-.158-.034-.329-.052-.511-.052h-1.09v3.32h.664zm.399-1.705h-.4v-1.09h.377c.23 0 .405.037.523.112.118.074.177.209.177.403 0 .383-.225.575-.677.575z" mask="url(#a20cnluyfd)"/>
                                    <path fill="#6F6558" fill-rule="nonzero" d="M171.586 28.419v-.933l.436-.557.857 1.49h.731l-1.194-2.015 1.015-1.306h-.732l-1.1 1.44h-.013v-1.44h-.664v3.321h.664zm4.501 0v-.556h-1.422v-.889h1.166v-.556h-1.166v-.768h1.373v-.552H174v3.321h2.087zm1.997 0V25.65h.942v-.552h-2.54v.552h.934v2.769h.664zm2.145 0v-1.436h1.256v1.436h.66v-3.32h-.66v1.305h-1.256v-1.306h-.664v3.321h.664zM128.21 28.419v-.933l.435-.557.857 1.49h.732l-1.194-2.015 1.014-1.306h-.731l-1.1 1.44h-.013v-1.44h-.664v3.321h.664zm2.773 0l.355-.736c.085-.175.157-.345.242-.547h.018c.103.202.175.372.26.547l.373.736h.735l-.933-1.683.875-1.638h-.7l-.314.683c-.072.157-.135.314-.22.525h-.022c-.104-.211-.17-.368-.247-.525l-.332-.683h-.736l.875 1.607-.933 1.714h.704zm3.119 0v-1.256h.462l.682 1.256h.74l-.776-1.36c.381-.148.633-.448.633-.955 0-.768-.548-1.006-1.248-1.006h-1.157v3.321h.664zm.43-1.781h-.43v-1.015h.43c.431 0 .66.122.66.48 0 .36-.229.535-.66.535zm2.63 1.781v-1.18h.444c.714 0 1.284-.341 1.284-1.1 0-.79-.57-1.04-1.302-1.04h-1.09v3.32h.664zm.4-1.705h-.4v-1.09h.377c.462 0 .7.125.7.515 0 .382-.224.575-.678.575zm4.105 1.216v-.956h.907v-.467h-.907v-.955h-.489v.955h-.906v.467h.906v.956h.49zm3.168.489v-.933l.435-.557.857 1.49h.732l-1.194-2.015 1.014-1.306h-.731l-1.1 1.44h-.013v-1.44h-.664v3.321h.664zm4.5 0v-.556h-1.422v-.889h1.167v-.556h-1.167v-.768h1.373v-.552h-2.037v3.321h2.087zm1.998 0V25.65h.942v-.552h-2.54v.552h.933v2.769h.665zm2.144 0v-1.436h1.257v1.436h.66v-3.32h-.66v1.305h-1.257v-1.306h-.664v3.321h.664z" mask="url(#a20cnluyfd)"/>
                                    <path fill="#DEE3EB" d="M162.661 22.436H163.661V31.41H162.661z" mask="url(#a20cnluyfd)"/>
                                    <g mask="url(#a20cnluyfd)">
                                        <use fill="#000" filter="url(#vu32oazs8e)" xlink:href="#29uf6dpxof"/>
                                        <use fill="#23292F" xlink:href="#29uf6dpxof"/>
                                    </g>
                                    <path fill="#FFF" fill-rule="nonzero" d="M213.014 45.62h.865l-1.8 1.829c-.652.662-1.708.662-2.36 0l-1.8-1.83h.865l1.367 1.39c.414.42 1.08.42 1.495 0l1.368-1.39zM208.773 50.705h-.866l1.812-1.84c.651-.662 1.708-.662 2.36 0l1.811 1.84h-.864l-1.38-1.4c-.414-.42-1.08-.42-1.494 0l-1.38 1.4zM254.076 105.45c.532 0 1.011-.077 1.44-.23.427-.151.791-.378 1.093-.68.301-.301.535-.679.7-1.132.165-.454.248-.982.248-1.585 0-.61-.083-1.138-.248-1.585-.165-.447-.402-.818-.71-1.113-.308-.295-.68-.514-1.118-.656-.437-.143-.932-.214-1.483-.214h-1.973v7.194h2.051zm-.165-1.158h-.447v-4.89h.447c.337 0 .64.044.909.131.269.088.497.227.685.418.188.192.333.441.433.749.1.308.15.682.15 1.123 0 .44-.05.817-.15 1.128-.1.31-.245.565-.433.763-.188.198-.416.343-.685.437-.27.094-.572.141-.91.141zm7.301 1.293c.344 0 .68-.053 1.007-.16.327-.107.627-.254.899-.442l-.486-.875c-.195.123-.39.217-.588.282-.198.064-.41.097-.637.097-.409 0-.747-.115-1.016-.345-.27-.23-.433-.569-.491-1.016h3.354c.02-.065.036-.157.049-.277.013-.12.02-.245.02-.375 0-.376-.05-.722-.147-1.04-.097-.318-.241-.593-.432-.826-.192-.234-.428-.415-.71-.545-.282-.13-.611-.194-.987-.194-.324 0-.638.066-.943.2-.305.132-.575.323-.812.573-.236.25-.426.55-.569.904-.142.353-.213.75-.213 1.19 0 .448.07.848.209 1.202.139.353.33.651.573.894.243.243.528.43.856.559.327.13.682.194 1.064.194zm.885-3.402h-2.217c.052-.396.192-.695.418-.9.227-.204.483-.306.768-.306.35 0 .61.109.778.326.169.217.253.51.253.88zm3.82 5.357v-1.653l-.038-.895c.207.188.425.334.651.438.227.104.46.155.7.155.299 0 .587-.066.866-.199.278-.133.525-.324.739-.573.213-.25.385-.558.515-.924s.194-.783.194-1.25c0-.414-.048-.793-.146-1.137-.097-.343-.238-.635-.422-.875-.185-.24-.409-.426-.671-.559-.263-.133-.563-.2-.9-.2-.291 0-.575.069-.85.205-.276.136-.527.301-.754.496h-.039l-.097-.564h-1.167v7.535h1.42zm.993-3.13c-.15 0-.308-.032-.477-.093-.168-.062-.34-.167-.515-.316v-2.392c.188-.188.368-.329.54-.423.171-.094.351-.14.54-.14.375 0 .649.137.82.412.172.276.258.676.258 1.201 0 .596-.112 1.037-.335 1.322-.224.285-.5.428-.831.428zm6.125 1.175c.337 0 .664-.064.982-.194.317-.13.596-.316.836-.559.24-.243.432-.541.578-.894.146-.354.219-.754.219-1.201 0-.454-.073-.859-.219-1.215-.146-.357-.339-.657-.578-.9-.24-.243-.519-.43-.836-.559-.318-.13-.645-.194-.982-.194-.344 0-.673.065-.987.194-.315.13-.592.316-.831.56-.24.242-.433.542-.579.899-.146.356-.219.761-.219 1.215 0 .447.073.847.22 1.2.145.354.338.652.578.895.24.243.516.43.83.559.315.13.644.194.988.194zm0-1.166c-.37 0-.655-.153-.856-.457-.2-.305-.301-.713-.301-1.225 0-.519.1-.932.301-1.24.201-.308.486-.462.856-.462s.654.154.855.462c.201.308.302.721.302 1.24 0 .512-.1.92-.302 1.225-.2.304-.486.457-.855.457zm5.366 1.166c.357 0 .67-.045.939-.136.268-.09.494-.214.675-.37.182-.155.32-.336.413-.544.094-.207.141-.43.141-.67 0-.253-.045-.469-.136-.647-.09-.178-.209-.329-.355-.452-.145-.123-.307-.227-.486-.311-.178-.084-.358-.162-.54-.233l-.412-.151c-.133-.049-.252-.102-.355-.16-.104-.059-.187-.124-.248-.195-.062-.071-.093-.156-.093-.253 0-.155.059-.282.175-.379.117-.097.299-.146.545-.146.207 0 .407.044.598.131.19.088.384.2.578.336l.642-.865c-.227-.169-.493-.323-.797-.462-.305-.14-.658-.21-1.06-.21-.305 0-.582.041-.831.122-.25.081-.462.196-.637.345-.175.15-.311.326-.408.53-.098.204-.146.43-.146.676 0 .227.045.425.136.593.09.169.207.316.35.442.142.127.301.234.476.321.175.088.35.164.525.229.143.058.282.113.418.165.136.052.258.11.365.175.107.065.193.135.257.21.065.074.098.163.098.266 0 .169-.063.307-.19.414-.126.107-.326.16-.598.16-.253 0-.497-.052-.734-.156-.236-.103-.478-.25-.724-.437l-.652.894c.273.227.594.412.963.555.37.142.739.213 1.108.213zm3.977-6.455c.246 0 .449-.073.607-.219.16-.146.239-.332.239-.559 0-.233-.08-.421-.239-.564-.158-.142-.361-.214-.607-.214-.247 0-.45.072-.613.214-.162.143-.243.33-.243.564 0 .227.081.413.243.56.162.145.366.218.613.218zm.7 6.32v-5.445h-1.42v5.444h1.42zm3.529.135c.24 0 .454-.02.642-.063.188-.042.356-.089.505-.14l-.233-1.041c-.071.032-.156.06-.253.083-.097.022-.191.034-.282.034-.493 0-.739-.305-.739-.914v-2.411h1.342v-1.128h-1.342v-1.458h-1.196l-.165 1.458-.836.068v1.06h.768v2.41c0 .305.032.584.097.837s.169.468.311.646c.143.179.328.316.555.414.226.097.502.145.826.145z" mask="url(#a20cnluyfd)"/>
                                </g>
                            </g>
                        </g>
                    </g>
                </g>
            </g>
        </g>
    </g>
</svg>
