<svg xmlns="http://www.w3.org/2000/svg" xmlns:xlink="http://www.w3.org/1999/xlink" width="244" height="182" viewBox="0 0 244 182">
    <defs>
        <filter id="czpzxwdaja" width="110.9%" height="110.9%" x="-5.5%" y="-3.9%" filterUnits="objectBoundingBox">
            <feOffset dy="2" in="SourceAlpha" result="shadowOffsetOuter1"/>
            <feGaussianBlur in="shadowOffsetOuter1" result="shadowBlurOuter1" stdDeviation="2"/>
            <feColorMatrix in="shadowBlurOuter1" values="0 0 0 0 0 0 0 0 0 0 0 0 0 0 0 0 0 0 0.5 0"/>
        </filter>
        <filter id="wrjvu1p05d" width="109.4%" height="109.4%" x="-4.7%" y="-3.1%" filterUnits="objectBoundingBox">
            <feOffset dx="-4" dy="-4" in="SourceAlpha" result="shadowOffsetInner1"/>
            <feComposite in="shadowOffsetInner1" in2="SourceAlpha" k2="-1" k3="1" operator="arithmetic" result="shadowInnerInner1"/>
            <feColorMatrix in="shadowInnerInner1" values="0 0 0 0 1 0 0 0 0 1 0 0 0 0 1 0 0 0 0.3 0"/>
        </filter>
        <filter id="zo0freujpg" width="101.8%" height="101.8%" x="-.9%" y="-.9%" filterUnits="objectBoundingBox">
            <feOffset dx="2" dy="-2" in="SourceAlpha" result="shadowOffsetInner1"/>
            <feComposite in="shadowOffsetInner1" in2="SourceAlpha" k2="-1" k3="1" operator="arithmetic" result="shadowInnerInner1"/>
            <feColorMatrix in="shadowInnerInner1" values="0 0 0 0 1 0 0 0 0 1 0 0 0 0 1 0 0 0 1 0"/>
        </filter>
        <filter id="fcu5s2idzh" width="113.8%" height="112.6%" x="-6.9%" y="-3.1%" filterUnits="objectBoundingBox">
            <feOffset dy="2" in="SourceAlpha" result="shadowOffsetOuter1"/>
            <feGaussianBlur in="shadowOffsetOuter1" result="shadowBlurOuter1" stdDeviation="1"/>
            <feComposite in="shadowBlurOuter1" in2="SourceAlpha" operator="out" result="shadowBlurOuter1"/>
            <feColorMatrix in="shadowBlurOuter1" values="0 0 0 0 0 0 0 0 0 0 0 0 0 0 0 0 0 0 0.5 0"/>
        </filter>
        <filter id="rcx3xxowlk" width="115.9%" height="114.4%" x="-7.9%" y="-3.6%" filterUnits="objectBoundingBox">
            <feOffset dy="2" in="SourceAlpha" result="shadowOffsetOuter1"/>
            <feGaussianBlur in="shadowOffsetOuter1" result="shadowBlurOuter1" stdDeviation="1"/>
            <feComposite in="shadowBlurOuter1" in2="SourceAlpha" operator="out" result="shadowBlurOuter1"/>
            <feColorMatrix in="shadowBlurOuter1" values="0 0 0 0 0 0 0 0 0 0 0 0 0 0 0 0 0 0 0.5 0"/>
        </filter>
        <linearGradient id="40n7c8yc8c" x1="61.325%" x2="20.191%" y1="94.538%" y2="12.133%">
            <stop offset="0%" stop-color="#1F2226"/>
            <stop offset="99.942%"/>
        </linearGradient>
        <linearGradient id="ef7onwbuye" x1="23.816%" x2="76.184%" y1="85.355%" y2="14.645%">
            <stop offset="0%" stop-color="#FFF" stop-opacity=".3"/>
            <stop offset="100%" stop-color="#FFF" stop-opacity=".05"/>
        </linearGradient>
        <linearGradient id="5s0btz1iqj" x1="10.725%" x2="91.343%" y1="-20.474%" y2="58.627%">
            <stop offset="0%" stop-color="#1F2226"/>
            <stop offset="100%" stop-color="#FFF"/>
        </linearGradient>
        <linearGradient id="c4u3f9xlcm" x1="11.206%" x2="90.837%" y1="-20.474%" y2="58.627%">
            <stop offset="0%" stop-color="#1F2226"/>
            <stop offset="100%" stop-color="#FFF"/>
        </linearGradient>
        <path id="skquxwzhib" d="M216.16 152.11c27.526-27.585 31.85-67.975 9.656-90.215-22.192-22.24-62.497-17.907-90.023 9.677-27.525 27.584-31.849 67.975-9.656 90.214 22.193 22.24 62.497 17.908 90.023-9.677z"/>
        <path id="yr391rj26f" d="M89.38 22.62c24.805 24.858 29.958 59.996 11.51 78.484-18.449 18.488-53.513 13.324-78.317-11.533-24.805-24.858-29.958-59.996-11.51-78.484C29.514-7.4 64.577-2.237 89.382 22.621z"/>
        <path id="mt7ru14cti" d="M23.749 34.294c4.002 0 7.713 1.549 11.134 4.647l23.192 24.803-11.313-1.865-15.647-17.67c-2.091-2.165-4.435-3.368-7.032-3.61-2.87-.165-5.285.927-7.245 3.276L6.452 55.148.35 54.147l13.976-16c2.63-2.569 5.772-3.853 9.424-3.853zM58.01.192L34.82 24.995c-3.421 3.098-7.133 4.647-11.135 4.647-3.652 0-6.793-1.284-9.423-3.853l-13.977-16 6.104-1L16.774 20.06c1.96 2.349 4.376 3.441 7.246 3.277 2.597-.242 4.94-1.446 7.032-3.61l15.647-17.67L58.01.191z"/>
        <path id="w9ctlkb2ql" d="M20.495 30.158c3.489 0 6.724 1.36 9.707 4.077L50.42 55.99l-9.862-1.636-13.64-15.5c-1.824-1.899-3.867-2.954-6.131-3.167-2.502-.144-4.608.814-6.316 2.875L5.417 48.45l-5.321-.878L12.28 33.538c2.293-2.253 5.032-3.38 8.215-3.38zM50.365.246L30.146 22.002c-2.983 2.717-6.218 4.076-9.707 4.076-3.184 0-5.922-1.127-8.215-3.38L.04 8.664l5.32-.878 9.054 9.888c1.71 2.06 3.815 3.018 6.317 2.874 2.263-.212 4.307-1.268 6.13-3.166l13.64-15.5L50.365.246z"/>
    </defs>
    <g fill="none" fill-rule="evenodd">
        <g>
            <g>
                <g transform="translate(-68 -332) translate(68 332)">
                    <use fill="#000" filter="url(#czpzxwdaja)" xlink:href="#skquxwzhib"/>
                    <use fill="url(#40n7c8yc8c)" xlink:href="#skquxwzhib"/>
                    <use fill="#000" filter="url(#wrjvu1p05d)" xlink:href="#skquxwzhib"/>
                </g>
                <g transform="translate(-68 -332) translate(68 332)">
                    <use fill="url(#ef7onwbuye)" xlink:href="#yr391rj26f"/>
                    <use fill="#000" filter="url(#zo0freujpg)" xlink:href="#yr391rj26f"/>
                </g>
                <g>
                    <g transform="translate(-68 -332) translate(68 332) rotate(15 -194.42 605.605)">
                        <use fill="#000" filter="url(#fcu5s2idzh)" xlink:href="#mt7ru14cti"/>
                        <use fill="url(#5s0btz1iqj)" xlink:href="#mt7ru14cti"/>
                    </g>
                </g>
                <g>
                    <g transform="translate(-68 -332) translate(68 332) scale(-1 1) rotate(30 -62.24 -114.357)">
                        <use fill="#000" filter="url(#rcx3xxowlk)" xlink:href="#w9ctlkb2ql"/>
                        <use fill="url(#c4u3f9xlcm)" xlink:href="#w9ctlkb2ql"/>
                    </g>
                </g>
            </g>
        </g>
    </g>
</svg>
