<svg xmlns="http://www.w3.org/2000/svg" width="32" height="32" viewBox="0 0 32 32">
    <g fill="none" fill-rule="evenodd">
        <g fill="#B39C7D" fill-rule="nonzero">
            <g>
                <g>
                    <path d="M13.339 19.255l-.272 4.078c.4 0 .576-.183.8-.4l1.921-1.868 3.999 2.954c.735.406 1.267.195 1.45-.684l2.624-12.368c.27-1.077-.41-1.566-1.114-1.246L7.335 15.663c-1.052.422-1.046 1.01-.192 1.27l3.955 1.235 9.157-5.776c.432-.263.829-.122.503.167l-7.42 6.696zM16 32C7.163 32 0 24.837 0 16S7.163 0 16 0s16 7.163 16 16-7.163 16-16 16z" transform="translate(-1308.000000, -1414.000000) translate(0.000000, 1380.000000) translate(1308.000000, 34.000000)"/>
                </g>
            </g>
        </g>
    </g>
</svg>
