<svg xmlns="http://www.w3.org/2000/svg" width="26" height="24" viewBox="0 0 26 24">
    <g fill="none" fill-rule="evenodd">
        <g fill-rule="nonzero">
            <g>
                <g>
                    <path fill="#29AEFF" d="M10.878 7.252h-.73V2.035H.522c-.183 0-.34.156-.34.339V9.73c0 .183.157.34.34.34H4.2v13.382c0 .183.157.34.34.34h6.025c.183 0 .34-.157.34-.34v-16.2h-.027z" transform="translate(-383.000000, -2220.000000) translate(383.000000, 2220.000000) translate(0.000000, 0.000000)"/>
                    <path fill="#2761E7" d="M17.27.052H8.583c-.183 0-.34.157-.34.34V21.47c0 .182.157.339.34.339h6.026c.182 0 .339-.157.339-.34v-5.347h2.322c4.434 0 8.034-3.6 8.034-8.035 0-4.435-3.6-8.035-8.034-8.035z" transform="translate(-383.000000, -2220.000000) translate(383.000000, 2220.000000) translate(0.000000, 0.000000)"/>
                </g>
            </g>
        </g>
    </g>
</svg>
