<svg xmlns="http://www.w3.org/2000/svg" width="1241" height="579" viewBox="0 0 1241 579">
    <defs>
        <linearGradient id="dpxgchipia" x1="50%" x2="50%" y1="60.778%" y2="100%">
            <stop offset="0%" stop-color="#FF9632" stop-opacity=".1"/>
            <stop offset="100%" stop-color="#FFC761" stop-opacity="0"/>
        </linearGradient>
        <linearGradient id="61rivhx6xb" x1="100%" x2="0%" y1="39.398%" y2="60.602%">
            <stop offset="0%" stop-color="#E66D16"/>
            <stop offset="100%" stop-color="#E66D16" stop-opacity="0"/>
        </linearGradient>
    </defs>
    <g fill="none" fill-rule="evenodd">
        <g>
            <g>
                <path fill="url(#dpxgchipia)" d="M0 570.857c66.359-53.573 118.456-80.36 156.29-80.36 18.59 0 50.678 13.31 86.472 4.115 25.334-6.508 53.99-36.318 74.541-36.824 39.055-.962 48.034 30.447 78.285 17.796 16.958-7.092 8.521-44.843 47.629-44.843 23.335 0 28.205-60.484 63.46-48.672 35.256 11.812 40.327-37.968 66.24-37.968 25.913 0 28.766 63.45 60.178 49.78 25.098-10.923 41.7-100.527 75.529-105.97 23.841-3.836 37.452 18.734 64.332 16.612 53.616-4.231 99.428-51.095 133.782-77.72 63.643-49.325 69.222-135.648 96.296-161.692 19.001-18.28 42.788 56.91 64.133 50.086 20.014-6.399 56.93-50.086 77.768-64.095C1192.398 65.111 1192.398 0 1240 1v580L0 570.857z" transform="translate(-199 -220) translate(200 219)"/>
                <path stroke="url(#61rivhx6xb)" stroke-width="5" d="M0 574.99c66.359-53.545 118.456-80.317 156.29-80.317 21.985 0 54.04 9.407 86.472 0 24.764-7.183 48.755-33.265 74.541-35.84 27.618-2.76 56.837 27.06 78.589 17.969 13.725-5.737 22.965-47.89 47.325-46.92 24.36.97 35.934-46.253 51.373-47.666 15.438-1.413 16.07 8.95 35.256 0 13.885-6.477 19.838-28.137 39.737-38.94 19.9-10.803 44.38 64.572 66.03 53.77 28.03-13.987 28.03-111.123 75.562-111.123 31.234 0 36.624 23.873 54.907 19.808 65.54-14.573 80.179-75.747 108.024-88.642 23.688-10.97 41.623-13.567 72.779-32.22 17.589-10.53 27.161-119.37 66.24-119.37 25.413 0 21.919 51.55 54.042 50.049 32.124-1.501 59.117-64.046 77.768-64.046 18.651 0 16.526 7.662 32.926 0 16.517-7.715 16.517-52.362 62.139-47.06" transform="translate(-199 -220) translate(200 219)"/>
            </g>
        </g>
    </g>
</svg>
