<svg xmlns="http://www.w3.org/2000/svg" width="194" height="19" viewBox="0 0 194 19">
    <g fill="none" fill-rule="evenodd" opacity=".6">
        <g fill="#FFF">
            <g>
                <g>
                    <path d="M3.445 -0.689L4.135 -0.688 4.137 8.964 3.448 8.964z" transform="translate(-200 -170) translate(200 170) translate(109.928 5.517) rotate(45 3.791 4.138)"/>
                    <path d="M3.448 -0.688L4.137 -0.689 4.135 8.964 3.445 8.964z" transform="translate(-200 -170) translate(200 170) translate(109.928 5.517) rotate(135 3.791 4.138)"/>
                </g>
                <g fill-rule="nonzero">
                    <g>
                        <path d="M9.788 9.241l6.342 6.414c1.625-1.736 2.514-4.035 2.481-6.414-.012-2.37-.895-4.653-2.481-6.413L9.788 9.24zM9.306 9.724L3.033 16 9.306 18.621 15.578 16zM9.099 9.034L15.578 2.483 9.581 0 3.653 14.552zM0 9.241c0 2.352.885 4.618 2.481 6.345L8.754.414 0 9.24z" transform="translate(-200 -170) translate(200 170) translate(131.296)"/>
                    </g>
                    <g>
                        <path d="M35.085 3.31c-.928-.035-1.801.442-2.274 1.242V3.448H31.57v7.31h1.24V6c.11-.964.964-1.667 1.93-1.586 1.241 0 1.93.758 1.93 2.138v4.207h1.242V6.345c0-1.862-1.103-3.035-2.827-3.035zM28.4 1.034h-1.242v1.449c.007.258-.093.507-.275.69-.183.182-.432.282-.69.275h-1.378L22.54 9.034l-2.343-5.586h-1.241l2.964 7.173-.758 1.862h-1.655v1.103h1.24c.724 0 1.377-.435 1.655-1.103l3.24-7.862h1.516v4.345c-.044.482.118.96.447 1.315s.793.554 1.277.547h1.723V9.655h-2.137V4.552h2.137V3.448h-2.137V1.034H28.4zM18.129 6c0-1.655-1.172-2.62-3.033-2.62-1.616-.053-2.998 1.15-3.171 2.758h1.24c.115-.98.944-1.72 1.93-1.724.478-.055.956.107 1.302.44.347.334.527.804.49 1.284v.483h-1.722c-2.413 0-3.447.758-3.447 2.069 0 1.379 1.034 2.207 2.757 2.207 1.31 0 2.137-.483 2.482-1.31.069.689.482 1.172 1.447 1.172h.827V9.655H18.13V6zm-1.241 2.62c0 .76-.896 1.311-2.206 1.311-1.034 0-1.654-.414-1.654-1.103v-.276c0-.69.69-1.104 2.137-1.104h1.723v1.173zM9.788.483h-1.24v8.414c-.045.482.117.96.446 1.315.328.356.793.554 1.277.547h.62V9.655H9.788V.483zM.069.483L1.31.483 1.31 10.759.069 10.759zM7.72.483H6.204l-3.86 3.862c-.366.377-.395.967-.07 1.38l3.999 5.034h1.585l-4.55-5.793L7.72.483z" transform="translate(-200 -170) translate(200 170) translate(131.296) translate(24.126 4.138)"/>
                    </g>
                </g>
                <g fill-rule="nonzero">
                    <path d="M35.68 10.694V6.39h1.278l2.417 4.305h2.014L38.43 5.556v-.028L41.222.833h-1.944l-2.32 4.014h-1.277V.833h-1.792v9.861h1.792zm12.672 0V9.153h-4.264V.833h-1.792v9.861h6.056zm2.65 0l.834-2.527h3.458l.833 2.527h1.848L54.502.834h-1.875l-3.472 9.86h1.847zm3.848-3.986h-2.584l.875-2.639c.195-.555.417-1.527.417-1.527h.028s.208.972.389 1.527l.875 2.64zm6.44 3.986V6.57L64.566.833H62.54l-1.527 2.903c-.32.611-.598 1.32-.598 1.32h-.027c-.014.013-.278-.709-.598-1.32L58.248.833H56.22l3.278 5.736v4.125h1.791zm5.282.167c1.68 0 2.708-.944 2.708-2.125 0-2.278-3.444-2.153-3.444-3.153 0-.444.444-.639.902-.639 1.084 0 1.737.612 1.737.612l.652-1.306s-.777-.806-2.375-.806c-1.527 0-2.708.764-2.708 2.084 0 2.278 3.444 2.139 3.444 3.194 0 .417-.43.64-.93.64-1.153 0-1.93-.779-1.93-.779l-.806 1.236s.986 1.042 2.75 1.042zm7.139-.167l1.194-4.041c.111-.375.167-.764.167-.764h.028s.069.389.18.764l1.195 4.041h1.958l2.153-7.083h-1.834l-1.236 4.653c-.097.375-.153.75-.153.75h-.027s-.056-.375-.153-.75l-1.306-4.639h-1.57l-1.305 4.639c-.097.375-.166.75-.166.75h-.028s-.042-.375-.139-.75L71.433 3.61h-1.861l2.166 7.083h1.973zm9.531.167c1.611 0 2.167-1.25 2.153-1.25h.028s-.028.222-.028.5v.583h1.625v-4.43c0-1.792-1.083-2.82-2.944-2.82-1.681 0-2.778.875-2.778.875l.666 1.264s.931-.68 1.945-.68c.778 0 1.361.32 1.361 1.25v.097h-.236c-1.153 0-4.195.153-4.195 2.403 0 1.416 1.14 2.208 2.403 2.208zm.445-1.375c-.723 0-1.07-.444-1.07-.917 0-.986 1.459-1.11 2.361-1.11h.306v.166c0 .861-.667 1.861-1.597 1.861zm6.615 3.986V10.5c0-.361-.028-.611-.028-.611h.028s.625.972 2.027.972c1.861 0 3.236-1.458 3.236-3.708 0-2.195-1.222-3.709-3.138-3.709-1.667 0-2.278 1.167-2.278 1.167h-.028s.028-.222.028-.486v-.514h-1.611v9.861h1.764zm1.708-4.097c-1.167 0-1.764-1.083-1.764-2.18 0-1.57.861-2.237 1.778-2.237 1.041 0 1.764.875 1.764 2.223 0 1.402-.806 2.194-1.778 2.194z" transform="translate(-200 -170) translate(200 170) translate(0 4.31)"/>
                    <g>
                        <path d="M5.667 8L11.1 13.444 30 13.444 10.778 2.833zM5.278 8.389L.222 13.444 10.333 13.444zM5.111 7.833L10.333 2.556 5.667 0 .722 12.278z" transform="translate(-200 -170) translate(200 170) translate(0 4.31) translate(0 .07)"/>
                    </g>
                </g>
            </g>
        </g>
    </g>
</svg>
